<mxfile host="Electron" modified="2024-10-12T05:17:31.010Z" agent="Mozilla/5.0 (Windows NT 10.0; Win64; x64) AppleWebKit/537.36 (KHTML, like Gecko) draw.io/22.1.16 Chrome/120.0.6099.109 Electron/28.1.0 Safari/537.36" etag="UOvYOZEEaNYdiT8m1wbF" version="22.1.16" type="device">
  <diagram id="ALhTmQk-kt430D64ru8l" name="Page-1">
    <mxGraphModel dx="2760" dy="1130" grid="1" gridSize="10" guides="1" tooltips="1" connect="1" arrows="1" fold="1" page="1" pageScale="1" pageWidth="850" pageHeight="1100" math="1" shadow="0">
      <root>
        <mxCell id="0" />
        <mxCell id="1" parent="0" />
        <mxCell id="uaC2PHWClK9KAIYIgDp3-7" value="" style="shape=image;verticalLabelPosition=bottom;labelBackgroundColor=default;verticalAlign=top;aspect=fixed;imageAspect=0;image=data:image/png,iVBORw0KGgoAAAANSUhEUgAAAlUAAAJTCAYAAAAhX+OvAAAAAXNSR0IArs4c6QAAAARnQU1BAACxjwv8YQUAAAAJcEhZcwAAEnQAABJ0Ad5mH3gAAGI6SURBVHhe7b0JvCVlfeeNkzhjombyvnmdGDMJmSyTjJlonHdMTDTqKIoLGhRZImILAiLIDoIg2Ai07NjsjcjWgtAtqzR7C41sNrQ0a9ssTUPT7LvApZumn6nfYz035577P+tzT53z1PP9fj7fT9+up06duvU/51+/W1WnzjoAAAAAAAAAAAAAAAAAAAAAAAAAAAAAAAAAAAAAAAAAAAAAAAAAAAAAAAAAAAAAAAAAAAAAAAAAAAAAAAAAAAAAAAAAAAAAAAAAAAAAAAAAAAAAAAAAAAAAAAAAAAAAAAAAAAAAAAAAAAAAAAAAAAAAAAAAAAAAAAAAAAAAAACQJa+/vtadfcHV7sQzL3Jr1qxx5WSAkWT+zxe5A4483Y2NreK1CgDpsPju+903DzzJPfPsCzSvmvH8Cy/5HdMV1y70tb32xsXuIxvv6u5eupxal2gbffvQU9wNt9zltwk78+Hw6qrVPvD/8MeXurVr1/rXqF6res2Wswwc/bGh14PkDw+AHnlg+Uq33ia7uSNnzRnKm+e8eQvcOz80zS1cvKTS51fzmjX7Ynf6uZf55vXwyifcZ6ft449ilLN0jbbdMH4H6A7tGI455Tz35Z1muKeeed69+NIrbsd9Z7pDjz87uZ3GfQ8+4j71pb38a/X+B1d2te6rVr/m9j/8VLfxttPdnUuWmY/RdvjesWe5rfc43O9Mh7Ezh9+gnqierN4c6rLTfse4l18Zq6QWes5jTz3f9zT9m9p7BGCotApVYbreWJ3c88ATO/5Fu/T+h91GW+/vTjzjIrfm9dfH553KUPXs8y+6zbY7oKv1EY3NS8HqB2dd4nc8Tzz1XE/rUkWo+tX9D7mPb7aHm/vTawf2HHUmvJ5Vc/3/8msWugOPPsMHCD9DAmhdFXr0e9y7bEXX66333oc32tl9cfsD3TPPvdjycSFIadsMYmd+0RU3uE9vsbc756Kfdb28Yf3RNUwU/PUHgP4QUB1uu+s+t/v0E9zKx5+ubBuo5nvPONm9b4Pt3U233p3NtgeIplOoCjshi15CjI4AveujW7mf/+KOCfMNM1RpJ7XlroeMNy8drdp5v2N9yCpn6YoqQtWKR590G3z5W+7wE87xAbCcPBKE7a5tEGur2mnbWvN3q3YMx512gZtz8TVRf3lr3bSOIYyXkweOav6j867y76HzL72u69eA5jvpzIv9NtC/7R6nI1qHnfBjd+W1tzhdezaVO3M9r167Wo9ejn6pP7z3k19zt99zf8vHaF3POv8q/95dsfLJtssO9Wt8bfSrXvN67ZeLHif0Tusx3ajfee4l1/o/QLvpY+2I6U2PPfGM/0M4HL0sJwNAO6oIVSG8WH/1DiNUjb26yh+VuvDy692PL5zvji92tjHNq4pQ9crYq34H9419ZrqXXu7tyEHYLq12Aq349UuvuEOOO9tdcNnP+w5yVWybqSbseK3g1G5skITT0zptqdOX5eSO9LuD7+d11o4Xf/2y23r3w9z6/7ane/Dhx7pero7MdrOtn372BX9k5T0f29qdds5lTgGxHOqa0Iva9bxRpN17LPb9l+o2ARgaoem2ClV6Q3WyU4jR6QT9hW09tls7PYfoNlRN9aHt2MbV746v2Va/9+NPPes+/9X9fChTOCsnd+TJp59z03aa4bdTv78boWpqaHWktx0KFtOPPL2n+i26Y6l/nm7eb71wz73L3Qc23LHn5er1oyO0OlJbTmqJft9Tzp7n11+hsNfT+ISqyYQ/iCVHqwBaoDeY3miWvR7N6ITeiDp83OrUQ2hkU7HT7TZUiRAYdHhbh7nLyX1RVXAIpwB1gX05qStCaNPFyqt7/Ate19noehw11X4+GUmoiqffHVv4Y6aXi431CUnVq9NpZi1PR3t1KrKbo0J6zWq57T4IErat5utG6zWldZ43/2YfJDctesGyHo6KEapszpx7hX8dpfQeBhgaYYerN185acpQg9N1IO12QP2Gql4bsJqCwt1dSx8cfx49p5rv0SfPNXc6GreWFWNMaFUgUjDqdecajj70U2PVUDtPrbtq2W5Ha0GoikfXE+m6ok7XRDUSPiXYaxgO4afTByJ07ZIupta8eo7lKx5vOX8IhVofncYsJ3ckHGHt9TpCzXv9L+7w7209p7ZFOdQWQpVNOMrY6x9zAFlihapeA4u0GpHu/aTGpp1yq6bYb6iyCCHIevPrOhQ1ZzXZZQ896scVpPQJJ62j1tXP2CPaYekTg3pehbNeQ0ev6PSP1ve2O+/r+nl0irNVjbohXLDaz1E9QlU8Cjjaht2eqg5HYXsJFELXUOm0WacLwwM6QqUjVR/83E7+Wia973S9Yjk8Tjhi1ustLEKY7OcTr3of6p5b+nCCtU4WhCobheLNdzio58sHALKkXajq5qhKeLzViHRUSNd0tPtLeSpDlT6yrWWFmzw2ox2MPjKuw9nlpPGPm2s9+7m4NfwVp+bf6xEk0U+AbaeWpWWWi/eEbdxqu3RCO6jwCbJe7+NFqIpH27Db53vuhV+73Q84YTxQ6boi7QwVfjpd4N7trRea0XPs+p3jfJ232PFgfy+s8MeF3g86Qqzlavn+AV2i1223AU/bKPbShfA+sXrZKNPuPTYV779whFx/PHJzZIAODDJUdUNoZLE7XTVxHYlq14TDNVeN1xYpSOlO0v00faH1V6j6ySULfGDr5ULifgnXOXUbcKZiG4cdbq/3LZqKph6WMZVa4TMwSqGql/eiwo2ONDXeGFRHYDfccl//O+sI54lnXtRyOXo9ab5eTjMGdFuDBTfd7rdLONWsoxrhtRduW1LO3pGwI+824On5RiFUhWVMpZ1+r3bvsal4/wktp6rXPEDShFCkv27PmHO522368f6TNmrkjW/sTjY3orBca95+bddcwqmLdn9N6bFaRvMOVUFIO4JedyYKFwoZUstWOJP9HPHqhXDaUjvPbq5RCY0+prGG7Ws11tC4p9J+dmzhNddc314JpzusT52NaqjS0SG9HqxPvSnwLLxtiT+KpG2rU3UnnH7hhOWFG072+8dFoPGo1T9/Zgcf5Po5bRw+lNHtKcNuQ9UgQo+eu1x814Re1M06t0PfDKFPMrf6Y5JQBVABalJqcjodpFMDChSf+OI3fajSjf70F2Y3jVyEHVk/O8HG65H6uZN5I2E92n3CLTSy5gtf9Zew/iLu9bSHrmtSM9OnjfR/XfOi60t6ud6pX8Lvq3DVaacTTovGNtZwEXMvpxGnqql3Q9gmsaEqvC6t13+3oUqn2vS7t7uAuxu6CVV6rv0PO7Xj/ZkUrm5YeKdflmqi16oe03hEqZvXUye0Dmef/5tbQGiZuqFor39o6D2lx3d75Ffbupt+1Y6wDfrpZb0SelHsOqt26uGtXo/dvP9Ubx3B1FHNVn9UEqoA2qCbOSpAnPyjn7oLi5912kpvmnK4p1MOYUfWTyMKoURHxxrDST+Ehthuhx8aWePvKtRUjiqm6SjTI4891dU6aCeh67DC98k1TtNRv15OkTWiZWmHtN1eR/qdnn6noP6vIyiHFDs+3fX6+z+Y67ebPulUPtwkfPovdmdx7Y2L/Xr08imgbpr6VKHn0HPFhqpw7Z2O+jTfALObUKUdk04Ha13afUijG3p5L3aLXqfhAnOtYzii1Pghjhj0fgrfHRfU0RRd71XO0pZwBLiXaxT1OovdRlWGqtA3Y9c5/AGgT0nq05Ll5HG6ef+pf6iPtLuuVMshVAF0QXhzNwaN0Mgbm2Ine21EarzhFJau/9AbutePfwdCE+50tEt3ctYdnRsvVO+X8JFt3ZW9nOQJ35/WPL0T+oSSPj2o5nbkSef6Q/naoejoQjmL32YKXQo335rxA38aR9u+0+mVcCpF17WUkyagr8Q4pdj5dzqaEC7KP3jm7K6PZlQZqhSo9Vytfs9uCeHR+j27CVUKZQooU3EPNDGoHZruQn7g98/0gVv28vU3rdDjtRwtT0FKpxL1vtb21H2juvk0oo746n3Qy4citI1SClV6f+t31DbSKbxycs+E96T1B4Do9P4LnxTVaV/1rnLyBMIpRvXXfvozQFa0C1XdNKnw+F4bUfPtFsKOqJ9vRe/2mqjQgPr9FFxAwU1HjNRomo9I6fl1P6dePs6ux2g76He4dP7NXe/YdNpHR430NTvtApHGdBTOarz6XdQsu/n0Y6i1Xht6jZST21JVqNJrRtff6Lli6hu2VavldApVYSelWupWAuXkKHq9pUK3aJuFI0r9vO+a0et2/s8X+fe1XmthB6wjVHqv6Hm03fRaaPUaD9vX+gNJp7oU2HSUXdtXy9MfFgqvOuoWu9OvMlSFDwX0ctS3GW1D9bx2y2n3/lPvCnVpd0Q1XB7BLRUAumAYoSrseJq/qFNHd/7X+tv09BdzOErVzQW22kkqVClclZN6JjSidqFJ8+gUoBW6LMKF0a3+2pwKrPtbaRurmap+9y5b0fF5RzlU6YJ91aTT0cpOhE9WNp7WbaRdqNJ3Je510Cz/+05FSAmEoxoxO+BmdGT0iBN/8wXH+rfbezm1Qq+lcCdzvfabT/UprCr8Kwxpnp9eeeOEo7CBcE+r5n6iO6PrSJcuttcXPYdtq+snH338affNA0/yv4s+6Xjdzbeby+5EVaFK73cdvYv9UICOgipQWq/FQKv3n+qhI7oa69SnBvH6A6gt7UKV3nDd2m0jar6PTjnZo8asQKXgo794uwlWOlWjJtzpI9sa05GMXi9GbyQ0Iu0UOh016OXIm4KrAuwg/xLUUS19Ge8+3/vBeCBSkNLp0Kk47dOKKkJVCLp6HfR62rWRxuW0OsrUKlQpyCkU63edipDSSNgJ93KNUTvClw/r99R35XU6QtkJPT58595B35/tFC7LoQko6Oi1pqNLsnkbh5DQfE1iuL2C/vBoFZj1Ott4m+/4vqHgpde67vpeDndFFaFKvSAcHdQnMDv1hlY0LqfdUSbr/af6qE6abgXgRrRcHQ1TqKriAzgAyWOFqoDeUHoz6q9AHV0qJ3v0Ee1w+4VyUkf0SSjtGNp9J5eeU3/x6nD+jy+c37bhq8Gq0XZz7Yrm1VGMTqcIW6EmP+OYH/lApeupulmGgtf/2WiXjs1TY92GtRgU9D69xd7+Imp9ylNHC6fyiIpFpxuyxtK4g4j5XRp3Uo3Bs5nmUKWg0Hh/pqkIKRY6XaTlx9wHTb+j/gjRuurTvt2+jtuh95VuoaDXrgJTp+2v59Mpbl3X2DyvannMD8+b9MdW+KOj3RFS9a9wZF3bX8FIv+MlV9lHxCzCBzoGdUSmMXx2exTbQttQ21rLUT9td8qzMVTpcbr1hvqvprULwIHQN3U2oN/1BciKVqFKR0xOPOMiHwqsxhQurNb41cVfh+0al+ZVk1NQUjPRX8rlUEvCfXda/cWphqznt4KIPhmnwKevqVAjUDNTaNGRo34+3RTCoNZH61VO7ooQrLSu7Y5eqLnpwn39RbjfYT/0TVDNstXtIYS2gY5cyE47s4B2WPpdtN30F+5UHlGx0Gk5bTeFX30godsdXCe0HJ3m0Y6z2x16K/T6CKemdEq6+Q+IRkKo0ocRFPq/vtdRfgel1/Y1N9wWHVJaEbaj3g+d7ozejGqsIzgKHdpWCg2xR0Qb39P9HBXqBb2HtVP/+t5Huxd//fKk5wk1aT59rte6pne7bnofqf7qE7fevrTv11MzIczoCJpeYyeeeVHf7zu97sPRvvAhn3LIJIQqhVj9saDn12PPvehnXQVgXR+qx0zV9YEAtUdvdp1uU+jQ/3Udif6a6qZZ6k2nv3a1Y2ueV2P6K+eHP77U74DU0HWPnF52qmr82gH8w6e2m3SzwhdefMn/pWUdBdJO56rrbvWNWL9H2Fk2fplyN2hbaPkKOvqUVLcfCW8mBETtgHWEqJxsoufUKSyFT/1FqfVXU7QMF+lus8cR7qFH4u6HNEgUonUE4uOb7WH+Hs22OlUYXlP6tKKundHvr7p0exsMC73GtOPV8zZeXN2KsAMP66rXltahmz8UYmjcwWmnqv+XQyZaT52u0e03FKS0vfS4XgNZM3q8dsh6T+v1rNf2VAXlduiPE70XDjjydP8eCs+pIKQ//tTDpuIor14Pul/fhlt9e7zG7Wx3qlDrpiO0IUztvN+x/trFTrVrxWuvrfHvIz1vu6P9jYRQFewlAOsPUAXMfoI8QFboza4jB+GNpiMXeoPqza57JOlNpAt2u33z668uNeyv7HLI+AXP2vnp/4ccd7b71f0PRTVe7TTVHLb/1tFtjyJMJfrd9TvpqJGOVPXbCAMKZPqIvm5d0O7oE7RGr1sFn52+fYwPzVPR6P1r/oKrO944M6Da6aijAp1eGzE7yV5pPJLSfIqsEf2RoesHNa+OUCiETMU66o8S7cx1VE875qp+74CCq47yNAYeBfXvHHFapXXoBr2WDjz6DF8D9RHrQw/9oNO36qmdTtsFdDRVH/5RT9fRt277sI4O6g87BfJ+v2weAACgIwotMfcWikFhSqGq2yMVkDcKUb2e6tUfyfqwRbdHRQEAAAAAAAAAAAAAAAAAAAAAAAAAAAAAAAAAAAAAAAAAAAAAAAAAAAAAAAAAAAAAAAAAAAAAAAAAAAAAAAAAAAAAAAAAAAAAAAAAAAAAAAAAAAAAAAAAAAAAAAAAAAAAAAAAAAAAAAAAAAAAAAAAAAAAAAAAAAAAAAAAAAAAAAAAAAAAastTL7zqEBER62652wMYHHqhrXz6FURExNpKqIJKIFQhImLdJVRBJRCqEBGx7hKqoBIIVYiIWHcJVVAJhCpERKy7hCqohBRCVbmq61hjmIfUP299AyiwxjAPY+tPqIJKIFRhClL/vPUNoMAawzyMrT+hCiqBUIUpSP3z1jeAAmsM8zC2/oQqqARCFaYg9c9b3wAKrDHMw9j6E6qgEghVmILUP299AyiwxjAPY+tPqIJKIFRhClL/vPUNoMAawzyMrT+hCiqBUIUpSP3z1jeAAmsM8zC2/oQqqARCFaYg9c9b3wAKrDHMw9j6E6qgEghVmILUP299AyiwxjAPY+tPqIJKIFRhClL/vPUNoMAawzyMrT+hKhPOm7fAvfND0ya4cPESs/jPPv+i22y7AybMq8eXwxPodl5CFaYg9c9b3wAKrDHMw9j6E6oyIASqxhCln60AFELSkbPmjE9/YPlKt94mu0XNS6jCFKT+eesbQIE1hnkYW39CVQYsuOl2pwBU/ncchSGFosYxhaHmacKa3su8hCpMQeqft74BFFhjmIex9SdUZUxzqBobW+X2PPBEr372M5WEI1vhaFcv8wpCFaYg9c9b3wAKrDHMw9j6E6oyRUFKgaoxFIVpjafzAs2n9XqZVxCqMAWpf976BlBgjWEextafUJUpCjzN11QNI1SVwwAAAElh7dMIVRkSTs81n7ojVAEAAHSHtU8jVGVGq0AlhhGqRslyVTn0n7HUP299AyiwxjAPY+tPqMqIdoFKaJrGrPHmi897mVcQqjAFqX/e+gZQYI1hHsbWn1CVCTpqpKBjHVlqRPPpCJSORJWTPNb0XuYlVGEKUv+89Q2gwBrDPIytP6EqA0Kg0r/lpJZYp/Ws03mil3kJVZiC1D9vfQMosMYwD2PrT6iqOeE0nUJVK1uFpcZ5Gk/lNdLtvIQqTEHqn7e+ARRYY5iHsfUnVEElEKowBal/3voGUGCNYR7G1p9QBZVAqMIUpP556xtAgTWGeRhbf0IVVAKhClOQ+uetbwAF1hjmYWz9CVVQCYQqTEHqn7e+ARRYY5iHsfUnVEElEKowBal/3voGUGCNYR7G1p9QBZVAqMIUpP556xtAgTWGeRhbf0IVVAKhClOQ+uetbwAF1hjmYWz9CVVQCYQqTEHqn7e+ARRYY5iHsfUnVEElEKowBal/3voGUGCNYR7G1p9QBZVAqMIUpP556xtAgTWGeRhbf0IVVAKhClOQ+uetbwAF1hjmYWz9CVVQCYQqTEHqn7e+ARRYY5iHsfUnVEElEKowBal/3voGUGCNYR7G1p9QBZVAqMIUpP556xtAgTWGeRhbf0IVVAKhClOQ+uetbwAF1hjmYWz9CVVQCYQqTEHqn7e+ARRYY5iHsfUnVEElEKowBal/3voGUGCNYR7G1p9QBZVAqMIUpP556xtAgTWGeRhbf0IVVAKhClOQ+uetbwAF1hjmYWz9CVVQCYQqTEHqn7e+ARRYY5iHsfUnVEElEKowBal/3voGUGCNYR7G1p9QBZVAqMIUpP556xtAgTWGeRhbf0IVVAKhClOQ+uetbwAF1hjmYWz9CVVQCYQqTEHqn7e+ARRYY5iHsfUnVEElEKowBal/3voGUGCNYR7G1p9QBZVAqMIUpP556xtAgTWGeRhbf0IVVAKhClOQ+uetbwAF1hjmYWz9CVVQCYQqTEHqn7e+ARRYY5iHsfUnVEElEKowBal/3voGUGCNYR7G1p9QBZVAqMIUpP556xtAgTWGeRhbf0IVVAKhClOQ+uetbwAF1hjmYWz9CVVQCYQqTEHqn7e+ARRYY5iHsfUnVEElEKowBal/3voGUGCNYR7G1p9QBZVAqMIUpP556xtAgTWGeRhbf0IVVAKhClOQ+uetbwAF1hjmYWz9CVVQCYQqTEHqn7e+ARRYY5iHsfUnVEElEKowBal/3voGUGCNYR7G1p9QBZVAqMIUpP556xtAgTWGeRhbf0IVVAKhClOQ+uetbwAF1hjmYWz9CVVQCYQqTEHqn7e+ARRYY5iHsfUnVEElEKowBal/3voGUGCNYR7G1p9QBZVAqMIUpP556xtAgTWGeRhbf0IVVAKhClOQ+uetbwAF1hjmYWz9CVVQCYQqTEHqn7e+ARRYY5iHsfUnVEElEKowBal/3voGUGCNYR7G1p9QBZVAqMIUpP556xtAgTWGeRhbf0IVVAKhClOQ+uetbwAF1hjmYWz9CVVQCYQqTEHqn7e+ARRYY5iHsfUnVEElEKowBal/3voGUGCNYR7G1p9QBZVAqMIUpP556xtAgTWGeRhbf0IVVAKhClOQ+uetbwAF1hjmYWz9CVVQCYQqTEHqn7e+ARRYY5iHsfUnVEElEKowBal/3voGUGCNYR7G1p9QBZVAqMIUpP556xtAgTWGeRhbf0IVVAKhClOQ+uetbwAF1hjmYWz9CVVQCYQqTEHqn7e+ARRYY5iHsfUnVEElEKowBal/3voGUGCNYR7G1p9QBZVAqMIUpP556xtAgTWGeRhbf0IVVAKhClOQ+uetbwAF1hjmYWz9CVVQCYQqTEHqn7e+ARRYY5iHsfUnVEElEKowBal/3voGUGCNYR7G1p9QBZVAqMIUpP556xtAgTWGeRhbf0IVVAKhClOQ+uetbwAF1hjmYWz9CVVQCYQqTEHqn7e+ARRYY5iHsfUnVEElEKowBal/3voGUGCNYR7G1p9QBZVAqMIUpP556xtAgTWGeRhbf0IVVAKhClOQ+uetbwAF1hjmYWz9CVVQCYQqTEHqn7e+ARRYY5iHsfUnVGXGs8+/6Dbb7gC3cPESs/Bh/J0fmmba/Dhr/vPmLZi0bEIVpiD1r79X/Oomt99VM9xXzv+aVz9rmsZ8AyhofgzmY2z9CVWZceSsOWY4CoSQpPnKSS2x5n1g+Uq33ia7TQpWhCpMQepfX29etsR98szPunWmr2OqsQefe5DXQObG1p9QlQFjY6vcngeeOOFo0lSEKgUnzavHlJM81nRCFaYg9a+nly+50b3t0P9ihqlG//DwP3SLHl1kLgPzMLYHEKoyQ2FqKkJVCGpSP5eTPdZzEKowBal//XzwiefcX3z/v5shyvKvj/1r/xhrWVh/Y3sAoSozug1V4YhWsDlktQtf1ilAQhWmIPWvnztdspcZntqpx1jLwvob2wMIVZnRKVRZhMc0HpWaqlBVDgMADIQ/OfpPzODUTv8YgA5Y+zRCVWb0E6qEAlLj4whVADDq+AvPjdDUjeGidYBWWPs0QlVm9BuqmoMSp/+wjlL/ennZkhvMwCTfvMvbvdaY1GOtZWK9je0BhKrM6DdUNT+OC9WxjlL/enndfYvNwCTX/df1vdaY1GOtZWK9je0BhKrMsAJPN+iok44+6ShUOYlbKmDtpP71860zfs8MTe1ClR5jLQvrb2wPIFRlRqdQpdN5jaftRHhM83TrFKB16k8QqjAFqX/93HzOlmZwaheq9BhrWVh/Y3sAoSoDwqk6BaNmm0/fhQDVbKsQFoJVp3kJVZiC1L9+3vjAXWZwUqB6x6bvN8f0GGtZWH9jewChCiqBUIUpSP3r6Uk3zTbDk+W5d51rLgPzMLYHEKqgEghVmILUv77OXnSB+7Oj/2JCgHrj3m8Z/1lj8+6dx2sgc2PrT6iCSiBUYQpS//p7xIIT3GfP+oJ75xc28upnTdOYbwAFzY/BfIytP6EKKoFQhSlI/fNxs+0P9jZO8w2goHEa5mVs/QlVUAmEKkxB6p+PhCq0jK0/oQoqgVCFKUj985FQhZax9SdUQSUQqjAFqX8+EqrQMrb+hKoRY+3ate7FX7/snn/hJff662trUxxCFaYg9c9HQhVaxtafUDUirHz8abffYT907/nY1v4GmuFrXlatfs19+9BT3Ac23NHdc+/yZItFqMIUpP75eNrc+d7Gab4BFDROw7yMrT+hagR48OHH3Gen7eMD1Za7HuI+vNHOE74779obF/ugNWv2xckWi1CFKUj989Y3gAJrDPMwtv6EqiGj031HnzzXveujW7nzL73OPfPcb772pTFUKXSt/297ut2nn+BeGUuzYIQqTEHqn48cqULL2PoTqoaMrp/aevfD3Oe/up97/KlnfZBqDlXWtNQgVGEKUv985JoqtIytP6FqyDQHJitAWdNSg1CFKUj985FQhZax9SdUDZlujlTpAnVdqM7pv8FarioNNWOpfz4SqtAytv6EqiGja6pOOvNif02VLkhvDlVr1qxxx556PheqV2C5qjTUjKX++UioQsvY+hOqRoBlDz3qPvWlvdx6m+zmzrnoZ27DLfd1G2/zHXfzonvcocef7QOXxjVf+ZDkIFRhClL/fCRUoWVs/QlVI8KiO5a6T3zxm/6IVLMKW7fevjTpQhGqMAWpfz4SqtAytv6EqhFi7NVV/hTgIcee5Tbf4SD33aPOcD+98kb34kv//mZPFUIVpiD1z8fLFix2i+5ZMWGabwAFjdMwL2PrT6iCSiBUYQpS/7z1DaDAGsM8jK0/oQoqgVCFKUj983GX6Sd5G6f5BlDQOA3zMrb+hKohoy9N1pcn65N+nUz5S5YJVZiC1D8fuaYKLWPrT6gaMgpLun2CdYF6s433rkoNQhWmIPXPR0IVWsbWn1A1ZF56ecydMfcKfy8qy4Nnznbv22B7t2kRqM6Yc7nT/OVDk4JQhSlI/fORUIWWsfUnVI04uvnnMaec52+r8MDylckWi1CFKUj985FQhZax9SdUJUD4mhrdCFQhq5ycFIQqTEHqn4+EKrSMrT+hKgHCdVe6d5UuVi8nJwWhClOQ+uejAhWf/sNmY+tPqEoAfdGyvnCZC9UHa7mqNNSMpf556xtAgTWGeRhbf0LViPPyK2Nu5ik/8Z/+2/PAE93Y2KokC0aowhSk/vmou6nrruqN03wDKGichnkZW39C1ZDp9pYK+gTgwsVLki0WoQpTkPrnI9dUoWVs/QlVQ0bXSO0+/QR/y4RWHnLc2W7FyieTLhShClOQ+ucjoQotY+tPqIJKIFRhClL/fCRUoWVs/QlVUAmEKkxB6p+PhCq0jK0/oQoqgVCFKUj985FQhZax9SdUVUinr6TppB7L19QMznJVaagZS/3zkVCFlrH1J1RVSC9fnmzJfaoGa7mqNNSMpf75eNrc+d7Gab4BFDROw7yMrT+hqkJef32tvyO6glE/6rFaRrm4pCBUYQpS/7z1DaDAGsM8jK0/oQoqgVCFKUj98/GQ4+d4G6f5BlDQOA3zMrb+hCqoBEIVpiD1z0euqULL2PoTqqASCFWYgtQ/HwlVaBlbf0LVCKDrpObNv9l96kt7mReoB7lQfbCWq0pDzVjqn4+EKrSMrT+hagS46da73Xs/+TX3no9t7Tbccl//r9xo6/3dxttO99/798HP7eS/zkYXq5cPSwpCFaYg9c9HQhVaxtafUDVkVq9+ze1/+KnuXR/dyl1742J/JEpHpBqPSp19wdX+KNayhx5NtliEKkxB6t+7sxdd4L4096vuH07+Z/d3x/+9+8hp67u9Lp/ubnnwXnP+UZFQhZax9SdUDRkdedp8h4Pc57+6n3v8qWfdK2Ov+iNSG3z5W27Fo7/5EuX7HnzEfWTjXd1JZ17s1q7llgqDslxVGmrGUv/uXfjgUh+g1pm+Tkv3vfIg87GjIKEKLWPrT6gaMs1HpsbGVrk9DzzRrbfJbu6B5St9ccI839hnJndUH6DlqtJQM5b6d+dNy+5xf3b0X5hBqtntLtrFXMawXXTPCm/jNN8AChqnYV7G1p9QNWSs031HzprjTwcuXLzE/9+aJzUIVZiC1L8733/Kh80A1cqjfz7LXM6o6RtAgTWGeRhbf0LVkAmn+xoD0xXXLvSf9jv65LluzZo17pbFv/IXsnOkarCWq0pDzVjq39njbzrdDE7tXPeoPzeXNUw5/YeWsfUnVA0ZhaaDZ86eEKqeeuZ59+WdZvhgtf6/7ek/Caifz5u3INliEaowBal/Zz81+1/N4NTJuYsvM5c3LAlVaBlbf0LVCKCjT83f63fnkmVu422+48OUQtVp51zmVq1+LdliEaowBal/Z//gkP/PDE2d/O78I8zlDUtCFVrG1p9QNcLok34v/vplp9sulJOShVCFKUj9O9sqVP3+dn/p3rHp+80xqdssWMsbloQqtIytP6FqyOjok073pXqrhG4hVGEKUv/O/tXMvzFD09umvdsfWbfG5KELjjWXNywJVWgZW39C1ZAJn+zbYseD3fyfL3Jjr66qZUEIVZiC1L+zm577ZTM0dQpVl91zg7m8YUmoQsvY+hOqhoyup5pxzI/GL0bXV9LolgorVj5Zq6NXhCpMQerf2XMXzzNDU7tQ9d5Z/2Qua5juMv0kd8jxcyZM8w2goHEa5mVs/QlVI8LLr4z5I1U6YqXGJOt09IpQhSlI/btzszmTw1O7UDVn8aXmckZN3wAKrDHMw9j6E6pGDB2dWvn40+4HZ13iv5qmLkevCFWYgtS/ez96+icmBKdWoeqw6443Hz9sL1uw2Ns4zTeAgsZpmJex9SdUjTC6h5Xuqr7Tfsf4ZsUd1Qdruao01Iyl/r25w8W7j4en5lD1zuP+zs1edKH5uFGQa6rQMrb+hKoRRYFqyX0Puf0O++H49VbTdprh72dVzpIUhCpMQerfu4tXLHdHXHeC+8Re2/o+tful+7qzf3mxOe8oSahCy9j6E6pGDN1e4Yc/vnT81J++A3DHfWf6I1YKWuVsyUGowhSk/v2ri77Vs6yxUZRQhZax9SdUjQC6EF0XpH9ll0N8iFJjUqhSuFLIKmdLGkIVpiD1719CFdbB2PoTqoaMTudtvsNBtToqZUGowhSk/v1LqMI6GFt/QtWQ0YXn2+55RK2OSlkQqjAFqX//EqqwDsbWn1A1ZHSLhMYvUu4Gza/vBOz1ccOEUIUpSP37N7VQxS0V0DK2/oSqBNHRrT0PPDGp2ysQqjAFqX//phaqLH0DKLDGMA9j60+oShBC1WAsV5WGmrHUv39TC1VaX31VTeM03wAKGqdhXsbWn1CVIISqwViuKg01Y6l//3JNFdbB2PoTqhKEUDUYy1WloWYs9e9fQhXWwdj6E6oShFA1GMtVpaFmLPXvX0IV1sHY+hOqEoRQNRjLVaWhZiz1719CFdbB2PoTqhKEUDUYy1WloWYs9e9fQhXWwdj6E6oSJCZU6TGbbXeAv2t7OWkSYR41yOB58xaY83c7L6EKU5D69y+hCutgbP0JVQkSE6qOnPWbxtcqVIWQpPnKSes8sHylW2+T3SaFpV7mJVRhClL//k0tVFn6BlBgjWEextafUJUgvYaqsbFVfv5wJKldqFIYUlBqXrY1vZd5CVWYgtS/fwlVWAdj60+oShCFlX6PVClMtQpVIXxJ/VxO9jQ/rpd5BaEKU5D69y+n/7AOxtafUJUggwpVWl7z6bxA82m9XuYVhCpMQerfv4QqrIOx9SdUJchLL4+58y+9zunfclLXjFqoKocBIHGOP+0C31vK/07i7ifvdvv9bD+3/uz13f8++X+7j5zxEbfbFbu5Gx6+YSh9YNrO33Oy/C9Az1j7NELVCPH662v90afFd9/vFt2x1K1a/ZrTtOdfeMm7Zs2a6GIRqgBgELQLVXtdtZdbZ/o6Lf3KhV9xq9esrrQfEKogFmufRqgaERSiNtxyX9+UpAKLgouC1KHHn+3e+8mvudvuvC+6WKMWqkbJclU59J+x1L9/W53+2+jH/2YGqWb/6eR/cQ89+eKkxw9KTv+hZWz9CVUjgI5MvW+D7X0QmXnKT9ynvrTXeKjSuALQuz66lTv65Llu7dq1UQVrF6q4UP03WGOYh9S/f61Qtedl+5kBqpWbnvvlCY8fpIQqtIytP6FqyOhI1MEzZ/sjUdf/4g4fpBSoGkPVikefdBt8+VvuG/vM7Os6qkaswNOIji41PnfAmt7LvIQqTEHq37/NoeruR1a63/7ub5vhqZ2X3LVgwnIHpdZXNk7zDaCgcRrmZWz9CVVDRtdKbb7DQW7jbae7Z559wQcRBZLGUGJN65dOoSo8V+NpPet0nuhlXkIVpiD179/mUHXEghPM0NTJ7S/ebcJyq9Q3gAJrDPMwtv6EqiHTHJia/695FLYUuhqn9UI4VaeG16x1+i6sQ+N8nUJYp3kJVZiC1L9/m0PVVy/Y3gxNnfzQqetNWO6gvGzBYm/jNN8AChqnYV7G1p9QNWR0Ok+n9XR6T6f5rFB1+z33+9ODe8842b26qtpPyEwVhCpMQerfv82hStdHWaHpjXu/xb1j0/f7f63x//+kf5yw3EHJNVVoGVt/QtUIcPYFV/tm9JNLFrhnnpsYql5+ZcyHKY1rvvIhyUGowhSk/v3bHKq2u2gXMzQpTGm+N+/ydnN8vdM/OWG5g5JQhZax9SdUjQBPPv2cm7bTDPeej23t9j/sVH9Nkj4BeOo5l7otdjzYNyCNa77yIclBqMIUpP792xyqTrppthmaOoWqb162/4TlDkpCFVrG1p9QNSKsfPxpt+O+M32zaXbLXQ/xpwbLWZOEUIUpSP37tzlUyT88/I8mhaZOoerGZXdNWMagJFShZWz9CVUjhO5BpXB11XW3uhPPuMhdOv9mp0/T6a7q5SzJQqjCFKT+/WuFqqN+ftKk0NQuVO0y71sTHj9ICVVoGVt/QhVUAqEKU5D6968VquSul+4zKTy9bdq7J12ovtmcyY8dpIQqtIytP6FqBNANQMP3+4WjUvr31tuX+iNWP73yRvfKWNqFIlRhClL//m0VquTRP5/l3n74OyaEqODvHPS7bp8rDzQfN0i5pQJaxtafUDUCXHHtQt+M9B1/4UuTL7z8ev/VNJouuVB98JarSkPN2LrUf+7tl/lTb1I/W/NMte1CVfDkX5ztdrh4d7f5nC3dthft5GZe/wO39NEnzHmHoW8ABdYY5mFs/QlVQyZ8TY0CVLhp5ou/ftltvfth/lOAClcaV7PilgqDtVxVGmrGpl5/nWr7ve/950lHgzRNY9ZjpspuQtUoqfXdZfpJE6b5BlDQOA3zMrb+hKohEwLU57+6n3v8qWd9Me578BH3kY13dSedebH/AuUHH37Mrf9ve7rdp5+Q7GlAQhWmYKr1/9Wjj7t/OPmfJ4WpZjWP5rWWEWu3oWrRPSv8fM2n3qqWa6rQMrb+hKohY91B/dobF/umo39bzZMahCpMwVTr/+FT1zNDlKXmtZYRK6EK62Bs/QlVQ8Y6UjVr9sX+SJWOWOn/hKpqLFeVhpqxKdb/wJ8daYanduox1rJiJFRhHYytP6FqyOiaKl2grmuqrrz2FnfnkmX+buoKWgpcmiecDuT032AtV5WGmrEp1v9vjv1bMzi1U4+xlhUjoQrrYGz9CVUjwN1Ll7sPb7SzbzTBH513lb+eSuPh04E6guUfkCCEKkzB1Op/20PLzNDUjXqstcx+JVRhHYytP6FqRLhr6YPuG/vMdJvvcJA7Y+4VbuzVVb4wY2Or3J4Hnuje+8mvudvuvC/ZYhGqMAVTq//lS240A5PUzTVbfRWM1GOtZfZrt6FKKlhZ06uUUIWWsfUnVEElEKowBVOr//ylt5qBSa77r+t7rTGpx1rL7NdeQtWo6htAgTWGeRhbf0IVVAKhClMwtfovf+J5MzDJTqFKj7WW2a8phqrmI2a+ARQ0TsO8jK0/oQoqgVCFKZhi/T9x5mfM0NQuVOkx1rJi7OWaqtPmzh/6KUBO/6FlbP0JVUMm3C5BzaiT3FJhsJarSkPN2BTrf/6dV5nBqV2o0mOsZcXIhepYB2PrT6gaMvoSZd0qYdMiMFluuOW+/nYLH/zcTn4+zV8+NCkIVZiCqdb/W1d8d1Jw0oXqsnm65rWWESuhCutgbP0JVSPOqtWvuelHnu422np/99gTzyRbLEIVpmDK9Z9+9aGTAlSzmsd67FRIqMI6GFt/QlUC6FYKuqXCD866ZPzeValBqMIUTL3+19y7yG11/tfdn3//r9zbpr3bq581TWPWY6ZKQhXWwdj6E6oS4JlnX3Abbzt9wl3WU4NQhSlYp/pboWGQ9hKqtF761xqvSkIVWsbWn1CVACFUcaH6YC1XlYaasXWq/6iGqlFR6ysbp/kGUNA4DfMytv6EqhFHp/vOv/Q6f7G67rj+0stjSRaMUIUpWKf6E6p61zeAAmsM8zC2/oSqIdPp038f32wP36gUqi6/ZmGyxSJUYQrWqf6EqvbqXlmycZpvAAWN0zAvY+tPqBoy3dynauNtvuOuu/l29/rraV6kLghVmIJ1qv+ohipdS7XL9JO4pgpH0tj6E6qgEghVmIJ1qr+CS/M1Q4O0l1Cl+fj0H46isfUnVEElEKowBal//xKqsA7G1p9QBZVAqMIUpP79S6jCOhhbf0LViKDrpW5YeKf7yi6H+IvS1XT0r/6v6SlfTyUIVZiCdaq/FRoGKaEK62Bs/QlVI8CaNWvcsaee7xtNKzWu+cqHJAehqn7ev+Jpd8kVC9z5l1zlFt15vzlPs3fd+4i76NKfefWzNU+VNq9PlfXXNtO20zbUtrTmkZ22s7Uc/S6f3mIvbxXb+ZGnXna77n+M71U3LrrbnCd47Y2/dPt+70R37kVXm+NV2Gr7+AZQ0Dgv5mVs/QlVI4BulaCjUrqFwm133TcenvTvojuWus9O24dbKlRguao01A7efd9K98UtvqLtNcEPfPD/uAsusXeU19282H36MxtOeoymacx6zCBttT4bbbTRwNdH20jbqvm5tU21bcN8nbZzq+X8yZ+u6/9d993re/XzILfz17+xq3+Ot637bh+q9PO7//5/uR+eee6E+Y74/gnuz//ir/x48G1v+y/uW/sN5gueLRvr/ubff7t745ve4n8O26f42WM9FvMwtv6EqiHz6qrVbu8ZJ/vv9tN3/JWTJxC++0/zaf5yclIQqurhTYvucX/xl/9d26qlJ50ye8JjLpw3373lLW8155Ua0zyNjxmkw1wfbRvrOYPattrG3WznTjaGKjnVv9fyR593//T+D44vvzFUBacfdJifd/sdd5swvdnPbbTppOVPtd3U/frrr9fP9ICMja0/oWrIhPtU6Wto9HU05eQJ8DU11ViuKg21jdaREUuFAs2v00LtdmRBzaN5m59vqh3m+tz8yyXmczWrbdztdm5nc6iSU/l7bfrFL09YthWq5I677DFpmuVu39zXfJ6p0Kr7O/76/d7GaW9961v9l9Zby8A8LF4HhKqUIVSNjuWqEqpaOPucC7SNunLb7XfyjznokKPMcUvN2/ycU+0w10fbxHqeQWmFKjkVv9eCm26btNxWoeqtb/29Cf/XKTfNp9NvjdPlQ4+9YD5frFbdW22fY4891lwG5mHxGiBUpczq1a+5/Q8/1V8zde2N/35OvxFN17jm0/zl5KRIJVT9wR849//8v2vR8E1v2lPbqCt/67fe7R/zxv/4eXPcUvM2P+dUO8z10TaxnmdQKrRYwWUqfq/fffOsScttFaqabReq3vrWq83ni9Wqe6tQ9R8reB1if1p9e6otXgOEqtQJoWm9TXZzV157i9P3AeoWCvp33vyb3Qc/t1Pb0JUC6RypcsW/aLtl4cQdkHaMv//2v5w0fZ11/qhQj/mXhmmd1LzNzznVTl4frb/9O0z1+mibND/H1Nj6d7Ccit9rRuHE5eq1oGDVPN1S84WLxCd6bqH1fLEOs+44VVp9e6otXgOEqtTRp/xOPedSH5z0F1yzmq5xbqkwWLWeb3mLc29+M1q+8Y2Tr43RNSl/9Y8bTZr+H/7Du/xjfuu3PjdprNURFM3b/JxTrbU+rY5YTPX6aJs0P4fCRTdhSPNZ6xhUDZqvD2rlVPxe/+k/TT5SNRW+6U1Xm88Xq1X3Vv72bw/+dYj9afXtqbZ4DRCq6oAujrx32Qr3nSNOc5/eYm8fpvSv/q/pGi9nTZJ0jlRxTVUrzzj7PL/TabRVqNr6azv4x3x3xhGTxlqFGM3b/JxT7TDXR9uk+Tm6DUOttnOw2+XIqfi9rrlhkblsy7e8tfMHA4LLVj5rPl+sVt1bOXPmTHMZmIfFa4BQBaMPoaoe/tM/TzyN0mpnf8Mtd/r5deHxm970OxPGrBCjeQZ1kXKjw1wfbZPG55BWGNI27nY7B7sNVVP5e31hky+az9HsdjvsbE5vdufd9zafZyq06m75O7/zO2716tXmMjAPi9cBoQpGH0JVPbx+4R1u3XX/2/hOyNrZHzfrtAmP+clFl0/YoTWHGI1pnsbHDNLm9Wk+HTnI9dG2Cc8jm8OQtq22cTfbuVGdQrROqTY61b+X7t7+3n/8J/O5gvsdMMPPu83XdzTHgxv86+cnLX+qba57sxq75ppr9DM9IGNj60+oGjFeennM3zbBMlzAXs6aFISq+njbPQ+OH6Vo3Nn/4/ve7+ZccKn5mPnX3eI+tv6n/HyNoUrTNGY9ZpA2ro+uVwrB5jOf+czA10fbSNtKz9cYqr6w6eZ+24b5/HYupmnM2s6Ny9F4uEj8j97xx/7fRge1nVc8+ZJ5WvN//O3/nHQT2O8dPnP8bu/B//z7v+/22OvbE+YbpI11bzRsn+Jnj/VYzMPY+hOqRgBdgH7h5de7j2y866SL1BvlPlWDtVxVGmqX3nP/o27z7Q9w//yZ7Tt+31vwl3c94D61+Z5e/WzNU4Un3TTb/eOsIpDsXoS89YuQV6if/+XUf/Fj1mOmWm0zbTttQ21Lax7ZajsfuuBY9z+PL4LUzkU4+2gRzjYofp+91nEfOW19d8KVZ7i5F17mrWI761oofX/ij3/yU//dftY8wasW/MKdPfdiN+/K68zxKtQ2sbZP2QLoARkbW39C1Qhw3rwFPjTpU34bbrmv++5RZ/gvUG72jLlXOB3JKh+WFISqerrL9JOKPwZ2M8daudn2B3utsSr80tyt3DrT1xl33X8tQlVh4zTNYz12qtW20za0xhpt3M7Ln3jerX/GBhPW96/WL0LVpkWoapi2y7xvTVoOtrdsAfSAjI2tP6FqyCgkfWOfmf67/a7/xR21LQahqp72E6qGaXOgklaoklUEq9PmzneXLej8Rcea75Dj5/ifP3raJyatqxWq5J6X7TdpWdjasgXQAzI2tv6EqiGj03mdvqamDhCq6mlKoUqn9ZpDh2wVqmRVpwI7ueieFT58ffuqg831bBWq5Ly7h3eaLTXLFkAPyNjY+hOqhkw4UkWoGr7lqtJQe7CfUKUjLt2c8ppq33fyB8zQ0S5U6THWsqbKXk///dERf2yuZ7tQtfE5XzKXiZMtWwA9IGNj60+oGgHOvuBqf/rvtjvvI1QN0XJVaag92E+oGsY1VUtWPmYGDtkuVEk91lrmVNhLqPrA579hrp9sF6r+y2F/aC4TJ1u2AHpAxsbWn1A1Ajz59HNu2k4z3J4HnujGxlbVsiCEqnqaSqi6aukvzMAhO4UqPdZa5lTYS6h634bbmesn24Uqee9jT5rLxYmWLYAekLGx9SdUVYjuM7X79BPcptsdMMmPb7bH+Kf/rHGpx2oZ5eKSglBVT+sQqjqZQqjqJKGqO8sWQA/I2Nj6E6oqJFyU3nz/qW7lPlWDtVxVGmoPphKq2p3+62QKp//ayem/7i1bAD0gY2PrT6iCSiBU1dNUQpVsdaF6O0ftQvV3HPlfzfVs5ybnbmEuEydbtgB6QMbG1p9QBZVAqKqn/YQqffov3HOpSlvdUqGdg76lQq+hqtUtFdrJLRW6t2wB9ICMja0/oSpBdApQF7WndCqQUFVP+wlVw/RLc79qBg9LzWstYxjqPlVSP693+ifN9bX85mX7T1oWtrZsAfSAjI2tP6EqQQhVg7FcVRpqD/YbqkJAGIbdBKuqApVu6NnpjuoX3jnfbX/MQW7z6fu42bde6O5ZudJ94szPmOvd6K6X7mMuD1tbtgB6QMbG1p9QlSCEqsFYrioNtQf7CVXDuqaqUZ3Ws66x+uBpH6z0LurtTv9Nv/qw8Zt96nYJum2Cfn7D9De4r5z3NXfA1Ye7vzv+7yesv9TX2Jxz2yXmMrG9ZQugB2RsbP0JVQlCqBqM5arSUHsw1VAV1Cf7dMsE6T8hWHH9W4Wqz571hQlBqTFUBf/0qD9z19y7yN2+4iF3xa9ucvN/dYt74IlnJi0Lu9c3gAJrDPMwtv6EqgQhVA3GclVpqD2Yeqhqtur6W6FqsznTJoQnaYUqqWBFkJo6fQMosMYwD2PrT6hKEELVYCxXlYbag4SqOJtD1Wm3zJ0UnGSrUCW3uXDHCcvE/vUNoMAawzyMrT+hKkEIVYOxXFUaag8SquJsDlUfP+PTZnBqF6p+9+A3uxVPvTRhudifvgEUWGOYh7H1J1QlCKFqMJarSkPtQUJVnM2hygpNsl2okhfccfWE5WJ/+gZQYI1hHsbWn1CVIISqwViuKg21B/sJVbqFwDBvqdDOquuv7Xfa3Pn+5189+rgZmOTbpr3bBytrTM66+UeTlo296xtAgTWGeRhbf0JVghCqBmO5qjTUHuwnVI2yw6z/sieeNQNTN556S/V3qK+jvgEUWGOYh7H1J1QlCKFqMJarSkPtwX5ClY7MhKMzo2bV9df2a/zKnnWP+nMzNHXy2vt+OWG52J++ARRYY5iHsfUnVCUIoWowlqtKQ+3BfkIV11T9u83XVG170U5maGrn3x73rgnLxP71DaDAGsM8jK0/oSpBnn/hJXfIcWc7/VtOGnkIVfWUUBVnc6ha+OBSMzi189gbT52wTOxf3wAKrDHMw9j6E6qgEghV9ZRQFWdzqJLH3PBDMzxZbnX+1yc8FuP0DaDAGsM8jK0/oWqEeOnlMXfXr5a5G2+9y3TRHUvdqtWvDbRgOqW42XYHuHd+aJrpwsVLJjy/Nf958xZMWkdCVT0lVMVphSp53I2nubfMeKsZpILf+Okekx6HcfoGUGCNYR7G1p9QNQL8+qVX3PeOPcu966NbTQgnzSq8DPo6qhCSjpw1p+PzWPM+sHylW2+T3SYFK0JVPSVUxdkqVMnbHn7Q7XTJN93/OO5/jgepPzlqXbfpuV92F991jfkYjNM3gAJrDPMwtv6EqiGzdu1a94OzLvGh6SMb7+oOKcLVpfNvHvqRqm5ClYKTFfSs6YSqekqo6l0FIgUjBSTd0FP3n1JwUoBSkLIeg9XoG0CBNYZ5GFt/QtWQefHXL7utdz/MfWDDHd2dS5YNvRjdhqqxsVX+E4hSP5eTPTpFqJDYeKqQUFVP+wlVo+yg669Tdo2n8N68y9vdG/d+y/j/dcpPp/6sx+Lg9Q2gwBrDPIytP6FqyIQQYx3xGQZhfRpPO8rmkNUufFmnAAlV9ZRQ1b26qLwxUAUbQ1VQF6tby8DB6htAgTWGeRhbf0LVkAlHfD7/1f3c4089O5LFCEeeGo9KTVWoKochUfb53g/cxzbdvac6Hn/aBU6PK/+bBbNvnz0pOMlw+s8ae+j5h3h/AIww1j6NUDUCzJt/s79I/dobF49sMRSQFKzCKT1CFYh+QtW0nb/nZPnfLPj7k/7eDE7tQtVuV+zG+wNghLH2aYSqEeDlV8bc3jNOdlvvcfjI3tCzOShx+g8lF6p3Vl8hY4Um2S5U6StrrOXh4PQNoMAawzyMrT+hasi0uobJUvNp/vKhldJ88TkXqqMkVHVWX3ZshSbZLlRJfcmytUwcjL4BFFhjmIex9SdUDRkdmdp9+glu0yIwdVLzDetIlo466eiTjkKVk7ilAhKqunDWzT8yA5Ns/vRfs7969HFzmTgYfQMosMYwD2PrT6iCCeh0XuNpOxGOPDVPt04BWqf+BKGqnhKqOnvBHVebgakbreXh4PQNoMAawzyMrT+hCiYQAlSzjafyGrFOX1rzEqrqaT+h6pDj53itsWE7iPqveOol97sHv9kMTe38+BmfNpeHg9M3gAJrDPMwtv6EKqgEQlU97SdUjbKDqv82F+5oBqd2nnbLXHNZODh9AyiwxjAPY+tPqBoRdMTnwsuvd8eeen5Lz5h7hdOXLpcPSQpCVT3tN1QtumeFOX3YDqr+DzzxjPvTo/7MDE+Wm82ZZi4HB6tvAAXWGOZhbP0JVSPAikef9Df/bDyFZjnMT//FQqiqp1xT1b3X3Luoq2D12bO+YD4eB69vAAXWGOZhbP0JVUNGX6h80pkX+9B0+AnnuPsefMRtvM13vA8+/Jh75tkX3EHfn+22/9bR7tHHn3avv742yYIRquopoao3lz76hPvKeV9zb5j+hklh6o+O+GM3/erDzMdhNfoGUGCNYR7G1p9QNWR0Ou8b+8wcv11B+ILljbed7gOV5rntzvvcez/5Nac7r/sHJQihqp4Sqvrz3seedLNvvdAdvuAE9/3rT3YX3jnfnA+r1TeAAmsM8zC2/oSqIRM+PRdO7YWbajbeE0rfCajTg7rr+qurVidZMEJVPSVUYZ30DaDAGsM8jK0/oWrINIeqNWvWuINnznYf2HBHd8+9y31xmufxD0wMQlU9JVRhnfQNoMAawzyMrT+hasiE032NgenMuVf4a6zCDTQfXvmE+9SX9nKb73DQyH43YCcIVfW0l1Cl+zWdu3ie+8hXdvTqZ02z5h2W1D9vfQMosMYwD2PrT6gaMjqdp9N6jaFq6f0Puw9vtLM/BTj3p9e6Hfed6UPWocef7Y9k+QcmBqGqnnYbqnaet7d764zf8xdkN341i6ZpzHrMMKT+eesbQIE1hnkYW39C1Qhw1XW3TrgHlYKTPhH4ro9uNX47BX3330OPPJ5ssQhV9bRTqFqy8jH3v2e9b8Kn3Cw1j+a1llGl1D9vfQMosMYwD2PrT6gaUXTrhHuXrXCnn3uZU+h6ZSztQhGq6mmnUPWhU9ebFKB+f7u/9DZP17zWMqqU+uetbwAF1hjmYWz9CVVQCYSqetouVH13/hGTgpNc91/X91pjeoy1rKqk/nnrG0CBNYZ5GFt/QhVUAqGqnrYLVX9z7DvN4NQuVOkx1rKqkvrnrW8ABdYY5mFs/QlVFaNP7+0+/QSvftZ1VLqeyvquv2b57r/BWq4qDbUHW4Wq2x5eZoYm2S5UST22eXlVSf3z1jeAAmsM8zC2/oSqimm+51T4f7ggvZ2NnxBMDUJVPW0Vqi5fcqMZmOQ7Nn2/e9u0d5tjUo9tXl5VUv+89Q2gwBrDPIytP6GqYlatfs0tumOpVz/rgnQdsQoBq52aj+/+G5zlqtJQe7BVqJq/9FYzMHWjHtu8vKqk/nnrG0CBNYZ5GFt/QhVUAqGqnrYKVcufeN694YDJXxrcST1Gj21eXlVS/7z1DaDAGsM8jK0/oQoqgVBVT9tdqP7JMz9rBqd26jHWsqqS+uetbwAF1hjmYWz9CVVQCYSqetouVF1wx9VmcGqnHmMtqyqpf976BlBgjWEextafUFUhui6q24vSLblQfbCWq0pD7cF2oUrue+VBZniy1LzWMqqU+uetbwAF1hjmYWz9CVUVEm6noK+cafTTW+ztQ9PHN9tj0thGW+/v3vOxrd0HP7fT+G0YysUlBaGqnnYKVXL61YeZIapRzWM9tmqpf976BlBgjWEextafUDUCzJp9sXvvJ7/mbr/n/knFWLt2rf8ewE99aS+37KFHky0WoaqedhOq5IL7bnNbX7iD+8uZf+3eMP0NXv2saRqzHjMMqX/e+gZQYI1hHsbWn1A1ZHQzz2/sM9NtvO1098yzL5jFuOfe5e4DG+7ow5VCVjk5KQhV9bTbUJWK1D9vfQMosMYwD2PrT6gaMuE6q3bXS4V5tt79MPfir19OsmCEqnpKqMI66RtAgTWGeRhbf0LVkFFIUlhab5Pd3APLV5rFePypZ93nv7ofF6oP2HJVaag9SKjCOukbQIE1hnkYW39C1ZAJ10zpQvVDjjvbjb26akJBNH7+pde5d310K7fngSe6sbGJ46lAqKqnhCqsk74BFFhjmIex9SdUjQBPPv2cm7bTDB+sNtxyX3fyj37qrv/FHe7s8692X9/rKB+o3rfB9u6mW+9OtliEqnpKqMI66RtAgTWGeRhbf0LViLDy8afdjvvOHL8nVaO6ncI1N9yW7EXqglBVTwlVWCd9AyiwxjAPY+tPqBohFJoUrq667lZ34hkX+dN+d/1qmVu9+rXki0SoqqeEKqyTvgEUWGOYh7H1J1RBJRCq6imhCuukbwAF1hjmYWz9CVUjxOuvr/Wf7lt89/1u0R1L3arVrzlN013U5Zo1a5ItFqGqnhKqsE76BlBgjWEextafUDUiKETpIvVwHVW4fYKC1KHHn+3vuH7bnfclWyxCVT0lVGGd9A2gwBrDPIytP6FqBNCRKX26T/eqmnnKT/xX0jTek2rh4iX+E4BHnzyXO6oP0HJVaag9SKjCOukbQIE1hnkYW39C1ZDRkaiDZ872R6J0G4Vw9/TGULXi0SfdBl/+lv86G32tjX9gYhCq6imhCuukbwAF1hjmYWz9CVVDRtdKbb7DQePf/WeFKmtaahCq6imhCuukbwAF1hjmYWz9CVVDpjkwWQFKYUuhi1A1WMtVpaH2IKEK66RvAAXWGOZhbP0JVUNGp/N0Wk+n93SazwpVt99zvz89uPeMk92rq1YnWTBCVT0lVGGd9A2gwBrDPIytP6FqBDj7gqv9J/5+cskC98xzE0PVy6+M+TClcc1XPiQ5CFX1lFCFddI3gAJrDPMwtv6EqhEgfPffez62tdv/sFP9pwD1CcBTz7nUbbHjwT5QaVzzlQ9JDkJVPSVUYZ30DaDAGsM8jK0/oWpEaPfdf1vueog/NVjOmiSEqnpKqMI66RtAgTWGeRhbf0LVCNH83X+Xzr/ZPbB8pb+rejlLshCq6imhCuukbwAF1hjmYWz9CVVQCYSqekqowjrpG0CBNYZ5GFt/QhVUAqGqnhKqsE76BlBgjWEextafUDUijL26yn+J8unnXuaOPfV80zPmXsEd1Qdouao01B4kVGGd9A2gwBrDPIytP6FqBLj/wZXus9P2MS9Sb5Sbfw7WclVpqD1IqMI66RtAgTWGeRhbf0LVkFm9+jW3/+Gn+tD09b2Ocjfccpe/dYLCU7P6SptUL1onVNVTQhXWSd8ACqwxzMPY+hOqhozCko5A6b5UD698orbFIFTVU0IV1knfAAqsMczD2PoTqoZM+ELllE/tdQOhqp4SqrBO+gZQYI1hHsbWn1A1ZNasWeMOnjnb30Vd96QqJ9cOQlU9JVRhnfQNoMAawzyMrT+hagRYfPf97n0bbO+OOeU8p5BVTq4VhKp6SqjCOukbQIE1hnkYW39C1QigIHXC6Rf6YKWjVtbtFCS3VBis5arSUHuQUIV10jeAAmsM8zC2/oSqEWDZw4+5Tbc7YNItFJrllgqDtVxVGmoPEqqwTvoGUGCNYR7G1p9QNWR0lOrQ48/2oWnrPQ733/t34613mermoKtWv5ZkwQhV9ZRQhXXSN4ACawzzMLb+hKohEz79xy0Vhm+5qjTUHvSh6guEKqyHvgEUWGOYh7H1J1QNmXCfKm6pMHzLVaWhdvCXDz3gvnHxHu5vjvtb945N3+/+av2N3B8f+Sduk3O3cBfeOd98TCpS/7z1DaDAGsM8jK0/oWrIhDuqc0uF4VuuKg21jcfc8EP3uwe92a0zfR1vCFXh/3L7i9M9ckX989Y3gAJrDPMwtv6EqhHg57+4w73ro1u5H513lVu7Ns2voekEoSp9Z95wyoTwJK1QJbc8fztzGaMu9c9b3wAKrDHMw9j6E6qGjC48v74IVRtv8x1/tGre1TeZF6lLLlQfrOWq0lANFz64dFJwkq1CldRRLWtZoyz1z1vfAAqsMczD2PoTqoZMuKaq+fYJltxSYbCWq0pDNdzmwh3N4NQuVL3z2L8zlzXKUv+89Q2gwBrDPIytP6FqyOjIk45AWUemmuVI1WAtV5WGarjuUX9uBqd2oUpee98vzeWNqtQ/b30DKLDGMA9j60+ogkogVKXrsieeNQOT7BSqTr1ljrnMUZX6561vAAXWGOZhbP0JVVAJhKp0/dWjj5uBSb55l7d7rTE56+YfmcscVal/3voGUGCNYR7G1p9QBZVAqEpbKzB14wV3XG0ub1Sl/nnrG0CBNYZ5GFt/QhVUAqEqbdc/YwMzNLVT97Na8dRL5vJGVeqft74BFFhjmIex9SdUQSUQqtL29Ft/Ygandm570U7mskZZ6p+3vgEUWGOYh7H1J1RBJRCq0veLc79ihifLdY/6b/4Cd2s5oyz1z1vfAAqsMczD2PoTqqASCFX1cMOzNjFDVKMKVAvuu818/KhL/fPWN4ACawzzMLb+hCqoBEJVfTxg/uHuHUf810lh6re++1tuqwu+7u57/CnzcSlI/fPWN4ACawzzMLb+hCqIwroj/HnzFkx6URGq6udFd/7Mzbz+B+6IBSe4s355cdJhKkj989Y3gAJrDPMwtv6EKuibEKiOnDVn/EX0wPKV/jsMm4MVoQpTkPrnrW8ABdYY5mFs/QlV0DcKTtb3EVrTCVWYgtQ/b30DKLDGMA9j60+ogr4YG1vl9jzwRK9+Lid7Fi5e4k8D6t9yEqEKk5D6561vAAXWGOZhbP0JVdAX1qm/gHUKkFCFKUj989Y3gAJrDPMwtv6EKuiLqQpV5TAAAEBSWPs0QhX0BaEKAAByxtqnEaqgLzj9h3WU+uetbwAF1hjmYWz9CVXQF1yojnWU+uetbwAF1hjmYWz9CVXQN9atE4Q1nVCFKUj989Y3gAJrDPMwtv6EKugb6xQgN//ElKX+eesbQIE1hnkYW39CFUQRglXj19Q0nvYLEKowBal/3voGUGCNYR7G1p9QBZVAqMIUpP556xtAgTWGeRhbf0IVVAKhClOQ+uetbwAF1hjmYWz9CVVQCYQqTEHqn7e+ARRYY5iHsfUnVEElEKowBal/3voGUGCNYR7G1p9QBZVAqMIUpP556xtAgTWGeRhbf0IVVAKhClOQ+uetbwAF1hjmYWz9CVVQCYQqTEHqn7e+ARRYY5iHsfUnVEElEKowBal/3voGUGCNYR7G1p9QBZVAqMIUpP556xtAgTWGeRhbf0IVVAKhClOQ+uetbwAF1hjmYWz9CVVQCYQqTEHqn7e+ARRYY5iHsfUnVEElEKowBal/3voGUGCNYR7G1p9QBZVAqMIUpP556xtAgTWGeRhbf0IVVAKhClOQ+uetbwAF1hjmYWz9CVVQCYQqTEHqn7e+ARRYY5iHsfUnVEElEKowBal/3voGUGCNYR7G1p9QBZVAqMIUpP556xtAgTWGeRhbf0IVVAKhClOQ+uetbwAF1hjmYWz9CVVQCYQqTEHqn7e+ARRYY5iHsfUnVEElEKowBal/3voGUGCNYR7G1p9QBZVAqMIUpP556xtAgTWGeRhbf0IVVAKhClOQ+uetbwAF1hjmYWz9CVVQCYQqTEHqn7e+ARRYY5iHsfUnVEElEKowBal/3voGUGCNYR7G1p9QBZVAqMIUpP556xtAgTWGeRhbf0IVVAKhClOQ+uetbwAF1hjmYWz9CVVQCYQqTEHqn7e+ARRYY5iHsfUnVEElEKowBal/3voGUGCNYR7G1p9QBZVAqMIUpP556xtAgTWGeRhbf0IVVAKhClOQ+uetbwAF1hjmYWz9CVVQCYQqTEHqn7e+ARRYY5iHsfUnVEElEKowBal/3voGUGCNYR7G1p9QBZVAqMIUpP556xtAgTWGeRhbf0IVVAKhClOQ+uetbwAF1hjmYWz9CVVQCYQqTEHqn7e+ARRYY5iHsfUnVEElEKowBal/3voGUGCNYR7G1p9QBZVAqMIUpP556xtAgTWGeRhbf0IVVAKhClOQ+uetbwAF1hjmYWz9CVVQCYQqTEHqn7e+ARRYY5iHsfUnVEElEKowBal/3voGUGCNYR7G1p9QBZVAqMIUpP556xtAgTWGeRhbf0IVVAKhClOQ+uetbwAF1hjmYWz9CVVQCYQqTEHqn7e+ARRYY5iHsfUnVEElEKowBal/3voGUGCNYR7G1p9QBZVAqMIUpP556xtAgTWGeRhbf0IVVAKhClOQ+uetbwAF1hjmYWz9CVVQCYQqTEHqn7e+ARRYY5iHsfUnVEElEKowBal/3voGUGCNYR7G1p9QBZVAqMIUpP556xtAgTWGeRhbf0IVVAKhClOQ+uetbwAF1hjmYWz9CVVQCYQqTEHqn7e+ARRYY5iHsfUnVEElEKowBal/3voGUGCNYR7G1p9QBZVAqMIUpP556xtAgTWGeRhbf0IVVAKhClOQ+uetbwAF1hjmYWz9CVVQCYQqTEHqn7e+ARRYY5iHsfUnVEElEKowBal/3voGUGCNYR7G1p9QBZVAqMIUpP556xtAgTWGeRhbf0IVVAKhClOQ+uetbwAF1hjmYWz9CVVQCYQqTEHqn7e+ARRYY5iHsfUnVEElEKowBal/3voGUGCNYR7G1p9QBZVAqMIUpP556xtAgTWGeRhbf0IVVAKhClOQ+uetbwAF1hjmYWz9CVVQCYQqTEHqn7e+ARRYY5iHsfUnVEElEKowBal/3voGUGCNYR7G1p9QBZVAqMIUpP556xtAgTWGeRhbf0IVVAKhClOQ+uetbwAF1hjmYWz9CVVQCYQqTEHqn7e+ARRYY5iHsfUnVEElEKowBal/3voGUGCNYR7G1p9QBRN49vkX3WbbHeDe+aFppgsXL5nwgrHmP2/egkkvKkIVpiD1z1vfAAqsMczD2PoTqmACISQdOWtOxxeGNe8Dy1e69TbZbVKwIlRhClL/vPUNoMAawzyMrT+hCibQS6hScNK8ekw5yWNNJ1RhClL/vPUNoMAawzyMrT+hCibQbagaG1vl9jzwRK9+Lid7dIqw+VQhoQpTkPrnrW8ABdYY5mFs/QlVMIEQqhqvkZLNIatd+LJOARKqMAWpf976BlBgjWEextafUAUdCUeeGo9KTVWoKocBAACSwtqnEapqSghCnbRO31koIGn+cEqPUAUAADlj7dMIVdAVzUGJ039YR6l/3voGUGCNYR7G1p9QBV3RfPE5F6pjHaX+eesbQIE1hnkYW39CFXSFjjrp6JOOQpWTuKUC1k7qn7e+ARRYY5iHsfUnVMEEdDqv8bSdCEeemqdbpwCtU3+CUIUpSP3z1jeAAmsM8zC2/oQqmEAIUM02nsprJASrTvMSqjAFqX/e+gZQYI1hHsbWn1AFlUCowhSk/nnrG0CBNYZ5GFt/QhVUAqEKU5D6561vAAXWGOZhbP0JVVAJhCpMQeqft74BFFhjmIex9SdUQSUQqjAFqX/e+gZQYI1hHsbWn1AFlUCowhSk/nnrG0CBNYZ5GFt/QhVUAqEKU5D6561vAAXWGOZhbP0JVVAJhCpMQeqft74BFFhjmIex9SdUQSUQqjAFqX/e+gZQYI1hHsbWn1AFlUCowhSk/nnrG0CBNYZ5GFt/QhVUAqEKU5D6561vAAXWGOZhbP0JVVAJKYQqRETEGAlVUAmEKkRErLuEKqgEQhUiItZdQhVUAqEKERHrLqEKKoFQhYiIdZdQBZWgFxoiImLdLXd7AAAAAAAAAAAAAAAAAAAAAAAAAAAAAAAAAAAAAACjwMLFS9w7PzRt3PU22c09sHwlH4vNgLGxVW7PA0+cUP9Gz5u3gNdBTVFtVXu9BspJk9A8ja+HzbY7wD37/Iu8JmqA6qh6qv+XkyYQxhvr32irxwFkTQhUjW8QNVKCVR6EUNVp5wr1Qu9tvcfb1d3qA0fOmkOwqgmqZbtwFEKV5isnAUA7wg61+U3TajrUD0JVXoQ/ooKt6h52qM1HKltNhzQI7/fG1wChCmCKCH+tWg1SbyT+Iq0/hKo86VR36wi24PVSH1rVOECoAuiRdm8qTgHmQdhJhr9ag+w0602ncNTu/c8fXPWg21DV3BsIWQAtIFSBRTiCyY6zvhCqoFOosgiP4Y8uAANCFbQivDb0OignQY0gVEG7/t8OvTb6eRxA7Wn3piJU5U049M+h/npCqIJ+Q5VeE3pt8AcXQBPt3hw0zryhcdabTqGq1Q630+MgHfoNVf0+DqD2hAbZfDSi1XTIBxpnvekUjsKRyuZQ3Wo6pEe/73HVnrMYAC2w3li8afJBtW4Oz+EoFaG6vnQKVcLqAxzBrg+dQpVq3Ryew2OapwNAA+GNEqRp5kMIUI31lzTNetL8Xm/U2rnqddA4T7sQBqNPCNONNW1V21avFet1AgAAAAAAAAAAAAAAAAAAAAAAAAAAAAAAAAAAAAAAAAAAAAAAAAAAAAAAAAAAAAAAAAAAAAAAAAAAAAAAAAAAAAAAAAAAAAAAAAAAAAAAAAAAkBZHzprj1ttkN/fA8pWunAQAAAAAvWKFqmeff9Fttt0BSYStlNYVAAAAagyhCgAAAGAK4PQfAAAAwBRAqAIAAIBkUGBRcDnypHPdvctWuD2+e6J73wbbu3d9dCu39R6Hu7uWPugDzSOPPeVmHPMj98HP7eTe+aFpbosdD3aL7ljq1q5dOynwvDL2qjtjzuVuw62+7ed9z8e2djvvd6y7e+nytvN/6kt7+fn1HEefPNc/pjlUjY2tcnseeKI/rabTa+XkdZ546jl3wJGnu09vsbdfhtTvsc0eR7gbFt7pXn994vMuXLzEz3PevAVuxcon3f6Hn2r+3jG0WtfxbV6ExqeffcEd88Pzxrfrxtt8x13/izvM7aTfQb+L1k/bVPNrG//wx5e6p555fsL8+p2+c8Rp48v9+GZ7uJPOvNi9+OuXJy03hNc7lyxz5170s/G66bGnnHWJG3t1lVu1+jV39c8XuS9uf6DfRtpWx512gfv1S69MWp7WXbXebfrxfj4tS7VVjVXrcjYAAIB6EXbw/2v9bfzOUjvARrUz/P4P5o7vnBttDjziyaef8zv95nmldrA33Xr3pPmn7TTDnF92G6rC72EtQ7/XhZdfP+F5Q6jacMt9xwNKo/q9lz306ITH9EqndVXQsbartpPWr5zds2bNGnfC6ReaNZIKRuWs62gbW8uV2tba5uWsHj1Wy9VrwHqMAueO+840x4455TyndSsX5QOVtrW1TeXeM052L78yNuH5AQAAakHYwWunqiM9OsKhHaOOKBx+wjnjO0PtVJc9/Jg/4qMjFzNP+YmffubcK8Z3kNq5fu/Ys/yyTjzjIvf8Cy/5MU2/7a773KZFuNhy10MmTD/0+LP9cnb9znHjz63nWPHok273A07oOlRZrF79mvvZ9b90H95oZ7f17odNOEoTQpV2/gorOtKl537xpVfGf+9Zsy9uu/xOdApVYZs/9Mjj49v1R+dd5acryGj9y4esc/k1C/10Pe7aGxf7IKP1fea5F935l17nfnDWJX5ebVuF2lAD/T6aHo7k6feaXvyrI0+aLhSqNP0TX/ymu+q6W/16aNmqWePRQx3VUyDS2D33Lvdjn//qfu7xp54dX5aOUGl7q9Z6fAhcWi+tj9Zr3vybx+cHAACoDWEHryChnWU52aMd5wc23NEdctzZk06f3ffgI+4jG+864QjJwyuf8DtaBauwM21EO1PtVHXaUP8P82++w0E+1PiZGginpfoNVULrcfDM2W7jbae7Z559YXz+EKrm/vTaScsIv1tzsOmVTqHK2uZaR61rYwgMy3nvJ7/mTw36GVug30vb+NuHnjIhOAmdIvzyTjPcBl/+lg+t5WS/nfX76vcuJ3nCttPY0vsfnjCm9db6N9ZH03SKUaFK4crP2ICClUK1jla9umr1pHEAAICkCTv4xnAUCGNWuNDRCR2l0M5eO31NC0Glk1dcu3DC/Fa4EL2GKh1h0VGc7x51hj9S0nh9VfNywnPr6Es5aZwQbBp/t37oFKqsba4jhLtPP2HCY/Sv/m/9zs0oJLb6vUIQ0rh+/3KyuZ0DGlOYu/2e+yeN6Shl47LC76tp7Ww+aggAAFAL2u3gw5gVLsKOvnFMO3JrJ9ps2OGH+a0AIHoJVfc/uNJ9dto+k54r2LycdqHK+t36odW6ttvm1mPa1aEZLVO/V2NoasQat7ZzoN3yQv3CWNhumtbO5u0BAABQC9rt4NvtzK3goQuktdPs9lqkML8udi4nTcDa2VuhQ9f57LTfMf60l64b0lEVjYWja9ZyUgpV4chZ83IsBnGkqnn+QHOoCkfZmk8vAgAAZEG7HXwYs8KFFTzC/I0Xo7cjXLOlQGR9Isza2VuhQztw7ci/sc9M99LL3S0npVAVpuk0XPOnJ5vR79XPNVXN2yegsW5DlUKbboWhaVyMDgAA2dFuBx/GrHBhBQ/txPXJMu1Uv77XUW7JfQ+NX7CueXTxsu51FS5U1yfTtt3zCB8C9Km38KkzXbSuT+Tpk3nNO3srdOgTcLp/kua99fal/qJ6LUfTdd8lXWjdvJyUQpUIn/7Thf033HKX367hd+z203+6QFy/s/Xpv+btE+glVInFd9/vbwkhf3zh/PFwrZronly63YKWGbNdAQAARpJ2O/gwZoWLVsGj3X2qgo07YR15CTeIbFTT9NzNO3srdChcKFQ0L0PqVgC6H1TzclILVTqSp0Da/PsFG5elYKnlW/O1uk9V8/YJaEyP6zZUqRbt7lMlY7crAADASNJuBx/GrJ1gu+ChI04/vfJGf9f1sHNVsNEpKe2AG2+3oJ2w7uQdjq4oTOnThrpnlbWzbxU6tEztzMN9lfR8ulO5jo5Yy0ktVAn9jtfeeJvfVmG76g7ss39y5aR5+7mjeuP2CWhMj+82VAnVdPmKx/3z63k1j9ZXrweta/Pd3wEAAAAAAAAAAAAAAAAqJJzm6kXrdBkAAAAAAAAAAAAAAAAAAAAAAAAAAAAAAAAAAAAAAAAAAAAAAAAAAAAAAAAAAAAAAAAAAAAAAAAAAAAAAAAAAAAAAAAAAAAAAAAAAAAAAAAAAAAAAABA6qyzzv8FkhDLg4GuNr8AAAAASUVORK5CYII=;clipPath=inset(10.54% 3% 1.17% 3.33%);" parent="1" vertex="1">
          <mxGeometry x="520" y="1090" width="597" height="560.8825622775801" as="geometry" />
        </mxCell>
        <mxCell id="uaC2PHWClK9KAIYIgDp3-3" value="" style="shape=image;verticalLabelPosition=bottom;labelBackgroundColor=default;verticalAlign=top;aspect=fixed;imageAspect=0;image=data:image/png,iVBORw0KGgoAAAANSUhEUgAAAlUAAAJTCAYAAAAhX+OvAAAAAXNSR0IArs4c6QAAAARnQU1BAACxjwv8YQUAAAAJcEhZcwAAEnQAABJ0Ad5mH3gAAHIcSURBVHhe7Z0JuBTVmYYxiUkmZnEmE2PMYtZJxiRGMzEx0ahR1LjENSquuIuoqKDiEhUXEFdERQQVRZQoiCCKOwouaFAEV0QUUARxX6LcC3LvmfoPXXRX37/Xc7u6T5/3fZ73EetU9+3uv/uvr6uq63QBAAAAAAAAAAAAAAAAAAAAAAAAAAAAAAAAAAAAAAAAAAAAAAAAAAAAAAAAAAAAAAAAAAAAAAAAAAAAAAAAAAAAAAAAAAAAAAAAAAAAAAAAAAAAAAAAAAAAAAAAAAAAAAAAAAAAAAAAAAAAAAAAAAAAAAAAAACABqGtrd2MHv+AGXrD7WbFihUmsxigYj786BPzj/OvMf96+kXeRwAAucx64RVz0jlXmffe/4gG2WTIxu+si683906Zbms7Zdoss+Uex5sX5iyg1lAR8p7pdfpl5vVFb9lQft7lN5ljThtsPv5kaWrvpU8+bTHvf/ixkf9mFgFAo/DqgkWm6569zcXDxtTlAzpu0lSz3ubdzfRZs1P9+63Llpthoyaa62+527S3t9smuVP3U+1ejMwqDYUEg+PPvMKce+kos3z5ZzTTCpCN32XXjDMH9Bpg3nnvQ7sBlA3h+UNGe7e3au78N8z2+/W179VX5i+q+LHL57wen7dmQd4/8j6S95O8dyRkSUB/5F/PpvZ6xu8BUf6dWQwAjUChUBUvlwZcyhPPGWpaWpYV/XDPeeV1s/uhZ5ihI283K9raVq3bmaFKvr1163FWWY9HkL8tz1GeqwSrq2+60+xxeD/z1jsflP1Y5O/I35O/K38/s7jTWdrSavr0u9Ic2ucC8/G/P63Z32lW4vez1Fz+/56HpptzBo00ElbtCh4gj/XQEy60z+PleQuretyEKndy+8ay6AuO7K269c6pRg4tZ1apOY8/9YLZeMee5uQBw82nS9ljBdAwlApV8UZIo5IQI3uA1t/q4A7f6OoZqmQjddDxA1d965S9VceefrltlplVSpJWqBJkz5p8K260b6fx6x6HbBcL1U7eH9r65SoboSuuG2/GTHzIae9UXO94o5pZXHMk9N847n77Gbrtroftl4DMUILOqEW99loLrnXOtVDvioNlNcpr+9Irr9kw89zseU6vU9xjy+1XueS+H+QLQmYxANSbNEJVHF7kXIT8b1X1CFUtrcvsXqkJ9zxq/jlhshkSbWwrbWox8UZW/m6tQ5UEA3mt4nODyiV+XSp9jP/+ZKkZeMVoM/7uRwpuxEvh456RuKZacCo2Vkviw9Olzt8p9zOgUagX5BKHnkqDl3wRkM9/tV8Iqn0P15v4NdXqUWysHOJDkfFh7cxiAKgnhRppvFwaaClLNQX5JiXfqLTblms5jafcDYoEO/mmKbvPJahkFleF/B35e2k0+yXvvG92O+R003/wqIr2tsS3k8OHchgxs7gkb7/7gekeNWx5naoNRYSqzqHQnt58ah2qpkybZes59o4pFd13fLhKvlxV82MQQpXOpMlP2HrIfzOLACBt4m+bmp3dtOLzQK66YaK6t6Neh//iwCDneb351nsl/7ZsCA48bqD9CbXswcksLhiq5Jc5g6+5deWehRLnQMXBo7MsFJDPuHBExSe5y4m4W+x+bNUbQ0KVO/GeXlH+nVmsUslnIJ/4fVIsVMWf10r3lsaHq+S2V14/oeJDsPHz6uz+VGuKBadiY+USf2FyuQ8A6ETKaaTVEjfSYhugakNVvHGT25ajfMuXcPf8nPmr/o78Tfn2PGj42JJN/sWXF5hNdzmmw16i+HHkN3tZR9aV28htM4udKXYotRAznp1jn381NZYayqFSeQ2llpUeBiRUufPMi6+YjbY7ouAXk1zi8JH73q/UYu8TOf9Q1qmmnvEXLAnplV7OglClE/eZHQ84xSxc/LY3rwtA0xJ/sHMbabzhyG+2xdTOvZJrP0lokY1yoY1BZ+6pkvuQ+5ITujOLViHnoVx45c32Z8jzXltsx6UhyS935DHKY7UrFkC+mWvPM36ttGY/JXOoRHs8LsiufglJcv+ZRUWJz8XSalQOsidP9uiVu1cvF0KVO3KoTV7Dcg5Vx+Gjmg211gtykc+wfIZcnru8Z+W9K5+7Ul9kciFUFeb2ex8r+/0BADVGa6TxhqOcBhbfXttgy16hfhdfX/SwUWeGqri5FDo0ISfJyq/nbhh776pxudSDfHOWxyk/j84sTlBsr1Ox10ouzSCXaCjnsE0lxCeoyrf+cu43fo0rPWQTIxtT2Usi91HpdbwIVe7Ia1ju36tlqIqfu8tekXhPq3zm5LOXWVwSQlVh4j2ZlZ7nBgA1QGukcfN0DVXl0FmhKv4WLc1FmkxmcYK4MeeeWyRBSs6TKtbk4/MWtGtEFXutJIzJBSbLOcG4UuLXTa6PU+qQUGe8xnH4rOSwo9AZoSq+j8602IYsrqm8r+X9nVlsKTZWCyr5LArxe7zY8yuE1gtyqfSxFEKCudSgkoAePy+Xvx3fR/57wdVivS9+TbV6FBurhFJ1A4AUiT+Qfc660owcc4/p3W+I/RYqH3StgRQyv7HE96utW63FGqqcGH70qYPtnqFCe8bipprfxCTwSPApdM7KlMxhvNw9XDGlNjQzn5trg54Et0J7wnKRv79oybu2FrI3Sg5Nxs9/m24nmB59LzZj75xiz0mRkCevcakLQXZGqIpfX/l7UtvMYkstQk+xDVUhOmsjJXtT9j3qXHWPTFxv7XWoBaXeX/kUeo+XQ/z61TpUxecn5j/G+LFr74dqrbZO8WemmvdhLvH5jNqPRDrr/VqqbgBQY2QPipwbI4eD5Gf28qH/6z4n2Q25bNDlZ/flNs/4A11N85HwIyFImlelVzLPJ34cxX7hFjdt2aOVG57e++Bjs0/Pc6zy78xiS6k9WaU2NLJXR/bulHO444OP/m3OufQGG8JOv+BaG5zym62Em8VRjaR2Mm3NhlsfagNAscMx8WFR172Bcm6Y3E8lhxHjwOX6t8uhszZS8ftSq2lcb/k78vcyizsg5/DJc1+wcInT8y71/sonfo/La16thTbOMrWTXIqk3MdSCNnbK18IKjmMGD8v179dLp0VquLzGbXXtNz3q4RQmYmi0OVQ4vshVAHUCbmYowSI4TfeYSZE/5bzjHI/kJU08vgDXU3ziffiyN4x+a/LtVbiJlhsgx835vzmIyHzkmiZhKc33nwnMRafbF9oT1M5r1V8LZn4yu2ZxQlkIyyvg5xIX+jwpYbcTsLONaMnFZwmI/627LqBmFLFiffyWstt0ghV8jfkb5XaSJUiPvdO9szlT1ob17tYqJLALodl5bEU+5FGOVTyWRTi97j2GsS/vpMQXuwLjGy8h95wuxlx810d3vPyHi4VKEsRn6NY7FB9PvHzKvd1cCV+37p+ZuIfGWh7ucsJVfKlTI4iFPsxDaEKoIHQPpBxI5dmUK6VNh9prPILoHhiWDlRXE5greZaSPHeoFJ7u+a//qbZdu8T1QanIRsUeVzS/CUAZhYnKGejF5+wXmxjJGFQXsdKTwQvB9kbIHsFZIOYWZRADideE238Sx2eLHRZiWKkGari17DQ8yyXODxqzzOud7FaSiiTcFzNryU15DUs9vdyKRaqhEf/9ax9P18+4rYOz01C+fSZs81e0e1lD6jMNpD/npDXWAK6BPXMolXI5/DsS0aaaU89X/JxymdQXmN5rTOLipJmqJI93bLHu9DzLJc4PBZ6nnHvLVQrCeMyJZE8jmK/loy/NHGiOkADUCxUldPA4ttXGqryL7cQb4i0Zl+KUudExcShoNzDV/EGqNgvA8t5reQxxRc+LLS3SpbLeC3Chzx22dOm7XmJA1+x5xhTaiOgkVaoktdUfhQgf6vc+mrEr1Wh+4nrXSjkxBeVlfdjZ83J1pmXVJDXST5j8vjiOQRFOUwpF6qVvyP/XbhIPywn0+XI51T7YiKfw99ue1hZzzves1xu30gzVMWfCddrP8WvVaH7KfV5knpLj5QvnnJfmcUdiF9LLqkA0ADUI1TFG578SwLIXHzSlItNGJtPJecsyUay3ItxSmOVwyTSFOPrWmmU+1rF13qSx6ld+DA+72nyIzNKPrZqkA2eNOjcPW7yGkuolfqVOtldaORQFW/ASu2tLEV8BflC86nF9ZbXIT9UyZX2+547zD7far4cFCL+yXw5h11LhSpBPjNybpQEK3mcp553tf237CmWLzuFDiMLcXjNv0xIfGhRDlXJ/WcWF6SRQ1V8uF6eZ7U1LOeLVLHPk/QyeT/LZ7ZYWIr3qrkGQADoJIqFKmkI5Vpuc5STsaXxSsPIn1xVGpEEKgk+Ei7KCVayW102CIUaV0y8MdBORteIzyuRsJNZpBK/VuU0ewmNsmHUTjiNg6a8LjOfn1t2qCwXOfdK9kDIBjRu4BKk5HBoJSG2UtIIVbkhQV7jzOKKyb2fQntb4nrnhyoJcrInUJ7rRUNvNjJpd2bIGQksEmLyg4xGOaFKkOcqP4aQx/unvx1lD08VC1O5SPCUc87i11reO3IOmfaZ7izSClXxHnOx2JepUsT3U2wvkxaq5LWUz4osl0BVqg/GXyYKnfMJACmjhaqY+AN+0jlXGdnoZxZb5NyL+PILmUUlkUMMsmGQczbmvf6mejv5m/JNcbNde6nndOQS700q59yVeJd+OVN9VEIloaoU777/kf31n+ytO7LvJTbsSNOUDWm5G7xiSKPfYf+T7QZQfuUpIa4z96hoxHvgXA7JFUP2Dp176crzVlyei9xObi/3kxs888kPVVKXqY8/Y/9fwpj8YKAWG7daTKgsj/O6m++250/J45fnUc77TD4/8t6U99Lsua8ZOUwut6/l4af4l4e13CMjnw/pTaX2DpUi9xBwsZCfH6rsF7mRt9vbyXLpvaV6VbnvCwBIiUKhKv6A/2X348yd90/r0Gzlm7jMmSfjD0Tfpoo1Y1lX9mRJUJLGKOEhM1SQ52bPs9/yCp3fIRtB+ftaA7xvypM28D325PP2UIRsPGRPluu3T43ODFUxsldJ9hzIhMwyifMuB51mG6ds8AtZ7mFN2XBIsJXXTQ79deYeFQ0JhVJHCb/yg4TOCIeC3M/DTzxjLwUiz0U28tUGKnl/DLluvH2N5RBW/heIXOJ6y54aCf0SfuX1l/f2Q4/NrNkev/h1tBN0R++PzOIOVBKqBHm88lnb/5j+9nnIe6PUIUBBxuXLj7wO8v6UYFWr5x4jew+lRnJJlFJ77CpBep3sQZZwKaEqd37QSpEvd/IeksdZauLouPfKe+im2+637+W4BuUEx/iUgvzTKACgjkhDlQ2yhA75fzmPRL5ty0ai2AmrgjRRaabSDPLXlTHZO3TtP++yjVca/WPTn6tooxo3u99v38M2qNzQ8tHHn9g9FFrjko3O/Q8/Zc+1kucRbyxdmmUh4r1lIo1NR0L0ZdeOsxcvjUNgMQsdKozfU/JrRdmQy0ZQ9uzlXwajEuQ9JgFE/q4cviv169M4VMWPVd5b8hjK+aLggjx3OUdH/l6hw7WyTD6Dexx2pn0u8mVDfoknnwX5giR74uQzIcFBZgiQjXrmpjYkyeczDlfy+srfKRbg0kaenxx6lC9MEqTjGhSy2Bcd6RlzXl1ov0zKfUmPuuX2BwteC6oc5AuLvMelRnI5ilIhPw5V8eOVXiWveTl7OuW+pffJ35IvYJnFAFAPZOMvISD+MMs3IzkcJ01r9G0P2IAkzUtr3Bqyt0OagexViU94lo2f/P/AK0abl155zWkPhWw0pfn1PGVQ0b0IaZB7wdLYtL6ph468byUs9PrHZTYodMYG377nxz9gD4OVszGTE4NlD6kEOjknSd7vadVdnr98OZA9rrIBzyy2yJ5g2cDKe1FCk3y+B15+kw1S199yt31/SsCSPV4SNApdIFeeiwQzeY7yPq/kmmk+IXvjZM+f9Cf5d6kAVA7yfpT3xJOzXirrPbHk7fdsiJVAJ18+K9nTLYFZwmA5v9oFAABoWGQDLOf4ZP43VSRMSagqdl4i+IO8jyoNdBJ05T0g523V+0smAAAAAAAAAAAAAAAAAAAAAAAAAAAAAAAAAAAAAAAAAAAAAAAAAAAAAAAAAAAAAAAAAAAAAAAAAAAAAAAAAAAAAAAAAAAAAAAAAAAAAAAAAAAAAAAAAAAAAAAAAAAAAAAAAAAAAAAAAAAAAAAAAAAAAAAAAAAAAAAAAAAAAAAAAAAAAEBT885HrQYREbHZzWz2AGqHvNEWvbsUERGxaSVUQSoQqhARsdklVEEqEKoQEbHZJVRBKhCqEBGx2SVUQSoQqhARsdklVEEq+BCqMg+1izaGYUj9w9Y2gAhtDMPQtf6EKkgFQhX6IPUPW9sAIrQxDEPX+hOqIBUIVeiD1D9sbQOI0MYwDF3rT6iCVCBUoQ9S/7C1DSBCG8MwdK0/oQpSgVCFPkj9w9Y2gAhtDMPQtf6EKkgFQhX6IPUPW9sAIrQxDEPX+hOqIBUIVeiD1D9sbQOI0Mawfs59XV9eC13rT6iCVCBUoQ9S/7C1DSBCG8P6+ZetVpgtu64w8xbp452pa/0JVZAKhCr0QeoftrYBRGhjWB932nVFVBdj3egPbealeS3qep2la/0JVZAKhCr0QeoftrYBRGhjmL77HfBZVJOVgUq86ppl6nqdqWv9CVWBMG7SVLPe5t0TTp81Wy3++x9+bLr1OCuxrtw+M5yg3HUJVeiD1D9sbQOI0MYwXY88OhmoLhi0XF2vs3WtP6EqAOJAlRui5N9aAIpD0sXDxqxa/uqCRabrnr2d1iVUoQ9S/7C1DSBCG8P07Hvq8qgW2UB1+lnpBCrRtf6EqgCY+vgzRgJQ5n9XIWFIQlHumISh/GWCtrySdQlV6IPUP2xtA4jQxjAdzx2YDFTH9vlMXa9WutafUBUw+aGqpWWZOfGcoVb5t10pQ7xnK97bVcm6AqEKfZD6h61tABHaGNbewVfKtiQbqA4+LN1AJbrWn1AVKBKkJFDlhqJ4We7hvJj8w3qVrCsQqtAHqX/Y2gYQoY1hbb3uxmSg+vteK9T1aq1r/QlVgSKBJ/+cqnqEqswwAAAEypQpxnzhC9lAtfPO8t/GR9umEaoCJD48l3/ojlAFAABpMnOmMd/8ZjZQbbGFMStWEKrAEwoFKqEeoaqRzDxUdv0HLPUPW9sAIrQx7Hwfn9Fi1l23PXrdVwaqX/26zbwwt7YX9yyla/0JVQFRLFAJskzGtPH8k88rWVcgVKEPUv+wtQ0gQhvDzlXCk4SoOFBJuJKQpa2bpq71J1QFguw1kqCj7VnKRdaTPVCyJyqzyKItr2RdQhX6IPUPW9sAIrQx7Dxff2up+eMm2UD1n//Vbu6b0hjbCNf6E6oCIA5U8t/MooJoh/W0w3lCJesSqtAHqX/Y2gYQoY1h57ntdtn5/OQE9VsnNs72wbX+hKomJz5MJ6GqkIXCUu46uYfycil3XUIV+iD1D1vbACK0Mewc5VIJcaAS5VIK2nr10rX+hCpIBUIV+iD1D1vbACK0MXRXLuaZG6jkYp/aevXUtf6EKkgFQhX6IPUPW9sAIrQxdFOmm8kNVDIdjbZevXWtP6EKUoFQhT5I/cPWNoAIbQyrVyZEzg1UMmGytl4j6Fp/QhWkAqEKfZD6h61tABHaGFbnBYOSgerIo9Ofz68SXetPqIJUIFShD1L/sLUNIEIbw8q96hq5hmE2UO13QGMHKtG1/oQqSAVCFfog9Q9b2wAitDGszJvGJAPVTrvWZ4LkSnWtP6EKUoFQhT5I/cPWNoAIbQzL9457Ws0aa2QD1V+28iNQia71J1RBKhCq0Aepf9jaBhChjWF5TpnWYtb+TnY+v//bqM28slBftxF1rT+hClKBUIU+SP3D1jaACG0MS/v08y3mf36eDVTy75kv1H8+v0p0rT+hClKBUIU+SP3D1jaACG0Mizv39aV2r1QcqGRv1dTH/QpUomv9CVWQCoQq9EHqH7a2AURoY1hcOW8qDlRyPtWd9zZ+z9d0rT+hClKBUIU+SP3D1jaACG0MCyu/7IsDlTh6rJ+BSnStP6EKUoFQhT5I/cPWNoAIbQx15dpTuYFq2LWNN59fJbrWn1AFqUCoQh+k/mFrG0CENoYd7XFUMlBdOKhxp58pV9f6E6ogFQhV6IPUP2xtA4jQxjDpSackp58542z/A5XoWn9CFaQCoQp9kPqHrW0AEdoYZj3nvGSgOu6Exp9+plxd60+oglQgVKEPUv+wtQ0gQhvDlQ4ekpx+5pDDmydQia71J1RBKhCq0Aepf9jaBhChjeFSM2JUMlDt0c2f6WfK1bX+hCpIBUIV+iD1D1vbACK0sdC99fZW84UvZAPVX7dvvkAlutafUAWpQKhCH6T+YWsbQIQ2FrL3PtRq/vO/stPP/GnTNvP6W/q6vutaf0IVpAKhCn2Q+oetbQAR2lioTpvRYtZdNxuofr1+m3lhrn/Tz5Sra/0JVZAKhCr0QeoftrYBRGhjIfr8yy3mV7/Ozue37g/bzeNRyNLWbRZd60+oglQgVKEPUv+wtQ0gQhsLzdeWLDV/3CQbqP7rm+3mvimN38ddda0/oQpSgVCFPkj9w9Y2gAhtLDS33S47n98XVjfm1onNH6hE1/oTqiAVCFXog9Q/bG0DiNDGQvLveyUnSL7uRr/n86tE1/oTqiAVCFXog9Q/bG0DiNDGQvHgw5Lz+Q2+MpxAJbrWn1AFqUCoQh+k/mFrG0CENhaCx/ZJBqpzBzbHfH6V6Fp/QhWkAqEKfZD6h61tABHaWLN7+lnJ+fz6nhpeoBJd60+oglQgVKEPUv+wtQ0gQhtrZi8YlAxURx7dXPP5VaJr/QlVkAqEKvRB6h+2tgFEaGPN6lXXJOfz2++AcAOV6Fp/QhWkAqEKfZD6h61tABHaWDN605hkoNpp1+acz68SXetPqIJUIFShD1L/sLUNIEIbazbvuKfVfOUr2UD1l60IVKJr/QlVkAqEKvRB6h+2tgFEaGPN5JRpLebba2fn8/u/jdrMKwv1dUPTtf6EKkgFQhX6IPUPW9sAIrSxZvHp51vMz/4nG6j+5+ftZuYLzT2fXyW61p9QBalAqEIfpP5haxtAhDbWDM59fan57e+y8/mt/Z12M/VxAlWurvUnVEEqEKrQB6l/2NoGEKGNNYNbbJmdfmaNNYy5897G78tp61p/QhWkAqEKfZD6h61tABHamO/+bZfkfH6jxxKoNF3rT6iCVCBUoQ9S/7C1DSBCG/PZffdPTj8z7Nqw5vOrRNf6E6ogFQhV6IPUP2xtA4jQxny1x1HJQHXhoDCnnylX1/oTqiAVCFXog9Q/bG0DiNDGfPSkU5LTz5xxNoGqlK71J1RBKhCq0Aepf9jaBhChjfnmOeclA9VxJ4Q9/Uy5utafUAWpQKhCH6T+YWsbQIQ25pODhySnnznkcAJVubrWn1AFqUCoQh+k/mFrG0CENuaLI0YlA9Ue3Zh+phJd60+oglQgVKEPUv+wtQ0gQhvzwVtvbzVf+EI2UP11ewJVpbrWn1AFqUCoQh+k/mFrG0CENtbo3vtQq/nP/8pOP/OnTdvMwrf1dbGwrvUnVEEqEKrQB6l/2NoGEKGNNbLTZrSYddfNBqpfr99mXnyF6Weq0bX+hCpIBUIV+iD1D1vbACK0sUb1+ZdbzK9+nZ3Pb90ftpsnniZQVatr/QlVkAqEKvRB6h+2tgFEaGON6GtLlpo/bpINVP/1zXZz/9TG77WNrGv9CVWQCoQq9EHqH7a2AURoY43otttl5/P7wurGjLuDQOWqa/0JVZAKhCr0QeoftrYBRGhjjebf90pOkHz9Tczn1xm61p9QBalAqEIfpP5haxtAhDbWSB58WHI+v8uGEqg6S9f6E6ogFQhV6IPUP2xtA4jQxhrFY/skA1X/85nPrzN1rT+hClKBUIU+SP3D1jaACG2sETz9rOR8fn1PI1B1tq71J1RBKhCq0Aepf9jaBhChjdXbCwYlA1XPY5jPrxa61p9QBalAqEIfpP5haxtAhDZWT6+6Jjmf337dCVS10rX+hCpIBUIV+iD1D1vbACK0sXp505hkoNp5V+bzq6Wu9SdUQSoQqtAHqX/Y2gYQoY3VwzvuaTVf+Uo2UG3ZlUBVa13rT6iCVCBUoQ9S/7C1DSBCG0vbKdNazLfXzs7n97vft5lXFurrYufpWn9CFaQCoQp9kPqHrW0AEdpYmj79fIv52f9kA9XPf9FmZr7AfH5p6Fp/QhWkAqEKfZD6h61tABHaWFrOfX2p+e3vsvP5fWeddjP1cQJVWrrWn1AFqUCoQh+k/mFrG0CENpaWW2yZnX7mq1815s57G793NpOu9SdUQSoQqtAHqX/Y2gYQoY2l4d92Sc7nN3osgSptXetPqIJUIFShD1L/sLUNIEIbq7X77p+cfmbYtcznVw9d60+oglQgVKEPUv+wtQ0gQhurpT2OSgaqCwcx/Uy9dK0/oQpSgVCFPkj9w9Y2gAhtrFaedEpy+pkzziZQ1VPX+hOqIBUIVeiD1D9sbQOI0MZq4TnnJQPVcScw/Uy9da0/oQpSgVCFPkj9w9Y2gAhtrLMdPCQ5/cwhhxOoGkHX+hOqIBUIVeiD1D9sbQOI0MY60xGjkoFqj25MP9MoutafUBUY73/4senW4ywzfdZstfDx+Hqbd1fNv522/rhJUzvcN6EKfZD6N7/3vvS4Of3+AebA246wyr9lmYzZBhCRf5vO9NbbW83nP58NVH/dnkDVSLrWn1AVGBcPG6OGo5g4JMl6mUUF0dZ9dcEi03XP3h2CFaEKfZD6N69PzJtttrthJ9OlXxdVGZv/wfyavgfufajVrPmf2eln/rRpm1n4tr4u1kfX+hOqAqClZZk58Zyhib1JnRGqJDjJunKbzCKLtpxQhT5I/ZvTe2ZPM986fy01TOX67Qu/bWYsnqHeh6vTZrSYH6ybDVS/Xr/NvPgK0880mq49gFAVGBKmOiNUxUFNlH9nFlu0v0GoQh+k/s3n/Lc+MD+59H/UEKX588t/bm+j3Ve1Pv9yi/nlr7Lz+a37w3bzxNMEqkbUtQcQqgKj3FAV79GKzQ9ZxcKXdgiQUIU+SP2bz1539lXDUzHlNtp9VeNrS5aaP/4pG6j+65vt5v6pjd8PQ9W1BxCqAqNUqNKIb5O7V6qzQlVmGACgJnx/0PfV4FRMe5tOYqedVoYpcfXVjZk6Vf4NzYC2TSNUBUY1oUqQgJR7O0IVADQ69sRzJTSVY3zSugv7758NVOLEiQSqZkLbphGqAqPaUJUflDj8h80o9W8u7579mBqYxDWOW9uqjYlyW+0+y/WgQ5Pz+V02lAmSfdC1BxCqAqPaUJV/O05Ux2aU+jeXD8+dpQYmcd2dt7VqY6LcVrvPcuzVOxmo+p/PfH6+6NoDCFWBoQWecpC9TrL3SfZCZRZxSQVsOql/8/m1AV9XQ1OxUCW30e6rHP/RLzmfX9/TCFQ+6doDCFWBUSpUyeG83MN2Qnyb/OXaIUDt0J9AqEIfpP7N575jDlKDU7FQJbfR7quU51+SDFQ9j2E+P9907QGEqgCID9VJMMo3//BdHKDyLRTC4mBVal1CFfog9W8+p736vBqcJFCts9cm6pjcRruvYg69Ojmf337dCVQ+6toDCFWQCoQq9EHq35xe9fgoNTxp3vL8Lep9FPPGW5KBauddmc/PV117AKEKUoFQhT5I/ZvXUTPGmx8O+okapEQZm/TypIrfAxPvbjVf+Uo2UG3ZlUDls649gFAFqUCoQh+k/s3vRVOvNDvd9Hfz6yEbWOXfskzGbAOIyL9NIR96rMV8e+3sfH6/+32beWWhvi76YSX11yRUQSoQqtAHqX84duvZ35q7zDaAiNxlhZzxXIv52f9kA9XPf9FmZr7AfH6+W279C0moglQgVKEPUv9wdAlVL7+21Pz2d9n5/L6zTruZ+jiBqhksp/7FJFRBKhCq0Aepfzi6hKottlwRrbsyUH31q8ZMuq/x+xuWZzn1LyahClKBUIU+SP3DsdpQ9bddsoFK/OetBKpmslT9S0moajDa29vNx//+1Hz40SemrU2O1zcHhCr0QeofjtWEqn33T04/M3wE8/k1m8XqX46EqgZh0ZJ3zekXXGs23PpQewHNeJqXZcs/M/84/xqz6S7HmBdfXuBtsQhV6IPUPxyvGzvZmrvMNoCI3GWxPY5KBqqLLiVQNaOF6l+uhKoGYP7rb5qdup9qA9VBxw80W+x+bGLuvCnTZtmgNWzURG+LRahCH6T+YWsbQET+8pNOSU4/c+bZzOfXrGr1r0RCVZ2Rw32Dho816291sLntrofNex+snPYlN1RJ6Np27xNNn35XmqUtfhaMUIU+SP3D1jaAiNxl55yXDFTHn8j0M81sfv0rlVBVZ+T8qUP7XGB2O+R0s+Sd922Qyg9V2jLfIFShD1L/cLx76ixr7jLbACLi/x88JDn9zKFHEKia3dz6VyOhqs7kByYtQGnLfINQhT5I/cOx1InqI0YlA9WeezP9TAjG9a9WQlWdKWdPlZygLieqc/ivtmYeKhvVgKX+4VgsVN16e6v5/OezgWq7HQhUoSj115aXK6Gqzsg5VVfdMNGeUyUnpOeHqhUrVpjLR9zGieopmHmobFQDlvqHY6FQ9fTTxqz5n9npZzb5c5tZ+Hbytti8uvYAQlUDMO+1xWb7/fqarnv2Njff/qDZ5aDTzB6HnWmemPGiOX/IaBu4ZFzWy9zEOwhV6IPUPxy1UPXqq8b86EfZPVTr/6bNvPgK08+EpGsPIFQ1CDOenWP+us9Jdo9UvhK2nnpmjteFIlShD1L/cMwPVc+/3GI22CAbqH74o3bzxNMEqtB07QGEqgaipXWZPQQ48PKbzL5HnWvOvmSkueO+aebjT7IbfF8hVKEPUv9wlF/+zXhxof33a0uWmj/+KTtB8je/2W7un9r4PQs7X9ceQKiCVCBUoQ9S/zDd5q/Z+fy++EVjxt1BoApV1x5AqIJUIFShD1L/8Pz7nskJkidONOp6GIauPYBQVWdk0mSZPFl+6VdKnydZJlShD1L/cBw4ZIzZ/G/DoppnA9WoUfJf3gMh61p/QlWdkbAkl0/QTlDPN/faVb5BqEIfpP7huMmOA8y6vzkvqvnKQNX/fJmOZiXa+hiGrvUnVNWZTz5tMSPH3muvRaXZf/Aos/GOPc1eUaAaOeYeI+tnbuoVhCr0Qeofhv/ot9wGqjhU9T1t5QTJtgFE5K+P4ehaf0JVgyMX/7zsmnH2sgqvLljkbbEIVeiD1L/5Pf+S5ATJPY/JzudnG0BE7voYlq71J1R5QDxNjVwIVEJWZrFXEKrQB6l/czv06uR8fvt1T06QbBtARO4yDEvX+hOqPCA+70quXSUnq2cWewWhCn2Q+jevN96SDFQ779pxPj/bACLyl2M4utafUOUBMtGyTLjMieq1NfNQaagBS/2b04l3t5qvfCUbqLbsqk+QbBtAhDaGYehaf0JVg/Pp0hYz+Jpb7a//TjxnqGlpkW9b/kGoQh+k/s3nQ4+1mG+vnZ0g+Xe/bzOvvqGvaxtAhDaGYehaf0JVnSn3kgryC8Dps2Z7WyxCFfog9W8uZzzXYn72P9lA9fNftJmZLxaez882gAhtDMPQtf6Eqjoj50j16XelvWRCIQdeMdosXPS214UiVKEPUv/m8eXXlprf/i47n9931mk3Dz9RfIJk2wAitDEMQ9f6E6ogFQhV6IPUv3ncYsvs9DNf/aoxk+4r3YNsA4jQxjAMXetPqIJUIFShD1L/5vBvuyTn8/vnreX1H9sAIrQxDEPX+hOqIBUIVeiD1N9/99n/s6iO2UA1fMQydT1N2wAitDEMQ9f6E6pSpNSUNKWU2zJNTe3MPFQaasBSf789omcyUF10afmBSrQNIEIbwzB0rT+hKkUqmTxZk+tU1dbMQ6WhBiz199cTT05OP3Pm2Svn86tE2wAitDEMQ9f6E6pSpK2t3V4RXYJRNcpt5T4yd+cVhCr0Qervp2cPSAaq409MTj9TrrYBRGhjGIau9SdUQSoQqtAHqb9/XnpFcvqZQ4+oLlCJtgFEaGMYhq71J1RBKhCq0Aepv19ee0MyUO25tz79TLnaBhChjWEYutafUAWpQKhCH6T+/jh2Qqv5/OezgWq7HdwClWgbQIQ2hmHoWn9CVQMg50lNmvyE2X6/vuoJ6rGcqF5bMw+Vhhqw1N8P73mw1az5n9npZzb5c5tZ+La+biXaBhChjWEYutafUNUAPP7UC2aj7Y4wG259qNnloNPsf8XdDz3D7HF4Pzvv32a79rLT2cjJ6pmbeQWhCn2Q+je+055qMT9YNxuo1v9Nm3nxleLTz5SrbQAR2hiGoWv9CVV1Zvnyz8wZF44w6291sJkybZbdEyV7pHL3So0e/4DdizXvtcXeFotQhT5I/St31IzxZr+xh5jfD/+T+fWQDcyW121r+t7Tzzw5/2V1fRefm9Nifvmr7Hx+P/xRu3ni6c4JVKJtABHaGIaha/0JVXVG9jzte9S5ZrdDTjdL3nnfLG1ptXukdjzgFLNw8cpJlOfOf8Nsucfx5qobJpr2di6pUCszD5WGGrDUv3ynz59jA1SXfl0Ketp956q3rcbX3lxq/vinbKD65jfbzf1TO7ev2AYQoY1hGLrWn1BVZ/L3TLW0LDMnnjPUdN2zt3l1wSJbnHido08dzBXVa2jmodJQA5b6l+fj8140Pxz0EzVI5dvj9uPU+6jUbf6anc9v9S8aM+6Ozu8ptgFEaGMYhq71J1TVGe1w38XDxtjDgdNnzbb/r63jG4Qq9EHqX56bXLOFGqAKOeiRYer9lOvf90xOkHz9TZVNP1OutgFEaGMYhq71J1TVmfhwX25gunfKdPtrv0HDx5oVK1aYJ2e9ZE9kZ09Vbc08VBpqwFL/0g55/Ho1OBVz3Ut+rN5XOR50aHI+v8uG1iZQibYBRGhjGIau9SdU1RkJTf0Hj0qEqnfe+9Ac0GuADVbb7n2i/SWg/HvcpKneFotQhT5I/Uu7/aid1eBUyrGz7lbvr5i9eicDVf/zK5/PrxJtA4jQxjAMXetPqGoAZO9T/rx+z82eZ/Y47EwbpiRUXXfz3WbZcmkwfkKoQh+k/qX95sD/VkNTKc+efJF6f4X8R7/kfH59T6ttoBJtA4jQxjAMXetPqGpg5Jd+H//7UyOXXcgs8hZCFfog9S9toVC1Zo+fmnX22kQdE+UyC9r9aZ5/STJQHdWr+vn8KtE2gAhtDMPQtf6Eqjoje5/kcJ+vl0ooF0IV+iD1L+3PBv9CDU3f6v4bu2ddGxPPn3q5en/5Dr06OZ/f/gemE6hE2wAitDEMQ9f6E6rqTPzLvv2P6W8mPzLDtLRKQ2k+CFXog9S/tHvdcoAamkqFqrtffEy9v1xvvCUZqHbZzX0+v0q0DSBCG8MwdK0/oarOyPlUAy67cdXJ6DIljVxSYeGit5tq7xWhCn2Q+pf2llmT1NBULFRtNOyP6n3lOvHuVvMf/5ENVFt2TTdQibYBRGhjGIau9SdUNQifLm2xe6pkj5U0JrGZ9l4RqtAHqX95dhvTMTzJOVXr7qxfYX3MrLvU+4l96LEWs9a3s/P5bfSHNvPqG/q6tdQ2gAhtDMPQtf6EqgZD9k4tWvKuufqmO+3UNM2y94pQhT5I/ct3q+v/2iE8rX7yVzssu+DhIertY2c812J++rNsoPrF/7aZmS923nx+lWgbQIQ2hmHoWn9CVQMj17CSq6r3Ov0yG664onptzTxUGmrAUv/KPGpin1XhKf/w33pX/NqMmjFBvV3sy68tNRv+X3Y+v3W+224efqI+gUq0DSBCG8MwdK0/oapBkUA1e+5r5vQLrl11vlX3XgPs9awyq3gFoQp9kPpX7qyFC8xFD19p/tr3cNun+tx1mhn99ER13Xw3/0s2UH3ta8ZMuq++fcI2gAhtDMPQtf6EqgZDLq9w7T/vWnXoT+YAPOa0wXaPlQStzGreQahCH6T+1TtwyBjbs7QxzR13Ts7n989b698jbAOI0MYwDF3rT6hqAOREdDkh/cDjBtoQJY1JQpWEKwlZmdW8hlCFPkj9q7eSULXP/snpZ4aPqN18fpVoG0CENoZh6Fp/QlWdkcN5+x51blPtldIgVKEPUv/qLTdUHdEzGaguurQxApVoG0CENoZh6Fp/QlWdkRPPDz/xoqbaK6VBqEIfpP7VW06oOvHk5Wb1L79j1vn51fa/Z55d+/n8KtE2gAhtDMPQtf6Eqjojl0jInUi5HGR9mROw0tvVE0IV+iD1r95SoersASvn85MwJesd2ON5db16ahtAhDaGYehaf0KVh8jerRPPGerV5RUIVeiD1L96Z7y40Fw3drI6dukV2eln4lB199RZ6rr11DaACG0Mw9C1/oQqDyFU1cbMQ6WhBiz1r14JSbK3Kn/5tTfkzee35xJCFTasrvUnVHkIoao2Zh4qDTVgqX/1aof/xk5oNZ//fDZQbbfDyvn8ZK9W7nqNom0AEdoYhqFr/QlVHkKoqo2Zh0pDDVjqX735oeqeB1vNmv+ZnX5mkz+3mTfeWRmouvXsz54qbEhd60+o8hBCVW3MPFQaasBS/+rNDVXTnmoxP1g3G6jW/02bmf3qyulnJFRx+A8bVdf6E6o8hFBVGzMPlYYasNS/euNQ9dycFvPLX2Wnn/nhj9rNv2Zm5/MjVGEj61p/QpWHEKpqY+ah0lADlvpXbxyq/vinbKD65jfbzQNTk599QhU2sq71J1R5iEuoktt063GWvWp7ZlEH4nWk8cWOmzRVXb/cdQlV6IPUv3rjUBUHqtW/aMxtd3b83BOqsJF1rT+hykNcQtXFw1Y2vkKhKg5Jsl5mUZdXFywyXffs3SEsVbIuoQp9kPpX7+bbj0uEqpGj9elnCFXYyLrWn1DlIZWGqpaWZXZ9aWSxhUKVhCEJSvn3rS2vZF1CFfog9a/Ogw5Nzud3+VWF5/MjVGEj61p/QpWHSFipdk+VhKlCoSoOX6L8O7PYkn+7StYVCFXog9S/cnv1TgaqARcUn89PQpVcUkH+q43XU9sAIrQxDEPX+hOqPKRWoUruL/9wXkz+Yb1K1hUIVeiD1L8y/9Fv5Xx+sSf/o7wJkiVQEaqwEXWtP6HKQz75tMXcdtfDRv6bWVQ2jRaqMsMA4BnDhmXDlNi3r/y3MC+8/YI5/cHTzVZDt7c9aNPztzO97+1tHnv9MfoAeIm2TSNUNRBtbe1279OsF14xM56dY5Yt/8zIsg8/+sS6YsUK52IRqgDAlZtvTgaqHj2KB6q+9/c1Xfp1sa5+8ldtD1rjuLVXLTtwwoFm+QrZ6wXgD9o2jVDVIEiI2uWg02yzESWwSHCRIHX+kNFmo+2OMDOfm+tcrEYLVY1k5qGy6z9gqX9pb7wlb4Lk3VbO51fI3f+596rwVChUiX8c/mfz2tsfq/eRlrYBRGhjGIau9SdUNQCyZ2rjHXvaIDL4mlvN9vv1XRWqZFwC0PpbHWwGDR9r2ttl6ofqKRaqOFF9JdoYhiH1L+7Eu1vNf/xHNlBt2bV4oDrx7tMTwUksFKrEvW45QL2ftLQNIEIbwzB0rT+hqs7Inqj+g0fZPVGP/utZG6QkUOWGqoWL3zY7HnCKOfrUwVWdR5WLFnhykb1LuX87RlteybqEKvRB6l/Yhx5rMWt9Ozuf30Z/aDOvvqGvK77wxiLzhbO/0CE4FQtV4p3PT1XvLw1tA4jQxjAMXetPqKozcq7Uvkeda/Y4vJ957/2PbBCRQJIbSrRl1VIqVMV/K/ewnnY4T6hkXUIV+iD1153xXIv56c+ygeoX/9tmZr6Ync9P86KpV6qhqVSo6jmxt3p/aWgbQIQ2hmHoWn9CVZ3JD0z5/y/rSNiS0JW7rBLiQ3XSyPLVDt/FjyF3vVIhrNS6hCr0Qerf0ZdfW2o2/L/sfH7rfLfdPPxE8UAlHjK+pxqaSoWqzUd0Ve8vDW0DiNDGMAxd60+oqjNyOE8O68nhPTnMp4WqZ158xR4ePHnAcNO6zM9fyBCq0Aepf0c3/0s2UH3ta8ZMuq+8z7KcH6WFJnHNHj+14Uob+7+r/qDeXxraBhChjWEYutafUNUAjB7/gP3mduudU817HyRD1adLW2yYknFZL3MT7yBUoQ9S/6Q77iyXcVkZqMR/3lr+57jH7cepoamUXa/fTr2/NLQNIEIbwzB0rT+hqgF4+90PTPdeA8yGWx9qzrhghD0nSX4BOOLmu8z+x/S3gUrGZb3MTbyDUIU+SP2z7rN/cvqZ4SMKz+enedXjo9TQVMqT7j5Dvb80tA0gQhvDMHStP6GqQVi05F1zzGmDbYDK96DjB9pDg5lVvYRQhT5I/Vd6RM9koLro0soCVey3L/yOGpyKOW3e8+p9paFtABHaGIaha/0JVQ2EXINKwtX9Dz9lho683dw1+Qkjv6aTq6pnVvEWQhX6IPVfak48OTmf35lnlzefn+Ylj1ylBqdCHjfpFPV+0tI2gAhtDMPQtf6EKkgFQhX6YOj1P3tAMlAdf+Jn6nqVePxdp6oBKt9uY7qrt09T2wAitDEMQ9f6E6oaALkAaDy/X7xXSv771DNz7B6rO+6bZpa2+F0oQhX6YMj1v/SK5PQzhx7hHqhiBz0yzKx94TpqmPqPc79iTr3vHPV2aWsbQIQ2hmHoWn9CVQNw75Tp9twpmeMvnjR5wj2P2qlp4vOqOFG99mYeKg01YJul/mOfudseehPl39o6uV57QzJQ7bl38elnqnX4v0aboyb2MfuOOcgcfnsvM/jRq82cxW+p69ZD2wAitDEMQ9f6E6rqTDxNjQSo+KKZH//7U3NonwvsrwAlXMm4BCsuqVBbMw+VhhqwvtdfDrV9/bxvdNgbJMtkTLvN2Amt5nOfywaq7XaoTaDyQdsAIrQxDEPX+hOq6kwcoHY75HSz5J33bTHmzn/DbLnH8eaqGybaCZTnv/6m2XbvE02ffld6exiQUIU+6Gv9X1q8xPx++J86hKl8ZR1ZN77dPQ+2mm+smZ1+ZpM/t5k33ul4/6FoG0CENoZh6Fp/QlWd0a6gPmXaLLtnSv5baB3fIFShD/pa/y1GdFVDlKasK7eZ9lSL+f4PsoFq/d+0mdmvlp5+ppm1DSBCG8MwdK0/oarOaHuqho2aaPdUyR4r+X9CVTpmHioNNWB9rP85D16shqdinjL+SrPeL7PTz/zox+3mXzPDDlSibQAR2hiGoWv9CVV1Rs6pkhPU5Zyq+6Y8aZ6bPc9eTV2ClgQuWSc+HMjhv9qaeag01ID1sf6/uPyXanAq6Omrm6/89Mnoua4MVP/93+3mgamN//lMQ9sAIrQxDEPX+hOqGoAX5iwwW+x+7Kpf+ok3jrvfnk8l4/GvA2UPlr2BhxCq0Ad9q//M1+bpwamYP5c+sjJQffGLxtx2J4Eq1jaACG0Mw9C1/oSqBuH5OfPN0acONvseda4ZOfZe09IqP3Hu0qWlZZk58ZyhZqPtjjAzn5vrbbEIVeiDvtX/ntnT9OAUufrJXzVrHLd2cvn6o6LnuDJQiSNHVzf9TLNqG0CENoZh6Fp/QhWkAqEKfdC3+k+e81QyNOW47s7bWlct+/0V0fPLBqpTL5qn3mfI2gYQoY1hGLrWn1AFqUCoQh/0rf4L3vowEaRyTYSqP/ePnls2UHXZoae9rXafIWsbQIQ2hmHoWn9CFaQCoQp90Mf6//WGv3UIVOKqULX1SdHzyglUW51ib6PdV+jaBhChjWEYutafUFVn4ssl5J6kXkguqVBbMw+VhhqwPtb/tufuLxyqtjwoek45gWrTgXZMbqPdV+jaBhChjWEYutafUFVnZBJluVTCXlFg0tzloNPs5RY227WXXU/Wz9zUKwhV6IO+1v+Ue8/uEKpW33Vvs/qX34meUyZQ/W6oXS7raveB9AAkVDU9y5Z/ZvpdfL3Z/dAzzJtvvedtsQhV6IM+17/fA+dnQ9W+20XPJWcP1a9H2+WyjnZbXKltABHaGIaha/0JVR4gl1KQSypcfdOdq65d5RuEKvRB3+v/0MszzI4DLjSrfVGey8pA9ZX1ppiDbzvSjmm3way2AURoYxiGrvUnVHnAe+9/ZPY4vF/iKuu+QahCH/S9/g8+2mrW+nZ2Pr+N/tBm5i3S18WO2gYQoY1hGLrWn1DlAXGo4kT12pp5qDTUgPW5/k8922J++rNsoPrF/7aZWbOZz68SbQOI0MYwDF3rT6hqcORw3213PWxPVpcrrn/yaYuXBSNUoQ/6Wv85C5aaDf8vO0HyOt9tN4/8i0BVqbYBRGhjGIau9SdU1ZlSv/7bptsJ9nIKEqrueWi6t8UiVKEP+lr/zf+SDVRf+5oxk+5v/M9bI2obQIQ2hmHoWn9CVZ0p5zpVexx2pnn4iWdMW5ufJ6kLhCr0QR/rv+POK6LHvTJQiTePI1BVq20AEdoYhqFr/QlVkAqEKvRB3+q/z/6fRY85G6iGX8cEyS7aBhChjWEYutafUAWpQKhCH/Sp/kf0zAaqb6073vTo/ZC6HpavbQAR2hiGoWv9CVWQCoQq9EFf6n/iycujx5rdQ7XRtr3Ncf2uUtfF8rUNIEIbwzB0rT+hqkGQ86Uem/6cOfC4gfakdDmXSv4r/y/LfT6fSiBUoQ/6UP+zByQDVe+TPjNb7kGo6gxtA4jQxjAMXetPqGoAVqxYYS4fcVuHE9RzlXFZL3MT7yBUoQ82ev0vvWJZ9BizgeqwHp/Z5YSqztE2gAhtDMPQtf6EqgZALpUge6XkEgozn5+7KjzJf2c8O8fs1P1ULqmQgpmHSkMN2Eau/7U3JAPVXvusWDVGqOocbQOI0MYwDF3rT6iqM63LlpuTBwy3c/vJHH+ZxQniuf9kPVk/s9grCFXog41a/7ETWs3nPpcNVNvvmA1UIqGqc7QNIEIbwzB0rT+hqs7E16mSaWhkOprM4gRMU5OOmYdKQw3YRqz/PQ+2mm+smZ1+ZtPN2swb7+jropu2AURoYxiGrvUnVNUZQlXjmHmoNNSAbbT6T3uqxXz/B+1mzbUfMev8/Grzmw3azOxXmX6mVtoGEKGNYRi61p9QVWeWL//MnHHhCHvO1JRps9RiyHIZl/Vk/cxiryBUoQ82Uv2fm9Ni1vvlyulnJFD97yZ9zL9mEqhqqW0AEdoYhqFr/QlVDUAcmrru2dvcN+VJI/MByiUU5L+TJj9hNtu1V9HQ5QOEKvTBRqn/a28uNRv/MTuf349/c7X588691XVFzqnqHG0DiNDGMAxd60+oagDkV34jbr7LBiftcgqyXMa5pEJtzTxUGmrANkr9t942O5/fF79ozG13Fv/8EKo6R9sAIrQxDEPX+hOqGoT29nbz8ryF5syLrjM77H+yDVPyX/l/WS7jmVW9hFCFPtgI9d99j+QEySNHl57Pj1DVOdoGEKGNYRi61p9QBalAqEIfrHf9DzwkOUHy5VeVN0EyoapztA0gQhvDMHStP6EKUoFQhT5Yz/r3Oj4ZqAZcsHzV2HVjJxcNTYSqztE2gAhtDMPQtf6Eqgbjk09b7GUTNOMT2DOregWhChvRFxctNve99IRV/l2v+p92ZnI+v5P/kQ1UogQmCU65y2JnLVxgup88wPS/7gbzypJ31XWwPG0DiNDGMAxd60+oagDkBPQJ9zwaNc3jO5yknivXqaqtmYdKQw3Aqx4fZf4wbBPTpV+XhH8e8Wc7pt2mVp5/cTJQHdVr5Xx+uWqh6vypl5tfDflNh+ew5XXbmn/OvCOxLpZnpgXQAwLWtf6EqgZg3KSpNjTJr/x2Oeg0c/YlI+0EyvmOHHuvkT1ZmZt5BaEKG8X9xh7cIYjkK+tot+1sr7w6OZ/f/gd2DFRibqha8NaHZtuRO6qPO9fjJp3S4X6wuJkWQA8IWNf6E6rqjISko08dbOf2e/RfzzZtMQhV2AiWE6hiax2sRt2cDFS77Jaczy/X3FC11XV/7fBY1zhubWv+8hPvPr3DfWFhMy2AHhCwrvUnVNUZOZxXapqaZoBQhfVWDuvlh45S1upQ4O13tZr/+I9soNqya+FAJcYnqv/j/v7q4/zZtrubdfbqeDhTnPTCw+p9YkczLYAeELCu9SdU1Zl4TxWhqv5mHioNtUndePimaugoptxGuy8XH3y01az17ZUTJP/sD33M+psON/MW6evm+52Lvqs+zmKhao+b91PvCzuaaQH0gIB1rT+hqgEYPf4Be/hv5nNzm7YYhCqsp7MXvakGjnKU22r3WY1PPdtifvqzlYFKXG/TPqbHyeVdCuHu2Y+pj08sFqrWuuDb6v1hRzMtgB4QsK71J1Q1AG+/+4Hp3muAOfGcoaalRc6zaD4IVVhP75/zLzVwlKPcVrvPSp2zYKnZ8P+y8/mt89128+ddyr++1EX3XKs+PrFYqBJffvNt9T4xaaYF0AMC1rX+hKoUketM9el3pdmrx1kd3KbbCat+/aeNi3JbuY/M3XkFoQrrabFQte7O21q1MbGzQtXmf8kGqq99vd1Mur/VnnxeTqiSdTbepYf6+MqRUFWemRZADwhY1/oTqlIkPik9//pT5cp1qmpr5qHSUJvQYof/SoWqzjj8t+POyfn8bh638vNQSajadLej1cdXSg7/lW+mBdADAta1/oQqSAVCFdbbQieqFwtVnXGi+t77JQPV8Ouy8/lVEqpk3XUu/p76OIu55y37q/eJHc20AHpAwLrWn1AFqUCownpb6JIKxUKV6yUVDu+ZnM/v4sHJCZIrDVWFLqlQTC6pUL6ZFkAPCFjX+hOqPEQOAcpJ7T4dCiRUYSO439hDOoSOQqFK1tXuo1xP6JucfqbfOcn5/EQJS3INqvzl+cahSv7d9frtOjzWQp509xkd7gsLm2kB9ICAda0/ocpDCFW1MfNQaahNbn6w0kKVa6A6q38yUPU+SZ9+5u6ps6zaWOyE5yabvqMuNH1GDjSjnppgXly0yPz1hr8lHq/m8Xedqt4fFjbTAugBAetaf0KVhxCqamPmodJQA1AO68XnWOWGqs2u28z5kN+gy5PTzxzWQw9UYrHDf/0euEC92Odq/VYzB447wpz1wIXm10M26DAu09jcPPNO9T6xuJkWQA8IWNf6E6o8hFBVGzMPlYYakPLLvp0OO8VqfyHoWP9rRiYD1V77FJ9+plCo2ummv3cIS/n+4JIfmodenmGeWfiaufelx83kl540r771Xof7wvK1DSBCG8MwdK0/ocpDCFW1MfNQaaiBKec0xec1udR/zPhW87nPZQPV9jsWD1SiFqq6jeneIUDJZMlr9vhph+USrAhSnadtABHaGIaha/0JVR5CqKqNmYdKQw3Mbj37W+Xf1db/7smt5htrZqef2XSzNnW9fPND1XVPju0QnES5WrpcNV0bO2zCMYn7xOq1DSBCG8MwdK0/ocpDCFW1MfNQaaiB6RqqHnuyxXz/B9lA9ZsN2sxL81rUdfPND1XbjNxBDU7FQtVX+q9hFr7zSeJ+sTptA4jQxjAMXetPqPIQQlVtzDxUGmpguoSqZ+e0mPV+mZ1+5kc/bjfTZ5UXqMT8UKWFJrFYqBLHP/tA4n6xOm0DiNDGMAxd60+o8hBCVW3MPFQaamBWG6oWLF5qNv5jNlD993+3m8kPV/Y+zw1VLy1eogYm8Vvdf1N0wuRhT9zY4b6xcm0DiNDGMAxd60+o8hBCVW3MPFQaamBWG6q23jY7/cwXv2jM+Dsrf4/LNapmvLjQ/nveW++rgakcRzw5psN9Y+XaBhChjWEYutafUOUhhKramHmoNNTArCZU7b5Hcj6/G/6ZnH6mXGUv1cAh2UC07iU/VkNTKafMfTpxv1idtgFEaGMYhq71J1R5CKGqNmYeKg01MCsNVQcekpzP74ph1QUqMf+cqsNv76WGpmL+8or1E/eJ1WsbQIQ2hmHoWn9ClYd8+NEnZuAVo438N7Oo4SFUYaMqgSoONqXq3+v4ZKA678KO8/lVYn6omj5/jhqcinnZY9cm7hOr1zaACG0Mw9C1/oQqSAVCFTaqcvitnFB12pnJ+fxOOd0tUIn5oUqUkKSFJ82DbzsycVt00zaACG0Mw9C1/oSqBuKTT1vM8y/NM9Oeel51xrNzzLLl8k25dsghxW49zjLrbd5ddfqs2Ym/r60/btLUDo+RUIWNajmH/86/OBmojj628Hx+laiFKvGKadeZrw74mhqkYo++44QOt0M3bQOI0MYwDF3rT6hqAP79yVJz3uU3mfW3OjgRTvKV8FLr86jikHTxsDEl/4627qsLFpmue/buEKwIVdiolgpVV16dnM/vgIM6J1CJhUKVOPP1+abXnSeZ/73iV6uC1PcvWdfsdcsBZuLzD6m3QTdtA4jQxjAMXetPqKoz7e3t5uqb7rShacs9jjcDo3B11+Qn6r6nqpxQJcFJC3rackIVNqrFQtWom5OBatfdS8/nV0oJRBKMJCDJBT3l+lMSnCRASZDSboPpaBtAhDaGYehaf0JVnfn435+aQ/tcYDbd5Rjz3Ox5dS9GuaGqpWWZ/QWiKP/OLLbIIUIJibmHCglV2KgWClW339VqvvzlbKDaamv3QCWH7HIP4Umokgt7xv8vh/zk0J92W6y9tgFEaGMYhq71J1TVmTjEaHt86kH8eHIPO4r5IatY+NIOARKqsFHVQtWDj7aatdbKzuf3+43bzLxF+u3LVU4qzw1Usauf/NUOy/hFX320DSBCG8MwdK0/oarOxHt8djvkdLPknfcbshjxnqfcvVKdFaoywwB1o/ux5xkx879dFi405uc/z+6h+vWvjVmyRP5dPaOeGdUhOInx4T9t7LUPX+PzAdDAaNs0QlUDMGnyE/Yk9SnTZjVsMSQgSbCKD+kRqqBZyA1VH39szO9/nw1UP/iBMXPmuAUqYYOrNlCDU7FQ1fve3nw+ABoYbZtGqGoAPl3aYk4eMNwcesKFDXtBz/ygxOE/bBavGzt51VQxW2+dDVRf+3q7mXS/+/tWppDRQpNYLFTJlDXa/WHtzLQAekDAutafUFVnCp3DpCnryfqZm6ZK/snnnKiOzWJ8TtUOOyXn87t5XOe8Z2WyYy00icVClSiTLGv3ibUx0wLoAQHrWn9CVZ2RPVN9+l1p9ooCUyllvXrtyZK9TrL3SfZCZRZxSQVsCiVQbbTNgKj+2UA1/Lrq5/PLd9gTN6qBSVzjuLXVE9VjX1q8RL1PrI2ZFkAPCFjX+hOqIIEczss9bCfEe57yl2uHALVDfwKhChvVP24/wKz7GzmnamWgunhw5wUqcfyzD6iBqRy1+8PamWkB9ICAda0/oQoSxAEq39xDeblohy+1dQlV2Iie0He5DVRxqLrkEqOu5+LCdz4xX+m/hhqairnNyB3U+8PamWkB9ICAda0/oQpSgVCFjeZZ/ZPz+fU+aeVsBdq6rh424Rg1OBXzuifHqveFtdM2gAhtDMPQtf6EqgZB9vhMuOdRc/mI2wo6cuy9RiZdztzEKwhV2EgOujw5/cxhPVbO51er+r/61nvmB5f8UA1Pmt3GdFfvB2urbQAR2hiGoWv9CVUNwMLFb9uLf+YeQtOs56//XCFUYaN4zchkoNprn+z0M7Ws/0MvzygrWO1009/V22PttQ0gQhvDMHStP6GqzsiEylfdMNGGpguvvNnMnf+G2eOwM63zX3/TvPf+R+bcS0eZnqcMMouXvGva2mTqDP8gVGEjOGZ8q/nc57KBavsdk/P51br+cxa/ZQ4cd4RZrd9qHcLUdy76run3wAXq7TAdbQOI0MYwDF3rT6iqM3I47+hTB6+6XEE8wfIeh/ezgUrWmfncXLPRdkcYufK6vZGHEKqw3t49udV8Y83sfH6bbtbWYZ206v/ym2+bUU9NMBdOvdJc+uhwM+G5yep6mK62AURoYxiGrvUnVNWZ+Ndz8aG9+KKaudeEkjkB5fCgXHW9dZmcXOsfhCqsp4892WK+/4NsoPrNBm3mpXktHdaj/mFrG0CENoZh6Fp/QlWdyQ9VK1asMP0HjzKb7nKMefHlBbY4+evYG3oGoQrr5bNzWsx6v2yL6rsyUP3ox+1m+qyOgUqk/mFrG0CENoZh6Fp/QlWdiQ/35QamG8bea8+xii+g+fqit8z2+/U1+x51bsPODVgKQhXK9ZpumTXJXPTwlVb5tyzT1u0sFyxeajb+YzZQ/fd/t5vJDxd+L1L/sLUNIEIbwzB0rT+hqs7I4Tw5rJcbqua88rrZYvdj7SHAsXdMMcecNtiGrPOHjLZ7suwNPYNQFbbHTjrZfG3A1zucnC3LZEy7TWe49bbZ+fy++EVjxt9Z/H1I/cPWNoAIbQzD0LX+hKoG4P6Hn0pcg0qCk/wicP2tDl51OQWZ+++1N5Z4WyxCVZjOXvSm+d2wjTuEqXxlHVlXu49q3X2P5ATJN/yz9PQz1D9sbQOI0MYwDF3rT6hqUOTSCS/PW2iuv+VuI6FraYvfhSJUhenmI7qqIUpT1tXuoxoPPESujp4NVFcMK28+P+oftrYBRGhjGIau9SdUQSoQqsLz7MkXqeGpmHIb7b4qsdfxyUB13oXL1fU0qX/Y2gYQoY1hGLrWn1AFqUCoCs9fXL6eGpyKKbfR7qtcTzszOZ/fKaeXH6hE6h+2tgFEaGMYhq71J1SljPx6r0+/K63ybzmPSs6n0ub6y5e5/2pr5qHSUDvBma/PU0NTOcpttfss5fkXJwPV0ceunM+vEql/2NoGEKGNYRi61p9QlTL515yK/z8+Ib2Yub8Q9A1CVVjeM3uaGpjE1U/+qlnjuLXVMVFuq91nMa+8Ojmf3wEHVR6oROoftrYBRGhjGIau9SdUpcyy5Z+ZGc/Oscq/5YR02WMVB6xiynrM/Vc7Mw+VhtoJTp7zlBqYxHV33taqjYlyW+0+Cznq5mSg2nX35Hx+lUj9w9Y2gAhtDMPQtf6EKkgFQlVYLnjrQ7PaWR0nDRaLhSq5jdxWu0/N2+9qNV/+cjZQbbV19YFKpP5haxtAhDaGYehaf0IVpAKhKjy3u2EnNTgVC1VyG+2+NB98tNWstVZ2Pr/fb9xm5i/W1y1X6h+2tgFEaGMYhq71J1RBKhCqwnP8sw+owalYqJLbaPeV71PPtpif/DQbqH6xXpt55iV9Pr9KpP5haxtAhDaGYehaf0JVish5UeWelK7Jieq1NfNQaaid6Gn3ndshOBUKVbKudh/5vjR/qdngt9n5/L77vXbz6HT3QCVS/7C1DSBCG8MwdK0/oSpF4sspyJQzue6w/8k2NG3T7YQOY7sfeobZcOtDzWa79lp1GYbM3XkFoSpc+z1wQSI8yS//5BeAuctkHe22mpttkQ1UX/t6u7nrgc57b1H/sLUNIEIbwzB0rT+hqgEYNmqi2Wi7I8wzL77SoRjt7e12HsDt9+tr5r222NtiEarCdurcmebQCUeZnw7+uVmt32pW+bcskzHtNpo77JScz++W2zr3fUX9w9Y2gAhtDMPQtf6EqjojF/M8+tTBZo/D+5n33v9ILcaLLy8wm+5yjA1XErIyi72CUIWu7r1fMlBdfX158/lVIvUPW9sAIrQxDEPX+hOq6kx8nlWx86XidQ7tc4H5+N+felkwQhXGDhwyxqqNFfLwnsn5/C65rPMDlUj9w9Y2gAhtDMPQtf6EqjojIUnCUtc9e5tXFyxSi7HknffNboeczonqNTbzUGmoNbZbz/5WbUzzhL7J6Wf6nVvZfH6VSP3D1jaACG0Mw9C1/oSqOhOfMyUnqg+8YrRpaZWrQ2eR8dvuetisv9XB5sRzhpqWluS4LxCqMLaSUHVW/2Sg6nNS7QKVSP3D1jaACG0Mw9C1/oSqBuDtdz8w3XsNsMFql4NOM8NvvMM8+q9nzejbHjBH9r3EBqqNd+xpHn/qBW+LRajC2HJD1aDLk9PPHHZkdfP5VSL1D1vbACK0MQxD1/oTqhqERUveNcecNnjVNalylcspPPTYTG9PUhcIVRhbTqi6ZmQyUHXb1236mXKl/mFrG0CENoZh6Fp/QlUDIaFJwtX9Dz9lho683R72e/6leWb5cjlJ128IVRgrgeq4flepY+KY8a1mtdWygWqHv6UTqETqH7a2AURoYxiGrvUnVEEqEKqwHO+e3Gq+/o3s9DN/3rxNXa9WUv+wtQ0gQhvDMHStP6GqgWhra7e/7pv1witmxrNzzLLlnxlZJldRF1eskOv0+AmhCkv52JMt5nvfzwaqDTZsMy/N65zpZ8qV+oetbQAR2hiGoWv9CVUNgoQoOUk9Po8qvnyCBKnzh4y2V1yf+dxcb4tFqMJiPjunxfzvL7PTz/z4J+1m+qx0A5VI/cPWNoAIbQzD0LX+hKoGQPZMya/75FpVg6+51U5Jk3tNqumzZttfAA4aPpYrqtfQzEOlodZYOZ8q95yqBYuXmj9snA1U3/pWu5n8cH3eL9Q/bG0DiNDGMAxd60+oqjOyJ6r/4FF2T5RcRiG+enpuqFq4+G2z4wGn2OlsZFobe0PPIFRhbP6v/7puk51+5ktfMmb8nfV7r1D/sLUNIEIbwzB0rT+hqs7IuVL7HnXuqrn/tFClLfMNQhXG5oaq3f6enM/vhn/WZvqZcqX+YWsbQIQ2hmHoWn9CVZ3JD0xagJKwJaGLUFVbMw+Vhlpj41DV/eDkfH5XDKtvoBKpf9jaBhChjWEYutafUFVn5HCeHNaTw3tymE8LVc+8+Io9PHjygOGmdZlM2+EfhCqMlUD1px0GRK93NlCdd2Ftp58pV+oftrYBRGhjGIau9SdUNQCjxz9gf/F3651TzXsfJEPVp0tbbJiScVkvcxPvIFRh7H5HTDFrrv1I9HqvDFSnnN4YgUqk/mFrG0CENoZh6Fp/QlUDEM/9t+HWh5ozLhhhfwUovwAccfNdZv9j+ttAJeOyXuYm3kGoQnHgRckJko8+tvbz+VUi9Q9b2wAitDEMQ9f6E6oahGJz/x10/EB7aDCzqpcQqnDI8OR8fgcc1FiBSqT+YWsbQIQ2hmHoWn9CVQORP/ffXZOfMK8uWGSvqp5ZxVsIVWE76uZkoNp19/Tm86tE6h+2tgFEaGMYhq71J1RBKhCqwnXCpFbz5S9nA9VWWzdmoBKpf9jaBhChjWEYutafUAWpQKgK08mPtJq11srO5/f7jdvM/MX6uo0g9Q9b2wAitDEMQ9f6E6oahJbWZXYS5etvudtcPuI21ZFj7+WK6jU081BpqJ3kk8+0mJ/8NBuofrFem3nmpfTn86tE6h+2tgFEaGMYhq71J1Q1AK/MX2R26n6qepJ6rlz8s7ZmHioNtRN8af5Ss8Fvs/P5ffd77ebR6Y0dqETqH7a2AURoYxiGrvUnVNWZ5cs/M2dcOMKGpiP7XmIee/J5e+kECU/5ypQ2vp60TqgKy822yAaqr3293dz1QOPXX6T+YWsbQIQ2hmHoWn9CVZ2RsCR7oOS6VK8veqtpi0GoCscddkrO53fLbX4EKpH6h61tABHaGIaha/0JVXUmnlDZ50N75UCoCsO990sGqquvr/98fpVI/cPWNoAIbQzD0LX+hKo6s2LFCtN/8Ch7FXW5JlVmcdNBqGp+D++ZnCD5ksv8ClQi9Q9b2wAitDEMQ9f6E6oagFkvvGI23rGnueyacUZCVmZxU0Goam5P6JucfqbfuY0zn18lUv+wtQ0gQhvDMHStP6GqAZAgdeX1E2ywkr1W2uUURC6pUFszD5WGWqFn9U8Gqj4n+RmoROoftrYBRGhjGIau9SdUNQDzXn/T7NXjrA6XUMiXSyrU1sxDpaFW4KDLk9PPHHZk483nV4nUP2xtA4jQxjAMXetPqKozspfq/CGjbWg69IQL7bx/0556XlUuDrpsuZy34h+EqubzmpHJQNVt38adfqZcqX/Y2gYQoY1hGLrWn1BVZ+Jf/3FJhfqbeag01DIcM77VrLaaMWusOdu6w9/8D1Qi9Q9b2wAitDEMQ9f6E6rqTHydKi6pUH8zD5WGWsKb7nzDfGkNeb2MWefnV5ufbdLTfPfi75s9b9nfTHhusnobX6T+YWsbQIQ2hmHoWn9CVZ2Jr6jOJRXqb+ah0lCLePotY81qa74WvVYrD/mts+F55mfb7GG69Ouyyp4Te6u39UHqH7a2AURoYxiGrvUnVDUAj/zrWbP+VgebG8fdb9rb/ZyGphSEKv/tP+lG0+Xbz0SvU+Y8qm/OMevsto352ba7J0KVeNBtPdT7aHSpf9jaBhChjWEYutafUFVn5MTzR6NQtcdhZ9q9VZMeeFw9SV3kRPXamnmoNFTFx15+2XRZ9+HoNcoEqq8uMV16/sqss9cmaqgSL3vsWvW+GlnqH7a2AURoYxiGrvUnVNWZ+Jyq/MsnaHJJhdqaeag0VMUf/O656PXJBKovtJguB29ig1OxULXe5b9W76uRpf5haxtAhDaGYehaf0JVnZE9T7IHStszlS97qmpr5qHSUPPc7e/J+fy67Lv9quBULFSJU+Y+rd5no0r9w9Y2gAhtDMPQtf6EKkgFQpWfdj84OZ9fl933ToSmUqFqxJNj1PttVKl/2NoGEKGNYRi61p9QBalAqPLPY47LC1Q79ugQmtY4bm1r/vLYYU/cqN53o0r9w9Y2gAhtDMPQtf6EKkgFQpVfnnpGcj6/Ll37qqGplOOffUC9/0aV+oetbQAR2hiGoWv9CVWQCoQqfxx4UTJQyR6rbUfuqIamYn7l3DXMwnc+Uf9Go0r9w9Y2gAhtDMPQtf6EKkgFQpUfDhmenM9PzqmS5dc/dasanIp5+O29Otx/oxt6/UPXNoAIbQzD0LX+hCpIBUJV4zvq5mSgkl/95Y7vM/ZANTxprnvJj8y8t95P3N4HQ64/0gOQUAWeQKhqbCdMajVf/nI2UHXdRp8geZeb9lRDVK4SqKbOnanevtENtf64UtsAIrQxDEPX+hOqIBUIVY3r5EdazVpryfRIKwPVHzZuM/MX6+uKZ02+0Kxz0fc6hKnPn/15c/D4I83cJe+ot/PBEOuPWW0DiNDGMAxd60+oAie0K8KPmzS1w5uKUNWYPvlMi/nJT7OB6n9/2WaeealFXTff25970Ax+9Gpz0dQrzU1PT/Q6TMWGVn9MahtAhDaGYehaf0IVVE0cqC4eNmbVm+jVBYvsHIb5wYpQ1Xi+NH+p2eC3bdHzXhmovvf9dvPo9PICVbMaUv2xo7YBRGhjGIau9SdUQdVIcNLmI9SWE6oaz822yAaqr3+j3dz1QOPXqNaGVH/sqG0AEdoYhqFr/QlVUBUtLcvMiecMtcq/M4st02fNtocB5b+ZRYSqBnOHv2Xn81ttNWNuuY1AJYZSf9S1DSBCG8MwdK0/oQqqQjv0F6MdAiRUNY7d9k1OkHz19cvU9UI0hPpjYW0DiNDGMAxd60+ogqrorFCVGYaUOP74bJgSR4yQ/wIAQKVo2zRCFVQFoco/+vVLBqpBgwhUAADVom3TCFVQFRz+88t+5ybn8+tz0nJ1vdBt1vpjedoGEKGNYRi61p9QBVXBier+eMllyelnDjty5Xx+2NFmrD+Wr20AEdoYhqFr/QlVUDXapRMEbTmhqj7KSei5gUpOUtfWw5U2W/2xMm0DiNDGMAxd60+ogqrRDgFy8c/GUS6TIJdLiAOVXEZBWw+zNlP9sXJtA4jQxjAMXetPqAIn4mCVO01N7mG/GEJVusqFPOWCnnGg+vPmbep6mLRZ6o/VaRtAhDaGYehaf0IVpAKhKj1lqhmZciYOVBts2GanpNHWxaTNUH+sXtsAIrQxDEPX+hOqIBUIVekokyHLpMhxoPrxT9rtpMnauthR3+uPbtoGEKGNYRi61p9QBalAqKq98xcvNX/YOBuovvWtdjP5kcZ/3RtJn+uP7toGEKGNYRi61p9QBalAqKq9XbfJTj/zpS8ZM2ESgapSfa4/umsbQIQ2hmHoWn9CFaQCoaq27vb35Hx+o25mPr9q9LX+2DnaBhChjWEYutafUAWpQKiqnd0P/ix67NlANWQ4gapafaw/dp62AURoYxiGrvUnVEEqEKpq4zHHJQPVwIuYfsZF3+qPnattABHaGIaha/0JVZAKhKrO99QzkvP5yf9r62H5+lR/7HxtA4jQxjAMXetPqIJUIFR1rrJHKjdQyR4rbT2sTF/qj7XRNoAIbQzD0LX+hCpIBUJV5ynnTOUGKjmnSlsPK9eH+mPttA0gQhvDMHStP6EKUoFQ1TnKr/pyA5X86k9bD6uz0euPtdU2gAhtDMPQtf6EKkgFQpW7ct0puf5UHKjkulTaeli9jVx/rL22AURoYxiGrvUnVEEqEKrclCujyxXS40AlV06XK6hr62L1Nmr9MR1tA4jQxjAMXetPqIJUIFRVr8zdJ3P4xYFK5vaTOf60ddHNRqw/pqdtABHaGIaha/0JVZAKhKrqfGn+UrPBhtn5/L73/Xbz6HQCVa1stPpjutoGEKGNYRi61p9QBalAqKrOP2+eDVRf/0a7uXty47+OPtto9cd0tQ0gQhvDMHStP6EKUoFQVbk7/C07n99qqxkzZjyBqtY2Uv0xfW0DiNDGMAxd60+oglQgVFVmt32TEyRfM5L5/NKwUeqP9dE2gAhtDMPQtf6EKkgFQlX5HnZkcj6/QZcTqNKyEeqP9dM2gAhtDMPQtf6EKkgFQlV59jkpOf1Mv3OZzy9N611/rK+2AURoYxiGrvUnVEEqEKpKKwEqN1Cd0JdAlbb1rD/WX9sAIrQxDEPX+hOqIBUIVcW95LLk9DOH92Q+v3pYr/pjY2gbQIQ2hmHoWn9CFaQCoaqwV1+fDFR778f0M/WyHvXHxtE2gAhtDMPQtf6EKkgFQpXuLbe12sslxIFqh50IVPU07fpjY2kbQIQ2hmHoWn9CFaQCoaqjdz3Qai/oGQeqzbZoU9fD9Eyz/th42gYQoY1hGLrWn1AFqUCoSipTzciUM3Gg2uC3bXZKGm1dTM+06o+NqW0AEdoYhqFr/QlVkAqEqqwyGbJMihwHqp/8tN1Omqyti+maRv2xcbUNIEIbwzB0rT+hClKBULXS+YuXmj9snA1Ua63VbiY/0vivTSjWuv7Y2NoGEKGNYRi61p9QBalAqFpp122y0898+cvGTJhEoGoka11/bGxtA4jQxjAMXetPqIJUIFQtNbv9PTmf36ibmX6m0axl/bHxtQ0gQhvDMHStP6EKUiH0UNX94OR8fkOGE6ga0VrVH/3QNoAIbQzD0LX+hCpIhZBD1THHJQPVwIuYfqZRrUX90R9tA4jQxjAMXetPqIJUCDVUnXpGcj4/+X9tPWwMO7v+6Je2AURoYxiGrvUnVEEqhBiqZI9UbqCSPVbaetg4dmb90T9tA4jQxjAMXetPqIJUCC1UyTlTuYFKzqnS1sPGsrPqj35qG0CENoZh6Fp/QhWkQkihSn7Vlxuo5Fd/2nrYeHZG/dFfbQOI0MYwDF3rT6iCVAglVMl1p770pWygkutSaethY+paf/Rb2wAitDEMQ9f6E6ogFUIIVXJl9G99Kzufn1w5fcFifV1sTF3qj/5rG0CENoZh6Fp/QhWkQrOHqumzWsyPf5INVDK337NzmM/PN6utPzaHtgFEaGMYhq71J1RBKjRzqHppXovZYMPsfH7f+367eexJApWPVlN/bB5tA4jQxjAMXetPqIJUaOZQ9efNs4Hq699oN3dPbvznirrV1B+bR9sAIrQxDEPX+hOqIBWaNVTt8LfsfH6rrWbMmPEEKp+ttP7YXNoGEKGNYRi61p9QBanQjKGq277JCZKvGcl8fr5bSf2x+bQNIEIbwzB0rT+hClKh2ULVYUcm5/MbdDmBqhkst/7YnNoGEKGNYRi61p9QBanQTKGqz0nJ6WfO6s98fs1iOfXH5tU2gAhtDMPQtf6EKkiFZglV/c5NBqoT+hKomslS9cfm1jaACG0Mw9C1/oQqSIVmCFWXXJacfubwnszn12wWqz82v7YBRGhjGIau9SdUQSr4Hqquvj4ZqPbej+lnmtFC9ccwtA0gQhvDMHStP6EKUsHnUHXLbfIhyQaqHXYiUDWrWv0xHG0DiNDGMAxd60+oglTwNVTd9UCr+drXs9PPbLZFW+I22Fzm1x/D0jaACG0Mw9C1/oQqSAUfQ9Wj01vMd7+XDVQb/LbNvDS/4+2wecytP4anbQAR2hiGoWv9CVWQCr6FqmdeajG/WC87/cxPftpunnyG+fya3bj+GKa2AURoYxiGrvUnVEEq+BSq5i9ean6/cTZQrbVWu5n8SOM/fnRX6q8txzC0DSBCG8MwdK0/oQpSwadQtdXW2elnvvxlYyZMIlCFotRfW45haBtAhDaGYehaf0IVpIIvoWqffVaGqdhRNzP9TEjKe0BbjmEo9Re0MQxD1/oTqiAVfAhVRx6ZDFRDhhOoQlPeq9pyDEPbrCK0MQxD1/oTqiAVfAhVZ52VDVQDL2L6mRCV96q2HMPQNqsIbQzD0LX+hCpIBR9ClTzOSy815tQzCFShKu8BbTmGodRf0MYwDF3rT6iCVPAlVAnaGIYh9Q9b2wAitDEMQ9f6E6ogFQhV6IPUP2xtA4jQxjAMXetPqIJUIFShD1L/sLUNIEIbwzB0rT+hClKBUIU+SP3D1jaACG0Mw9C1/oQqSAVCFfog9Q9b2wAitDEMQ9f6E6ogFQhV6IPUP2xtA4jQxjAMXetPqIJUIFShD1L/sLUNIEIbwzB0rT+hClKBUIU+SP3D1jaACG0Mw9C1/oQqSAVCFfog9Q9b2wAitDEMQ9f6E6ogFQhV6IPUP2xtA4jQxjAMXetPqIIE73/4senW4yyz3ubdVafPmp14w2jrj5s0tcObilCFPkj9w9Y2gAhtDMPQtf6EKkgQh6SLh40p+cbQ1n11wSLTdc/eHYIVoQp9kPqHrW0AEdoYhqFr/QlVkKCSUCXBSdaV22QWWbTlhCr0QeoftrYBRGhjGIau9SdUQYJyQ1VLyzJz4jlDrfLvzGKLHCLMP1RIqEIfpP5haxtAhDaGYehaf0IVJIhDVe45UmJ+yCoWvrRDgIQq9EHqH7a2AURoYxiGrvUnVEFJ4j1PuXulOitUZYYBAAC8QtumEaqalDgIlVI7fKchAUnWjw/pEaoAACBktG0aoQrKIj8ocfgPm1HqH7a2AURoYxiGrvUnVEFZ5J98zonq2IxS/7C1DSBCG8MwdK0/oQrKQvY6yd4n2QuVWcQlFbDppP5haxtAhDaGYehaf0IVJJDDebmH7YR4z1P+cu0QoHboTyBUoQ9S/7C1DSBCG8MwdK0/oQoSxAEq39xDebnEwarUuoQq9EHqH7a2AURoYxiGrvUnVEEqEKrQB6l/2NoGEKGNYRi61p9QBalAqEIfpP5haxtAhDaGYehaf0IVpAKhCn2Q+oetbQAR2hiGoWv9CVWQCoQq9EHqH7a2AURoYxiGrvUnVEEqEKrQB6l/2NoGEKGNYRi61p9QBalAqEIfpP5haxtAhDaGYehaf0IVpAKhCn2Q+oetbQAR2hiGoWv9CVWQCoQq9EHqH7a2AURoYxiGrvUnVEEqEKrQB6l/2NoGEKGNYRi61p9QBalAqEIfpP5haxtAhDaGYehaf0IVpIIPoQoREdFFQhWkAqEKERGbXUIVpAKhChERm11CFaQCoQoREZtdQhWkAqEKERGbXUIVpIK80RAREZvdzGYPAAAAAAAAAAAAAAAAAAAAAAAAAAAAAAAAAAAAAKARmD5rtllv8+6r7Lpnb/PqgkX8LDYAWlqWmRPPGZqof67jJk3lfdCkSG2l9vIeyCzqgKyT+37o1uMs8/6HH/OeaAKkjlJP6f+ZRQni8dz651rodgBBEweq3A+INFKCVRjEoarUxhWaC/lsy2e8WN21PnDxsDEEqyZBalksHMWhStbLLAKAYsQb1PwPTaHl0HwQqsIi/hIVW6ju8QY1f09loeXgB/HnPfc9QKgC6CTib6tag5QPEt9Imx9CVZiUqru2B1vg/dI8FKpxDKEKoEKKfag4BBgG8UYy/tYay0azuSkVjop9/vnC1RyUG6ryewMhC6AAhCrQiPdgsuFsXghVUCpUacS34UsXgAKhCgoRvzfkfZBZBE0EoQqK9f9iyHujmtsBND3FPlSEqrCJd/2zq785IVRBtaFK3hPy3uALF0AexT4cNM6woXE2N6VCVaENbqnbgT9UG6qqvR1A0xM3yPy9EYWWQzjQOJubUuEo3lOZH6oLLQf/qPYzLrXnKAZAAbQPFh+acJBa54fneC8Vobp5KRWqBK0PsAe7eSgVqqTW+eE5vk3+cgDIIf6gxNI0wyEOULn1F2mazUn+Zz1XbeMq74PcdYqFMGh84jCdW9NCtS30XtHeJwAAAAAAAAAAAAAAAAAAAAAAAAAAAAAAAAAAAAAAAAAAAAAAAAAAAAAAAAAAAAAAAAAAAAAAAAAAAAAAAAAAAAAAAAAAAAAAAAAAAAAAAAAAAH5x8bAxpuuevc2rCxaZzCIAAAAAqBQtVL3/4cemW4+zvAhbPj1WAAAAaGIIVQAAAACdAIf/AAAAADoBQhUAAAB4gwQWCS4XX3WLeXneQnPC2UPNxjv2NOtvdbA59IQLzfNz5ttA88ab75gBl91oNtu1l1lv8+5m/2P6mxnPzjHt7e0dAs/SllYzcsw9ZpeD/2HX3XDrQ82xp19uXpizoOj62+/X164vf2PQ8LH2NvmhqqVlmTnxnKH2sJocXsss7vLWOx+Ysy6+3uyw/8n2PkR5HoedcJF5bPpzpq0t+Xenz5pt1xk3aapZuOhtc8aFI9Tn7UKhx7rqNY9C47vvf2Quu3bcqtd1j8PONI/+61n1dZLnIM9FHp+8prK+vMbX/vMu8857HybWl+d05kXXrbrfbbqdYK66YaL5+N+fdrjfOLw+N3ueueX2B1fVTW57zU13mpbWZWbZ8s/MA4/MMPv0PMe+RvJaXXHdePPvT5Z2uD957FLr3v2G2PXkvqS2UmOpdWY1AACA5iLewP9228PsxlI2gLnKxvDSq8eu2jjnmh94hLff/cBu9PPXFWUD+/hTL3RYv3uvAer6YrmhKn4e2n3I85pwz6OJvxuHql0OOm1VQMlVnve81xYnblMppR6rBB3tdZXXSR5fZnXLihUrzJXXT1BrJEowyqzaRV5j7X5Fea3lNc+sapHbyv3Ke0C7jQTOY04brI5dds04I48tc1c2UMlrrb2m4skDhptPl7Yk/j4AAEBTEG/gZaMqe3pkD4dsGGWPwoVX3rxqYygb1Xmvv2n3+Miei8HX3GqX3zD23lUbSNm4nnf5Tfa+ho683Xz40Sd2TJbPfH6u2SsKFwcdPzCx/Pwho+39HH/mFav+tvyNhYvfNn3OurLsUKWxfPln5sFHnzZb7H6sObTPBYm9NHGoko2/hBXZ0yV/++NPlq563sNGTSx6/6UoFari1/y1N5asel1vHHe/XS5BRh5/5iZd7nloul0ut5sybZYNMvJ43/vgY3PbXQ+bq2+6064rr62E2rgG8nxkebwnT55Xv+i/sudJlgsSqmT5X/c5ydz/8FP2cch9S81y9x7KXj0JRDL24ssL7Nhuh5xulrzz/qr7kj1U8npLreX2ceCSxyWPRx7XpMlPrFofAACgaYg38BIkZGOZWWyRDeemuxxjBl4xusPhs7nz3zBb7nF8Yg/J64veshtaCVbxxjQX2ZjKRlUOG8r/x+vve9S5NtTYlXKID0tVG6oEeRz9B48yexzez7z3/ker1o9D1dg7pnS4j/i55QebSikVqrTXXB6jPNbcEBjfz0bbHWEPDdoVCyDPS17jf5x/TSI4CXKI8IBeA8yOB5xiQ2tmsX2d5fnK884sssSvnYzNeeX1xJg8bnn8ufWRZXKIUUKVhCu7Yg4SrCRUy96q1mXLO4wDAAB4TbyBzw1HMfGYFi5k74TspZCNvWz0ZVkcVEp575TpifW1cCFUGqpkD4vsxTn7kpF2T0nu+VX59xP/bdn7klm0ijjY5D63aigVqrTXXPYQ9ul3ZeI28l/5f+055yMhsdDzioOQjMvzzyxWX+cYGZMw98yLr3QYk72UufcVP19ZVsz8vYYAAABNQbENfDymhYt4Q587JhtybSOab7zBj9fXAoBQSah6Zf4is1P3Uzv8rdj8+ykWqrTnVg2FHmux11y7TbE65CP3Kc8rNzTloo1rr3NMsfuL6xePxa+bLCtm/usBAADQFBTbwBfbmGvBQ06Qlo1muecixevLyc6ZRQm0jb0WOuQ8n16nX2YPe8l5Q7JXRcbivWva/fgUquI9Z/n3o1GLPVX568fkh6p4L1v+4UUAAIAgKLaBj8e0cKEFj3j93JPRixGfsyWBSPtFmLax10KHbMBlQ370qYPNJ5+Wdz8+hap4mRyGy//1ZD7yvKo5pyr/9YmRsXJDlYQ2uRSGLONkdAAACI5iG/h4TAsXWvCQjbj8skw2qkf2vcTMnvvaqhPWZR05eVmudRWfqC6/TDv8xItsCJBfvcW/OpOT1uUXefLLvPyNvRY65Bdwcv0kWfepZ+bYk+rlfmS5XHdJTrTOvx+fQpUQ//pPTux/7Mnn7esaP8dyf/0nJ4jLc9Z+/Zf/+sRUEqqEWS+8Yi8JIf5zwuRV4VpqItfkksstyH26vK4AAAANSbENfDymhYtCwaPYdapiczfCsuclvkBkrrJM/nb+xl4LHRIuJFTk34colwKQ60Hl349voUr25EkgzX9+sbn3JcFS7l9br9B1qvJfnxgZk9uVG6qkFsWuUyW6vq4AAAANSbENfDymbQSLBQ/Z43THfdPsVdfjjasEGzkkJRvg3MstyEZYruQd712RMCW/NpRrVmkb+0KhQ+5TNubxdZXk78mVymXviHY/voUqQZ7jlGkz7WsVv65yBfZRt97XYd1qrqie+/rEyJjcvtxQJUhNFyxcYv++/F1ZRx6vvB/kseZf/R0AAAAAAAAAAAAAAAAgReLDXJWoHS4DAAAAAAAAAAAAAAAAAAAAAAAAAAAAAAAAAAAAAAAAAAAAAAAAAAAAAAAAAAAAAAAAAAAAAAAAAAAAAAAAAAAAAAAAAAAAAAAAAAAAAAAAAAAAAAAAAAAAAAAAAAAAgEro0uX/AVj+qhO8CdyAAAAAAElFTkSuQmCC;" parent="1" vertex="1">
          <mxGeometry x="540" y="280" width="597" height="595" as="geometry" />
        </mxCell>
        <mxCell id="uaC2PHWClK9KAIYIgDp3-4" value="" style="shape=image;verticalLabelPosition=bottom;labelBackgroundColor=default;verticalAlign=top;aspect=fixed;imageAspect=0;image=data:image/png,iVBORw0KGgoAAAANSUhEUgAAAm0AAAJaCAYAAAB9dHCrAAAAAXNSR0IArs4c6QAAAARnQU1BAACxjwv8YQUAAAAJcEhZcwAAEnQAABJ0Ad5mH3gAAF6pSURBVHhe7b0JtF1Vme+L494a473Sqlvv1fWWZd0q61Vzq551S8u6ZV1vaalPUWwoC6VoSsQIAiJIpBUEgSAQ6TF0IYB0AYREICChEaKE3kAktCE0SSAGQhd6Dgkh863/dM1z99nn2+08+5wz5/z9xviNnKy59jrr7G/vb/336vYmAAAAAAAAAAAAAAAAAAAAAAAAAAAAAAAAAAAAAAAAAAAAAAAAAAAAAAAAAAAAAAAAAAAAAAAAAAAAAAAAAAAAAAAAAAAAAAAAAAAAAAAAAAAAAAAAAAAAAAAAAAAAAAAAAAAAAAAAAAAAAAAAAAAAAAAAAAAAAAAAAADZ8tZbG91Fl9/gZp5/hduwYYOrJwNMShbcvNgddvy5bmhoHa9VAIDAkgcedd85/HT3/NqXaI6Z8eJLr/oN33U3LvK1vfG2Je4TW+3lHli2klrX6Dn63tFnuVvvvN8/J4SFieGNdev9B4of/fhqt3HjRv8a1WtVr9l6loGjDzN6PUg+2ABMMh5budptuvXe7vhZcybkzXnp/IXuvR+b4hYtWTquv1/NcdbsK925l1zjm+MTq592X5hyoN8LU8/SNXruJuJvgO7Qhueksy51X5063T37/Ivu5Vdfd3scNMMdfepFyW2UHlnxa/e5r+zvX6uPrljd1bqvW/+mO+TYs91Wu0xz9y1dbj5Gz8MPTr7Q7bTvsX5jPRFhAX6DeqJ6snpzqMvUg09yr70+NC610O88+ezLfE/Tv6m9RwCyplVoC9P1xu3kfofP7PiJfNmjT7gtdzrEzTzvCrfhrbeG5x3L0Lb2xZfdtrse1tX6iMbmqOB25oVX+Q3b08++0NO6jEdoe+jRx92nt93Xzf3pjQP7HTkTXs+quf5/7S8WucNPPM8HFD9DAmhdFar0dzy8fFXX66333se3/Lb78m6Hu+dfeLnl40JQ03MziLBwxXW3us9vf4C7+Iqfd728ifpQN5Hog4U+YOiDhupw9/2PuH2mneZWr3lu3J4D1fyA6We4D22+m7v9rgeKee4BJj2dQlvYyFn0EpK0B+t9n9zR3fzLe0fMN5GhTRvBHfY6arg5am/btw8+2Ye4epauGI/QturJZ9zmX/2uO/a0i33ArCdPCsLzrucg1la103Nrzd+t2vCccs7lbs6Vv4jac6B10zqGsF9PHjiq+QWXXu/fQ5ddfVPXrwHNd/r5V/rnQP+2e5z2yB1z2o/dz2680+ncv7EMC/q9eu1qPXrZe6f+8MHPfsPd8+CjLR+jdb3wsuv9e3fV6mfaLjvUr/G10a96zeu1Xy96mNA7rcd0o/7muVfd6D/gdtPH2hHTm556+nn/QTvsfa0nA8BEMh6hLYQj61P7RIS2oTfW+b1q8669xf143gJ3arUxj2mO4xHaXh96w29Av3XgDPfqa73t+QjPS6uNTCteefV1d9QpF7nLr7m576A4Hs/NWBM27FYwazc2SMLhex3W1eHdenJH+g0Q/bzO2vHyK6+5nfY5xm327/u5FU881fVytWe5m+f6ubUv+T1DH/jUTu6ci69xCqD1UNeEXtSu501G2r3HYt9/qT4nANkSmnqr0KY3bCc7hSQdbtEeAuux3drpd4huQ9tY7/qPbYz9blibbfV3r3l2rfvS1w/2oU/hr57ckWeee8FNmTrdP0/9/m2EtrGh1Z7qdii4TDv+3J7qt/jeZf73dPN+64UHH17pPrLFHj0vV68f7WHWnuZ6Ukv095510Xy//gqdvZ7mQGgbTfjALdnbBjBB6A2sN7Jlr3tjOqE3unavtzo0ExrlWGzUuw1tIgQS7f7XYYB6cl+MVzAJh0h1AUU9qStCKNTJ6Ot73AOh85x0PpSadj9X1hLa4ul3wxk+LPVyMrmusFW9Oh2G1/K0t1qHarvZq6XXrJbb7kKf8Nxqvm60XlNa5/kL7vBBdZuqFyzvYa8eoc3m/LnX+ddRSu9hgGwJG3S9uetJY4YaqM7DabeB6ze09drg1XQUHu9ftmL49+h3qrmfeMZcc6OmcWtZMcaEYgUuBa9eN95h70k/NVYNtXHWuquW7TbkFoS2eHQ+l87r6nROWiPhKtNew3YIV50ueNG5YzpZXvPqd6xctabl/CF0an10mLee3JGwh7jX8zg17y2/vNe/t/U79VzUQ20htNmEvaS9flgEgAFghbZeA5G0Gp3ufabGqY1+q6bbb2izCCHLai46D0jNX018+eNP+nEFNV0hp3XUuvoZe0QbRF1xqt+r8NdrqOkVHR7T+t593yNd/x4dAm5Vo24IJyT3s1eS0BaPApSew24P5Ye9yL0EFqFz2HRYsdOJ/wHtYdOeto9+cao/l0zvO50vWg8PE/b49XqLlRBW+7liWu9D3XNOF59Y62RBaLNR6N5u9yN6Pr0CAAZAu9DWzV6h8Hir0Wmvls6pafdJfyxDm24poGWFm6g2ow2Ybmmg3f31pOHbIWg9+zl5OXwK1cal1z1gop+A3E4tS8usF+8Jz3Gr56UT2gCGKxB7vY8doS0ePYfd/r4XXnrF7XPYacOBTed1aWOrcNXpAoZubw3SjH7HXoee4uu8/R5H+nvBhQ8vej9oD7eWq+X7B3SJXrfdBkg9R7GndoT3idXLJjPt3mNj8f4Le/j14ZSbjwNMMIMMbd0QGmXsRl0bCe1Ja9fkwzlvjed2KajpTvD9bFSE1l+h7SdXLfSBsJcTxfslnGfWbYAai+c4bNB7vW/XWGw0wjLGUivcBiZTaOvlvajwpD1ljTfe1R7kLXY4yP/N2kM78/wrWi5HryfN18th2IBuu7Hw9nv88xIOxWuvTHjthdvq1LN3JASFbgOkft9kCG1hGWNpp7+r3XtsLN5/QssZr9c8ALQhhC59Oj9vzrVu72mn+iu1tKFobBydbG50YbnWvP3arnmFQzvtPg3qsVpG8wZbQUsbml43VgovCjFSy1b4k/3sseuFcFhXG+duzhEKG5KYxh2eX6txhw3DWNrPhjO85prr2yvhcJB11eJkDW3au6XXg3XVpALVoruX+r1gem51KPO0c+eNWF64oWu/H14CjXvd/ulfdvdBsZ/D6uGim24PqXYb2gYRqvS768V3TehF3axzO/TNLroSvtWHVUIbQAaoCaqJ6nCZDp0osHzmy9/xoU030tQn5G42FCJsKPvZyDaeD9bPNxE0Etaj3RWSoVE2n9isT/L6RN/rYSGdV6ZmqavV9H+dc6Tze3o536xfwt+r8NZpoxYOG8c27nCSei+HWcdqo9EN4TmJDW3hdWm9/rsNbToUqb+93Qn63dBNaNPvOuSYszven0zh7dZF9/llqSZ6reoxjXvEunk9dULrcNFlv7lFiZapG/b2+kFG7yk9vts913quu+lX7QjPQT+9rFdCL4pdZ9VOPbzV67Gb95/qrT2w2ivb6kMroQ1gAtHNUhVQzrjgp25e9bMO6+lNWQ/3dEgmbCj7aXQh9GjvXmP46YfQcNsFitAoG/9WoaZ1QjVNe8l+/dSzXa2DNkI6Dy58n2XjNO217OUQYiNaljZ4u+5/vN+o6m8K6v/aA3RUtWHVXet/eOZc/7zpSrn64Sbh6tHYjdGNty3x69HLVWTdbDTGCv0O/a7Y0BbOfdReq+YbzHYT2rTh0+FyrUu7i3C6oZf3YrfodRouINA6hj1ijRfpxKD3U/juyqD2Bul8u3qWtoQ92L2cI6rXWexzNJ6hLfTN2HUOHzB0la2utq0nD9PN+0/9Q32k3Xm9Wg6hDWASEJpHY5AJG4rGptvJXhudGns4xKfzb9Qwer09QSA0+U5763Qndt2RvfFChH4JtxTQtyrUkzzh+xubp3dCV7jp6lM1z+NPv8Qf6tAGS3tH6ln8c6ZQp/D03eln+sNceu47HX4Kh5p0XlE9aQT6ypyzqnDRaW9IuOjiyBmzu94bM56hTYFdv6vV39ktIZxaf2c3oU2hTwFoLO4BKAa1wdS3CBz+w/N9oJe9fD1WK/R4LUfLU1DToVa9r/V86r5p3VzNqj3Weh/0ctGLnqOUQpve3/ob9RzpEGc9uWfCe9L6gCE6vf/ClcY6LK7eVU8eQTgEq/7aT38GgDGkXWjrpgmGx/fa6JpvBxI2dL3cCDTQ7TlpocH1exVlQMFQe7zUyJr3qOn3635mvdxuQY/R86C/4eoFd3S94dRhMe310tdwtQtcGtNeRKux629RM+7m6tlQa7029BqpJ7dlvEKbXjM6/0m/K6a+4blqtZxOoS1sBFVL3eqinhxFr7f86BY9Z2GPWD/vu2b0ul1w82L/vtZrLWzgtYdN7xX9Hj1vei20eo2H59f6AKZDgQqEOkqg51fL0wcXhWPtNYwNFeMZ2sJFH73stW5Gz6F6XrvltHv/qXeFurTbIxxOH+GWHwCTgIkIbWHD1vxFxNo79feb7dzTJ/6wl62bE6i1EVZoU3irJ/VMaHTtQpnm0SFSK9RZhBPfW31aHgus+7vpOVazVv0eXr6q4++dzKFNF2SoJp32tnYiXJnbeNi7kXahTd/Vuv8Rs/zfOxYhKBD2ysRs4JvRnt3jZv7mC9z1b7f3MmuFXkvhmwj02m8+FKowrA8XClua56c/u23EXuRAuKdbcz/RNxtoT50uptAX2YfnVuevPrnmOfedw0/3f4uulL3pjnvMZXdivEKb3u/a+xh70Yf24iqwWq/FQKv3n+qhPdIa69SnBvH6A4A+aRfa9Ibu1m4bXfN9pOrJHjV+BTYFK31i7ya46VCWmnynWwpoTHtier3YoJHQ6LTR6bTXo5c9hwrGCsiD/CSrvXL6svEDf3DmcOBSUNPh4rE4LNaK8QhtIUjrddDrYelGGpfTai9Zq9CmoKjQrb91LEJQI2Ej38s5Xu0IX66uv1Pf1dlpD2sn9PjwnZ9H/HC2U3ith0agIKXXmvaOyebnOISQ5nNCw+0/9MGmVSDX62yrnQ/1fUPBTq91fWtDPdwV4xHa1AvC3k1dwdupN7SicTnt9pJZ7z/VR3XSdCtgN6Llam+eQtt4XGAFAB2wQltAb1i92fUpVnvH6ske3UIg3B6kntQRXUmnDU+77wTU79Qndh3u+PG8BW03KGrgauTdnDukebUXptMh1FZoIzL9pAt8YNP5bN0sQ8Hu/9tyz47NWWPdhsEYFCQ/v/0B/iR5XSWsvZ1juUfIotMNj2Np3ADF/C2NG8HGYNtMc2hTEGm8P9lYhCALHU7T8mPuA6i/UR9ytK66Wrzb13E79L7SLT702lUg6/T86/fpFACdV9o8r2p50o8uHfVhLnyoabeHV/0rHBnQ86/gpb/xquvtPXoW4YKdQe1Ragy33e6Ft9BzqOday1E/bXdIuDG06XG6NYz6r6a1C9iB0Dd1NKPf9QWAMaRVaNMen5nnXeFDh9X4wonzGr+h+nTbrjFqXjVRBTE1K33Sr4daEu471eoTsxq+fr8VdHRlpQKlvsZGjUbNUqFIe776uTouhE2tj9arntwVIbhpXdvtfVHz1IUZ+kR78DE/8k1WzbjV7UuEngPteZGdNpYBbRD1t+h50yf0sdwjZKHDlnreFK51wUm3G9BOaDk6DKYNc7eBoRV6fYRDdzpk3/wBpZEQ2nSxiT5UfHP/E/wGUK/tX9x6d3QIakV4HvV+6PTNBs2oxtoDpVCj50qhJHaPbuN7up+9Wr2g97BCwzcPONG9/Mpro35PqEnz6QV6rWt6t+um95Hqrz5x1z3L+n49NRPCkvYA6jU28/wr+n7f6XUf9laGi7jqIZMQ2hSS9WFEv1+PveSKn3cVsHV+rh4zVudnAkAkaiY6HKlQo//rPB59GuymGetNrU/r2nA2z6sxfUr70Y+v9hs4bTB0j6heNtrasGgD84+f23XUzUBfevlV/0nR2ouljdr1N93lG73+jrAxbvyy+G7Qc6HlK0jpKrtub1nQTAig2sBrD1c92US/U4f4FG71iVjrr6ZrGU7C3nnf49zjv467H9ggUUjXHpRPb7uv+Xc02+pQanhN6WpXnbukv1916fY2LRZ6jWnDrt/bePJ8K0JACOuq15bWoZsPIjE0bkC10db/6yETracOZ+n2MApqer70uF4DXzN6vDb4ek/r9azX9lgF8Xbow4/eC4cdf65/D4XfqaClD5fqYWOxl1qvB92vcosdvzdc43a2O5SqddMe5hDWvn3wyf7c0U61a8Wbb27w7yP93nZHKxoJoS3YS8DWB1wF2H4+KADAGKJmoj0f4Y2sPS9qAGomukeY3qQ6Ibvb5qJPjdogfG3Po4ZPaNfGVf8/6pSL3EOPPh7V2LVRVvPZ7bsntt0LMpbob9ffpL1e2tPWb6MNKPDpFhK6tUa7vWfQGr1uFaymfu8kH8rHYkPiX/OX39DxxrQB1U57TRUY9dqI2Qj3SuOeoOZDiI3oQ4zO39S82sOikDMW66gPPQoL2iupDf94/d0BBWPtpWoMVPogcOhx54xrHbpBr6XDTzzP10B9xLqopR90eFs9tdNhzYD2BuviLvV07T3stg9r76Y+OCrw60r/ejIAAEBaKBTF3FsrBoU1hbZu97RA2Sik9XooXB/CdTFNt3t1AQAAAAAAAAAAAAAAAAAAAAAAAAAAAAAAAAAAAAAAAAAAAAAAAAAAAAAAAAAAAAAAAAAAAAAAAAAAAAAAAAAAAAAAAAAAAAAAAAAAAAAAAAAAAAAAAAAAAAAAAAAAAAAAAAAAAAAAAAAAAAAAAAAAAAAAAAAAAAAAAAAAAAAAAAAAAAAAAAAAACABnn3pDYeIiJi79WYPIF30Ql793OuIiIjZSmiDLCC0ISJi7hLaIAsIbYiImLuENsgCQhsiIuYuoQ2ygNCGiIi5S2iDLEghtNWruok1hmVI/cvWN4AKawzLMLb+hDbIAkIbpiD1L1vfACqsMSzD2PoT2iALCG2YgtS/bH0DqLDGsAxj609ogywgtGEKUv+y9Q2gwhrDMoytP6ENsoDQhilI/cvWN4AKawzLMLb+hDbIAkIbpiD1L1vfACqsMSzD2PoT2iALCG2YgtS/bH0DqLDGsAxj609ogywgtGEKUv+y9Q2gwhrDMoytP6ENsoDQhilI/cvWN4AKawzLMLb+hDbIAkIbpiD1L1vfACqsMSzD2PoT2mBMuHT+Qvfej00Z4aIlS80X19oXX3bb7nrYiHn1+Hp4BN3OS2jDFKT+ZesbQIU1hmUYW39CG0QTAltjSNPPVsAKIez4WXOGpz+2crXbdOu9o+YltGEKUv+y9Q2gwhrDMoytP6ENoll4+z1OAav+7zAKWwpdjWMKW83ThDW9l3kJbZiC1L9sfQOosMawDGPrT2iDgdEc2oaG1rn9Dp/p1c9+ppqwZy7sretlXkFowxSk/mXrG0CFNYZlGFt/QhsMBAU1BbbG0BWmNR7uDDQf9uxlXkFowxSk/mXrG0CFNYZlGFt/QhsMBAWq5nPaJiK01cMAAABJYW3TCG0w5oTDl82HNgltAAAA3WFt0whtMKa0CmxiIkLbZLJeVQ6NFCz1L1vfACqsMSzD2PoT2mDMaBfYhKZpzBpvvrigl3kFoQ1TkPqXrW8AFdYYlmFs/QltMCZor5eClLVnrBHNpz1o2pNWT/JY03uZl9CGKUj9y9Y3gAprDMswtv6ENogmBDb9W09qiXXY0zrcKXqZl9CGKUj9y9Y3gAprDMswtv6ENogiHMZUaGtlqzDWOE/joc5Gup2X0IYpSP3L1jeACmsMyzC2/oQ2yAJCG6Yg9S9b3wAqrDEsw9j6E9ogCwhtmILUv2x9A6iwxrAMY+tPaIMsILRhClL/svUNoMIawzKMrT+hDbKA0IYpSP3L1jeACmsMyzC2/oQ2yAJCG6Yg9S9b3wAqrDEsw9j6E9ogCwhtmILUv2x9A6iwxrAMY+tPaIMsILRhClL/svUNoMIawzKMrT+hDbKA0IYpSP3L1jeACmsMyzC2/oQ2yAJCG6Yg9S9b3wAqrDEsw9j6E9ogCwhtmILUv2x9A6iwxrAMY+tPaIMsILRhClL/svUNoMIawzKMrT+hDbKA0IYpSP3L1jeACmsMyzC2/oQ2yAJCG6Yg9S9b3wAqrDEsw9j6E9ogCwhtmILUv2x9A6iwxrAMY+tPaIMsILRhClL/svUNoMIawzKMrT+hDbKA0IYpSP3L1jeACmsMyzC2/oQ2yAJCG6Yg9S9b3wAqrDEsw9j6E9ogCwhtmILUv2x9A6iwxrAMY+tPaIMsILRhClL/svUNoMIawzKMrT+hDbKA0IYpSP3L1jeACmsMyzC2/oQ2yAJCG6Yg9S9b3wAqrDEsw9j6E9ogCwhtmILUv2x9A6iwxrAMY+tPaIMsILRhClL/svUNoMIawzKMrT+hDbKA0IYpSP3L1jeACmsMyzC2/oQ2yAJCG6Yg9S9b3wAqrDEsw9j6E9ogCwhtmILUv2x9A6iwxrAMY+tPaIMsILRhClL/svUNoMIawzKMrT+hDbKA0IYpSP3L1jeACmsMyzC2/oQ2yAJCG6Yg9S9b3wAqrDEsw9j6E9ogCwhtmILUv2x9A6iwxrAMY+tPaIMsILRhClL/svUNoMIawzKMrT+hDbKA0IYpSP3L1jeACmsMyzC2/oQ2yAJCG6Yg9S9b3wAqrDEsw9j6E9ogCwhtmILUv2x9A6iwxrAMY+tPaIMsILRhClL/svUNoMIawzKMrT+hDbKA0IYpSP3L1jeACmsMyzC2/oQ2yAJCG6Yg9S9b3wAqrDEsw9j6E9ogCwhtmILUv2x9A6iwxrAMY+tPaIMsILRhClL/svUNoMIawzKMrT+hDbKA0IYpSP3L1jeACmsMyzC2/oQ2yAJCG6Yg9S9b3wAqrDEsw9j6E9ogCwhtmILUv2x9A6iwxrAMY+tPaIMsILRhClL/svUNoMIawzKMrT+hDbKA0IYpSP3L1jeACmsMyzC2/oQ2yAJCG6Yg9S9b3wAqrDEsw9j6E9ogCwhtmILUv2x9A6iwxrAMY+tPaIMsILRhClL/svUNoMIawzKMrT+hDbKA0IYpSP3L1jeACmsMyzC2/oQ2yAJCG6Yg9S9b3wAqrDEsw9j6E9ogCwhtmILUv2x9A6iwxrAMY+tPaIMsILRhClL/svUNoMIawzKMrT+hDbKA0IYpSP3L1jeACmsMyzC2/oQ2yAJCG6Yg9S9b3wAqrDEsw9j6E9ogCwhtmILUv2x9A6iwxrAMY+tPaIMsILRhClL/svUNoMIawzKMrT+hDbKA0IYpSP3L1jeACmsMyzC2/oQ2yAJCG6Yg9S9b3wAqrDEsw9j6E9ogCwhtmILUv2x9A6iwxrAMY+tPaIMsILRhClL/svUNoMIawzKMrT+hDbKA0IYpSP3L1jeACmsMyzC2/oQ2yAJCG6Yg9S9b3wAqrDEsw9j6E9ogCwhtmILUv2x9A6iwxrAMY+tPaIMsILRhClL/svUNoMIawzKMrT+hDbKA0IYpSP3L1jeACmsMyzC2/oQ2yAJCG6Yg9S9b3wAqrDEsw9j6E9ogCwhtmILUv2x9A6iwxrAMY+tPaIMsILRhClL/svUNoMIawzKMrT+hDbKA0IYpSP3L1jeACmsMyzC2/oQ2GFPWvviy23bXw9yiJUvNF1YYf+/Hppg2P86a/9L5C0ctm9CGKUj98/e6h253B18/3X3tsm949bOmacw3gIrmx2A5xtaf0AZjyvGz5pjhKxBCmOarJ7XEmvexlavdplvvPSq4EdowBal/vt6xfKn77PlfcJtM28RUYyteWMFroHBj609og2iGhta5/Q6fOWJv2FiENgUzzavH1JM81nRCG6Yg9c/Ta5fe5t559H8xw1qjf3DsH7jFTy42l4FlGNsDCG0wpiisjUVoC0FQ6ud6ssf6HYQ2TEHqn58rnn7B/fkP/5sZ0iz/6uS/8o+xloX5G9sDCG0wpnQb2sIeuWBziGsX7qxDpIQ2TEHqn59Tr9rfDGft1GOsZWH+xvYAQhuMKZ1Cm0V4TONetbEKbfUwAMBA+OMT/9gMZu30jwHogLVNI7TBmNJPaBMKYI2PI7QBwGTHX1hghLJuDBclALTC2qYR2mBM6Te0NQcxDo9ijlL/vLxm6a1mIJNv3/NdXmtM6rHWMjFvY3sAoQ3GlH5DW/PjuBABc5T65+VNjywxA5l8z79u5rXGpB5rLRPzNrYHENpgTLECVTdor5n2nmkvWj2JW35gdlL//Pyd6b9rhrJ2oU2PsZaF+RvbAwhtMKZ0Cm063Nl4WFOExzRPtw6RWodGBaENU5D65+d2c3Ywg1m70KbHWMvC/I3tAYQ2iCYcylTwarb58GYIaM22CnkhuHWal9CGKUj98/O2x+43g5kC27u3+bA5psdYy8L8je0BhDbIAkIbpiD1z9PTb59thjPLS+6/xFwGlmFsDyC0QRYQ2jAFqX++zl58ufvTE/98RED7rQPeMfyzxuY/PJ/XQOHG1p/QBllAaMMUpP75e9zC09wXLvw3995/29KrnzVNY74BVDQ/Bssxtv6ENsgCQhumIPUvx213O9LbOM03gIrGaViWsfUntEEWENowBal/ORLa0DK2/oQ2yAJCG6Yg9S9HQhtaxtaf0AZZQGjDFKT+5UhoQ8vY+hPaCmPjxo3u5Vdecy++9Kp7662N2RSf0IYpSP3LkdCGlrH1J7QVwuo1z7mDj/mR+8CndvI3qA1fA7Vu/Zvue0ef5T6yxR7uwYdXJvtiILRhClL/cjxn7gJv4zTfACoap2FZxtaf0FYAK554yn1hyoE+sO2w11Hu41t+e8R3d9542xIf5GbNvjLZFwOhDVOQ+petbwAV1hiWYWz9CW2Zo8OhJ54x173vkzu6y66+yT3/wm++FqoxtCnUbfbv+7l9pp3mXh9K8wVBaMMUpP7lyJ42tIytP6Etc3T+2k77HOO+9PWD3Zpn1/qg1hzarGmpQWjDFKT+5cg5bWgZW39CW+Y0BzIroFnTUoPQhilI/cuR0IaWsfUntGVON3vadAGCLkTg8OhgrVeVhl2w1L8cCW1oGVt/Qlvm6Jy208+/0p/TpgsOmkPbhg0b3MlnX8aFCONgvao07IKl/uVIaEPL2PoT2gpg+eNPus99ZX+36dZ7u4uv+LnbYoeD3FY7H+ruWPygO/rUi3yg07jmqx+SHIQ2TEHqX46ENrSMrT+hrRAW37vMfebL3/F71JpVmLvrnmVJvxAIbZiC1L8cCW1oGVt/QltBDL2xzh8iPerkC912ux/hvn/Cee6nP7vNvfzq/24mqUJowxSk/uV4zcIlbvGDq0ZM8w2gonEalmVs/QltkAWENkxB6l+2vgFUWGNYhrH1J7RBFhDaMAWpfznuOe10b+M03wAqGqdhWcbWn9CWOfpSeH05vK4U7WTKXyJPaMMUpP7lyDltaBlbf0Jb5iiM6fYe1gUIzTbeuy01CG2YgtS/HAltaBlbf0Jb5rz62pA7b+51/l5slkfOmO0+tPlubpsqsJ0351qn+euHJgWhDVOQ+pcjoQ0tY+tPaCsc3Vz3pLMu9bf9eGzl6mRfDIQ2TEHqX46ENrSMrT+hDYa/xko32lWIqycnBaENU5D6lyOhDS1j609og+Hz3nTvNl2MUE9OCkIbpiD1L0cFNq4exWZj609og030RfL6QnkuRBis9arSsAuW+petbwAV1hiWYWz9CW2F89rrQ27GWT/xV4/ud/hMNzS0LskXBKENU5D6l6O+DUHfitA4zTeAisZpWJax9Se0ZU63t/zQFaSLlixN9sVAaMMUpP7lyDltaBlbf0Jb5ugctX2mneZv6dHKo065yK1a/UzSLwRCG6Yg9S9HQhtaxtaf0AZZQGjDFKT+5UhoQ8vY+hPaIAsIbZiC1L8cCW1oGVt/QhtkAaENU5D6lyOhDS1j609oy4hOX1nVST2Wr7EanPWq0rALlvqXI6ENLWPrT2jLiF6+HN6S+7QN1npVadgFS/3L8Zy5C7yN03wDqGichmUZW39CW0a89dZG/40GCl79qMdqGfXikoLQhilI/cvWN4AKawzLMLb+hDbIAkIbpiD1L8ejTp3jbZzmG0BF4zQsy9j6E9ogCwhtmILUvxw5pw0tY+tPaIMsILRhClL/ciS0oWVs/QltBaDz1OYvuMN97iv7mxcgBLkQYbDWq0rDLljqX46ENrSMrT+hrQBuv+sB98HPfsN94FM7uS12OMj/K7fc6RC31S7T/PeOfvSLU/3XXelihPphSUFowxSk/uVIaEPL2PoT2jJn/fo33SHHnu3e98kd3Y23LfF70rRHrXGv2kWX3+D3wi1//MlkXwyENkxB6t+7sxdf7r4y9+vuH8/4J/e3p/6d+8Q5m7n9r53m7lzxsDn/ZJHQhpax9Se0ZY72nG23+xHuS18/2K15dq17fegNv0dt869+16168jdfEv/Iil+7T2y1lzv9/Cvdxo3c8mNQ1qtKwy5Y6t+9i1Ys8wFtk2mbtPSgnx1hPnYySGhDy9j6E9oyp3nP2tDQOrff4TPdplvv7R5budoXP8zzrQNn8I0IA7ReVRp2wVL/7rx9+YPuT0/8czOoNbvrFXuay5hoFz+4yts4zTeAisZpWJax9Se0ZY51OPT4WXP84dJFS5b6/1vzpAahDVOQ+nfnh8/6uBnQWnnizbPM5Uw2fQOosMawDGPrT2jLnHA4tDGQXXfjIn+16IlnzHUbNmxwdy55yF+owJ62wVqvKg27YKl/Z0+9/VwzmLXzPSf8mbmsiZTDo2gZW39CW+YolB05Y/aI0Pbs8y+6r06d7oPbZv++n7+SVD9fOn9hsi8GQhumIPXv7Odm/6sZzDo5d8k15vImSkIbWsbWn9BWANp71vy9ovctXe622vlQH9YU2s65+Bq3bv2byb4YCG2YgtS/s79/1H82Q1knv7/gOHN5EyWhDS1j609oKxhdKfryK6853RaknpQshDZMQerf2Vah7fd2/Qv37m0+bI5J3QbEWt5ESWhDy9j6E9oyR3vPdDg01Vt5dAuhDVOQ+nf2L2f8tRnK3jnl/f7IgDUmj154srm8iZLQhpax9Se0ZU64MnT7PY50C25e7IbeWJdlwQltmILUv7PbXPJVM5R1Cm3XPHirubyJktCGlrH1J7Rljs5nm37SBcMXG+grq3TLj1Wrn8lq7xuhDVOQ+nf2kiXzzVDWLrR9cNb/Mpc1ke457XR31KlzRkzzDaCicRqWZWz9CW2F8NrrQ35Pm/a4qfHJnPa+EdowBal/d247Z3Q4axfa5iy52lzOZNM3gAprDMswtv6EtsLQ3rXVa55zZ154lf/qqlz2vhHaMAWpf/d+8tzPjAhmrULbMTedaj5+or1m4RJv4zTfACoap2FZxtaf0FYwuoebvhVh6sEn+WbINyIM1npVadgFS/17c/cr9xkOZ82h7b2n/K2bvXie+bjJIOe0oWVs/QlthaLAtvSRx93Bx/xo+Hy3KVOn+/u51bMkBaENU5D69+6SVSvdcTed5j6z/y6+T+1z9UHuol9dac47mSS0oWVs/QlthaHbf/zox1cPHxrVd5DucdAMv8dNQa6eLTkIbZiC1L9/dVK/epY1NhkltKFlbP0JbQWgCw10wcHX9jzKhzQ1PoU2hTeFuHq2pCG0YQpS//4ltGEOxtaf0JY5Oty53e5HZLVXzYLQhilI/fuX0IY5GFt/Qlvm6MKCXfY7Lqu9ahaENkxB6t+/hDbMwdj6E9oyR7fwaPyi+G7Q/PpO0l4fN5EQ2jAFqX//phbauOUHWsbWn9AGo9Deuf0On5nU7T8IbZiC1L9/Uwttlr4BVFhjWIax9Se0wSgIbYOxXlUadsFS//5NLbRpffVVVo3TfAOoaJyGZRlbf0IbjILQNhjrVaVhFyz171/OacMcjK0/oQ1GQWgbjPWq0rALlvr3L6ENczC2/oQ2GAWhbTDWq0rDLljq37+ENszB2PoT2mAUhLbBWK8qDbtgqX//EtowB2PrT2iDURDaBmO9qjTsgqX+/UtowxyMrT+hDUYRE9r0mG13Pcx/60I9aRRhHjXg4KXzF5rzdzsvoQ1TkPr3L6ENczC2/oQ2GEVMaDt+1m8aa6vQFkKY5qsnbfLYytVu0633HhXGepmX0IYpSP37N7XQZukbQIU1hmUYW39CG4yi19A2NLTOzx/2hLULbQpbCmLNy7am9zIvoQ1TkPr3L6ENczC2/oQ2GIXCUL972hTWWoW2EO6kfq4ne5of18u8gtCGKUj9+5fDo5iDsfUntMEoBhXatLzmw52B5sOevcwrCG2YgtS/fwltmIOx9Se0wShefW3IXXb1TU7/1pO6ZrKFtnoYABLn1HMu972l/u8oHnjmAXfwzw92m83ezP3DGf/gPnHeJ9ze1+3tbn3i1gnpA1O+/QMn6/8C9Iy1TSO0FcRbb230e8+WPPCoW3zvMrdu/ZtO01586VXvhg0bol8MhDYAGATtQtv+1+/vNpm2SUu/Nu9rbv2G9ePaDwhtEIu1TSO0FYJC2hY7HOSbnlQgUjBSUDv61IvcBz/7DXf3fY9EvxgmW2ibTNaryqGRgqX+/dvq8OiWP/53M6g1+7/O+Gf3+DMvj3r8oOTwKFrG1p/QVgDas/ahzXfzQWfGWT9xn/vK/sOhTeMKWO/75I7uxDPmuo0bN0a9INqFNi5E+A3WGJYh9e9fK7Ttd83BZkBr5TaXfHXE4wcpoQ0tY+tPaMsc7Uk7csZsvyftll/e64OaAltjaFv15DNu869+133rwBl9ncfWiBWoGtHescbfHbCm9zIvoQ1TkPr3b3Noe+DXq91//P5/NMNZO6+6f+GI5Q5Kra9snOYbQEXjNCzL2PoT2jJH56ptt/sRbqtdprnn177kg44CT2Posab1S6fQFn5X42FP63Cn6GVeQhumIPXv3+bQdtzC08xQ1sndrtx7xHLHU98AKqwxLMPY+hPaMqc5kDX/X/MozCnUNU7rhXAoUw21WevwZliHxvk6hbxO8xLaMAWpf/82h7avX76bGco6+bGzNx2x3EF5zcIl3sZpvgFUNE7DsoytP6Etc3S4U4c9dfhTh0Gt0HbPg4/6w6cHTD/DvbFufK+wGisIbZiC1L9/m0Obzk+zQtlvHfAO9+5tPuz/tcb/x+n/c8RyByXntKFlbP0JbQVw0eU3+Gb3k6sWuudfGBnaXnt9yIc1jWu++iHJQWjDFKT+/dsc2na9Yk8zlCmsab637/kuc3zTcz87YrmDktCGlrH1J7QVwDPPveCmTJ3uPvCpndwhx5ztzwnTFaRnX3y1236PI32D07jmqx+SHIQ2TEHq37/Noe3022eboaxTaPvONYeMWO6gJLShZWz9CW2FsHrNc26Pg2b4ZtbsDnsd5Q+d1rMmCaENU5D6929zaJN/cOwfjgplnULbbcvvH7GMQUloQ8vY+hPaCkL3YFN4u/6mu9zM865wVy+4w+lqTH0rQj1LshDaMAWpf/9aoe2Em08fFcrahbY95393xOMHKaENLWPrT2iDLCC0YQpS//61Qpvc6+oDR4Wzd055/6gLEbadM/qxg5TQhpax9Se0FYBusBu+XzTsVdO/d92zzO9x++nPbnOvD6X9QiC0YQpS//5tFdrkiTfPcu869t0jQlrw/zzit92BPzvcfNwg5ZYfaBlbf0JbAVx34yLf7PQdo+FL4edde4v/6ipNl1yIMHjrVaVhF2wu9Z97zzX+0KTUz9Y8Y2270BY845cXud2v3MdtN2cHt8sVU92MW850y5582px3IvQNoMIawzKMrT+hLXPC11gpoIWb0r78ymtup32O8VeRKrxpXM2QW34M1npVadgFm3r9dSjyd3/wn0btzdI0jVmPGSu7CW2TSa3vntNOHzHNN4CKxmlYlrH1J7RlTghoX/r6wW7Ns2t9sR9Z8Wv3ia32cqeff6X/gvgVTzzlNvv3/dw+005L9jApoQ1TMNX6P/TkGvePZ/zTqLDWrObRvNYyYu02tC1+cJWfr/nQ5HjLOW1oGVt/QlvmWN+AcONtS3xT07+t5kkNQhumYKr1//jZm5ohzVLzWsuIldCGORhbf0Jb5lh72mbNvtLvadMeN/2f0DY+1qtKwy7YFOt/+M+PN8NZO/UYa1kxEtowB2PrT2jLHJ3TpgsQdE7bz2680923dLn/NgQFOQU6zRMOl3J4dLDWq0rDLtgU6//XJ/+NGczaqcdYy4qR0IY5GFt/QlsBPLBspfv4lt/2jSx4waXX+/PZNB6uLtUeOP+ABCG0YQqmVv+7H19uhrJu1GOtZfYroQ1zMLb+hLZCuH/ZCvetA2e47XY/wp039zo39MY6X/ihoXVuv8Nnug9+9hvu7vseSfbFQGjDFEyt/tcuvc0MZFI3r231VVFSj7WW2a/dhjap4GZNH08JbWgZW39CG2QBoQ1TMLX6L1h2lxnI5Hv+dTOvNSb1WGuZ/dpLaJus+gZQYY1hGcbWn9AGWUBowxRMrf4rn37RDGSyU2jTY61l9muKoa15j59vABWN07AsY+tPaIMsILRhCqZY/8+c/y9mKGsX2vQYa1kx9nJO2zlzF0z4IVIOj6JlbP0JbZkTbuehZtdJbvkxWOtVpWEXbIr1v+y+681g1i606THWsmLkQgTMwdj6E9oyR18Sr1t5bFMFMsstdjjI3w7ko1+c6ufT/PVDk4LQhimYav2/e933RwUzXYggm6drXmsZsRLaMAdj609oK5x16990044/12250yHuqaefT/bFQGjDFEy5/tNuOHpUQGtW81iPHQsJbZiDsfUntMEmutWHbvlx5oVXDd+7LTUIbZiCqdf/Fw8vdjte9k33Zz/8S/fOKe/36mdN05j1mLGS0IY5GFt/Qhts8vzal9xWu0wb8S0JqUFowxTMqf5WKBmkvYQ2rZf+tcbHS0IbWsbWn9AGw6GNCxEGa72qNOyCzan+kzW0TRa1vrJxmm8AFY3TsCxj609oKxwdDr3s6pv8xQj6xoRXXxtK8gVBaMMUzKn+hLbe9Q2gwhrDMoytP6EtczpdPfrpbff1jVCh7dpfLEr2xUBowxTMqf6EtvbqXnGycZpvABWN07AsY+tPaMucbu7TttXOh7qb7rjHvfVWmhchCEIbpmBO9Z+soU3nsu057XTOacNJaWz9CW2QBYQ2TMGc6q9g1HzO1iDtJbRpPq4exclobP0JbZAFhDZMQerfv4Q2zMHY+hPaIAsIbZiC1L9/CW2Yg7H1J7QVgs5Xu3XRfe5rex7lLzpQU9O/+r+mp3w+myC0YQrmVH8rlAxSQhvmYGz9CW0FsGHDBnfy2Zf5RtZKjWu++iHJQWjDFMyp/pM1tEldtcmFCDgZja0/oa0AdCsP7VXTLT7uvv+R4XCmfxffu8x9YcqB3PJjHKxXlYZdsDnVfzKHtsmg9vQ1B0ffACoap2FZxtaf0JY5b6xb7w6Yfob/blF9x2g9eQThu0c1n+avJycFoQ1TMKf6E9p61zeACmsMyzC2/oS2zAn3adPXVOnrqurJI+BrrMbHelVp2AWbU/0Jbe3VLVFk4zTfACoap2FZxtaf0JY5hLbJY72qNOyCzan+kzW0cSECTmZj609oy5z16990hxx7tj9n7cbblpjF1nSNaz7NX09OilRC2+//vnP/1/+9EQs1p/q/648f9Fpjg/BP/vo3F1NZY43+53c94+cbz3Wz/PN/+IG3cZrqTw+YvFp9e6zVdsCa3q2EtgIIoWzTrfd2P7vxTqfvI9UtPvTv/AV3uI9+cWrbUJcC6expc9W/2K1v/72l7vfedbM5lopaf/6GePVaeOd7LjfHmtV8v/V/PGuOjZc51L00rb491morYE3vVkJbAegq0bMvvtoHM30CbVbTNc4tPwar1vMd76g2Pm/Hbv2TvznT/bcP7WOOtfL337XUa41NhH/29z/w6ufxrv8f/eXl7g/ec7M51qjmC+toqRqoFtYYdq/qTw+YvFp9e6zVdsCa3q2EtkLYuHGje3j5Knfocee4z29/gA9r+lf/13SN17MmSTp72jifpRd1IvcnttrbHGvleJ9r1cnG9Rnv+uu5az4Z3rLT89ztcrC9vgFUWGNYhrH1J7RBFhDa8pTQFiehbXLpG0CFNYZlGFt/QhtkAaEtT3MIbbqKMVzJON71H6vQpm8YmOirMXPQN4AKawzLMLb+hLbCePW1IX9bD8twgUI9a1IQ2vI09dD24Oon3d7Hnuy+dsB0//N4138sQtuSVSvdlGr99zn2FPfomufMebA7fQOosMawDGPrT2grAF1gMO/aW6qmvNeoixAa5T5tg7VeVRp2D6Ya2k6/fbb7n7M+7DaZtol7z79u5tXP/3z2P/sx6zGDMCa0Hb3wZPffT32/X++/3GxL9+5tfvP3fOKczdyP7/7piHmxO+sWQA8o2Nj6E9oK4NL5C30o01WiW+xwkPv+Cef5L4hv9ry51zntiasflhSEtjxNMbR9Ze6OPtwEG0NbUPNYjx1r+wltK59+0W123uYj1rcxtAX3nP/dUcvB9tYtgB5QsLH1J7RljkLYtw6c4b9b9JZf3pttsQltedpPaJtImwObtEKbHI/g1u25aJpP3zignz95zmdGrasV2uR+1xw8alnY2roF0AMKNrb+hLbM0eHOTl9jlQOEtjxNKbTpsGdzqJGtQpscz0Ol7dRXPyncfe/6I831bBXa5PwHbjKXiaOtWwA9oGBj609oy5ywp43QNvHWq0rD7sF+Qpv2GHVzSHCs/dAZHzFDTbvQpsdYyxorez08+ofH/ZG5nu1C21YXf8VcJo62bgH0gIKNrT+hrQAuuvwGf3j07vseIbRNoPWq0rB7sJ/QNhHntC1d/ZQZaGS70Cb1WGuZY2Evoe0jX/qWuX6yXWj7L8f8gblMHG3dAugBBRtbf0JbATzz3AtuytTpbr/DZ7qhoXVZFpzQlqephLbrl/3SDDSyU2jTY61ljoW9hLYPbbGruX6yXWiTDz/1jLlcHGndAugBBRtbf0JbRug+a/tMO81ts+tho/z0tvsOXz1qjUs9VsuoF5cUhLY8zSG0dTKF0NZJQlt31i2AHlCwsfUntGVEuOig+f5r3cp92gZrvao07B5MJbS1OzzayRQOj7aTw6PdW7cAekDBxtaf0AZZQGjL01RCm2x1IUI7J9uFCO8+/r+a69nOrS/Z3lwmjrZuAfSAgo2tP6ENsoDQlqf9hDZdPRruOTaetrrlRzsHfcuPXkNbq1t+tJNbfnRv3QLoAQUbW39CG4xCh0h10UJKh0oJbXnaT2ibSL8y9+tmsLHUvNYyJkLdp03q503P/ay5vpbfueaQUcvC1tYtgB5QsLH1J7TBKAhtg7FeVRp2D/Yb2kIAmQi7CW7jFdh0w9xO34gw774FbreTjnDbTTvQzb5rnntw9Wr3mfP/xVzvRve6+kBzedjaugXQAwo2tv6ENhgFoW0w1qtKw+7BfkLbRJ3T1qgOe1rnuH30nI+O67cgtDs8Ou2GY4Zvpqvbeei2Hvr5bdPe5r526TfcYTcc6/721L8bsf5SX3N18d1XmcvE9tYtgB5QsLH1J7TBKAhtg7FeVRp2D6Ya2oK6MlS39JD+CtNxrn+r0PaFC/9tRBBrDG3BPznhT90vHl7s7ln1uLvuodvdgofudI89/fyoZWH3+gZQYY1hGcbWn9AGoyC0DcZ6VWnYPZh6aGt2vOtvhbZt50wZEc6kFdqkgttjawhqY6VvABXWGJZhbP0JbTAKQttgrFeVht2DhLY4m0PbOXfOHRXMZKvQJneet8eIZWL/+gZQYY1hGcbWn9AGoyC0DcZ6VWnYPUhoi7M5tH36vM+bwaxdaPvtI9/uVj376ojlYn/6BlBhjWEZxtaf0AajILQNxnpVadg9SGiLszm0WaFMtgtt8vJ7bxixXOxP3wAqrDEsw9j6E9pgFIS2wVivKg27B/sJbbrFxUTe8qOd411/PX/nzF3gf37oyTVmIJPvnPJ+H9ysMTnrjgtGLRt71zeACmsMyzC2/oQ2GAWhbTDWq0rD7sF+QttkdiLrv/zptWYg68az7xz/b5jIUd8AKqwxLMPY+hPaYBSEtsFYryoNuwf7CW3asxT2Lk02x7v+ev4av9LrPSf8mRnKOnnjI78asVzsT98AKqwxLMPY+hPaYBSEtsFYryoNuwf7CW2c0/a/bT6nbZcrppqhrJ1/c8r7RiwT+9c3gAprDMswtv6ENhjFiy+96o465SKnf+tJkx5CW54S2uJsDm2LViwzg1k7T77t7BHLxP71DaDCGsMyjK0/oQ2ygNCWp4S2OJtDmzzp1h+Z4cxyx8u+OeKxGKdvABXWGJZhbP0JbQXx6mtD7v6Hlrvb7rrfdPG9y9y69W8O9AWhQ67b7nqYe+/HppguWrJ0xO+35r90/sJR60hoy1NCW5xWaJOn3HaOe8f03zGDWvBbP9131OMwTt8AKqwxLMPY+hPaCuCVV193Pzj5Qve+T+44Ivw0q3A06PPYQgg7ftacjr/HmvexlavdplvvPSq4EdrylNAWZ6vQJu9+YoWbetV33P97yn8fDmp/fMJ73DaXfNVdef8vzMdgnL4BVFhjWIax9Se0Zc7GjRvdmRde5UPZJ7bayx1VhberF9wx4XvaugltCmZWkLSmE9rylNDWuwpcCl4KYLphru6/pmCmgKagZj0Gx0ffACqsMSzD2PoT2jLn5Vdeczvtc4z7yBZ7uPuWLp/wYncb2oaG1vkrWKV+rid7dAhVIbTxUCqhLU/7CW2T2UHXX4c0Gw9xvn3Pd7nfOuAdw//XIVEdGrUei4PXN4AKawzLMLb+hLbMCSHJ2mM1EYT1aTwsK5tDXLtwZx0iJbTlKaGte3XRQGNgCzaGtqAuRrCWgYPVN4AKawzLMLb+hLbMCXusvvT1g92aZ9dOymKHPWeNe9XGKrTVw5AoB/7gTPepbfbpqY6nnnO50+Pq/xbB7HtmjwpmMhwetcYef/Fx3h8Akxhrm0ZoK4D5C+7wFyHceNuSSVtsBTAFt3DIk9AGop/QNuXbP3Cy/m8R/N3pf2cGs3ahbe/r9ub9ATCJsbZphLYCeO31IXfA9DPcTvseO2lvmNscxDg8ipILETqrr5iyQplsF9r0lVbW8nBw+gZQYY1hGcbWn9CWOa3OIbPUfJq/fui40nxxARcioCS0dVZf5m6FMtkutEl9iby1TByMvgFUWGNYhrH1J7Rljvas7TPtNLdNFcg6qfkmak+c9ppp75n2otWTuOUHEtq6cNYdF5iBTDZfPdrsQ0+uMZeJg9E3gAprDMswtv6ENhhXdLiz8bCmCHvOmqdbh0itQ6OC0JanhLbOXn7vDWYg60ZreTg4fQOosMawDGPrT2iDcSUEtGYbD3U2Yh3eteYltOVpP6HtqFPneK2xiXYQ9V/17Kvut498uxnK2vnp8z5vLg8Hp28AFdYYlmFs/QltkAWEtjztJ7RNZgdV/53n7WEGs3aec+dcc1k4OH0DqLDGsAxj609oKwTtsZp37S3u5LMva+l5c69z+lL5+iFJQWjL035D2+IHV5nTJ9pB1f+xp593f3LCn5rhzHLbOVPM5eBg9Q2gwhrDMoytP6GtAFY9+Yy/uW7jIUbLibx6NBZCW55yTlv3/uLhxV0Fty9c+G/m43Hw+gZQYY1hGcbWn9CWOfrC+NPPv9KHsmNPu9g9suLXbqudD/WueOIp9/zal9wRP5ztdvvuie7JNc+5t97amOQLgtCWp4S23lz25NPua5d+w71t2ttGhbU/PO6P3LQbjjEfh+OjbwAV1hiWYWz9CW2Zo8Od3zpwxvDtNMIXyG+1yzQf2DTP3fc94j742W84fXOCf1CCENrylNDWnw8/9Yybfdc8d+zC09wPbznDzbtvgTkfjq++AVRYY1iGsfUntGVOuPoyHPoMN61tvCeavpNUh0/1rQlvrFuf5AuC0JanhDbMSd8AKqwxLMPY+hPaMqc5tG3YsMEdOWO2+8gWe7gHH17pi988j39gYhDa8pTQhjnpG0CFNYZlGFt/QlvmhMOhjYHs/LnX+XPcwg1qn1j9tPvcV/Z32+1+xKT9btJOENrytJfQpvuVXbJkvvvE1/bw6mdNs+adKKl/2foGUGGNYRnG1p/Qljk63KnDno2hbdmjT7iPb/ltf4h07k9vdHscNMOHuKNPvcjvifMPTAxCW552G9q+Pf8A9zvTf9efcN/41U2apjHrMRMh9S9b3wAqrDEsw9j6E9oK4Pqb7hpxDzYFM11R+r5P7jh8uw999+jjv16T7IuB0JannULb0tVPuX+Y9aERV0laah7Nay1jPKX+ZesbQIU1hmUYW39CW6Ho1h4PL1/lzr3kGqdQ9/pQ2i8EQluedgptHzt701EB7fd2/Qtv83TNay1jPKX+ZesbQIU1hmUYW39CG2QBoS1P24W27y84blQwk+/518281pgeYy1rvKT+ZesbQIU1hmUYW39CG2QBoS1P24W2vz75vWYwaxfa9BhrWeMl9S9b3wAqrDEsw9j6E9oyQ1d/7jPtNK9+1nlsOp/N+q7RZvnu0cFaryoNuwdbhba7n1huhjLZLrRJPbZ5eeMl9S9b3wAqrDEsw9j6E9oyo/mea+H/4YKDdjZeYZoahLY8bRXarl16mxnI5Lu3+bB755T3m2NSj21e3nhJ/cvWN4AKawzLMLb+hLbMWLf+Tbf43mVe/awLDrTHLQS4dmo+vnt0cNarSsPuwVahbcGyu8xA1o16bPPyxkvqX7a+AVRYY1iGsfUntEEWENrytFVoW/n0i+5th43+UvRO6jF6bPPyxkvqX7a+AVRYY1iGsfUntEEWENrytN2FCJ89/wtmMGunHmMta7yk/mXrG0CFNYZlGFt/QhtkAaEtT9uFtsvvvcEMZu3UY6xljZfUv2x9A6iwxrAMY+tPaMsInZfW7UUHllyIMFjrVaVh92C70CYP+tkRZjiz1LzWMsZT6l+2vgFUWGNYhrH1J7RlRLjdh76SqtHPb3+AD2Wf3nbfUWNb7nSI+8CndnIf/eLU4duE1ItLCkJbnnYKbXLaDceYIa1RzWM9dryl/mXrG0CFNYZlGFt/QlsBzJp9pfvgZ7/h7nnw0VHF3rhxo/8e0s99ZX+3/PEnk30xENrytJvQJhc+crfbad7u7i9m/JV727S3efWzpmnMesxESP3L1jeACmsMyzC2/oS2zNHNcr914Ay31S7T3PNrXzKL/eDDK91HttjDhzeFuHpyUhDa8rTb0JaK1L9sfQOosMawDGPrT2jLnHCeW7vz1cI8O+1zjHv5ldeSfEEQ2vKU0IY56RtAhTWGZRhbf0Jb5iiEKYxtuvXe7rGVq81ir3l2rfvS1w/mQoQBW68qDbsHCW2Yk74BVFhjWIax9Se0ZU44Z00XIhx1ykVu6I11Iwqu8cuuvsm975M7uv0On+mGhkaOpwKhLU8JbZiTvgFUWGNYhrH1J7QVwDPPveCmTJ3ug9sWOxzkzrjgp+6WX97rLrrsBvfN/U/wge1Dm+/mbr/rgWRfDIS2PCW0YU76BlBhjWEZxtaf0FYIq9c85/Y4aMbwPdka1e0+fnHr3clehCAIbXlKaMOc9A2gwhrDMoytP6GtIBTKFN6uv+kuN/O8K/xh0fsfWu7Wr38z+RcBoS1PCW2Yk74BVFhjWIax9Se0QRYQ2vKU0IY56RtAhTWGZRhbf0JbQbz11kZ/deiSBx51i+9d5tatf9Npmr4FQW7YsCHZFwOhLU8JbZiTvgFUWGNYhrH1J7QVgkKaLkII57GF23soqB196kX+GxPuvu+RZF8MhLY8JbRhTvoGUGGNYRnG1p/QVgDas6arQ3Wvthln/cR/ZVXjPdkWLVnqryA98Yy5fCPCAK1XlYbdg4Q2zEnfACqsMSzD2PoT2jJHe9KOnDHb70nTbT7Ctx80hrZVTz7jNv/qd/3XXelrr/wDE4PQlqeENsxJ3wAqrDEsw9j6E9oyR+eqbbf7EcPfPWqFNmtaahDa8pTQhjnpG0CFNYZlGFt/QlvmNAcyK6ApzCnUEdoGa72qNOweJLRhTvoGUGGNYRnG1p/Qljk63KnDnjr8qcOgVmi758FH/eHTA6af4d5Ytz7JFwShLU8JbZiTvgFUWGNYhrH1J7QVwEWX3+CvGP3JVQvd8y+MDG2vvT7kw5rGNV/9kOQgtOUpoQ1z0jeACmsMyzC2/oS2AgjfPfqBT+3kDjnmbH8Vqa4gPfviq932exzpA5vGNV/9kOQgtOUpoQ1z0jeACmsMyzC2/oS2Qmj33aM77HWUP3Raz5okhLY8JbRhTvoGUGGNYRnG1p/QVhDN3z169YI73GMrV/tvRahnSRZCW54S2jAnfQOosMawDGPrT2iDLCC05SmhDXPSN4AKawzLMLb+hDbIAkJbnhLaMCd9A6iwxrAMY+tPaCuEoTfW+S+JP/eSa9zJZ19met7c6/hGhAFaryoNuwcJbZiTvgFUWGNYhrH1J7QVwKMrVrsvTDnQvAihUW6uO1jrVaVh9yChDXPSN4AKawzLMLb+hLbMWb/+TXfIsWf7UPbN/U9wt955v7+1h8JZs/rKq1QvSiC05SmhDXPSN4AKawzLMLb+hLbMURjTHjTdl+2J1U9nW2xCW54S2jAnfQOosMawDGPrT2jLnPCF8Skf+uwGQlueEtowJ30DqLDGsAxj609oy5wNGza4I2fM9t+CoHuy1ZOzg9CWp4Q2zEnfACqsMSzD2PoT2gpgyQOPug9tvps76axLnUJcPTkrCG15SmjDnPQNoMIawzKMrT+hrQAU1E47d54PbtrrZt3uQ3LLj8FaryoNuwcJbZiTvgFUWGNYhrH1J7QVwPInnnLb7HrYqFt8NMstPwZrvao07B4ktGFO+gZQYY1hGcbWn9CWOdrLdvSpF/lQttO+x/rvHb3trvtNdfPddevfTPIFQWjLU0Ib5qRvABXWGJZhbP0JbZkTrh7llh8Tb72qNOwe9KHt3whtmIe+AVRYY1iGsfUntGVOuE8bt/yYeOtVpWF38FePP+a+deW+7q9P+Rv37m0+7P5ysy3dHx3/x27rS7Z38+5bYD4mFal/2foGUGGNYRnG1p/QljnhGxG45cfEW68qDbuNJ936I/fbR7zdbTJtE28IbeH/crcr093zRv3L1jeACmsMyzC2/oS2Arj5l/e6931yR3fBpde7jRvT/JqqThDa0nfGrWeNCGfSCm1yh8t2NZcx2aX+ZesbQIU1hmUYW39CW+bowoJbqtC21c6H+r1t82+43bwIQXIhwmCtV5WGbbhoxbJRwUy2Cm1Se+WsZU1mqX/Z+gZQYY1hGcbWn9CWOeGctubbe1hyy4/BWq8qDdtw53l7mMGsXWh778l/ay5rMkv9y9Y3gAprDMswtv6EtszRnjPtQbP2rDXLnrbBWq8qDdvwPSf8mRnM2oU2eeMjvzKXN1ml/mXrG0CFNYZlGFt/QhtkAaEtXZc/vdYMZLJTaDv7zjnmMier1L9sfQOosMawDGPrT2iDLCC0petDT64xA5l8+57v8lpjctYdF5jLnKxS/7L1DaDCGsMyjK0/oQ2ygNCWtlYg68bL773BXN5klfqXrW8AFdYYlmFs/QltkAWEtrTd7LzNzVDWTt3PbdWzr5rLm6xS/7L1DaDCGsMyjK0/oQ2ygNCWtufe9RMzmLVzlyummsuazFL/svUNoMIawzKMrT+hDbKA0Ja+X577NTOcWb7nhP/HX8BgLWcyS/3L1jeACmsMyzC2/oQ2yAJCWx5uceHWZkhrVIFt4SN3m4+f7FL/svUNoMIawzKMrT+hDbKA0JaPhy041r37uP86Kqz9h+//B7fj5d90j6x51nxcClL/svUNoMIawzKMrT+hDSY11jc6XDp/4agXLaEtP6+47+duxi1nuuMWnuYu/NWVSYe1IPUvW98AKqwxLMPY+hPaYNISAtvxs+YMv0gfW7naf4dqc3AjtGEKUv+y9Q2gwhrDMoytP6ENJi0KZtb3oVrTCW2YgtS/bH0DqLDGsAxj609og0nJ0NA6t9/hM736uZ7sWbRkqT9Mqn/rSYQ2TELqX7a+AVRYY1iGsfUntMGkxDo0GrAOkRLaMAWpf9n6BlBhjWEZxtaf0AaTkrEKbfUwAABAUljbNEIbTEoIbQAAUDLWNo3QBpMSDo9ijlL/svUNoMIawzKMrT+hDSYlXIiAOUr9y9Y3gAprDMswtv6ENpi0WLf2ENZ0QhumIPUvW98AKqwxLMPY+hPaYNJiHSLl5rqYstS/bH0DqLDGsAxj609og0lNCG6NX2PVeFg0QGjDFKT+ZesbQIU1hmUYW39CG2QBoQ1TkPqXrW8AFdYYlmFs/QltkAWENkxB6l+2vgFUWGNYhrH1J7RBFhDaMAWpf9n6BlBhjWEZxtaf0AZZQGjDFKT+ZesbQIU1hmUYW39CG2QBoQ1TkPqXrW8AFdYYlmFs/QltkAWENkxB6l+2vgFUWGNYhrH1J7RBFhDaMAWpf9n6BlBhjWEZxtaf0AZZQGjDFKT+ZesbQIU1hmUYW39CG2QBoQ1TkPqXrW8AFdYYlmFs/QltkAWENkxB6l+2vgFUWGNYhrH1J7RBFhDaMAWpf9n6BlBhjWEZxtaf0AZZQGjDFKT+ZesbQIU1hmUYW39CG2QBoQ1TkPqXrW8AFdYYlmFs/QltkAWENkxB6l+2vgFUWGNYhrH1J7RBFhDaMAWpf9n6BlBhjWEZxtaf0AZZQGjDFKT+ZesbQIU1hmUYW39CG2QBoQ1TkPqXrW8AFdYYlmFs/QltkAWENkxB6l+2vgFUWGNYhrH1J7RBFhDaMAWpf9n6BlBhjWEZxtaf0AZZQGjDFKT+ZesbQIU1hmUYW39CG2QBoQ1TkPqXrW8AFdYYlmFs/QltkAWENkxB6l+2vgFUWGNYhrH1J7RBFhDaMAWpf9n6BlBhjWEZxtaf0AZZQGjDFKT+ZesbQIU1hmUYW39CG2QBoQ1TkPqXrW8AFdYYlmFs/QltkAWENkxB6l+2vgFUWGNYhrH1J7RBFhDaMAWpf9n6BlBhjWEZxtaf0AZZQGjDFKT+ZesbQIU1hmUYW39CG2QBoQ1TkPqXrW8AFdYYlmFs/QltkAWENkxB6l+2vgFUWGNYhrH1J7RBFhDaMAWpf9n6BlBhjWEZxtaf0AZZQGjDFKT+ZesbQIU1hmUYW39CG2QBoQ1TkPqXrW8AFdYYlmFs/QltkAWENkxB6l+2vgFUWGNYhrH1J7RBFhDaMAWpf9n6BlBhjWEZxtaf0AZZQGjDFKT+ZesbQIU1hmUYW39CG2QBoQ1TkPqXrW8AFdYYlmFs/QltkAWENkxB6l+2vgFUWGNYhrH1J7RBFhDaMAWpf9n6BlBhjWEZxtaf0AZZQGjDFKT+ZesbQIU1hmUYW39CG2QBoQ1TkPqXrW8AFdYYlmFs/QltkAWENkxB6l+2vgFUWGNYhrH1J7RBFhDaMAWpf9n6BlBhjWEZxtaf0AZZQGjDFKT+ZesbQIU1hmUYW39CG2QBoQ1TkPqXrW8AFdYYlmFs/QltkAWENkxB6l+2vgFUWGNYhrH1J7RBFhDaMAWpf9n6BlBhjWEZxtaf0AZZQGjDFKT+ZesbQIU1hmUYW39CG2QBoQ1TkPqXrW8AFdYYlmFs/QltkAWENkxB6l+2vgFUWGNYhrH1J7RBFhDaMAWpf9n6BlBhjWEZxtaf0AZZQGjDFKT+ZesbQIU1hmUYW39CG2QBoQ1TkPqXrW8AFdYYlmFs/QltkAWENkxB6l+2vgFUWGNYhrH1J7RBFhDaMAWpf9n6BlBhjWEZxtaf0AZZQGjDFKT+ZesbQIU1hmUYW39CG2QBoQ1TkPqXrW8AFdYYlmFs/QltkAWENkxB6l+2vgFUWGNYhrH1J7RBFhDaMAWpf9n6BlBhjWEZxtaf0AZZQGjDFKT+ZesbQIU1hmUYW39CG2QBoQ1TkPqXrW8AFdYYlmFs/QltkAWENkxB6l+2vgFUWGNYhrH1J7RBFhDaMAWpf9n6BlBhjWEZxtaf0AZZQGjDFKT+ZesbQIU1hmUYW39CG2QBoQ1TkPqXrW8AFdYYlmFs/QltkAWENkxB6l+2vgFUWGNYhrH1J7RBFhDaMAWpf9n6BlBhjWEZxtaf0AZZQGjDFKT+ZesbQIU1hmUYW39CG4wra1982W2762HuvR+bYrpoydIRL0hr/kvnLxz1oiW0YQpS/7L1DaDCGsMyjK0/oQ3GlRDCjp81p+MLz5r3sZWr3aZb7z0quBHaMAWpf9n6BlBhjWEZxtaf0AbjSi+hTcFM8+ox9SSPNZ3QhilI/cvWN4AKawzLMLb+hDYYV7oNbUND69x+h8/06ud6skeHUJsPpRLaMAWpf9n6BlBhjWEZxtaf0AbjSghtjeeoyeYQ1y7cWYdICW2YgtS/bH0DqLDGsAxj609ogwkn7Dlr3Ks2VqGtHgYAAEgKa5tGaIO+CEGrk9bhTQsFMM0fDnkS2gAAoGSsbRqhDSYFzUGMw6OYo9S/bH0DqLDGsAxj609og0lB88UFXIiAOUr9y9Y3gAprDMswtv6ENpgUaK+Z9p5pL1o9iVt+YHZS/7L1DaDCGsMyjK0/oQ3GFR3ubDysKcKes+bp1iFS69CoILRhClL/svUNoMIawzKMrT+hDcaVENCabTzU2UgIbp3mJbRhClL/svUNoMIawzKMrT+hDbKA0IYpSP3L1jeACmsMyzC2/oQ2yAJCG6Yg9S9b3wAqrDEsw9j6E9ogCwhtmILUv2x9A6iwxrAMY+tPaIMsILRhClL/svUNoMIawzKMrT+hDbKA0IYpSP3L1jeACmsMyzC2/oQ2yAJCG6Yg9S9b3wAqrDEsw9j6E9ogCwhtmILUv2x9A6iwxrAMY+tPaIMsILRhClL/svUNoMIawzKMrT+hDbKA0IYpSP3L1jeACmsMyzC2/oQ2yAJCG6Yg9S9b3wAqrDEsw9j6E9ogC1IIbYiIiDES2iALCG2IiJi7hDbIAkIbIiLmLqENsoDQhoiIuUtogywgtCEiYu4S2iAL9EJGRETM3XqzBwAAAAAAAAAAAAAAAAAAAAAAAAAAAAAAAAAAAAAAAO1ZtGSpe+/Hpgy76dZ7u8dWruay7QIYGlrn9jt85oj6N3rp/IW8DjJFtVXt9RqoJ41C8zS+Hrbd9TC39sWXeU1kgOqoeqr/15NGEMYb699oq8cBwAAJga3xDahGTXArgxDaOm28IS/03tZ7vF3drT5w/Kw5BLdMUC3bha8Q2jRfPQkAJpKwwW5+U7aaDvlBaCuL8CEt2KruYYPdvKe11XRIg/B+b3wNENoAEiF82rYasN6ofKLOH0JbmXSqu7UHXvB6yYdWNQ4Q2gAmGe3etBwiLYOwEQ6fuoNslPOmU/hq9/7nA10edBvamnsDIQ5ggiC0gUXYA8uGOV8IbdAptFmEx/ChDmACILRBK8JrQ6+DehJkBKEN2vX/dui10c/jACCSdm9aQlvZhEMjHArJE0Ib9Bva9JrQa4MPdADjTLs3H425bGjMedMptLXaoHd6HKRDv6Gt38cBQCShATfvTWk1HcqBxpw3ncJX2NPaHNpbTYf06Pc9rtpzFAZggrDeuLwpy0G1bg7nYS8boT1fOoU2YfUB9sDnQ6fQplo3h/PwmObpADCOhDdikKZcDiGgNdZf0pTzpPm93qi18dbroHGediEPJj8hrDfWtFVtW71WrNcJAAAAAAAAAAAAAAAAAAAAAAAAAAAAAAAAAAAAAAAAAAAAAAAAAAAAAAAAAAAAAAAAAAAAAAAAAAAAAAAAAAAAAAAAAAAAAAAAAAAAAAAAAAAAAAAADJrjZ81xm269t3ts5WpXTwIAAACAyYYV2ta++LLbdtfDkghzKa0rAAAAQN8Q2gAAAAASgMOjAAAAAAlAaAMAAACoUSBSMDr+9Evcw8tXuX2/P9N9aPPd3Ps+uaPbad9j3f3LVvjA9OunnnXTT7rAffSLU917PzbFbb/HkW7xvcvcxo0bRwWq14fecOfNudZtseP3/Lwf+NRO7tsHn+weWLay7fyf+8r+fn79jhPPmOsf0xzahobWuf0On+kPO+rwYz15k6effcEddvy57vPbH+CXIfV37Lzvce7WRfe5t94a+XsXLVnq57l0/kK3avUz7pBjzzb/7hharevwc16F0ufWvuRO+tGlw8/rVjsf6m755b3m86S/QX+L1k/PqebXc/yjH1/tnn3+xRHz62869Lhzhpf76W33daeff6V7+ZXXRi03hOP7li53l1zx8+G66bFnXXiVG3pjnVu3/k13w82L3Zd3O9w/R3quTjnncvfKq6+PWp7WXbXee9qpfj4tS7VVjVXrejYAAADohRAg/n6znf3GWBvYRrWx/eGZc4c3/o02ByrxzHMv+FDRPK/UBvz2ux4YNf+UqdPN+WW3oS38HdYy9HfNu/aWEb83hLYtdjhoOAA1qr97+eNPjnhMr3RaVwUp63nV86T1q2f3bNiwwZ127jyzRlLBq551Ez3H1nKlnms95/WsHj1Wy9VrwHqMAu0eB80wx04661KndasX5QObnmvrOZUHTD/Dvfb60IjfDwAAAF0QAoQ22tpTpT002vBqj8ixp108vLHVRnv5E0/5PVba8zLjrJ/46efPvW54A6yN9w9OvtAva+Z5V7gXX3rVj2n63fc/4rapwssOex01YvrRp17kl7PXoacM/279jlVPPuP2Oey0rkObxfr1b7qf3/Ir9/Etv+122ueYEXuZQmhTuFAY0p46/e6XX319+O+eNfvKtsvvRKfQFp7zx3+9Zvh5veDS6/10BSWtf/2QTa79xSI/XY+78bYlPihpfZ9/4WV32dU3uTMvvMrPq+dWoTnUQH+Ppoc9kfq7plX/as+ZpguFNk3/zJe/466/6S6/Hlq2ata491N7JRW4NPbgwyv92Je+frBb8+za4WVpD5ueb9Vajw+BTuul9dF6zV9wx/D8AAAA0CUhQCioaGNcT/Zow/yRLfZwR51y0ajDi4+s+LX7xFZ7jdjD88Tqp/2GXMEtbKwb0cZaG20dVtX/w/zb7X6ED01+pgbCYbt+Q5vQehw5Y7bbapdp7vm1Lw3PH0Lb3J/eOGoZ4W9rDk690im0Wc+51lHr2hgyw3I++Nlv+EOnfsYW6O/Sc/y9o88aEcyEDqF+dep0t/lXv+tDcT3ZP8/6e/V315M84bnT2LJHnxgxpvXW+jfWR9N0CFahTeHNz9iAgptCu/a2vbFu/ahxAAAAaEMIEI3hKxDGrPCivSvay6IwoVChaSEIdfK6GxeNmN8KL6LX0KY9RNoL9f0TzvN7ehrPb2teTvjd2ntUTxomBKfGv60fOoU26znXHs59pp024jH6V/+3/uZmFEJb/V0haGlcf3892XyeAxpTWLznwUdHjWkva+Oywt+rae1s3usJAAAAXdAuQIQxK7yEINE4pqBgbaSbDYEizG8FDNFLaHt0xWr3hSkHjvpdwebltAtt1t/WD63Wtd1zbj2mXR2a0TL1dzWGskascet5DrRbXqhfGAvPm6a1s/n5AAAAgC5oFyDahQUr2OgEeG2Uuz0XLMyvk9nrSSOwwoQVanSe1dSDT/KHBXXelvYKaSzsHbSWk1JoC3v+mpdjMYg9bc3zB5pDW9hL2Hz4FQAAAMaAdgEijFnhxQo2Yf7Giw3aEc6ZU+Cyrii0woQVahQQFBS+deAM9+pr3S0npdAWpukwZfPVt83o7+rnnLbm5yegsW5Dm0KhbtWiaVxsAAAAMMa0CxBhzAovVrBRSNCVidpof3P/E9zSRx4fviBB8+jkdN3rLVyIoCsbd9nvOB8ydNVkuGpRFyXoik5d2dkcJqxQoysodf8wzXvXPcv8RRNajqbrvmM6kb55OSmFNhGuHtWFG7feeb9/XsPf2O3Vo7oAQH+zdfVo8/MT6CW0iSUPPOpvWSJ/PG/BcHhXTXRPOt0ORMuMeV4BAACKpF2ACGNWeGkVbNrdpy3YuJHXnqNwA9ZGNU2/uzlMWKFG4UWhpXkZUreq0P3QmpeTWmjTnkgF3ua/L9i4LAVXLd+ar9V92pqfn4DG9LhuQ5tq0e4+bTL2eQUAACiSdgEijFkb2XbBRnvMfvqz2/y3JoSNt4KTDtlpA994OxBt5HUn/rB3SGFNV6vqnm1WmGgVarRMhYVwXzH9Pn3TgPbuWMtJLbQJ/Y033na3f67C86pvUJj9k5+Nmrefb0RofH4CGtPjuw1tQjVduWqN//36vZpH66vXg9a1+dsbAAAAAAAAAAAAAAAAAGDSEA4D9qJ1OBEAAAAAAAAAAAAAAAAAAAAAAAAAAAAAAAAAAAAAAAAAAAAAAAAAAAAAAAAAAAAAAAAAAAAAAAAAAAAAAAAAAAAAAAAAAAAAAAAAAAAAAAAAAAAAAAAAAAAAAAAAAAAAAAAAAAAAAAAAAAAAAAAAAAAAAAAAAAAAAAAAAAAAAAAAAAAAAGBc2GST/x8yqF4WIJf+/QAAAABJRU5ErkJggg==;" parent="1" vertex="1">
          <mxGeometry x="1170" y="280" width="621" height="602" as="geometry" />
        </mxCell>
        <mxCell id="uaC2PHWClK9KAIYIgDp3-6" value="`y=72.8`" style="text;html=1;align=center;verticalAlign=middle;resizable=0;points=[];autosize=1;strokeColor=none;fillColor=none;fontSize=19;" parent="1" vertex="1">
          <mxGeometry x="980" y="1355" width="90" height="40" as="geometry" />
        </mxCell>
        <mxCell id="uaC2PHWClK9KAIYIgDp3-9" value="" style="shape=curlyBracket;whiteSpace=wrap;html=1;rounded=1;flipH=1;labelPosition=right;verticalLabelPosition=middle;align=left;verticalAlign=middle;strokeWidth=2;" parent="1" vertex="1">
          <mxGeometry x="931" y="1223" width="20" height="120" as="geometry" />
        </mxCell>
        <mxCell id="uaC2PHWClK9KAIYIgDp3-12" value="残差" style="text;html=1;align=center;verticalAlign=middle;resizable=0;points=[];autosize=1;strokeColor=#666666;fillColor=#f5f5f5;fontSize=19;fontColor=#333333;" parent="1" vertex="1">
          <mxGeometry x="960" y="1270" width="60" height="40" as="geometry" />
        </mxCell>
        <mxCell id="uaC2PHWClK9KAIYIgDp3-13" value="" style="shape=image;verticalLabelPosition=bottom;labelBackgroundColor=default;verticalAlign=top;aspect=fixed;imageAspect=0;image=data:image/png,iVBORw0KGgoAAAANSUhEUgAAAlUAAAJTCAYAAAAhX+OvAAAAAXNSR0IArs4c6QAAAARnQU1BAACxjwv8YQUAAAAJcEhZcwAAEnQAABJ0Ad5mH3gAAGI6SURBVHhe7b0JvCVlfeeNkzhjombyvnmdGDMJmSyTjJlonHdMTDTqKIoLGhRZImILAiLIDoIg2Ai07NjsjcjWgtAtqzR7C41sNrQ0a9ssTUPT7LvApZumn6nfYz035577P+tzT53z1PP9fj7fT9+up06duvU/51+/W1WnzjoAAAAAAAAAAAAAAAAAAAAAAAAAAAAAAAAAAAAAAAAAAAAAAAAAAAAAAAAAAAAAAAAAAAAAAAAAAAAAAAAAAAAAAAAAAAAAAAAAAAAAAAAAAAAAAAAAAAAAAAAAAAAAAAAAAAAAAAAAAAAAAAAAAAAAAAAAAAAAAAAAAAAAAACQJa+/vtadfcHV7sQzL3Jr1qxx5WSAkWT+zxe5A4483Y2NreK1CgDpsPju+903DzzJPfPsCzSvmvH8Cy/5HdMV1y70tb32xsXuIxvv6u5eupxal2gbffvQU9wNt9zltwk78+Hw6qrVPvD/8MeXurVr1/rXqF6res2Wswwc/bGh14PkDw+AHnlg+Uq33ia7uSNnzRnKm+e8eQvcOz80zS1cvKTS51fzmjX7Ynf6uZf55vXwyifcZ6ft449ilLN0jbbdMH4H6A7tGI455Tz35Z1muKeeed69+NIrbsd9Z7pDjz87uZ3GfQ8+4j71pb38a/X+B1d2te6rVr/m9j/8VLfxttPdnUuWmY/RdvjesWe5rfc43O9Mh7Ezh9+gnqierN4c6rLTfse4l18Zq6QWes5jTz3f9zT9m9p7BGCotApVYbreWJ3c88ATO/5Fu/T+h91GW+/vTjzjIrfm9dfH553KUPXs8y+6zbY7oKv1EY3NS8HqB2dd4nc8Tzz1XE/rUkWo+tX9D7mPb7aHm/vTawf2HHUmvJ5Vc/3/8msWugOPPsMHCD9DAmhdFXr0e9y7bEXX66333oc32tl9cfsD3TPPvdjycSFIadsMYmd+0RU3uE9vsbc756Kfdb28Yf3RNUwU/PUHgP4QUB1uu+s+t/v0E9zKx5+ubBuo5nvPONm9b4Pt3U233p3NtgeIplOoCjshi15CjI4AveujW7mf/+KOCfMNM1RpJ7XlroeMNy8drdp5v2N9yCpn6YoqQtWKR590G3z5W+7wE87xAbCcPBKE7a5tEGur2mnbWvN3q3YMx512gZtz8TVRf3lr3bSOIYyXkweOav6j867y76HzL72u69eA5jvpzIv9NtC/7R6nI1qHnfBjd+W1tzhdezaVO3M9r167Wo9ejn6pP7z3k19zt99zf8vHaF3POv8q/95dsfLJtssO9Wt8bfSrXvN67ZeLHif0Tusx3ajfee4l1/o/QLvpY+2I6U2PPfGM/0M4HL0sJwNAO6oIVSG8WH/1DiNUjb26yh+VuvDy692PL5zvji92tjHNq4pQ9crYq34H9419ZrqXXu7tyEHYLq12Aq349UuvuEOOO9tdcNnP+w5yVWybqSbseK3g1G5skITT0zptqdOX5eSO9LuD7+d11o4Xf/2y23r3w9z6/7ane/Dhx7pero7MdrOtn372BX9k5T0f29qdds5lTgGxHOqa0Iva9bxRpN17LPb9l+o2ARgaoem2ClV6Q3WyU4jR6QT9hW09tls7PYfoNlRN9aHt2MbV746v2Va/9+NPPes+/9X9fChTOCsnd+TJp59z03aa4bdTv78boWpqaHWktx0KFtOPPL2n+i26Y6l/nm7eb71wz73L3Qc23LHn5er1oyO0OlJbTmqJft9Tzp7n11+hsNfT+ISqyYQ/iCVHqwBaoDeY3miWvR7N6ITeiDp83OrUQ2hkU7HT7TZUiRAYdHhbh7nLyX1RVXAIpwB1gX05qStCaNPFyqt7/Ate19noehw11X4+GUmoiqffHVv4Y6aXi431CUnVq9NpZi1PR3t1KrKbo0J6zWq57T4IErat5utG6zWldZ43/2YfJDctesGyHo6KEapszpx7hX8dpfQeBhgaYYerN185acpQg9N1IO12QP2Gql4bsJqCwt1dSx8cfx49p5rv0SfPNXc6GreWFWNMaFUgUjDqdecajj70U2PVUDtPrbtq2W5Ha0GoikfXE+m6ok7XRDUSPiXYaxgO4afTByJ07ZIupta8eo7lKx5vOX8IhVofncYsJ3ckHGHt9TpCzXv9L+7w7209p7ZFOdQWQpVNOMrY6x9zAFlihapeA4u0GpHu/aTGpp1yq6bYb6iyCCHIevPrOhQ1ZzXZZQ896scVpPQJJ62j1tXP2CPaYekTg3pehbNeQ0ev6PSP1ve2O+/r+nl0irNVjbohXLDaz1E9QlU8Cjjaht2eqg5HYXsJFELXUOm0WacLwwM6QqUjVR/83E7+Wia973S9Yjk8Tjhi1ustLEKY7OcTr3of6p5b+nCCtU4WhCobheLNdzio58sHALKkXajq5qhKeLzViHRUSNd0tPtLeSpDlT6yrWWFmzw2ox2MPjKuw9nlpPGPm2s9+7m4NfwVp+bf6xEk0U+AbaeWpWWWi/eEbdxqu3RCO6jwCbJe7+NFqIpH27Db53vuhV+73Q84YTxQ6boi7QwVfjpd4N7trRea0XPs+p3jfJ232PFgfy+s8MeF3g86Qqzlavn+AV2i1223AU/bKPbShfA+sXrZKNPuPTYV779whFx/PHJzZIAODDJUdUNoZLE7XTVxHYlq14TDNVeN1xYpSOlO0v00faH1V6j6ySULfGDr5ULifgnXOXUbcKZiG4cdbq/3LZqKph6WMZVa4TMwSqGql/eiwo2ONDXeGFRHYDfccl//O+sI54lnXtRyOXo9ab5eTjMGdFuDBTfd7rdLONWsoxrhtRduW1LO3pGwI+824On5RiFUhWVMpZ1+r3bvsal4/wktp6rXPEDShFCkv27PmHO522368f6TNmrkjW/sTjY3orBca95+bddcwqmLdn9N6bFaRvMOVUFIO4JedyYKFwoZUstWOJP9HPHqhXDaUjvPbq5RCY0+prGG7Ws11tC4p9J+dmzhNddc314JpzusT52NaqjS0SG9HqxPvSnwLLxtiT+KpG2rU3UnnH7hhOWFG072+8dFoPGo1T9/Zgcf5Po5bRw+lNHtKcNuQ9UgQo+eu1x814Re1M06t0PfDKFPMrf6Y5JQBVABalJqcjodpFMDChSf+OI3fajSjf70F2Y3jVyEHVk/O8HG65H6uZN5I2E92n3CLTSy5gtf9Zew/iLu9bSHrmtSM9OnjfR/XfOi60t6ud6pX8Lvq3DVaacTTovGNtZwEXMvpxGnqql3Q9gmsaEqvC6t13+3oUqn2vS7t7uAuxu6CVV6rv0PO7Xj/ZkUrm5YeKdflmqi16oe03hEqZvXUye0Dmef/5tbQGiZuqFor39o6D2lx3d75Ffbupt+1Y6wDfrpZb0SelHsOqt26uGtXo/dvP9Ubx3B1FHNVn9UEqoA2qCbOSpAnPyjn7oLi5912kpvmnK4p1MOYUfWTyMKoURHxxrDST+Ehthuhx8aWePvKtRUjiqm6SjTI4891dU6aCeh67DC98k1TtNRv15OkTWiZWmHtN1eR/qdnn6noP6vIyiHFDs+3fX6+z+Y67ebPulUPtwkfPovdmdx7Y2L/Xr08imgbpr6VKHn0HPFhqpw7Z2O+jTfALObUKUdk04Ha13afUijG3p5L3aLXqfhAnOtYzii1Pghjhj0fgrfHRfU0RRd71XO0pZwBLiXaxT1OovdRlWGqtA3Y9c5/AGgT0nq05Ll5HG6ef+pf6iPtLuuVMshVAF0QXhzNwaN0Mgbm2Ine21EarzhFJau/9AbutePfwdCE+50tEt3ctYdnRsvVO+X8JFt3ZW9nOQJ35/WPL0T+oSSPj2o5nbkSef6Q/naoejoQjmL32YKXQo335rxA38aR9u+0+mVcCpF17WUkyagr8Q4pdj5dzqaEC7KP3jm7K6PZlQZqhSo9Vytfs9uCeHR+j27CVUKZQooU3EPNDGoHZruQn7g98/0gVv28vU3rdDjtRwtT0FKpxL1vtb21H2juvk0oo746n3Qy4citI1SClV6f+t31DbSKbxycs+E96T1B4Do9P4LnxTVaV/1rnLyBMIpRvXXfvozQFa0C1XdNKnw+F4bUfPtFsKOqJ9vRe/2mqjQgPr9FFxAwU1HjNRomo9I6fl1P6dePs6ux2g76He4dP7NXe/YdNpHR430NTvtApHGdBTOarz6XdQsu/n0Y6i1Xht6jZST21JVqNJrRtff6Lli6hu2VavldApVYSelWupWAuXkKHq9pUK3aJuFI0r9vO+a0et2/s8X+fe1XmthB6wjVHqv6Hm03fRaaPUaD9vX+gNJp7oU2HSUXdtXy9MfFgqvOuoWu9OvMlSFDwX0ctS3GW1D9bx2y2n3/lPvCnVpd0Q1XB7BLRUAumAYoSrseJq/qFNHd/7X+tv09BdzOErVzQW22kkqVClclZN6JjSidqFJ8+gUoBW6LMKF0a3+2pwKrPtbaRurmap+9y5b0fF5RzlU6YJ91aTT0cpOhE9WNp7WbaRdqNJ3Je510Cz/+05FSAmEoxoxO+BmdGT0iBN/8wXH+rfbezm1Qq+lcCdzvfabT/UprCr8Kwxpnp9eeeOEo7CBcE+r5n6iO6PrSJcuttcXPYdtq+snH338affNA0/yv4s+6Xjdzbeby+5EVaFK73cdvYv9UICOgipQWq/FQKv3n+qhI7oa69SnBvH6A6gt7UKV3nDd2m0jar6PTjnZo8asQKXgo794uwlWOlWjJtzpI9sa05GMXi9GbyQ0Iu0UOh016OXIm4KrAuwg/xLUUS19Ge8+3/vBeCBSkNLp0Kk47dOKKkJVCLp6HfR62rWRxuW0OsrUKlQpyCkU63edipDSSNgJ93KNUTvClw/r99R35XU6QtkJPT58595B35/tFC7LoQko6Oi1pqNLsnkbh5DQfE1iuL2C/vBoFZj1Ott4m+/4vqHgpde67vpeDndFFaFKvSAcHdQnMDv1hlY0LqfdUSbr/af6qE6abgXgRrRcHQ1TqKriAzgAyWOFqoDeUHoz6q9AHV0qJ3v0Ee1w+4VyUkf0SSjtGNp9J5eeU3/x6nD+jy+c37bhq8Gq0XZz7Yrm1VGMTqcIW6EmP+OYH/lApeupulmGgtf/2WiXjs1TY92GtRgU9D69xd7+Imp9ylNHC6fyiIpFpxuyxtK4g4j5XRp3Uo3Bs5nmUKWg0Hh/pqkIKRY6XaTlx9wHTb+j/gjRuurTvt2+jtuh95VuoaDXrgJTp+2v59Mpbl3X2DyvannMD8+b9MdW+KOj3RFS9a9wZF3bX8FIv+MlV9lHxCzCBzoGdUSmMXx2exTbQttQ21rLUT9td8qzMVTpcbr1hvqvprULwIHQN3U2oN/1BciKVqFKR0xOPOMiHwqsxhQurNb41cVfh+0al+ZVk1NQUjPRX8rlUEvCfXda/cWphqznt4KIPhmnwKevqVAjUDNTaNGRo34+3RTCoNZH61VO7ooQrLSu7Y5eqLnpwn39RbjfYT/0TVDNstXtIYS2gY5cyE47s4B2WPpdtN30F+5UHlGx0Gk5bTeFX30godsdXCe0HJ3m0Y6z2x16K/T6CKemdEq6+Q+IRkKo0ocRFPq/vtdRfgel1/Y1N9wWHVJaEbaj3g+d7ozejGqsIzgKHdpWCg2xR0Qb39P9HBXqBb2HtVP/+t5Huxd//fKk5wk1aT59rte6pne7bnofqf7qE7fevrTv11MzIczoCJpeYyeeeVHf7zu97sPRvvAhn3LIJIQqhVj9saDn12PPvehnXQVgXR+qx0zV9YEAtUdvdp1uU+jQ/3Udif6a6qZZ6k2nv3a1Y2ueV2P6K+eHP77U74DU0HWPnF52qmr82gH8w6e2m3SzwhdefMn/pWUdBdJO56rrbvWNWL9H2Fk2fplyN2hbaPkKOvqUVLcfCW8mBETtgHWEqJxsoufUKSyFT/1FqfVXU7QMF+lus8cR7qFH4u6HNEgUonUE4uOb7WH+Hs22OlUYXlP6tKKundHvr7p0exsMC73GtOPV8zZeXN2KsAMP66rXltahmz8UYmjcwWmnqv+XQyZaT52u0e03FKS0vfS4XgNZM3q8dsh6T+v1rNf2VAXlduiPE70XDjjydP8eCs+pIKQ//tTDpuIor14Pul/fhlt9e7zG7Wx3qlDrpiO0IUztvN+x/trFTrVrxWuvrfHvIz1vu6P9jYRQFewlAOsPUAXMfoI8QFboza4jB+GNpiMXeoPqza57JOlNpAt2u33z668uNeyv7HLI+AXP2vnp/4ccd7b71f0PRTVe7TTVHLb/1tFtjyJMJfrd9TvpqJGOVPXbCAMKZPqIvm5d0O7oE7RGr1sFn52+fYwPzVPR6P1r/oKrO944M6Da6aijAp1eGzE7yV5pPJLSfIqsEf2RoesHNa+OUCiETMU66o8S7cx1VE875qp+74CCq47yNAYeBfXvHHFapXXoBr2WDjz6DF8D9RHrQw/9oNO36qmdTtsFdDRVH/5RT9fRt277sI4O6g87BfJ+v2weAACgIwotMfcWikFhSqGq2yMVkDcKUb2e6tUfyfqwRbdHRQEAAAAAAAAAAAAAAAAAAAAAAAAAAAAAAAAAAAAAAAAAAAAAAAAAAAAAAAAAAAAAAAAAAAAAAAAAAAAAAAAAAAAAAAAAAAAAAAAAAAAAAAAAAAAAAAAAAAAAAAAAAAAAAAAAAAAAAAAAAAAAAAAAAAAAAAAAAAAAAAAAAAAAAAAAAAAAastTL7zqEBER62652wMYHHqhrXz6FURExNpKqIJKIFQhImLdJVRBJRCqEBGx7hKqoBIIVYiIWHcJVVAJhCpERKy7hCqohBRCVbmq61hjmIfUP299AyiwxjAPY+tPqIJKIFRhClL/vPUNoMAawzyMrT+hCiqBUIUpSP3z1jeAAmsM8zC2/oQqqARCFaYg9c9b3wAKrDHMw9j6E6qgEghVmILUP299AyiwxjAPY+tPqIJKIFRhClL/vPUNoMAawzyMrT+hCiqBUIUpSP3z1jeAAmsM8zC2/oQqqARCFaYg9c9b3wAKrDHMw9j6E6qgEghVmILUP299AyiwxjAPY+tPqIJKIFRhClL/vPUNoMAawzyMrT+hKhPOm7fAvfND0ya4cPESs/jPPv+i22y7AybMq8eXwxPodl5CFaYg9c9b3wAKrDHMw9j6E6oyIASqxhCln60AFELSkbPmjE9/YPlKt94mu0XNS6jCFKT+eesbQIE1hnkYW39CVQYsuOl2pwBU/ncchSGFosYxhaHmacKa3su8hCpMQeqft74BFFhjmIex9SdUZUxzqBobW+X2PPBEr372M5WEI1vhaFcv8wpCFaYg9c9b3wAKrDHMw9j6E6oyRUFKgaoxFIVpjafzAs2n9XqZVxCqMAWpf976BlBgjWEextafUJUpCjzN11QNI1SVwwAAAElh7dMIVRkSTs81n7ojVAEAAHSHtU8jVGVGq0AlhhGqRslyVTn0n7HUP299AyiwxjAPY+tPqMqIdoFKaJrGrPHmi897mVcQqjAFqX/e+gZQYI1hHsbWn1CVCTpqpKBjHVlqRPPpCJSORJWTPNb0XuYlVGEKUv+89Q2gwBrDPIytP6EqA0Kg0r/lpJZYp/Ws03mil3kJVZiC1D9vfQMosMYwD2PrT6iqOeE0nUJVK1uFpcZ5Gk/lNdLtvIQqTEHqn7e+ARRYY5iHsfUnVEElEKowBal/3voGUGCNYR7G1p9QBZVAqMIUpP556xtAgTWGeRhbf0IVVAKhClOQ+uetbwAF1hjmYWz9CVVQCYQqTEHqn7e+ARRYY5iHsfUnVEElEKowBal/3voGUGCNYR7G1p9QBZVAqMIUpP556xtAgTWGeRhbf0IVVAKhClOQ+uetbwAF1hjmYWz9CVVQCYQqTEHqn7e+ARRYY5iHsfUnVEElEKowBal/3voGUGCNYR7G1p9QBZVAqMIUpP556xtAgTWGeRhbf0IVVAKhClOQ+uetbwAF1hjmYWz9CVVQCYQqTEHqn7e+ARRYY5iHsfUnVEElEKowBal/3voGUGCNYR7G1p9QBZVAqMIUpP556xtAgTWGeRhbf0IVVAKhClOQ+uetbwAF1hjmYWz9CVVQCYQqTEHqn7e+ARRYY5iHsfUnVEElEKowBal/3voGUGCNYR7G1p9QBZVAqMIUpP556xtAgTWGeRhbf0IVVAKhClOQ+uetbwAF1hjmYWz9CVVQCYQqTEHqn7e+ARRYY5iHsfUnVEElEKowBal/3voGUGCNYR7G1p9QBZVAqMIUpP556xtAgTWGeRhbf0IVVAKhClOQ+uetbwAF1hjmYWz9CVVQCYQqTEHqn7e+ARRYY5iHsfUnVEElEKowBal/3voGUGCNYR7G1p9QBZVAqMIUpP556xtAgTWGeRhbf0IVVAKhClOQ+uetbwAF1hjmYWz9CVVQCYQqTEHqn7e+ARRYY5iHsfUnVEElEKowBal/3voGUGCNYR7G1p9QBZVAqMIUpP556xtAgTWGeRhbf0IVVAKhClOQ+uetbwAF1hjmYWz9CVVQCYQqTEHqn7e+ARRYY5iHsfUnVEElEKowBal/3voGUGCNYR7G1p9QBZVAqMIUpP556xtAgTWGeRhbf0IVVAKhClOQ+uetbwAF1hjmYWz9CVVQCYQqTEHqn7e+ARRYY5iHsfUnVEElEKowBal/3voGUGCNYR7G1p9QBZVAqMIUpP556xtAgTWGeRhbf0IVVAKhClOQ+uetbwAF1hjmYWz9CVVQCYQqTEHqn7e+ARRYY5iHsfUnVEElEKowBal/3voGUGCNYR7G1p9QBZVAqMIUpP556xtAgTWGeRhbf0IVVAKhClOQ+uetbwAF1hjmYWz9CVVQCYQqTEHqn7e+ARRYY5iHsfUnVEElEKowBal/3voGUGCNYR7G1p9QBZVAqMIUpP556xtAgTWGeRhbf0IVVAKhClOQ+uetbwAF1hjmYWz9CVVQCYQqTEHqn7e+ARRYY5iHsfUnVEElEKowBal/3voGUGCNYR7G1p9QBZVAqMIUpP556xtAgTWGeRhbf0IVVAKhClOQ+uetbwAF1hjmYWz9CVVQCYQqTEHqn7e+ARRYY5iHsfUnVEElEKowBal/3voGUGCNYR7G1p9QBZVAqMIUpP556xtAgTWGeRhbf0IVVAKhClOQ+uetbwAF1hjmYWz9CVVQCYQqTEHqn7e+ARRYY5iHsfUnVEElEKowBal/3voGUGCNYR7G1p9QBZVAqMIUpP556xtAgTWGeRhbf0IVVAKhClOQ+uetbwAF1hjmYWz9CVVQCYQqTEHqn7e+ARRYY5iHsfUnVEElEKowBal/3voGUGCNYR7G1p9QBZVAqMIUpP556xtAgTWGeRhbf0IVVAKhClOQ+uetbwAF1hjmYWz9CVVQCYQqTEHqn7e+ARRYY5iHsfUnVEElEKowBal/3voGUGCNYR7G1p9QBZVAqMIUpP556xtAgTWGeRhbf0IVVAKhClOQ+uetbwAF1hjmYWz9CVVQCYQqTEHqn7e+ARRYY5iHsfUnVGXGs8+/6Dbb7gC3cPESs/Bh/J0fmmba/Dhr/vPmLZi0bEIVpiD1r79X/Oomt99VM9xXzv+aVz9rmsZ8AyhofgzmY2z9CVWZceSsOWY4CoSQpPnKSS2x5n1g+Uq33ia7TQpWhCpMQepfX29etsR98szPunWmr2OqsQefe5DXQObG1p9QlQFjY6vcngeeOOFo0lSEKgUnzavHlJM81nRCFaYg9a+nly+50b3t0P9ihqlG//DwP3SLHl1kLgPzMLYHEKoyQ2FqKkJVCGpSP5eTPdZzEKowBal//XzwiefcX3z/v5shyvKvj/1r/xhrWVh/Y3sAoSozug1V4YhWsDlktQtf1ilAQhWmIPWvnztdspcZntqpx1jLwvob2wMIVZnRKVRZhMc0HpWaqlBVDgMADIQ/OfpPzODUTv8YgA5Y+zRCVWb0E6qEAlLj4whVADDq+AvPjdDUjeGidYBWWPs0QlVm9BuqmoMSp/+wjlL/ennZkhvMwCTfvMvbvdaY1GOtZWK9je0BhKrM6DdUNT+OC9WxjlL/enndfYvNwCTX/df1vdaY1GOtZWK9je0BhKrMsAJPN+iok44+6ShUOYlbKmDtpP71860zfs8MTe1ClR5jLQvrb2wPIFRlRqdQpdN5jaftRHhM83TrFKB16k8QqjAFqX/93HzOlmZwaheq9BhrWVh/Y3sAoSoDwqk6BaNmm0/fhQDVbKsQFoJVp3kJVZiC1L9+3vjAXWZwUqB6x6bvN8f0GGtZWH9jewChCiqBUIUpSP3r6Uk3zTbDk+W5d51rLgPzMLYHEKqgEghVmILUv77OXnSB+7Oj/2JCgHrj3m8Z/1lj8+6dx2sgc2PrT6iCSiBUYQpS//p7xIIT3GfP+oJ75xc28upnTdOYbwAFzY/BfIytP6EKKoFQhSlI/fNxs+0P9jZO8w2goHEa5mVs/QlVUAmEKkxB6p+PhCq0jK0/oQoqgVCFKUj985FQhZax9SdUQSUQqjAFqX8+EqrQMrb+hKoRY+3ate7FX7/snn/hJff662trUxxCFaYg9c9HQhVaxtafUDUirHz8abffYT907/nY1v4GmuFrXlatfs19+9BT3Ac23NHdc+/yZItFqMIUpP75eNrc+d7Gab4BFDROw7yMrT+hagR48OHH3Gen7eMD1Za7HuI+vNHOE74779obF/ugNWv2xckWi1CFKUj989Y3gAJrDPMwtv6EqiGj031HnzzXveujW7nzL73OPfPcb772pTFUKXSt/297ut2nn+BeGUuzYIQqTEHqn48cqULL2PoTqoaMrp/aevfD3Oe/up97/KlnfZBqDlXWtNQgVGEKUv985JoqtIytP6FqyDQHJitAWdNSg1CFKUj985FQhZax9SdUDZlujlTpAnVdqM7pv8FarioNNWOpfz4SqtAytv6EqiGja6pOOvNif02VLkhvDlVr1qxxx556PheqV2C5qjTUjKX++UioQsvY+hOqRoBlDz3qPvWlvdx6m+zmzrnoZ27DLfd1G2/zHXfzonvcocef7QOXxjVf+ZDkIFRhClL/fCRUoWVs/QlVI8KiO5a6T3zxm/6IVLMKW7fevjTpQhGqMAWpfz4SqtAytv6EqhFi7NVV/hTgIcee5Tbf4SD33aPOcD+98kb34kv//mZPFUIVpiD1z8fLFix2i+5ZMWGabwAFjdMwL2PrT6iCSiBUYQpS/7z1DaDAGsM8jK0/oQoqgVCFKUj983GX6Sd5G6f5BlDQOA3zMrb+hKohoy9N1pcn65N+nUz5S5YJVZiC1D8fuaYKLWPrT6gaMgpLun2CdYF6s433rkoNQhWmIPXPR0IVWsbWn1A1ZF56ecydMfcKfy8qy4Nnznbv22B7t2kRqM6Yc7nT/OVDk4JQhSlI/fORUIWWsfUnVI04uvnnMaec52+r8MDylckWi1CFKUj985FQhZax9SdUJUD4mhrdCFQhq5ycFIQqTEHqn4+EKrSMrT+hKgHCdVe6d5UuVi8nJwWhClOQ+uejAhWf/sNmY+tPqEoAfdGyvnCZC9UHa7mqNNSMpf556xtAgTWGeRhbf0LViPPyK2Nu5ik/8Z/+2/PAE93Y2KokC0aowhSk/vmou6nrruqN03wDKGichnkZW39C1ZDp9pYK+gTgwsVLki0WoQpTkPrnI9dUoWVs/QlVQ0bXSO0+/QR/y4RWHnLc2W7FyieTLhShClOQ+ucjoQotY+tPqIJKIFRhClL/fCRUoWVs/QlVUAmEKkxB6p+PhCq0jK0/oQoqgVCFKUj985FQhZax9SdUVUinr6TppB7L19QMznJVaagZS/3zkVCFlrH1J1RVSC9fnmzJfaoGa7mqNNSMpf75eNrc+d7Gab4BFDROw7yMrT+hqkJef32tvyO6glE/6rFaRrm4pCBUYQpS/7z1DaDAGsM8jK0/oQoqgVCFKUj98/GQ4+d4G6f5BlDQOA3zMrb+hCqoBEIVpiD1z0euqULL2PoTqqASCFWYgtQ/HwlVaBlbf0LVCKDrpObNv9l96kt7mReoB7lQfbCWq0pDzVjqn4+EKrSMrT+hagS46da73Xs/+TX3no9t7Tbccl//r9xo6/3dxttO99/798HP7eS/zkYXq5cPSwpCFaYg9c9HQhVaxtafUDVkVq9+ze1/+KnuXR/dyl1742J/JEpHpBqPSp19wdX+KNayhx5NtliEKkxB6t+7sxdd4L4096vuH07+Z/d3x/+9+8hp67u9Lp/ubnnwXnP+UZFQhZax9SdUDRkdedp8h4Pc57+6n3v8qWfdK2Ov+iNSG3z5W27Fo7/5EuX7HnzEfWTjXd1JZ17s1q7llgqDslxVGmrGUv/uXfjgUh+g1pm+Tkv3vfIg87GjIKEKLWPrT6gaMs1HpsbGVrk9DzzRrbfJbu6B5St9ccI839hnJndUH6DlqtJQM5b6d+dNy+5xf3b0X5hBqtntLtrFXMawXXTPCm/jNN8AChqnYV7G1p9QNWSs031HzprjTwcuXLzE/9+aJzUIVZiC1L8733/Kh80A1cqjfz7LXM6o6RtAgTWGeRhbf0LVkAmn+xoD0xXXLvSf9jv65LluzZo17pbFv/IXsnOkarCWq0pDzVjq39njbzrdDE7tXPeoPzeXNUw5/YeWsfUnVA0ZhaaDZ86eEKqeeuZ59+WdZvhgtf6/7ek/Caifz5u3INliEaowBal/Zz81+1/N4NTJuYsvM5c3LAlVaBlbf0LVCKCjT83f63fnkmVu422+48OUQtVp51zmVq1+LdliEaowBal/Z//gkP/PDE2d/O78I8zlDUtCFVrG1p9QNcLok34v/vplp9sulJOShVCFKUj9O9sqVP3+dn/p3rHp+80xqdssWMsbloQqtIytP6FqyOjok073pXqrhG4hVGEKUv/O/tXMvzFD09umvdsfWbfG5KELjjWXNywJVWgZW39C1ZAJn+zbYseD3fyfL3Jjr66qZUEIVZiC1L+zm577ZTM0dQpVl91zg7m8YUmoQsvY+hOqhoyup5pxzI/GL0bXV9LolgorVj5Zq6NXhCpMQerf2XMXzzNDU7tQ9d5Z/2Qua5juMv0kd8jxcyZM8w2goHEa5mVs/QlVI8LLr4z5I1U6YqXGJOt09IpQhSlI/btzszmTw1O7UDVn8aXmckZN3wAKrDHMw9j6E6pGDB2dWvn40+4HZ13iv5qmLkevCFWYgtS/ez96+icmBKdWoeqw6443Hz9sL1uw2Ns4zTeAgsZpmJex9SdUjTC6h5Xuqr7Tfsf4ZsUd1Qdruao01Iyl/r25w8W7j4en5lD1zuP+zs1edKH5uFGQa6rQMrb+hKoRRYFqyX0Puf0O++H49VbTdprh72dVzpIUhCpMQerfu4tXLHdHXHeC+8Re2/o+tful+7qzf3mxOe8oSahCy9j6E6pGDN1e4Yc/vnT81J++A3DHfWf6I1YKWuVsyUGowhSk/v2ri77Vs6yxUZRQhZax9SdUjQC6EF0XpH9ll0N8iFJjUqhSuFLIKmdLGkIVpiD1719CFdbB2PoTqoaMTudtvsNBtToqZUGowhSk/v1LqMI6GFt/QtWQ0YXn2+55RK2OSlkQqjAFqX//EqqwDsbWn1A1ZHSLhMYvUu4Gza/vBOz1ccOEUIUpSP37N7VQxS0V0DK2/oSqBNHRrT0PPDGp2ysQqjAFqX//phaqLH0DKLDGMA9j60+oShBC1WAsV5WGmrHUv39TC1VaX31VTeM03wAKGqdhXsbWn1CVIISqwViuKg01Y6l//3JNFdbB2PoTqhKEUDUYy1WloWYs9e9fQhXWwdj6E6oShFA1GMtVpaFmLPXvX0IV1sHY+hOqEoRQNRjLVaWhZiz1719CFdbB2PoTqhKEUDUYy1WloWYs9e9fQhXWwdj6E6oSJCZU6TGbbXeAv2t7OWkSYR41yOB58xaY83c7L6EKU5D69y+hCutgbP0JVQkSE6qOnPWbxtcqVIWQpPnKSes8sHylW2+T3SaFpV7mJVRhClL//k0tVFn6BlBgjWEextafUJUgvYaqsbFVfv5wJKldqFIYUlBqXrY1vZd5CVWYgtS/fwlVWAdj60+oShCFlX6PVClMtQpVIXxJ/VxO9jQ/rpd5BaEKU5D69y+n/7AOxtafUJUggwpVWl7z6bxA82m9XuYVhCpMQerfv4QqrIOx9SdUJchLL4+58y+9zunfclLXjFqoKocBIHGOP+0C31vK/07i7ifvdvv9bD+3/uz13f8++X+7j5zxEbfbFbu5Gx6+YSh9YNrO33Oy/C9Az1j7NELVCPH662v90afFd9/vFt2x1K1a/ZrTtOdfeMm7Zs2a6GIRqgBgELQLVXtdtZdbZ/o6Lf3KhV9xq9esrrQfEKogFmufRqgaERSiNtxyX9+UpAKLgouC1KHHn+3e+8mvudvuvC+6WKMWqkbJclU59J+x1L9/W53+2+jH/2YGqWb/6eR/cQ89+eKkxw9KTv+hZWz9CVUjgI5MvW+D7X0QmXnKT9ynvrTXeKjSuALQuz66lTv65Llu7dq1UQVrF6q4UP03WGOYh9S/f61Qtedl+5kBqpWbnvvlCY8fpIQqtIytP6FqyOhI1MEzZ/sjUdf/4g4fpBSoGkPVikefdBt8+VvuG/vM7Os6qkaswNOIji41PnfAmt7LvIQqTEHq37/NoeruR1a63/7ub5vhqZ2X3LVgwnIHpdZXNk7zDaCgcRrmZWz9CVVDRtdKbb7DQW7jbae7Z559wQcRBZLGUGJN65dOoSo8V+NpPet0nuhlXkIVpiD179/mUHXEghPM0NTJ7S/ebcJyq9Q3gAJrDPMwtv6EqiHTHJia/695FLYUuhqn9UI4VaeG16x1+i6sQ+N8nUJYp3kJVZiC1L9/m0PVVy/Y3gxNnfzQqetNWO6gvGzBYm/jNN8AChqnYV7G1p9QNWR0Ok+n9XR6T6f5rFB1+z33+9ODe8842b26qtpPyEwVhCpMQerfv82hStdHWaHpjXu/xb1j0/f7f63x//+kf5yw3EHJNVVoGVt/QtUIcPYFV/tm9JNLFrhnnpsYql5+ZcyHKY1rvvIhyUGowhSk/v3bHKq2u2gXMzQpTGm+N+/ydnN8vdM/OWG5g5JQhZax9SdUjQBPPv2cm7bTDPeej23t9j/sVH9Nkj4BeOo5l7otdjzYNyCNa77yIclBqMIUpP792xyqTrppthmaOoWqb162/4TlDkpCFVrG1p9QNSKsfPxpt+O+M32zaXbLXQ/xpwbLWZOEUIUpSP37tzlUyT88/I8mhaZOoerGZXdNWMagJFShZWz9CVUjhO5BpXB11XW3uhPPuMhdOv9mp0/T6a7q5SzJQqjCFKT+/WuFqqN+ftKk0NQuVO0y71sTHj9ICVVoGVt/QhVUAqEKU5D6968VquSul+4zKTy9bdq7J12ovtmcyY8dpIQqtIytP6FqBNANQMP3+4WjUvr31tuX+iNWP73yRvfKWNqFIlRhClL//m0VquTRP5/l3n74OyaEqODvHPS7bp8rDzQfN0i5pQJaxtafUDUCXHHtQt+M9B1/4UuTL7z8ev/VNJouuVB98JarSkPN2LrUf+7tl/lTb1I/W/NMte1CVfDkX5ztdrh4d7f5nC3dthft5GZe/wO39NEnzHmHoW8ABdYY5mFs/QlVQyZ8TY0CVLhp5ou/ftltvfth/lOAClcaV7PilgqDtVxVGmrGpl5/nWr7ve/950lHgzRNY9ZjpspuQtUoqfXdZfpJE6b5BlDQOA3zMrb+hKohEwLU57+6n3v8qWd9Me578BH3kY13dSedebH/AuUHH37Mrf9ve7rdp5+Q7GlAQhWmYKr1/9Wjj7t/OPmfJ4WpZjWP5rWWEWu3oWrRPSv8fM2n3qqWa6rQMrb+hKohY91B/dobF/umo39bzZMahCpMwVTr/+FT1zNDlKXmtZYRK6EK62Bs/QlVQ8Y6UjVr9sX+SJWOWOn/hKpqLFeVhpqxKdb/wJ8daYanduox1rJiJFRhHYytP6FqyOiaKl2grmuqrrz2FnfnkmX+buoKWgpcmiecDuT032AtV5WGmrEp1v9vjv1bMzi1U4+xlhUjoQrrYGz9CVUjwN1Ll7sPb7SzbzTBH513lb+eSuPh04E6guUfkCCEKkzB1Op/20PLzNDUjXqstcx+JVRhHYytP6FqRLhr6YPuG/vMdJvvcJA7Y+4VbuzVVb4wY2Or3J4Hnuje+8mvudvuvC/ZYhGqMAVTq//lS240A5PUzTVbfRWM1GOtZfZrt6FKKlhZ06uUUIWWsfUnVEElEKowBVOr//ylt5qBSa77r+t7rTGpx1rL7NdeQtWo6htAgTWGeRhbf0IVVAKhClMwtfovf+J5MzDJTqFKj7WW2a8phqrmI2a+ARQ0TsO8jK0/oQoqgVCFKZhi/T9x5mfM0NQuVOkx1rJi7OWaqtPmzh/6KUBO/6FlbP0JVUMm3C5BzaiT3FJhsJarSkPN2BTrf/6dV5nBqV2o0mOsZcXIhepYB2PrT6gaMvoSZd0qYdMiMFluuOW+/nYLH/zcTn4+zV8+NCkIVZiCqdb/W1d8d1Jw0oXqsnm65rWWESuhCutgbP0JVSPOqtWvuelHnu422np/99gTzyRbLEIVpmDK9Z9+9aGTAlSzmsd67FRIqMI6GFt/QlUC6FYKuqXCD866ZPzeValBqMIUTL3+19y7yG11/tfdn3//r9zbpr3bq581TWPWY6ZKQhXWwdj6E6oS4JlnX3Abbzt9wl3WU4NQhSlYp/pboWGQ9hKqtF761xqvSkIVWsbWn1CVACFUcaH6YC1XlYaasXWq/6iGqlFR6ysbp/kGUNA4DfMytv6EqhFHp/vOv/Q6f7G67rj+0stjSRaMUIUpWKf6E6p61zeAAmsM8zC2/oSqIdPp038f32wP36gUqi6/ZmGyxSJUYQrWqf6EqvbqXlmycZpvAAWN0zAvY+tPqBoy3dynauNtvuOuu/l29/rraV6kLghVmIJ1qv+ohipdS7XL9JO4pgpH0tj6E6qgEghVmIJ1qr+CS/M1Q4O0l1Cl+fj0H46isfUnVEElEKowBal//xKqsA7G1p9QBZVAqMIUpP79S6jCOhhbf0LViKDrpW5YeKf7yi6H+IvS1XT0r/6v6SlfTyUIVZiCdaq/FRoGKaEK62Bs/QlVI8CaNWvcsaee7xtNKzWu+cqHJAehqn7ev+Jpd8kVC9z5l1zlFt15vzlPs3fd+4i76NKfefWzNU+VNq9PlfXXNtO20zbUtrTmkZ22s7Uc/S6f3mIvbxXb+ZGnXna77n+M71U3LrrbnCd47Y2/dPt+70R37kVXm+NV2Gr7+AZQ0Dgv5mVs/QlVI4BulaCjUrqFwm133TcenvTvojuWus9O24dbKlRguao01A7efd9K98UtvqLtNcEPfPD/uAsusXeU19282H36MxtOeoymacx6zCBttT4bbbTRwNdH20jbqvm5tU21bcN8nbZzq+X8yZ+u6/9d993re/XzILfz17+xq3+Ot637bh+q9PO7//5/uR+eee6E+Y74/gnuz//ir/x48G1v+y/uW/sN5gueLRvr/ubff7t745ve4n8O26f42WM9FvMwtv6EqiHz6qrVbu8ZJ/vv9tN3/JWTJxC++0/zaf5yclIQqurhTYvucX/xl/9d26qlJ50ye8JjLpw3373lLW8155Ua0zyNjxmkw1wfbRvrOYPattrG3WznTjaGKjnVv9fyR593//T+D44vvzFUBacfdJifd/sdd5swvdnPbbTppOVPtd3U/frrr9fP9ICMja0/oWrIhPtU6Wto9HU05eQJ8DU11ViuKg21jdaREUuFAs2v00LtdmRBzaN5m59vqh3m+tz8yyXmczWrbdztdm5nc6iSU/l7bfrFL09YthWq5I677DFpmuVu39zXfJ6p0Kr7O/76/d7GaW9961v9l9Zby8A8LF4HhKqUIVSNjuWqEqpaOPucC7SNunLb7XfyjznokKPMcUvN2/ycU+0w10fbxHqeQWmFKjkVv9eCm26btNxWoeqtb/29Cf/XKTfNp9NvjdPlQ4+9YD5frFbdW22fY4891lwG5mHxGiBUpczq1a+5/Q8/1V8zde2N/35OvxFN17jm0/zl5KRIJVT9wR849//8v2vR8E1v2lPbqCt/67fe7R/zxv/4eXPcUvM2P+dUO8z10TaxnmdQKrRYwWUqfq/fffOsScttFaqabReq3vrWq83ni9Wqe6tQ9R8reB1if1p9e6otXgOEqtQJoWm9TXZzV157i9P3AeoWCvp33vyb3Qc/t1Pb0JUC6RypcsW/aLtl4cQdkHaMv//2v5w0fZ11/qhQj/mXhmmd1LzNzznVTl4frb/9O0z1+mibND/H1Nj6d7Ccit9rRuHE5eq1oGDVPN1S84WLxCd6bqH1fLEOs+44VVp9e6otXgOEqtTRp/xOPedSH5z0F1yzmq5xbqkwWLWeb3mLc29+M1q+8Y2Tr43RNSl/9Y8bTZr+H/7Du/xjfuu3PjdprNURFM3b/JxTrbU+rY5YTPX6aJs0P4fCRTdhSPNZ6xhUDZqvD2rlVPxe/+k/TT5SNRW+6U1Xm88Xq1X3Vv72bw/+dYj9afXtqbZ4DRCq6oAujrx32Qr3nSNOc5/eYm8fpvSv/q/pGi9nTZJ0jlRxTVUrzzj7PL/TabRVqNr6azv4x3x3xhGTxlqFGM3b/JxT7TDXR9uk+Tm6DUOttnOw2+XIqfi9rrlhkblsy7e8tfMHA4LLVj5rPl+sVt1bOXPmTHMZmIfFa4BQBaMPoaoe/tM/TzyN0mpnf8Mtd/r5deHxm970OxPGrBCjeQZ1kXKjw1wfbZPG55BWGNI27nY7B7sNVVP5e31hky+az9HsdjvsbE5vdufd9zafZyq06m75O7/zO2716tXmMjAPi9cBoQpGH0JVPbx+4R1u3XX/2/hOyNrZHzfrtAmP+clFl0/YoTWHGI1pnsbHDNLm9Wk+HTnI9dG2Cc8jm8OQtq22cTfbuVGdQrROqTY61b+X7t7+3n/8J/O5gvsdMMPPu83XdzTHgxv86+cnLX+qba57sxq75ppr9DM9IGNj60+oGjFeennM3zbBMlzAXs6aFISq+njbPQ+OH6Vo3Nn/4/ve7+ZccKn5mPnX3eI+tv6n/HyNoUrTNGY9ZpA2ro+uVwrB5jOf+czA10fbSNtKz9cYqr6w6eZ+24b5/HYupmnM2s6Ny9F4uEj8j97xx/7fRge1nVc8+ZJ5WvN//O3/nHQT2O8dPnP8bu/B//z7v+/22OvbE+YbpI11bzRsn+Jnj/VYzMPY+hOqRgBdgH7h5de7j2y866SL1BvlPlWDtVxVGmqX3nP/o27z7Q9w//yZ7Tt+31vwl3c94D61+Z5e/WzNU4Un3TTb/eOsIpDsXoS89YuQV6if/+XUf/Fj1mOmWm0zbTttQ21Lax7ZajsfuuBY9z+PL4LUzkU4+2gRzjYofp+91nEfOW19d8KVZ7i5F17mrWI761oofX/ij3/yU//dftY8wasW/MKdPfdiN+/K68zxKtQ2sbZP2QLoARkbW39C1Qhw3rwFPjTpU34bbrmv++5RZ/gvUG72jLlXOB3JKh+WFISqerrL9JOKPwZ2M8daudn2B3utsSr80tyt3DrT1xl33X8tQlVh4zTNYz12qtW20za0xhpt3M7Ln3jerX/GBhPW96/WL0LVpkWoapi2y7xvTVoOtrdsAfSAjI2tP6FqyCgkfWOfmf67/a7/xR21LQahqp72E6qGaXOgklaoklUEq9PmzneXLej8Rcea75Dj5/ifP3raJyatqxWq5J6X7TdpWdjasgXQAzI2tv6EqiGj03mdvqamDhCq6mlKoUqn9ZpDh2wVqmRVpwI7ueieFT58ffuqg831bBWq5Ly7h3eaLTXLFkAPyNjY+hOqhkw4UkWoGr7lqtJQe7CfUKUjLt2c8ppq33fyB8zQ0S5U6THWsqbKXk///dERf2yuZ7tQtfE5XzKXiZMtWwA9IGNj60+oGgHOvuBqf/rvtjvvI1QN0XJVaag92E+oGsY1VUtWPmYGDtkuVEk91lrmVNhLqPrA579hrp9sF6r+y2F/aC4TJ1u2AHpAxsbWn1A1Ajz59HNu2k4z3J4HnujGxlbVsiCEqnqaSqi6aukvzMAhO4UqPdZa5lTYS6h634bbmesn24Uqee9jT5rLxYmWLYAekLGx9SdUVYjuM7X79BPcptsdMMmPb7bH+Kf/rHGpx2oZ5eKSglBVT+sQqjqZQqjqJKGqO8sWQA/I2Nj6E6oqJFyU3nz/qW7lPlWDtVxVGmoPphKq2p3+62QKp//ayem/7i1bAD0gY2PrT6iCSiBU1dNUQpVsdaF6O0ftQvV3HPlfzfVs5ybnbmEuEydbtgB6QMbG1p9QBZVAqKqn/YQqffov3HOpSlvdUqGdg76lQq+hqtUtFdrJLRW6t2wB9ICMja0/oSpBdApQF7WndCqQUFVP+wlVw/RLc79qBg9LzWstYxjqPlVSP693+ifN9bX85mX7T1oWtrZsAfSAjI2tP6EqQQhVg7FcVRpqD/YbqkJAGIbdBKuqApVu6NnpjuoX3jnfbX/MQW7z6fu42bde6O5ZudJ94szPmOvd6K6X7mMuD1tbtgB6QMbG1p9QlSCEqsFYrioNtQf7CVXDuqaqUZ3Ws66x+uBpH6z0LurtTv9Nv/qw8Zt96nYJum2Cfn7D9De4r5z3NXfA1Ye7vzv+7yesv9TX2Jxz2yXmMrG9ZQugB2RsbP0JVQlCqBqM5arSUHsw1VAV1Cf7dMsE6T8hWHH9W4Wqz571hQlBqTFUBf/0qD9z19y7yN2+4iF3xa9ucvN/dYt74IlnJi0Lu9c3gAJrDPMwtv6EqgQhVA3GclVpqD2Yeqhqtur6W6FqsznTJoQnaYUqqWBFkJo6fQMosMYwD2PrT6hKEELVYCxXlYbag4SqOJtD1Wm3zJ0UnGSrUCW3uXDHCcvE/vUNoMAawzyMrT+hKkEIVYOxXFUaag8SquJsDlUfP+PTZnBqF6p+9+A3uxVPvTRhudifvgEUWGOYh7H1J1QlCKFqMJarSkPtQUJVnM2hygpNsl2okhfccfWE5WJ/+gZQYI1hHsbWn1CVIISqwViuKg21B/sJVbqFwDBvqdDOquuv7Xfa3Pn+5189+rgZmOTbpr3bBytrTM66+UeTlo296xtAgTWGeRhbf0JVghCqBmO5qjTUHuwnVI2yw6z/sieeNQNTN556S/V3qK+jvgEUWGOYh7H1J1QlCKFqMJarSkPtwX5ClY7MhKMzo2bV9df2a/zKnnWP+nMzNHXy2vt+OWG52J++ARRYY5iHsfUnVCUIoWowlqtKQ+3BfkIV11T9u83XVG170U5maGrn3x73rgnLxP71DaDAGsM8jK0/oSpBnn/hJXfIcWc7/VtOGnkIVfWUUBVnc6ha+OBSMzi189gbT52wTOxf3wAKrDHMw9j6E6qgEghV9ZRQFWdzqJLH3PBDMzxZbnX+1yc8FuP0DaDAGsM8jK0/oWqEeOnlMXfXr5a5G2+9y3TRHUvdqtWvDbRgOqW42XYHuHd+aJrpwsVLJjy/Nf958xZMWkdCVT0lVMVphSp53I2nubfMeKsZpILf+Okekx6HcfoGUGCNYR7G1p9QNQL8+qVX3PeOPcu966NbTQgnzSq8DPo6qhCSjpw1p+PzWPM+sHylW2+T3SYFK0JVPSVUxdkqVMnbHn7Q7XTJN93/OO5/jgepPzlqXbfpuV92F991jfkYjNM3gAJrDPMwtv6EqiGzdu1a94OzLvGh6SMb7+oOKcLVpfNvHvqRqm5ClYKTFfSs6YSqekqo6l0FIgUjBSTd0FP3n1JwUoBSkLIeg9XoG0CBNYZ5GFt/QtWQefHXL7utdz/MfWDDHd2dS5YNvRjdhqqxsVX+E4hSP5eTPTpFqJDYeKqQUFVP+wlVo+yg669Tdo2n8N68y9vdG/d+y/j/dcpPp/6sx+Lg9Q2gwBrDPIytP6FqyIQQYx3xGQZhfRpPO8rmkNUufFmnAAlV9ZRQ1b26qLwxUAUbQ1VQF6tby8DB6htAgTWGeRhbf0LVkAlHfD7/1f3c4089O5LFCEeeGo9KTVWoKochUfb53g/cxzbdvac6Hn/aBU6PK/+bBbNvnz0pOMlw+s8ae+j5h3h/AIww1j6NUDUCzJt/s79I/dobF49sMRSQFKzCKT1CFYh+QtW0nb/nZPnfLPj7k/7eDE7tQtVuV+zG+wNghLH2aYSqEeDlV8bc3jNOdlvvcfjI3tCzOShx+g8lF6p3Vl8hY4Um2S5U6StrrOXh4PQNoMAawzyMrT+hasi0uobJUvNp/vKhldJ88TkXqqMkVHVWX3ZshSbZLlRJfcmytUwcjL4BFFhjmIex9SdUDRkdmdp9+glu0yIwdVLzDetIlo466eiTjkKVk7ilAhKqunDWzT8yA5Ns/vRfs7969HFzmTgYfQMosMYwD2PrT6iCCeh0XuNpOxGOPDVPt04BWqf+BKGqnhKqOnvBHVebgakbreXh4PQNoMAawzyMrT+hCiYQAlSzjafyGrFOX1rzEqrqaT+h6pDj53itsWE7iPqveOol97sHv9kMTe38+BmfNpeHg9M3gAJrDPMwtv6EKqgEQlU97SdUjbKDqv82F+5oBqd2nnbLXHNZODh9AyiwxjAPY+tPqBoRdMTnwsuvd8eeen5Lz5h7hdOXLpcPSQpCVT3tN1QtumeFOX3YDqr+DzzxjPvTo/7MDE+Wm82ZZi4HB6tvAAXWGOZhbP0JVSPAikef9Df/bDyFZjnMT//FQqiqp1xT1b3X3Luoq2D12bO+YD4eB69vAAXWGOZhbP0JVUNGX6h80pkX+9B0+AnnuPsefMRtvM13vA8+/Jh75tkX3EHfn+22/9bR7tHHn3avv742yYIRquopoao3lz76hPvKeV9zb5j+hklh6o+O+GM3/erDzMdhNfoGUGCNYR7G1p9QNWR0Ou8b+8wcv11B+ILljbed7gOV5rntzvvcez/5Nac7r/sHJQihqp4Sqvrz3seedLNvvdAdvuAE9/3rT3YX3jnfnA+r1TeAAmsM8zC2/oSqIRM+PRdO7YWbajbeE0rfCajTg7rr+qurVidZMEJVPSVUYZ30DaDAGsM8jK0/oWrINIeqNWvWuINnznYf2HBHd8+9y31xmufxD0wMQlU9JVRhnfQNoMAawzyMrT+hasiE032NgenMuVf4a6zCDTQfXvmE+9SX9nKb73DQyH43YCcIVfW0l1Cl+zWdu3ie+8hXdvTqZ02z5h2W1D9vfQMosMYwD2PrT6gaMjqdp9N6jaFq6f0Puw9vtLM/BTj3p9e6Hfed6UPWocef7Y9k+QcmBqGqnnYbqnaet7d764zf8xdkN341i6ZpzHrMMKT+eesbQIE1hnkYW39C1Qhw1XW3TrgHlYKTPhH4ro9uNX47BX3330OPPJ5ssQhV9bRTqFqy8jH3v2e9b8Kn3Cw1j+a1llGl1D9vfQMosMYwD2PrT6gaUXTrhHuXrXCnn3uZU+h6ZSztQhGq6mmnUPWhU9ebFKB+f7u/9DZP17zWMqqU+uetbwAF1hjmYWz9CVVQCYSqetouVH13/hGTgpNc91/X91pjeoy1rKqk/nnrG0CBNYZ5GFt/QhVUAqGqnrYLVX9z7DvN4NQuVOkx1rKqkvrnrW8ABdYY5mFs/QlVFaNP7+0+/QSvftZ1VLqeyvquv2b57r/BWq4qDbUHW4Wq2x5eZoYm2S5UST22eXlVSf3z1jeAAmsM8zC2/oSqimm+51T4f7ggvZ2NnxBMDUJVPW0Vqi5fcqMZmOQ7Nn2/e9u0d5tjUo9tXl5VUv+89Q2gwBrDPIytP6GqYlatfs0tumOpVz/rgnQdsQoBq52aj+/+G5zlqtJQe7BVqJq/9FYzMHWjHtu8vKqk/nnrG0CBNYZ5GFt/QhVUAqGqnrYKVcufeN694YDJXxrcST1Gj21eXlVS/7z1DaDAGsM8jK0/oQoqgVBVT9tdqP7JMz9rBqd26jHWsqqS+uetbwAF1hjmYWz9CVVQCYSqetouVF1wx9VmcGqnHmMtqyqpf976BlBgjWEextafUFUhui6q24vSLblQfbCWq0pD7cF2oUrue+VBZniy1LzWMqqU+uetbwAF1hjmYWz9CVUVEm6noK+cafTTW+ztQ9PHN9tj0thGW+/v3vOxrd0HP7fT+G0YysUlBaGqnnYKVXL61YeZIapRzWM9tmqpf976BlBgjWEextafUDUCzJp9sXvvJ7/mbr/n/knFWLt2rf8ewE99aS+37KFHky0WoaqedhOq5IL7bnNbX7iD+8uZf+3eMP0NXv2saRqzHjMMqX/e+gZQYI1hHsbWn1A1ZHQzz2/sM9NtvO1098yzL5jFuOfe5e4DG+7ow5VCVjk5KQhV9bTbUJWK1D9vfQMosMYwD2PrT6gaMuE6q3bXS4V5tt79MPfir19OsmCEqnpKqMI66RtAgTWGeRhbf0LVkFFIUlhab5Pd3APLV5rFePypZ93nv7ofF6oP2HJVaag9SKjCOukbQIE1hnkYW39C1ZAJ10zpQvVDjjvbjb26akJBNH7+pde5d310K7fngSe6sbGJ46lAqKqnhCqsk74BFFhjmIex9SdUjQBPPv2cm7bTDB+sNtxyX3fyj37qrv/FHe7s8692X9/rKB+o3rfB9u6mW+9OtliEqnpKqMI66RtAgTWGeRhbf0LViLDy8afdjvvOHL8nVaO6ncI1N9yW7EXqglBVTwlVWCd9AyiwxjAPY+tPqBohFJoUrq667lZ34hkX+dN+d/1qmVu9+rXki0SoqqeEKqyTvgEUWGOYh7H1J1RBJRCq6imhCuukbwAF1hjmYWz9CVUjxOuvr/Wf7lt89/1u0R1L3arVrzlN013U5Zo1a5ItFqGqnhKqsE76BlBgjWEextafUDUiKETpIvVwHVW4fYKC1KHHn+3vuH7bnfclWyxCVT0lVGGd9A2gwBrDPIytP6FqBNCRKX26T/eqmnnKT/xX0jTek2rh4iX+E4BHnzyXO6oP0HJVaag9SKjCOukbQIE1hnkYW39C1ZDRkaiDZ872R6J0G4Vw9/TGULXi0SfdBl/+lv86G32tjX9gYhCq6imhCuukbwAF1hjmYWz9CVVDRtdKbb7DQePf/WeFKmtaahCq6imhCuukbwAF1hjmYWz9CVVDpjkwWQFKYUuhi1A1WMtVpaH2IKEK66RvAAXWGOZhbP0JVUNGp/N0Wk+n93SazwpVt99zvz89uPeMk92rq1YnWTBCVT0lVGGd9A2gwBrDPIytP6FqBDj7gqv9J/5+cskC98xzE0PVy6+M+TClcc1XPiQ5CFX1lFCFddI3gAJrDPMwtv6EqhEgfPffez62tdv/sFP9pwD1CcBTz7nUbbHjwT5QaVzzlQ9JDkJVPSVUYZ30DaDAGsM8jK0/oWpEaPfdf1vueog/NVjOmiSEqnpKqMI66RtAgTWGeRhbf0LVCNH83X+Xzr/ZPbB8pb+rejlLshCq6imhCuukbwAF1hjmYWz9CVVQCYSqekqowjrpG0CBNYZ5GFt/QhVUAqGqnhKqsE76BlBgjWEextafUDUijL26yn+J8unnXuaOPfV80zPmXsEd1Qdouao01B4kVGGd9A2gwBrDPIytP6FqBLj/wZXus9P2MS9Sb5Sbfw7WclVpqD1IqMI66RtAgTWGeRhbf0LVkFm9+jW3/+Gn+tD09b2Ocjfccpe/dYLCU7P6SptUL1onVNVTQhXWSd8ACqwxzMPY+hOqhozCko5A6b5UD698orbFIFTVU0IV1knfAAqsMczD2PoTqoZM+ELllE/tdQOhqp4SqrBO+gZQYI1hHsbWn1A1ZNasWeMOnjnb30Vd96QqJ9cOQlU9JVRhnfQNoMAawzyMrT+hagRYfPf97n0bbO+OOeU8p5BVTq4VhKp6SqjCOukbQIE1hnkYW39C1QigIHXC6Rf6YKWjVtbtFCS3VBis5arSUHuQUIV10jeAAmsM8zC2/oSqEWDZw4+5Tbc7YNItFJrllgqDtVxVGmoPEqqwTvoGUGCNYR7G1p9QNWR0lOrQ48/2oWnrPQ733/t34613mermoKtWv5ZkwQhV9ZRQhXXSN4ACawzzMLb+hKohEz79xy0Vhm+5qjTUHvSh6guEKqyHvgEUWGOYh7H1J1QNmXCfKm6pMHzLVaWhdvCXDz3gvnHxHu5vjvtb945N3+/+av2N3B8f+Sduk3O3cBfeOd98TCpS/7z1DaDAGsM8jK0/oWrIhDuqc0uF4VuuKg21jcfc8EP3uwe92a0zfR1vCFXh/3L7i9M9ckX989Y3gAJrDPMwtv6EqhHg57+4w73ro1u5H513lVu7Ns2voekEoSp9Z95wyoTwJK1QJbc8fztzGaMu9c9b3wAKrDHMw9j6E6qGjC48v74IVRtv8x1/tGre1TeZF6lLLlQfrOWq0lANFz64dFJwkq1CldRRLWtZoyz1z1vfAAqsMczD2PoTqoZMuKaq+fYJltxSYbCWq0pDNdzmwh3N4NQuVL3z2L8zlzXKUv+89Q2gwBrDPIytP6FqyOjIk45AWUemmuVI1WAtV5WGarjuUX9uBqd2oUpee98vzeWNqtQ/b30DKLDGMA9j60+ogkogVKXrsieeNQOT7BSqTr1ljrnMUZX6561vAAXWGOZhbP0JVVAJhKp0/dWjj5uBSb55l7d7rTE56+YfmcscVal/3voGUGCNYR7G1p9QBZVAqEpbKzB14wV3XG0ub1Sl/nnrG0CBNYZ5GFt/QhVUAqEqbdc/YwMzNLVT97Na8dRL5vJGVeqft74BFFhjmIex9SdUQSUQqtL29Ft/Ygandm570U7mskZZ6p+3vgEUWGOYh7H1J1RBJRCq0veLc79ihifLdY/6b/4Cd2s5oyz1z1vfAAqsMczD2PoTqqASCFX1cMOzNjFDVKMKVAvuu818/KhL/fPWN4ACawzzMLb+hCqoBEJVfTxg/uHuHUf810lh6re++1tuqwu+7u57/CnzcSlI/fPWN4ACawzzMLb+hCqIwroj/HnzFkx6URGq6udFd/7Mzbz+B+6IBSe4s355cdJhKkj989Y3gAJrDPMwtv6EKuibEKiOnDVn/EX0wPKV/jsMm4MVoQpTkPrnrW8ABdYY5mFs/QlV0DcKTtb3EVrTCVWYgtQ/b30DKLDGMA9j60+ogr4YG1vl9jzwRK9+Lid7Fi5e4k8D6t9yEqEKk5D6561vAAXWGOZhbP0JVdAX1qm/gHUKkFCFKUj989Y3gAJrDPMwtv6EKuiLqQpV5TAAAEBSWPs0QhX0BaEKAAByxtqnEaqgLzj9h3WU+uetbwAF1hjmYWz9CVXQF1yojnWU+uetbwAF1hjmYWz9CVXQN9atE4Q1nVCFKUj989Y3gAJrDPMwtv6EKugb6xQgN//ElKX+eesbQIE1hnkYW39CFUQRglXj19Q0nvYLEKowBal/3voGUGCNYR7G1p9QBZVAqMIUpP556xtAgTWGeRhbf0IVVAKhClOQ+uetbwAF1hjmYWz9CVVQCYQqTEHqn7e+ARRYY5iHsfUnVEElEKowBal/3voGUGCNYR7G1p9QBZVAqMIUpP556xtAgTWGeRhbf0IVVAKhClOQ+uetbwAF1hjmYWz9CVVQCYQqTEHqn7e+ARRYY5iHsfUnVEElEKowBal/3voGUGCNYR7G1p9QBZVAqMIUpP556xtAgTWGeRhbf0IVVAKhClOQ+uetbwAF1hjmYWz9CVVQCYQqTEHqn7e+ARRYY5iHsfUnVEElEKowBal/3voGUGCNYR7G1p9QBZVAqMIUpP556xtAgTWGeRhbf0IVVAKhClOQ+uetbwAF1hjmYWz9CVVQCYQqTEHqn7e+ARRYY5iHsfUnVEElEKowBal/3voGUGCNYR7G1p9QBZVAqMIUpP556xtAgTWGeRhbf0IVVAKhClOQ+uetbwAF1hjmYWz9CVVQCYQqTEHqn7e+ARRYY5iHsfUnVEElEKowBal/3voGUGCNYR7G1p9QBZVAqMIUpP556xtAgTWGeRhbf0IVVAKhClOQ+uetbwAF1hjmYWz9CVVQCYQqTEHqn7e+ARRYY5iHsfUnVEElEKowBal/3voGUGCNYR7G1p9QBZVAqMIUpP556xtAgTWGeRhbf0IVVAKhClOQ+uetbwAF1hjmYWz9CVVQCYQqTEHqn7e+ARRYY5iHsfUnVEElEKowBal/3voGUGCNYR7G1p9QBZVAqMIUpP556xtAgTWGeRhbf0IVVAKhClOQ+uetbwAF1hjmYWz9CVVQCYQqTEHqn7e+ARRYY5iHsfUnVEElEKowBal/3voGUGCNYR7G1p9QBZVAqMIUpP556xtAgTWGeRhbf0IVVAKhClOQ+uetbwAF1hjmYWz9CVVQCYQqTEHqn7e+ARRYY5iHsfUnVEElEKowBal/3voGUGCNYR7G1p9QBZVAqMIUpP556xtAgTWGeRhbf0IVVAKhClOQ+uetbwAF1hjmYWz9CVVQCYQqTEHqn7e+ARRYY5iHsfUnVEElEKowBal/3voGUGCNYR7G1p9QBZVAqMIUpP556xtAgTWGeRhbf0IVVAKhClOQ+uetbwAF1hjmYWz9CVVQCYQqTEHqn7e+ARRYY5iHsfUnVEElEKowBal/3voGUGCNYR7G1p9QBZVAqMIUpP556xtAgTWGeRhbf0IVVAKhClOQ+uetbwAF1hjmYWz9CVVQCYQqTEHqn7e+ARRYY5iHsfUnVEElEKowBal/3voGUGCNYR7G1p9QBZVAqMIUpP556xtAgTWGeRhbf0IVVAKhClOQ+uetbwAF1hjmYWz9CVVQCYQqTEHqn7e+ARRYY5iHsfUnVEElEKowBal/3voGUGCNYR7G1p9QBZVAqMIUpP556xtAgTWGeRhbf0IVVAKhClOQ+uetbwAF1hjmYWz9CVVQCYQqTEHqn7e+ARRYY5iHsfUnVEElEKowBal/3voGUGCNYR7G1p9QBZVAqMIUpP556xtAgTWGeRhbf0IVVAKhClOQ+uetbwAF1hjmYWz9CVVQCYQqTEHqn7e+ARRYY5iHsfUnVEElEKowBal/3voGUGCNYR7G1p9QBZVAqMIUpP556xtAgTWGeRhbf0IVVAKhClOQ+uetbwAF1hjmYWz9CVVQCYQqTEHqn7e+ARRYY5iHsfUnVEElEKowBal/3voGUGCNYR7G1p9QBZVAqMIUpP556xtAgTWGeRhbf0IVVAKhClOQ+uetbwAF1hjmYWz9CVVQCYQqTEHqn7e+ARRYY5iHsfUnVEElEKowBal/3voGUGCNYR7G1p9QBRN49vkX3WbbHeDe+aFppgsXL5nwgrHmP2/egkkvKkIVpiD1z1vfAAqsMczD2PoTqmACISQdOWtOxxeGNe8Dy1e69TbZbVKwIlRhClL/vPUNoMAawzyMrT+hCibQS6hScNK8ekw5yWNNJ1RhClL/vPUNoMAawzyMrT+hCibQbagaG1vl9jzwRK9+Lid7dIqw+VQhoQpTkPrnrW8ABdYY5mFs/QlVMIEQqhqvkZLNIatd+LJOARKqMAWpf976BlBgjWEextafUAUdCUeeGo9KTVWoKocBAACSwtqnEapqSghCnbRO31koIGn+cEqPUAUAADlj7dMIVdAVzUGJ039YR6l/3voGUGCNYR7G1p9QBV3RfPE5F6pjHaX+eesbQIE1hnkYW39CFXSFjjrp6JOOQpWTuKUC1k7qn7e+ARRYY5iHsfUnVMEEdDqv8bSdCEeemqdbpwCtU3+CUIUpSP3z1jeAAmsM8zC2/oQqmEAIUM02nsprJASrTvMSqjAFqX/e+gZQYI1hHsbWn1AFlUCowhSk/nnrG0CBNYZ5GFt/QhVUAqEKU5D6561vAAXWGOZhbP0JVVAJhCpMQeqft74BFFhjmIex9SdUQSUQqjAFqX/e+gZQYI1hHsbWn1AFlUCowhSk/nnrG0CBNYZ5GFt/QhVUAqEKU5D6561vAAXWGOZhbP0JVVAJhCpMQeqft74BFFhjmIex9SdUQSUQqjAFqX/e+gZQYI1hHsbWn1AFlUCowhSk/nnrG0CBNYZ5GFt/QhVUAqEKU5D6561vAAXWGOZhbP0JVVAJKYQqRETEGAlVUAmEKkRErLuEKqgEQhUiItZdQhVUAqEKERHrLqEKKoFQhYiIdZdQBZWgFxoiImLdLXd7AAAAAAAAAAAAAAAAAAAAAAAAAAAAAAAAAAAAAACjwMLFS9w7PzRt3PU22c09sHwlH4vNgLGxVW7PA0+cUP9Gz5u3gNdBTVFtVXu9BspJk9A8ja+HzbY7wD37/Iu8JmqA6qh6qv+XkyYQxhvr32irxwFkTQhUjW8QNVKCVR6EUNVp5wr1Qu9tvcfb1d3qA0fOmkOwqgmqZbtwFEKV5isnAUA7wg61+U3TajrUD0JVXoQ/ooKt6h52qM1HKltNhzQI7/fG1wChCmCKCH+tWg1SbyT+Iq0/hKo86VR36wi24PVSH1rVOECoAuiRdm8qTgHmQdhJhr9ag+w0602ncNTu/c8fXPWg21DV3BsIWQAtIFSBRTiCyY6zvhCqoFOosgiP4Y8uAANCFbQivDb0OignQY0gVEG7/t8OvTb6eRxA7Wn3piJU5U049M+h/npCqIJ+Q5VeE3pt8AcXQBPt3hw0zryhcdabTqGq1Q630+MgHfoNVf0+DqD2hAbZfDSi1XTIBxpnvekUjsKRyuZQ3Wo6pEe/73HVnrMYAC2w3li8afJBtW4Oz+EoFaG6vnQKVcLqAxzBrg+dQpVq3Ryew2OapwNAA+GNEqRp5kMIUI31lzTNetL8Xm/U2rnqddA4T7sQBqNPCNONNW1V21avFet1AgAAAAAAAAAAAAAAAAAAAAAAAAAAAAAAAAAAAAAAAAAAAAAAAAAAAAAAAAAAAAAAAAAAAAAAAAAAAAAAAAAAAAAAAAAAAAAAAAAAAAAAAAAAkBZHzprj1ttkN/fA8pWunAQAAAAAvWKFqmeff9Fttt0BSYStlNYVAAAAagyhCgAAAGAK4PQfAAAAwBRAqAIAAIBkUGBRcDnypHPdvctWuD2+e6J73wbbu3d9dCu39R6Hu7uWPugDzSOPPeVmHPMj98HP7eTe+aFpbosdD3aL7ljq1q5dOynwvDL2qjtjzuVuw62+7ed9z8e2djvvd6y7e+nytvN/6kt7+fn1HEefPNc/pjlUjY2tcnseeKI/rabTa+XkdZ546jl3wJGnu09vsbdfhtTvsc0eR7gbFt7pXn994vMuXLzEz3PevAVuxcon3f6Hn2r+3jG0WtfxbV6ExqeffcEd88Pzxrfrxtt8x13/izvM7aTfQb+L1k/bVPNrG//wx5e6p555fsL8+p2+c8Rp48v9+GZ7uJPOvNi9+OuXJy03hNc7lyxz5170s/G66bGnnHWJG3t1lVu1+jV39c8XuS9uf6DfRtpWx512gfv1S69MWp7WXbXebfrxfj4tS7VVjVXrcjYAAIB6EXbw/2v9bfzOUjvARrUz/P4P5o7vnBttDjziyaef8zv95nmldrA33Xr3pPmn7TTDnF92G6rC72EtQ7/XhZdfP+F5Q6jacMt9xwNKo/q9lz306ITH9EqndVXQsbartpPWr5zds2bNGnfC6ReaNZIKRuWs62gbW8uV2tba5uWsHj1Wy9VrwHqMAueO+840x4455TyndSsX5QOVtrW1TeXeM052L78yNuH5AQAAakHYwWunqiM9OsKhHaOOKBx+wjnjO0PtVJc9/Jg/4qMjFzNP+YmffubcK8Z3kNq5fu/Ys/yyTjzjIvf8Cy/5MU2/7a773KZFuNhy10MmTD/0+LP9cnb9znHjz63nWPHok273A07oOlRZrF79mvvZ9b90H95oZ7f17odNOEoTQpV2/gorOtKl537xpVfGf+9Zsy9uu/xOdApVYZs/9Mjj49v1R+dd5acryGj9y4esc/k1C/10Pe7aGxf7IKP1fea5F935l17nfnDWJX5ebVuF2lAD/T6aHo7k6feaXvyrI0+aLhSqNP0TX/ymu+q6W/16aNmqWePRQx3VUyDS2D33Lvdjn//qfu7xp54dX5aOUGl7q9Z6fAhcWi+tj9Zr3vybx+cHAACoDWEHryChnWU52aMd5wc23NEdctzZk06f3ffgI+4jG+864QjJwyuf8DtaBauwM21EO1PtVHXaUP8P82++w0E+1PiZGginpfoNVULrcfDM2W7jbae7Z559YXz+EKrm/vTaScsIv1tzsOmVTqHK2uZaR61rYwgMy3nvJ7/mTw36GVug30vb+NuHnjIhOAmdIvzyTjPcBl/+lg+t5WS/nfX76vcuJ3nCttPY0vsfnjCm9db6N9ZH03SKUaFK4crP2ICClUK1jla9umr1pHEAAICkCTv4xnAUCGNWuNDRCR2l0M5eO31NC0Glk1dcu3DC/Fa4EL2GKh1h0VGc7x51hj9S0nh9VfNywnPr6Es5aZwQbBp/t37oFKqsba4jhLtPP2HCY/Sv/m/9zs0oJLb6vUIQ0rh+/3KyuZ0DGlOYu/2e+yeN6Shl47LC76tp7Ww+aggAAFAL2u3gw5gVLsKOvnFMO3JrJ9ps2OGH+a0AIHoJVfc/uNJ9dto+k54r2LycdqHK+t36odW6ttvm1mPa1aEZLVO/V2NoasQat7ZzoN3yQv3CWNhumtbO5u0BAABQC9rt4NvtzK3goQuktdPs9lqkML8udi4nTcDa2VuhQ9f57LTfMf60l64b0lEVjYWja9ZyUgpV4chZ83IsBnGkqnn+QHOoCkfZmk8vAgAAZEG7HXwYs8KFFTzC/I0Xo7cjXLOlQGR9Isza2VuhQztw7ci/sc9M99LL3S0npVAVpuk0XPOnJ5vR79XPNVXN2yegsW5DlUKbboWhaVyMDgAA2dFuBx/GrHBhBQ/txPXJMu1Uv77XUW7JfQ+NX7CueXTxsu51FS5U1yfTtt3zCB8C9Km38KkzXbSuT+Tpk3nNO3srdOgTcLp/kua99fal/qJ6LUfTdd8lXWjdvJyUQpUIn/7Thf033HKX367hd+z203+6QFy/s/Xpv+btE+glVInFd9/vbwkhf3zh/PFwrZronly63YKWGbNdAQAARpJ2O/gwZoWLVsGj3X2qgo07YR15CTeIbFTT9NzNO3srdChcKFQ0L0PqVgC6H1TzclILVTqSp0Da/PsFG5elYKnlW/O1uk9V8/YJaEyP6zZUqRbt7lMlY7crAADASNJuBx/GrJ1gu+ChI04/vfJGf9f1sHNVsNEpKe2AG2+3oJ2w7uQdjq4oTOnThrpnlbWzbxU6tEztzMN9lfR8ulO5jo5Yy0ktVAn9jtfeeJvfVmG76g7ss39y5aR5+7mjeuP2CWhMj+82VAnVdPmKx/3z63k1j9ZXrweta/Pd3wEAAAAAAAAAAAAAAAAqJJzm6kXrdBkAAAAAAAAAAAAAAAAAAAAAAAAAAAAAAAAAAAAAAAAAAAAAAAAAAAAAAAAAAAAAAAAAAAAAAAAAAAAAAAAAAAAAAAAAAAAAAAAAAAAAAAAAAAAAAABA6qyzzv8FkhDLg4GuNr8AAAAASUVORK5CYII=;" parent="1" vertex="1">
          <mxGeometry x="-110" y="1077.5" width="597" height="595" as="geometry" />
        </mxCell>
        <mxCell id="uaC2PHWClK9KAIYIgDp3-14" value="`y=72.8`" style="text;html=1;align=center;verticalAlign=middle;resizable=0;points=[];autosize=1;strokeColor=none;fillColor=none;fontSize=19;" parent="1" vertex="1">
          <mxGeometry x="335" y="1330" width="90" height="40" as="geometry" />
        </mxCell>
        <mxCell id="KolLcN7J3gm2r1up9Zn9-1" value="" style="shape=image;verticalLabelPosition=bottom;labelBackgroundColor=default;verticalAlign=top;aspect=fixed;imageAspect=0;image=data:image/png,iVBORw0KGgoAAAANSUhEUgAAAfcAAAHzCAYAAAA95FQxAAAAAXNSR0IArs4c6QAAAARnQU1BAACxjwv8YQUAAAAJcEhZcwAAEnQAABJ0Ad5mH3gAADnjSURBVHhe7Z3/kyR3fd75e/ghRaUqqZTLiZKKKpQTHPwl1imxHdnBMQJisOW6kk2RGCHbsYyl2MG2fA4FBedCjrAQXCwZZGIQWAIOQyTACAt0Op180kk6naRD0umLpc4943kvn/vc0z0zu7273e/P61X1qtudd09P7zwz/XTPzO69BgAAAAAAAAAAAAAAAAAAAAAAAAAAAAAAAAAAAAAAAAAAAAAAAAAAAAAAAAAAAAAAAAAAAAAAAAAAAAAAAAAAAAAAAAAAAAAAAAAAAAAAAAAAAAAAAAAAAAAAAAAAAAAAAAAa49y5F7uD197YXX/o5m55EayB7i/db7r/lhftCkfvua+79LKrugeOnyQfAABYD5WGykMlsrxoCxXYay+5YtBbbrtz7dLZq0JcB233TkrT/Sw7vb8ii3KZuZa7ttv9/DLutziwdMtI95gMYv1Dy5x5+mx3+ZXXrLU+AIBUaIenHaD+PXD+36ESUXnJ5bcbo9LSbWmnu7xo39itcu87eImiGSp3t03KZdPt1LK6TpRan7tZdn3bXd5HUe71Yyq2f2j7Yj2PnDp9QYHXlvf3yfPLLr8EAMiNdpJSO9Shco9y2kkhbKeodouplXsUXX397dxnWlbXcWVXuirLofXoZ10uZtG63fVk/IzxM7tlZN/2xXbV81jfVA4gAQD2hbKwtcN05a6duNvxynoHH+tzy65yr3fI+pk3Lc2+wor7Yei+CvvKvW/d61iXXJRffaCwLuW26Gv32Iifte82dD13/+p6dbnXj6PY/vrnCsp1LC9a4A7YdNl27wcAgFmiHV+UarkDl1deff3icrcj7dspr0Pfjnmv6SsfEeU29PON+XMM3Z9D29mHltV1trN92ob6gGFoG7S8OzDru055v/X93LH95TYEmpUHGlrHe2740MJ6u2M9Y+UEADB5YscaO+DYEcbZmHbWu1HucTtux10Sy/23936ge+mll7eWffH81++67v3dj/3su7vHnnjqgnUcOnyk+0c/8Obu3m9+Z+V26fbLMtDPou9l3Cf6+ftKob5fyvtvyFj3YiVL3BlnoO3rm/UR21Lntgr9TO62Vm2De4zE/euMZaW+dsvIyKYkcopXQPSeuw5Ey8uEstNBx6b3AQDArImdb+y05U5fltfO1S23ruWO+NnnznX/5Z2/0/2Ht17bPfnU984KT5x8rPvXP3F19w/+5X/qPv+lr21d/sKLL3W/9Ot/eNHyfejn1M/ubnsd6kKL9blCClxJRsGVxVTirrOK2JZNfqZ4PLjt17YNvW3ifvbtbHfg1idiG2V9f8VjT7nEfbrXb/UAAOwrsfP72YO/tbUDln3lXpdEXL8u93WJsypXJCX/8/23dN//Qz/XffP+41vLfeqzRxdn5//sh9/eXfd7H+n+7u/+bjF78swzi7P5X/udw1uXOWLbt1PoJX3lHuXT56aFt52SXHdb4v6PPPrydI+BkrhPy8J1263L6sJ1y8X2x/aJ2Ea9OqN/3cGQlo+fbdP7DABg9sRO9pOfObq1E5R7Ve5i1dmg+Ozd9yx21Cp0fa+X5/Uy/a/+9uHufR/42AVn6ToA0IGA2+kH5dnd8qJto3VEkei++Ma3jl1USDWuyMpC2q71OvW1LnPLlsa2uu0KolSH7lf3eHDrrA8C3EGBiO2P7YvlZPzqW9/2aBvq29WyfT8fAEAatAPUjrPcAcudvixfonW764R3fuHeiwqh5uFHHu/e8B9/uXvv7/9x9+qrr3bxvUr//339290/ecNbtwrgE5+666Kz/BLt4HW7sfx2iHWE2n4Vj2a638pCcpT39/KiQaLU6ttaRWzLutfRz9V3oLXONsd2loVbXq/8OYaM7a3vS30fH/AcOthwxS7i9te9PwAAZk25A5ZR7rEz1Fw7zHqnGHNXzLHz7SsLodvQ7cZO3e2oRdzOz/zib3Znv/vcotR/5E3/tTv1xJnu6Wee7X76F36j+x9/+NHulVdeXRwA/PjbfnVx+fLqW8Tt9d3Odqjvl/pn6tOVTx+xzsN/csfi3yi7VcT16tz60P3St6zLvyYyL7evfGwtL9oicu3LI7bf/bxlucfX7n7uc8zHAADAJCl3wHKMcl+nDALtnHVG5gog0Hus2sa/eeDhxfvp8Z66zuT/4MNHFi/N60N2+vBd3/vt2qEPHWxsh75yd4UUDBWeo7yNTe7X2JZ1l++7f8oiXV5kcdcf+lm1Tdq2vvUO3ZfrbJNm7rb7LgcASEW5A5ZR7rED1Vyl4s6ApGbLVS1YtdPeDtoGfTL+Ix/79OKsPd5/F/HS/M1HPrN4ub6clWh7XHnthN0u97qI4r6t73NHbMu65a7l1/28RU3cVp15+bPqa/f4qY3lY53uvuwrd21rZFzed0PrAgBISbkDjp1m7GjLMtTOMkpFy+oPhvTt8NcphE3QS/Aq9X/zk7/U/dsr3rl43305ek28NP99P/i27p//6Dt632/fjR18/XPGbZRl5Yz7e7GSHnR/a9l6eyOjdQt3kxzqn6csyMUChtjOeGyUlI+t5UULtH7djnQlLWL7XV6u3LVceX/V277OzwIAkIa+HXBJ7Bi1rHbM8UdD3A5dxM53rJ1p/P66dt71H7SJl+Y1i/fll6OL0M+h5TYpvCH6DmJ0P5UHRkL3gzszroniK4uqJpYZun91ueZaz5DlbZS3Lfvup3K5oW1wj63IIB47fQcrsf3uPqjLXctonfG9iMds3HZsc50LAEBK3A44GNohxqzeKZfEDjrKYsi+A4Xgwx/91GI597K7XprX773rg3Uq++XFltju+vaH7Nu2utyjuPQz69fiyvtMX+u3AzQfuj81H7pPS6LU3PLr3veuPPuI25PrbGP52BraVhHzKOjYfrd9uu+i3Muvl+MFdbmLvmUBANJR7oCXFy2Islm1I1TBrSrmTERBRMnp/on7yt2PjrrI4vvt3o9aj67vinA/6XtsDRGlrp+n77rrlLRmm942AAAAAAAAAAAAAAAAAAAAAAAAAAAAAAAAAAAAAAAAAAAAAAAAAAAAAAAAAAAAAAAAAAAAAAAAAAAAAAAAAAAAAAAAAAAAAAAAAAAAAAAAAAAAAAAAAAAAAAAAAAAAAADAvvL40y90iIg4X5e7c4DvoQfGydPPIyLiDKXcwUK5IyLOV8odLJQ7IuJ8pdzBQrkjIs5Xyh0sm5T78iqvcTOcn2SZR7LMo7IUbuak3MFCubcrWeaRLPOoLIWbOSl3sFDu7UqWeSTLPCpL4WZOyh0slHu7kmUeyTKPylK4mZNyBwvl3q5kmUeyzKOyFG7mpNzBQrm3K1nmkSzzqCyFmzkpd7BQ7u1KlnkkyzwqS+FmTsodLJR7u5JlHsly933s/mPdK+840D11+5ELLn/0xOPdS+9682KmZcpZn7EuXU/XL2fKUpSXDUm5g4Vyb1eyzCNZ7r595f7sB9+3UbGHsT5dv7xcWYrysiEpd7BQ7u1Klnkky93XlXtf4a+rrlcfGChLUS43JOUOFsq9Xckyj2R5ofFSeX1WfPruu7pX3n7Z4t/y8nV0Re7KOZarX3J/4bqrL1rWbaeyFPH9Kil3sFDu7UqWeSTLi3Uvl6tg3fvc6+jKXeuT5XIylo3SdgcBoZYp16EsRbnMkJQ7WCj3diXLPJLlxdZl7MpZX3dven2v5YFAff046y7XV6rLX33LGxf/1rdbL1fejrIU9XJ9Uu5gmXq564GvJ1n98tqQWlbX6Xsy4d+711ni7kmW3vJM3Z3Jb+Km5S51+6v2X3qL4OWDV2xtl7IU9XJ9Uu5gmXK5x5Npk2IPd/pEbsG9zBJ3V7L0qnh19nzmLz69KOLt7EvCnZS7e+k+pNxhV5hyueuJWL5ctYnxxNvJkzm7e5kl7q5k6Y39gApWJV9/kE7FrFmf5f5n03LX5bF8vDzft1x5O8pS1Mv1SbmDZVW5xwNUD+zlVRYPOh2JDh2NrlJPMj3g+55I8cSpy1nfa9nyiRLrqpctt728HP/eyBLnL1n2G/uMneyvZF3usm8/GPukWFbb4A4uYlauQ1mKcpkhKXewrCr3eEDrAbi8ymvqB+6muutr/WW5a5m+X1nRslHafQcBUnO93OXWgRRCJsmy353ur0JX7vq6PoGI5crCjv1UvWxcXq5TWYr4fpWUO1hWlbuM4u2ePbt4ENVFHA/Q8iy8tnzwuqPdep1avvy+NG5P66iv55Yrbxu/p7J0l+P8JMt+XQGPpSv8TXTbpixFudyQlDtY1in3OPLtPvdnXff4I4sHoztTXsco3Pr6m5S7jG1a9aSNAwA3a13l7y7H+UmW3r79zZhq3ds5eIgDg3rblKUoLxuScgfLOuUeT5DuhncuCn47D+Qw1lUf6W633OXQy+6Ue7/K312O85MsvdqPrNpH7NTYp22yX4xid/s4ZSnKy4ak3MGyTrlLPUniJfb6JfV4cJcvw9dGmceydeFuUu7lOrQtq5aL28YLVf7ucpyfZJlHZSnczEm5g2XdcteRZvcLl3fdW3d+FKxSLo9y3VGsbqPvA3Vlocd16wMOqRkfqOtX+bvLcX6SZR6VpXAzJ+UOlnXLXS5eln/3W+xZ8qaq4OOsXuX8/G9fc0G5x1m3O8OvX2aLVxXqZYfO/pFCyCRZ5lFZCjdzUu5gWbfcVZAq9u6mG+18p6qY67NvXbbdcu47OMDvqfzd5Tg/yXJvvOGLp7ofvvVY97oP379QX+syt+x2VZbCzZyUO1jWLffF2bFeln/8ETvfRJ1160w9vo+X1uv3xuPy7RS0rqPrah1ujhRCJslyd/3KibPdG255cKvUazXTMu66m6oshZs5KXewrFPucRasl+V1HbfMJqrc9dJ6vCwv+z701veS+5Badmid+PeOkSVOQ7LcXYeKPdQy7rqbqiyFmzkpd7Cse+Yul1dhJ5JEsswjWe6eetndlblzjJfolaVwMyflDhbKvV3JMo9kuXuW77GvUsu6dWyishRu5qTcwTKVcj/x+HML3Qx3x93KEvdestw9XYkP6daxicpSuJmTcgfLfpb7Q+fL/DfuPnXB+1n6Wpdp5q6D4zlmlri/kuXuWRb3Orp1bKKyFG7mpNzBsl/l/sXjz3Q/8Cf9L3dppmXcdXEcx8oS91+y3D03eVn+Rz6+8w/VKUvhZk7KHSz7Ue4PP/H8YLGHWkbLunXgzh0jS5yGZLl78oE6mCX7Ue7Xb/Bk0bJuHbhzx8gSpyFZ7q78KhzMjv0o9zdu8DKXlnXrwJ07RpY4Dclyd+WP2MDs2I9yd0+OId06cOeOkSVOQ7LcG/WyO39+FmYB5d6uY2SJ05As86gshZs5KXew7Ee5/7uPr37/KtSybh24c8fIEqchWeZRWQo3c1LuYNmPcv+do4/ZIndqWbcO3LljZInTkCzzqCyFmzkpd7DsR7nLH7519dm7lnHXxXEcK0vcf8kyj8pSuJmTcgfLfpX7PQ+fHSx4zbSMuy6O41hZ4v5LlnlUlsLNnJQ7WPar3MPf+/Lj3YEjx7t//EffXqivdZlbFsd17Cxx/yTLPCpL4WZOyh0s+13uuH+SZR7JMo/KUriZk3IHC+XermSZR7LMo7IUbuak3MFCubcrWeaRLPOoLIWbOSl3sFDu7UqWeSTLPCpL4WZOyh0slHu7kmUeyTKPylK4mZNyBwvl3q5kmUeyzKOyFG7mpNwb5Og993WXX3lNd+bps73hU+7tSpZ5JMs8KkvhZk7KfUaojFXKr73kii2vP3TzRQE+cPxkd+llV/UuQ7njkGSZR7LMo7IUbuak3GeESrks6ih7d5mW1ffnzr3YHbz2xguWodxxSLLMI1nmUVkKN3NS7jPnltvuXJS3Stx9L+oyd+Wu8tdZfhwUUO7tSpZ5JMs8KkvhZk7KfeaolMsy1/flWbrQy/QHzpe5/tX3dbnrgKAue8q9Xckyj2SZR2Up3MxJuc+YeG9d5by8yJa7SlvlHWflZbm7Yheu3JcjAACYGPX+mnKfKVHYdZFvUu6HDh+xxS44c29XsswjWeZRWQo3c1LuM6Sv2IUrd/eyvN5f12X1mX9AubcrWeaRLPOoLIWbOSn3mREvxbtiF5t+oM69tC8o93YlyzySZR6VpXAzJ+U+I/qKuKR+CX6dX4WLM/m4jqDc25Us80iWeVSWws2clPuMUKnHH6apLYs5DgJiVp/l1+UuouBjWcq9Xckyj2SZR2Up3MxJuYOFcm9XsswjWeZRWQo3c1LuYKHc25Us80iWeVSWws2clDtYKPd2Jcs8kmUelaVwMyflDhbKvV3JMo9kmUdlKdzMSbmDhXJvV7LMI1nmUVkKN3NS7mCh3NuVLPNIlnlUlsLNnJQ7WCj3diXLPJJlHpWlcDMn5Q4Wyr1dyTKPZJlHZSnczEm5g4Vyb1eyzCNZ5lFZCjdzUu5godzblSzzSJZ5VJbCzZyUO1go93YlyzySZR6VpXAzJ+UOFsq9Xckyj2SZR2Up3MxJuYOFcm9XsswjWeZRWQo3c1LuYKHc25Us80iWeVSWws2clDtYKPd2Jcs8kmUelaVwMyflDhbKvV3JMo9kmUdlKdzMSbmDhXJvV7LMI1nmUVkKN3NS7mCh3NuVLPNIlnlUlsLNnJQ7WCj3diXLPJJlHpWlcDMn5Q4Wyr1dyTKPZJlHZSnczEm5g4Vyb1eyzCNZ5lFZCjdzUu5godzblSzzSJZ5VJbCzZyUO1go93YlyzySZR6VpXAzJ+UOFsq9Xckyj2SZR2Up3MxJuYOFcm9XsswjWeZRWQo3c1LuYKHc25Us80iWeVSWws2clDtYKPd2Jcs8kmUelaVwMyflDhbKvV3JMo9kmUdlKdzMSbmDhXJvV7LMI1nmUVkKN3NS7mCh3NuVLPNIlnlUlsLNnJQ7WCj3diXLPJJlHpWlcDMn5Q4Wyr1dyTKPZJlHZSnczEm5g4Vyb1eyzCNZ5lFZCjdzUu5godzblSzzSJZ5VJbCzZyUO1go93YlyzySZR6VpXAzJ+UOFsq9Xckyj2SZR2Up3MxJuYOFcm9XsswjWeZRWQo3c1LuYKHc25Us80iWeVSWws2clDtYKPd2Jcs8kmUelaVwMyflDhbKvV3JMo9kmUdlKdzMSbmDhXJvV7LMI1nmUVkKN3NS7mCh3NuVLPNIlnlUlsLNnJQ7WCj3diXLPJJlHpWlcDMn5Q4Wyr1dyTKPZJlHZSnczEm5g4Vyb1eyzCNZ5lFZCjdzUu5godzblSzzSJZ5VJbCzZyUO1go93YlyzySZR6VpXAzJ+UOFsq9Xckyj2SZR2Up3MxJuYOFcm9XsswjWeZRWQo3c1LuYKHc25Us80iWeVSWws2clDtYKPd2Jcs8kmUelaVwMyflDhbKvV3JMo9kmUdlKdzMSbmDhXJvV7LMI1nmUVkKN3NS7mCh3NuVLPNIlnlUlsLNnJQ7WCj3diXLPJJlHpWlcDMn5Q4Wyr1dyTKPZJlHZSnczEm5g4Vyb1eyzCNZ5lFZCjdzUu5godzblSzzSJZ5VJbCzZyUO1go93YlyzySZR6VpXAzJ+UOFsq9Xckyj2SZR2Up3MxJuYOFcm9XsswjWeZRWQo3c1LuYKHc25Us80iWeVSWws2clDtYKPd2Jcs8kmUelaVwMyflDhbKvV3JMo9kmUdlKdzMSbmDhXJvV7LMI1nmUVkKN3NS7mCh3NuVLPNIlnlUlsLNnJR7gxy9577u8iuv6c48fbY3fMq9Xckyj2SZR2Up3MxJuc+U6w/d3Mnlt1uosFXcr73kigu89LKrugeOn1wsT7njkGSZR7LMo7IUbuak3GfEuXMvdgevvXGrsIfKXQW+vOgiKHcckizzSJZ5VJbCzZyU+0xZdea+ablrXTpgiOtR7u1KlnkkyzwqS+FmTsp9poxZ7rfcdudFZU+5tytZ5pEs86gshZs5KfeZsqrc46V7WRd3We6u2IUr9+UIAAAmRr2/ptxnSl+5O7RcWeBR7ocOH7HFLih3AID5UO+vKfeZskm561Py+rR8vFSvf3VGf+B8setynb0vFixw5d7n8iq8/JdEsswjWeZRWQo3c1LuM2XTcleRu1+Fi+KvC55yb1eyzCNZ5lFZCjdzUu4zpa/cVdxlUcevz0l9rcvKco/vy0/KC8q9Xckyj2SZR2Up3MxJuc+I+vfcw7Lk40y8by7qchdR8LEs5d6uZJlHssyjshRu5qTcwUK5tytZ5pEs86gshZs5KXewUO7tSpZ5JMs8KkvhZk7KHSyUe7uSZR7JMo/KUriZk3IHC+XermSZR7LMo7IUbuak3MFCubcrWeaRLPOoLIWbOSl3sFDu7UqWeSTLPCpL4WZOyh0slHu7kmUeyTKPylK4mZNyBwvl3q5kmUeyzKOyFG7mpNzBQrm3K1nmkSzzqCyFmzkpd7BQ7u1KlnkkyzwqS+FmTsodLJR7u5JlHskyj8pSuJmTcgcL5d6uZJlHssyjshRu5qTcwUK5tytZ5pEs86gshZs5KXewUO7tSpZ5JMs8KkvhZk7KHSyUe7uSZR7JMo/KUriZk3IHC+XermSZR7LMo7IUbuak3MFCubcrWeaRLPOoLIWbOSn3kXng+Mnu0suu6l57yRW9aq7llleZJJR7u5JlHskyj8pSuJmTch+JM0+f7S6/8ppFeV9/6ObBO1VzLafldb3lxZOCcm9XsswjWeZRWQo3c1LuI3D0nvvWKvUaLT/Vs3jKvV3JMo9kmUdlKdzMSbmPgMpdLr/diE9+5ijljpOSLPNIlnlUlsLNnJQ7WCj3diXLPJJlHpWlcDMn5Q4Wyr1dyTKPZJlHZSnczEm57wF6b929bK+X46+8+vpJfqiOcm9XsswjWeZRWQo3c1LuI6PCfs8NH+rOnXtx647tK3ddfsttd04yAMq9Xckyj2SZR2Up3MxJuY/MuuU+5bN2Qbm3K1nmkSzzqCyFmzkp95FZp9w1O3jtjZM9axeUe7uSZR7JMo/KUriZk3IfmXXKXd/L5beThHJvV7LM4xyyfPaD7+teetebu0dPPG7noeZa7pV3HOgeu/+YXaZ2O9eZqspSuJmTch+ZoXKPM3ZZzqcI5d6uZJnHOWS5brlrue2UdBT8C9ddbedzUVkKN3NS7iPTV+7xd+WnfsYeUO7tSpZ5nEOW65S7Cl3F/tTtR+x8lafvvqt75e2XLf518zmoLIWbOSn3ESj/rvyQcyl2Qbm3K1nmcewsVa7u7Flnxds9M67LPc60X33LG7fK2N1uFH59YKDtGHsbp6CyFG7mpNxHpu/M/fCf3LH1v8W5X4ubGpT7+q77sqLUzko7rU12MtqxdW96/eJ23HxsW84ym2NnGYVaPhbjMb3ds+r6+aPnhits95ypt6fv4CNm6z5Pp6iyFG7mpNxHZtUH6jRXyU/5k/KCcl/fdctdcy23nbMH7ZjKM5ndtOUss7kbWdaP9/r7eJzrgLTP8kCgvL4r9lhf38FDPDf0r4q9bzk9d14+eIUt/jmoLIWbOSn3kVlV7iIKfspn8JT7+q5b7rHz2e7Ope/sZWxbzjKbu5FleabuzuQ3NZ4/L1778/Z5tKrcpZ4XOmgY2g5tq8p9Lw6Qd0NlKdzMSbmPhM7E9ZL7gSuvWVnuQstP+VPzWcu9r2B3Upyxc3rm1pu2zkzcWba7DW1PvVOKHWa9rNa3Fx8KmkuWuNrdyDLKVo/PnR6wSj329RzQY9u9vL9JudfPmVLKHbZNnJHXH55z5a5SV7lP9ew9a7lHcZZlqie726msa+ycyh2Lvi7PQuJ23W3osvJgQNd1O6l1dnJjOJcscbW7laUeg3rMu0KNx2nMneVjOA6Odb1Ybzlf9bjX5fHcGnoe6/nFy/KwI+LT8yp6Fb4rdzHls/es5S7LnYn7fic7p7gsdjixI1m1Y4mDAZ39D50JaTndnpuN5ZyyxGF3K8s4WHWvUG2qez7W6+074NUyZaG764Zapn6ezkllKdzMSbnvIt/41rFFcfeVu4qf/xVu7y13CLGT2klh1jsnuWm5r7uz1G25ndyYzilLHHY3s4wD0p2WpXv+6DIdRMfzsn4+yXjOlM8HrUPrqpeVWi7WN0eVpXAzJ+UOlszlHjsAPdndTmNT3c5pu+VevypQq9ui3HFddyvLeA7tVVnG82PouTGknn/8ERvYM3RW/8nPHJ1kAJnLXWonES+x12UZO66YO8udzBjlrm2IM4uhg41Yxs3Gcm5ZYr+7lWX9+N4LVz03+iwP5t18LipL4WZOyn0fcb82NxWyl7t2ENpRrHoZfB3XKfe4vfKgICx3WrEjqtcnY+bWMaZzyxL73Y0s96ss43Y3KfjtXGeqKkvhZk7KfSTiV+Hik/J6jz2+r9WH7R45dZpPy++z2jm5Et3Udcpd6vbqHaKWq18J0MGGDjrqZVed/Y/lHLNEL1nmUVkKN3NS7iOhcldR62z80OEji69V8vG9PjSn7+NfXaZ/l1efHNnLPY7od/sl7lJX+JvoDg52w7llif2SZR6VpXAzJ+U+EpuWuy6f4svxQfZy32nRbsc4oNhOQWt7x3gLYR3nliX2O7csTzz+XHfrN890f/CVJ7r3f/WJ7tPfftou16LKUriZk3IfiU3LXf8urzpJMpf7Tkp2p/a95D5kvHS/V68yzClLHHZOWf7elx/rvv+m73Sv+/D9F/hjnzje3f6tM/Y6LakshZs5KfeRoNwphCySZR7nkuV7/vLRi0q99uZvPGmv24rKUriZk3IfCV6WpxCySJZ5nEOWH/n6aVvmzr9+5Fm7jhZUlsLNnJT7SPCBOgoh/Mb5HdDtf3Om+8Q3z3RfPP6MXWbKkmUe55DlgSPHbZE73/uFU3YdLagshZs5KfeRULnHr7qptFXu5a+/lcavwul33FX+y1VMCsp9c48+9Ez3tjsevmiH9KMff3BWLymSZR6nnuW3Hn3uoufLkD/xpw/Z9bSgshRu5qTc95E4u19+Oyko983Up3q/76Zv2x1S+Ltffsxed2q2nmUmp57ll84fELvnSp9vuOVBu54WVJbCzZyU+8joZXf9ZzBxRq7v9cdq9O9igYJ4iZ6/UDdvTzzx/MpiD4/c95Rdx5RsOctsTj1LvYXlnid96iV8t54WVJbCzZyU+8jU5a7invJfouuDcl9fnZG7HZHzp24/YdcxJVvOMptzyPKNtx6zzxXnez7/qF1HCypL4WZOyn0EVOh6H929v75K/j/3+ftTtz1kd0R9fuex5+x6pmLLWWZzDln+4VefsM8T59GHztp1tKCyFG7mpNxHpj5zF/ra/Qcxupz/z33+6n1AtyPqc+o7qJazzOZcsvz5T/+tfa6U/q/zBwHuuq2oLIWbOSn3kXHl7i4TlHsONy33e//2u3Y9U7HlLLM5pyyv+bz/QzaX3PSd7vC9p+11WlJZCjdzUu57gM7Y9cG5KZZ4H5T7+r7zsyftTsn5rz76gF3HlGw5y2zOLcuvPHy2+4O/erx79/mi/7W7TnV/9LXTi78375ZtTWUp3MxJuY+APiy33Q/M7eS6uwnlvr6f+c7TtsidN3xx+n+Eo+Uss0mWeVSWws2clPsIqJz14Tj9IZvlRWsRf/iGcp+/v/mFU7bMS6+4bfqflJetZ5lJssyjshRu5qTcR0Lvn1962VVrlXyUupav34efCpT75t7wpf6C/7k/f7h7cCYvL5JlHskyj8pSuJmTch+Z8s/QDrnpWf5eQ7lvzy+fONtd/8VTiz9D+5//7ET3K597pLttZv9dJVnmkSzzqCyFmzkp911EH6CL33/Xv3ygDucgWeaRLPOoLIWbOSl3sFDu7UqWeSTLPCpL4WZOyh0slHu7kmUeyTKPylK4mZNyBwvl3q5kmUeyzKOyFG7mpNzBQrm3K1nmkSzzqCyFmzkpd7BQ7u1KlnkkyzwqS+FmTsodLJR7u5JlHskyj8pSuJmTcm8Q/UW8Vb+aR7m3K1nmkSzzqCyFmzkp95mi/4hGLr+9gPKv5cl6OcodhyTLPJJlHpWlcDMn5T4j9L/LHbz2xt7SFvGHc+Lv1cd1ymUpdxySLPNIlnlUlsLNnJT7TOk7c9eftVWZq9SXF11U5q7ctS4dMMRBAeXermSZR7LMo7IUbuak3GdKX7m7y/Uy/YHzZR7/SU1d7jogqMuecm9XsswjWeZRWQo3c1LuM2WTcldpq7zjrLwsd1fswpX7cgQAABOj3l9T7iMSJVr+j28qUvdfu/aV6rqMUe6HDh/p3QbO3NuVLPNIlnlUlsLNnJT7iEy13N3L8np/XZdp28rtDSj3diXLPJJlHpWlcDMn5T4iUyh3rXeTD9Rpu1zBU+7tSpZ5JMs8KkvhZk7KfUSmUO6xDbpdfb/Or8Lp+/KT8oJyb1eyzCNZ5lFZCjdzUu4jstvlXv+ee1iXfJyN983rchdR8LEs5d6uZJlHssyjshRu5qTcR2S3y30vodzblSzzSJZ5VJbCzZyU+4hEuccZ8yopd5yiZJlHssyjshRu5qTcR4Ry93Ocl2SZR7LMo7IUbuak3MFCubcrWeaRLPOoLIWbOSl3sFDu7UqWeSTLPCpL4WZOyh0slHu7kmUeyTKPylK4mZNyBwvl3q5kmUeyzKOyFG7mpNzBQrm3K1nmkSzzqCyFmzkpd7BQ7u1KlnkkyzwqS+FmTsodLJR7u5JlHskyj8pSuJmTcgcL5d6uZJlHssyjshRu5qTcwUK5tytZ5pEs86gshZs5KXewUO7tSpZ5JMs8KkvhZk7KHSyUe7uSZR7JMo/KUriZk3IHC+XermSZR7LMo7IUbuak3MFCubcrWeaRLPOoLIWbOSl3sFDu7UqWeSTLPCpL4WZOyh0slHu7kmUeyTKPylK4mZNyBwvl3q5kmUeyzKOyFG7mpNzBQrm3K1nmkSzzqCyFmzkpd7BQ7u1KlnkkyzwqS+FmTsodLJR7u5JlHskyj8pSuJmTcgcL5d6uZJlHssyjshRu5qTcwUK5tytZ5pEs86gshZs5KXewUO7tSpZ5JMs8KkvhZk7KHSyUe7uSZR7JMo/KUriZk3IHC+XermSZR7LMo7IUbuak3MFCubcrWeaRLPOoLIWbOSl3sFDu7UqWeSTLPCpL4WZOyh0slHu7kmUeyTKPylK4mZNyBwvl3q5kmUeyzKOyFG7mpNzBQrm3K1nmkSzzqCyFmzkpd7BQ7u1KlnkkyzwqS+FmTsodLJR7u5JlHskyj8pSuJmTcgcL5d6uZJlHssyjshRu5qTcwUK5tytZ5pEs86gshZs5KXewUO7tSpZ5JMs8KkvhZk7KHSyUe7uSZR7JMo/KUriZk3IHC+XermSZR7LMo7IUbuak3MFCubcrWeaRLPOoLIWbOSl3sFDu7UqWeSTLPCpL4WZOyh0slHu7kmUeyTKPylK4mZNyBwvl3q5kmUeyzKOyFG7mpNzBQrm3K1nmkSzzqCyFmzkpd7BQ7u1KlnkkyzwqS+FmTsodLJR7u5JlHskyj8pSuJmTcgcL5d6uZJlHssyjshRu5qTcwUK5tytZ5pEs86gshZs5KXewUO7tSpZ5rLN84bqru1ff8sbu9N13XbBcn4+eeLx76V1v7l55x4HusfuP2WVwb1SWws2clDtYKPd2Jct5G4WsIi+zfOr2IxsVe1iuz81xb1SWws2clDtYKPd2LbPkTG/eRpaRy7MffJ9dbpXK/5W3X7bxgQGOp7IUbuak3MFCubdjfWYWWXKmt/uqbHVf6T6Ly3ZSxMqse9PrF+r6kaUr57id+kBM13O5K08y3T+VpXAzJ+UOFsq9XZXlTgpGujLBi9X9oyJVKcdl2z2oCsvs4nmpr+uDiHLZKO2h3LRdbh24NypL4WZOyh0slPt0dTvqcodeLruO9XWVpdvJx3Kc6Y1rfT/V3+u+1n0eZ+S19X1f5hnPS62v77Gh62odz9x60+BjSMu9fPAK3m7ZJ5WlcDMn5Q4Wyn26xs54rLM9V+76Wpdp5paN8tHtcaa3M8vsXLabumm5S810oFAeVNSq1FXu23mM4c5VlsLNnJQ7WCj3aaudcLkjrr/f5GzPlbvW1VcGUUCc6Y1jZKX7Ue70gGgn5T5025T7/qoshZs5KXewUO7TdsyzvU3LXUYZlAcUtZTB+sb9Kev7fZMDNblpueu6evVFj584yOhbjoO1/VNZCjdzUu5godyn7Zhnezspd870xlH3kUpame60PF259z1GyseRvlfBK1d3oKjLdvI4w52pLIWbOSl3sFDu0zcKVsbOOYyddsxry7O9TcudM73xjQyGXglZV1fukVlkXi5XF7a2oX41IC7vyxp3X2Up3MxJuYOFcp++2vmOcbbnyl1f1zt9yZne7hj3q7sfN7XMM56Xdcab6g4OcG9VlsLNnJQ7WCj36Rs77J2e7dU7fmXpduaxnNTXcTlnejtX91N9v27X8kChfF7qe5fTKsd6nOHOVJbCzZyUO1go9+k75tleqbKsC39T3cEBeutXQ7arrh9vu0QR18/LvgOxPuNxoO3TdrplcG9UlsLNnJQ7WCj36Tvm2V5pZMmZ3vzleZlHZSnczEm5g4Vyn7Zjne05yyw505u3PC/zqCyFmzkpd7BQ7u1Klnl84vmXu2+fetbOcF4udrLncTMn5Q4Wyr1dyXLe3nH/091bPvVw97oP37/lD338we7Gv+K3FubsYid7HjdzUu4NcvSe+7rLr7ymO/P02d7wKfd2Jcv5eugrj19Q6rVvPl/67no4fRc72fO4mZNyT4YKW8X92kuuuMBLL7uqe+D4yUXYlDvWfumhs92v3XWqu+K2E92Pn/dtdzzcvf+rT9hlcZp+7JtP2kKvPfgXJ+31cdoud7OUe6tEuavAlxddBOWOpb/75cdsCUi9nHvnsWfs9XBa/tgnHrQZOu+4/ym7Dpyuy90s5d4q2y336w/dvDjDj+tR7m34+381/DKu/Bf/+4HuqyfO2uvjNPzi8Wdsdn1e+5eP2vXgdF3uZin3VtlOud9y250XlT3lnt97Hv6u3fE73/5p3qudsh+/74zNrU/ee5+fy90s5d4qUe7l++11cZfl7opduHJfjiAJH/j6eu/Rhqeff5nHwES56+RzNrM+D975KFkmo95fU+4NoJfcywKPcj90+IgtdkG55+fqOx+xO/4+v/DIczwGJsqjz75kM+vz0L1PkmUy6v015d4A+pS8Pi0fL9XrX53RHzhf7LpcZ++LBQtcufe5vAovy89MvTTrdvx93vrNM3Y9OA1/5s9O2Nyceo/erQOn63I3y8vy8D1U7ipy96twUfx1wVPu+f2Vz2125v6XD1IIU/Zzx57p/uFhn13pdV84Za+P03a5m6XcW0XFXRb1uXMvdgevvXGhvtZlZbnH9+Un5QXlnt8jG3wI6wc/9qBdB07LI/c9NVjwv8qn5GfrcjdLubdKnImXH6jTe+7L8YK63EUUfCxLubfhW+9Y76X5w/eettfH6fmtR587f3b+WHfZkePdpR89tvhVxl/8vye72/+Gt1Xm7HI3S7nDzqDc2/Dbp57r/v3/ecgWevjeuznbm6s8L/O42Mmex82clDtYKPe2/PW7TnX/9I+/c0Gp68zv5q8/aZfHecjzMo+Lnex53MxJuYOFcm9TfYr6r0+/0H3tb79r5zgveV7mcbGTPY+bOSl3sFDu7UqWeSTLPCpL4WZOyh0slHu7kmUeyTKPylK4mZNyBwvl3q5kmUeyzKOyFG7mpNzBQrm3K1nmkSzzqCyFmzkpd7BQ7u1KlnkkyzwqS+FmTsodLJR7u5JlHskyj8pSuJmTcgcL5d6uZJlHssyjshRu5qTcwUK5tytZ5pEs86gshZs5KXewUO7tSpZ5JMs8KkvhZk7KHSyUe7uSZR7JMo/KUriZk3IHC+XermSZR7LMo7IUbuak3MFCubcrWeaRLPOoLIWbOSl3sFDu7bqXWT52/7Hu5YNXdKfvvuui2aMnHu9evPbn7WzKvnDd1d1Ttx/pnv/ta/Z923le5lFZCjdzUu5godzbdbtZPvvB93Xdm16/Ui1XXk9F+NK73rwoev3rrlOq5cvrq0B1EKCDgfLy/VI/hwr+zF98euV26WfRsm42hjwv86gshZs5KXewUO7tut0sVdqrikrL1OWu8lOpR2nXZ+yrzuD7yj0OGurL4/bcgUPtq2954wW3q5/PLVda/3yl9TZR7riuylK4mZNyBwvl3q7bzVKl5squdlX5ueuEZTH2FW29zCvvOLA4my5vp1TlrbcGhpYZS8odt6uyFG7mpNzBQrm363azVGmvKiots6rcy3WU71v3naGvWqdmQwVPueMcVJbCzZyUO1go93bdbpYqUXcmXVsWcXkdFZ1UgasAy+vo5fGzN33AlrvKUdcrL5NadxRn+XUt5Y5zUFkKN3NS7mCh3Nt1r7NU0anwotzLslt15q5C1nVdMQ8Veum65V4eiKxj/X59rINyx+2oLIWbOSl3sFDu7bpplipFveztCq7PsuBcuasUVY6xfFxWl/tQOfaVu65TbssqV71nr/WVP8+Q9TYNbf8Y8rzMo7IUbuak3MFCubfrdrJUsal440y1LOx62dq+ctdZu+bxdV3u9W3Wjn3m3ucm5a7t0XbF933lrsvWue9WyfMyj8pSuJmTcgcL5d6u28kyCro+633uxt+84Aw8LIurr9xXnbm7s+DyNuJ6Me9zp+Wu21j3dl55+2WLf+Oy+HnL5fRzrXq1YF15XuZRWQo3c1LuYKHc23U7WdZn0WVhl6WswlKZRUHXy7qyi7nKWv/GevR1FKAraJXkOiXvrruuug333npt/Az1dtQ/r74eq9glz8s8KkvhZk7KHSyUe7tumqWKqO89d5WXllH5qQTr4iqLu1x+U8sDiLhMxSvj676C13XrM+pVxs+zTrFL3XYcmJSXR7nHgYhbZifyvMyjshRu5qTcwUK5t+sYWUZp69fXVOhRWnEgEN+r2KJ0ozCj6PvsK2kVZbncJkUZ5eosDzji51q31KWu37ctsc2brG8TeV7mUVkKN3NS7mCh3NuVLPNIlnlUlsLNnJQ7WCj3diXLPJJlHpWlcDMn5Q4Wyr1dyTKPZJlHZSnczEm5g4Vyb1eyzCNZ5lFZCjdzUu5godzblSzzSJZ5VJbCzZyUO1go93bNmuVNX3+y++nbT3Sv+/D9W/7yZ092X3roGbt8Bnle5lFZCjdzUu5godzbNWOWV58v8bLUaz/ytdP2enOX52UelaVwMyflDhbKvV2zZfnuzz9qC732k/efsdefszwv86gshZs5KXewUO7tminLzz7wtC1y50/+6UN2HXOW52UelaVwMyflDhbKvV0zZfnf7z5li7zPr5w4a9czV3le5lFZCjdzUu5godzbNVOWb73jwg/QrfIT9z1l1zNXeV7mUVkKN3NS7mCh3Ns1U5aUO8/LLCpL4WZOyh0slHu7ZsqSl+V5XmZRWQo3c1LuYKHc2zVTlnygjudlFpWlcDMn5Q4Wyr1ds2XJr8L5Gc5LZSnczEm5g4Vyb9eMWfJHbHDuKkvhZk7KHSyUe7tmzZI/P4tzVlkKN3NS7mCh3NuVLPNIlnlUlsLNnJQ7WCj3diXLPJJlHpWlcDMn5Q4Wyr1dyTKPZJlHZSnczEm5g4Vyb1eyzCNZ5lFZCjdzUu5godzblSzzSJZ5VJbCzZyUO1go93YlyzySZR6VpXAzJ+UOFsq9Xckyj2SZR2Up3MxJuYOFcm9XsswjWeZRWQo3c1LuYKHc25Us80iWeVSWws2clDtYKPd2Jcs8kmUelaVwMyflDhbKvV3JMo9kmUdlKdzMSbmDhXJvV7LMI1nmUVkKN3NS7mCh3NuVLPNIlnlUlsLNnJQ7WCj3diXLPJJlHpWlcDMn5Q4Wyr1dyTKPZJlHZSnczEm5g4Vyb1eyzCNZ5lFZCjdzUu5godzblSzzSJZ5VJbCzZyUO1go93YlyzySZR6VpXAzJ+UOFsq9Xckyj2SZR2Up3MxJuYOFcm9XsswjWeZRWQo3c1LuYKHc25Us80iWeVSWws2clDtYKPd2Jcs8kmUelaVwMyflDhbKvV3JMo9kmUdlKdzMSbmDhXJvV7LMI1nmUVkKN3NS7mDZpNwREXFaUu5godwREecr5Q4Wyh0Rcb5S7mCh3BER5yvlDhY9MBARcb4ud+cAAAAAAAAAAAAAAAAAAAAAAAAAALAWDxw/2R248ppO/y4vuoBbbruze+0lV2x59J77+MTmhLn+0M2dXH67xZmnz3aXn8+5zFJeetlVvdnD3nPu3IvdwWtvvCAjfa/Ll4tsoZzJcdpof1lmKet9qFtG9uUOMEj5gOrbMWgZFYKKQd9rGS1bPzhhf6kLYajcyW7a6Dn2nhs+tLVTj2zrHb0OusvLlCsFPz30XCyfc/paz9H6snI/CzAK2hm4M/fYqWgnsrxoQd+ZIUyDvnwo9/lS7/xdln3PV5gWLifKHXaFvnLvK4P6jAGmBeWeDz3nyp1/33O2L3uYDvE8pNxh19m03HkgTptV5R4v3UtynD6RW5lp33OWA+/po4zqt0+0Ty2fl5KDNNgxlHsu+srdoeXIcrrES7h1YVPu8yRKvN6n1rgDOoCN2bTc2YFMm03KXZnzAclp0lfsou85u0n2sLesW+yB9rMceMOO6NtRxM5FD7LlRQvYgUybTfLpyx72lziw7juIdgfefc9X2H+UySbFLjiJgh0ztIPXg7E8etQynOlNm75yV2bljj/KgB3ItIjiXnWAVu/8lS+/Cjc9lNOqXA4dPnLBPPaz5fMVYG20M4gPb4TuQagHWLkMxT49oqjLnGRZELHD6JvDNHDPy7De2Su/mFHs06PveSnLk6Z6HyvZzwIAAAAAAAAAAAAAAAAAAAAAAAAAAAAAAAAAAAAAAAAAAAAAAAAAAAAAAAAAAAAAAAAAAAAAAAAAQEH8V5l9/wVx/X/Qu//OtnSs/xc7/q/1+vYBAABgBSrj8v+7DqL033PDh7orr77+ormIZTb9/7D1f6OvcxAQ6x/rgAEAACA9cXbsylln6AfOzz75maO95a5l+mZDuFcE+tC2uVcVAAAAwDBUsjH7xreObRW4LpMqXPeSfLmuOHBwy/WpM/rFjRdw9g4AALAmQ6UZM5V4+R57LKvL65fydVlZ7kOU619eNMgm6wYAAJgsOot1BaqSLUsxzpDdWe8Qup7OyN3L3XE7KnP30nvMazcpYK173W3WNugtAl6aBwCAWaMCrd9rVhmqRMtS1FzLlYW/DkOFGbczVO6rztx13bL41zVeHSiJA5hNf0YAAIBJEYUWZRffq3jLYtW8Ltp1cKUtoqT1KfmdlPs6aP3rXEe3o9uj3AEAYNao8FR8cZYehXrsoUcuKDrNNy1V0XfmfujwkcVlWu9Qubuz7k23Y93SptwBACAN5Vm5yjaKPr6OAwAtt7jCBmidKu263ANX7vpaZ/R3fuHere1aLt575h7b6A4G5M8e/K2Vv+qmGe+5AwBAClSY8X56eeZafr+d99vFqgMDV+66HV1n3XLXZSrwoe3TbWiZoQMUzdyBAwAAwOxQeapEdXZblmlcrgKuS3YThkozyj1uK860dVmUdm25rlUHD+sy1noAAAAmg0pWxal/lxct6Lt8E6K43Zl1lPvy24vQLObl10GU8tBZ+zro+qtetgcAAJgVKk2VeF2ScfZcl+qm6Pru7L+v3KO0ZRSu/opdvJKwWGhJ37avSxx87PRnBAAAaIoo6/rs2JW75kMfbNN16oKP9avkh6xvK4pd19U6lhcDAAAAAAAAAAAAAAAAAAAAAAAAAAAAAAAAAAAAAAAAAAAAAAAAAAAAAAAAAAAAAAAAAAAAAAAAAAAAAAAAAAAAAAAAAAAAAMCEec1r/j/zOvvf5Ql5ugAAAABJRU5ErkJggg==;" vertex="1" parent="1">
          <mxGeometry x="-140" y="2000" width="503" height="499" as="geometry" />
        </mxCell>
        <mxCell id="KolLcN7J3gm2r1up9Zn9-2" value="" style="shape=image;verticalLabelPosition=bottom;labelBackgroundColor=default;verticalAlign=top;aspect=fixed;imageAspect=0;image=data:image/png,iVBORw0KGgoAAAANSUhEUgAAAfAAAAH2CAYAAACP9d77AAAAAXNSR0IArs4c6QAAAARnQU1BAACxjwv8YQUAAAAJcEhZcwAAEnQAABJ0Ad5mH3gAAFgLSURBVHhe7b35uxxVufbv3+MPr189Hj1HXw+COIKCR034OuUICEEUNBIRnIiIgAqCqJwgghCGkBESMhFICDEJhCGBJGTceyc72TvszAk7DCLW20/1s7pXVz/V0+7uWtX9+VzXfe3dVauqq+uute5aNb4HAAAAAAAAAAAAAAAAAAAAAAAAAAAAAAAAAAAAAAAAAAAAAAAAAAAAAAAAAAAAAAAAAAAAAAAAAAAAAAAAAAAAAAAAAAAAAAAAAAAAAAAAAAAAAAAAAAAAAAAAAAAAAAAAAAAAAAAAAAAAAACgk7z55tvR9OvvjG6ZOSfSQdAAsr5kvcn600EdYePm7dHZk6ZFA3tH8AcAAMpIMEhASFDooBISUu89Y0pNzV+ypuFg6VboNYIs90SC0fotE11fzgu/TF4DXJbb+v0it97czqNVRmRtkw43/1pljp04FV0wdUZD8wMAyB3SqEkjJ38nF/7WCgoJKJF+bBoJJvkuaVh1UGZ0KsDTdlBcmNQKcGuZxJdml1PKyjQuuNLUyUBLW25/HbkAT25TbvlrLZ+bz+hrRypCOil/fY8Uyuq/AAD5RxpCkTSatQLcBdBEGv1WwqhThBbgLsyS07eyzqSsTGMFmq96Xtaaj/xWLWYi87amE7nf6H6zVUaUtnxuuZLj3fxC2UkEAOgYfihLo2gFuDTUVuMqSjbibn5W2XrqdqMrv7nZYEwLJbceaq0rp7QAT5t3I0oGmQu45M5Ao/jLIv9b24b7rWnfIdNZ61emSwZ4cjtyy5/8XQ5/Hjooxtopk2GtrgcAgGCRxs0Fp99Ii6ZefUs83Gos0xreRkhrfLtNWsAILsBq/b52/o5a67PWcqYhZWWaVpZPliG5U1BrGaS8tfOVNo2/3tJ+t1t+fxkcMs7fmZB5/PLW+2Ill9vNp10+AQAEgWs8XSPrGjvXq5IGuRMB7r7Hapx9XLmf//ae6B//eKdU9u3C/z+9+e7oK5dcF40dPl4xj5mzFkX//tlLo5df3VN3ueT7/QZffot8Frl1Ir8/reFPrhd//dWSm3c8E8XqOTpk+dLGpeGWJelbPeQ3Wd9VbxmsbcStX0uurEj+t8qInDc+zid3JEPOgcvOpj9MEO9kx6LZdQAAEDyugXUNs2iih9ClAbXKNSq/sR0//Wb03Wtvj776neujo8fLvbvhkbHoc1+/Ovo/n7gwWvvcK6Xhb739j+jHv76rqnwa8jvlt1vf3QjJ0HLzs0LHYQWhCzE/fHysaerhlqWZ3+S2B2v5ZdlqneKwfnsry+2w5ie4ZRQl15fb9sQXt067fVoGAKDjuAbukum/KzWyorQATwaBmz4Z4I3iekdWWPj84e750f89/3vRq7v2lsqteHpj3Mv+ry9eEd38p4eif/7zn/G4o8dOxr3yG26fVRpm4Za9ldD2SQtwFzBpajbUWgnCRpfFrX/nR5qf1jbg49apH6rWcsuwZKha5dzyu+UT3DLKURb5a+3wSHn325pdZwAAucA1pMtXbyw1dKJuBbhQr1cnPL1+c9wYS2jLZzmULofUf3XbrOiOexZU9LYl5CXsrYbd4ffSdFDLyDxcWMi62LpjsCp0klhh5YdOq0rOU/6XYVZZX25ZreVyuOCstV6t7cGaZzLoreAX3PK75XPlRO62sbTlkWVIfq+UTft9AAC5Qho5aRz9RlY00UPoPjJvaxqnNRtermr0k+wfPRSd+81rot/+eXb0r3/9K3KfJdg3bdkd/ce53yk18o+tWFfVW/eRRly+15VvBTcPJ1l+CRcZJ+vNDx0Lf33roJq44Ep+Vz3csjQ6jfyutJ2pRpbZLacfqv50/u+oJbe8yXUpn91FlbV2KKzwFtz3N7o+AACCx29kRS7AXYMn46VRTDZ8brwVvq6BTQsEQb5Dvtc13FZjLLjvufiHv4lOvX46Du7/vuhn0WuHj0UnTo5H3/rBTdHv75obvfvuv+KQ/9rlv4qH6+Ql3PelfU8rJNdL8jelyQqYNNw8Z817Iv7rAq0ebrqkb2nIekkra/mfxHnuL5+/bemgEs7XND/c8lu/1w9w97+1ntPUzm0AACAz/EZW1I4Ab6TBd0gDLD0rq5F3yDlPWcadA/vj89vuHLf0yP/3/kXxYXS5sE0ueEs7/y2Ndq0dilZIC3ArdBy1Qs3C/45m1qtblkbLp60fPyx1kIk1fa3fKssky5Y231rrspFlknHWd6cNBwDIHX4jK3IB7hpJGS/BYfVkRDJOZxVTr2FuBVkGueL8oQVPxr1vdz5ccIfR5yxaHR9a98f5yPJYATUROh3gybBx6za5zi3csjQa4FK+0esfkrjvSnru/1b539p+knLl3TytdZkW4LKszmN/3dWaFwBAbvEbWdcwusbUDzxpEF1wSFl5aEZao95Io98Mcrhcgvucb/w4+sKUa+Pz4DrqPe4w+kc+f3n08S9dmXr+uxONePJ3uu/wA8mSW9/xTFKQ9S1lk8vrPGo0VJvxIfl7/BCMCxi45XTbho+/bemgGJm/fI/ICmLBLb/llxXgUs5fX8llb+S3AADkirRG1sc1flJWGl/34Ayr0RZcA9uuBtPd3y0NdPKhLu4wuoxz58l1VBXyO6RcM6FWi7QdFVlP/s6PIOvB6uEmceHmh1ESV6bW+pXhMl7mU0v+d/jfLUpbT365WstgbVvOA7ftpO2QuOW31kEywKWMzNN9Ftw2677bLXPSFwCA3GI1so5ajZ4bl2x4fVwj7AKhltJ2Bhz3z10Rl7MOkcthdLkvXC5mk0DXwSZuuZPfX0tpy5YMcBdO8pvlljJ/ncn/ctW9jK+1PmV8rXXq44LLKt/ourcCMg33faJGltHftmotq+DGuxB2y28tn6w7F+D+/zo6JhngQlpZAIBc4jeyOijGBUq9xk5CrF749hIuBFyQyfpx68pajxbJsHKfW12PMh+Z3gq7LEnbtmrhglt+T9q0jQSxjGv2uwEAAAAAAAAAAAAAAAAAAAAAAAAAAAAAAAAAAAAAAAAAAAAAAAAAAAAAAAAAAAAAAAAAAAAAAAAAAAAAAAAAAAAAAAAAAAAAAAAAAAAAAAAAAAAAAAAAAAAAAAAAAACgRzh04q0IIYRQfqXNOfQbYv7IkTcQQgjlUAR4H0OAI4RQfkWA9zEEOEII5VcEeB9DgCOEUH5FgPcoGzdvjy6YOiM6duJUqsGhBLguznuscaj7UjvwIxCpHfgRiNSOIPwgwANDAleC971nTCnJCuKBvSPR2ZOmlcrcMnNOxXgCHLUqtQM/ApHagR+BSO0gwKEaCeaZsxZVmCLhPP36O6M333w7Hu5CXkJaPstwGe+HOAGOWpXagR+BSO3Aj0CkdhDg0BjJMJ6/ZE1FoAvJMlaAS8BLb90FPwGOLKkd+BGI1A78CERqBwEO9XG9awltHRQHcfKQufTcJxcCW/7KZyv0k4FOgCNLagd+BCK1Az8CkdpBgEM67hy3yIWywwpwCWYJaNe79gPcCm/BCnAdBQAAgZFsrwnwwHE9cP+QeTMBLufTrfAW6IEjS2oHfgQitQM/ApHaQQ8cGiN5eNwK8GQZCXA53y3DpBfvH4J3EODIktqBH4FI7cCPQKR2EODQGMlwbvYiNpnOCnECHFlSO/AjEKkd+BGI1A4CHKqRkHWHwQV3CN3vcScPl1tlrED3r0AXCHBkSe3Aj0CkduBHIFI7CHCoxvWW3QNaRMnD5UKyXLJMMsAFF+KuLAGOLKkd+BGI1A78CERqBwEO2UKAI0tqB34EIrUDPwKR2kGAQ7YQ4MiS2oEfgUjtwI9ApHYQ4JAtBDiypHbgRyBSO/AjEKkdBDhkCwGOLKkd+BGI1A78CERqBwEO2UKAI0tqB34EIrUDPwKR2kGAQ7YQ4MiS2oEfgUjtwI9ApHYQ4JAtBDiypHbgRyBSO/AjEKkdBDhkCwGOLKkd+BGI1A78CERqBwEO2UKAI0tqB34EIrUDPwKR2kGAQ7YQ4MiS2oEfgUjtwI9ApHYQ4JAtBDiypHbgRyBSO/AjEKkdBDhkCwGOLKkd+BGI1A78CERqBwEO2UKAI0tqB34EIrUDPwKR2kGAQ7YQ4MiS2oEfgUjtwI9ApHYQ4JAtBDiypHbgRyBSO/AjEKkdBDhkCwGOLKkd+BGI1A78CERqBwEO2UKAI0tqB34EIrUDPwKR2kGAQ7YQ4MiS2oEfgUjtwI9ApHYQ4JAtBDiypHbgRyBSO/AjAG0bHY+OvfnP2BNrfLdFgPcxBDiypHbgRyBSO/AjAP35+UPR/3f/rmjS4n3R9kKYW2W6KQK8jyHAkSW1Az8CkdqBHwFo8uK9cYCLrPHdFgHexxDgyJLagR+BSO3AjwDkwvvSlQfM8d0WAd7HEODIktqBH4FI7cCPjLVu6GQpwBfuPmGW6bYI8D6GAEeW1A78CERqB35krBvXv1YK8Dfeedcs020R4H1MCAH+3L6T0fQ1o9Gn5w1GD285apZB3ZVuHgRGIFI78CNjfXbuYBzeH5i1K/bEKtNtEeB9TCg9cLdXe9mK/eZ41F3p5kFgBCK1Az8ylmunrlw9SoBD9oQS4F9bMlyqHNZ41F3p5kFgBCK1Az8y1NKdx0pt1LKhUwQ4ZE8oAf7Q9uOlyrHz4GmzDOqedPMgMAKR2oEfGerHq0dKbdS/oogAh+wJJcCPv/XPUuW4e9NhswzqnnTzIDACkdqBHxnqzEf2xO3TRx/eHZQfBHgfE0qAy7K4AP/mkn1mGdQ9xRtHAWsc6r7UDvzIUK59uuLJAwQ4hEFIAX7lqvIhKqsM6p7ijaOANQ51X2oHfmSkh185Wmqb5m07RoBDGIQU4E/ue71USV4YPmWWQ91RvHEUsMah7kvtwI+MNHVF5UW2agcBDtkSUoC/+c6/SpXkDxvHzHKoO4o3jgLWONR9qR34kZE+Nrt4/vuTcwfjz2oHAQ7ZElKACx9+YHdcUb786JBZDnVHageBEYjUDvzIQPLGMdexuGrVSDxM7SDAIVtCC/BrnuY8eAhSOwiMQKR24EcGuvOF4utDRYu2H4+HqR0EOGRLaAH+xK7y/eBPD4TxsoB+lNpBYAQitQM/MtC3llY/ZErtIMAhW0IL8AOF/11lkRcHWGVR56V2EBiBSO3AjwzkTuudt7B4/lukdhDgkC2hBbj8/9l5Q3GF+cy8coVB3ZXaQWAEIrUDP7qsDXvLrw+99uni+W+R2kGAQ7aEGOC/21B+Zd/Q2LhZHnVWageBEYjUDvzosm7yXh+6Ylfx/LdI7SDAIVtCDHA59+0qzeM7jpnlUWeldhAYgUjtwI8u62uL95XaIn+42kGAQ7aEGOAiV2l+tma0qizqvNQOAiMQqR340WV9YFbx/PcFi/dWDFc7CHDIllAD/Ou65/tfs3dXlUWdl9pBYAQitQM/uqjl3utDr//7wYpxagcBDtkSaoDf/dLhUuXZcuD1qvKos1I7CIxApHbgRxd13drRUhu0ek/lLa1qBwEO2RJqgK8fOlWqPLO3HK0qjzortYPACERqB350UZMW7Y3bn/94cE/VOLWDAIdsCTXARS7Apz11oKIs6rzUDgIjEKkd+NFFufbnomXDVePUDgIcsiXkAP/eyv1xBfrgA5wH77bUDgIjEKkd+NElPbKl/PpQua01OV7tIMAhW0IO8PtfPlKqRHJI3R+HOiu1g8AIRGoHfnRJ164pn/9eN3SyarzaQYBD59i4eXt0wdQZ0bETp1INDjnAX9hfPg/+l5cOV5RHnZXaQWAEIrUDP7qk8x8djNudMx8ZMMerHQQ4VCOBK8H73jOmlHTLzDkVJlllRGdPmhYN7B2Jy+Y9wEXuPbyXLq8+D4U6J7WDwAhEagd+dEE7Dp4udRwuf2K/WUbtIMChGgleP7BdWFvDpKwOqqIXAvy6tQdLlSk5DnVOageBEYjUDvzogu7xbmH98/OHzDJqBwEOjTF/yZpo+vV3Rm+++XZsVqsBLjsB0lN304Ue4HO2li8meWIXrxftltQOAiMQqR340QVNXzVSanPkNJ5VRu0gwKExJHgnGuCyE5AM9NADXB7i4irT75/j9aLdktpBYAQitQM/uqBz5xffhnjO/PS3IaodBDjUR85py7ltCWAdZJ4DT4azH+BWeAtWgOuoYPjSY8UHKly0Yj8bKgB0jKGTb5c6DNetfy3I9ibZXhPgAeOCOnkRm4WU8UPaBfjMWYvM8BZC74GLfr2u/Eq/nQdPV41H7ZfaQY8vEKkd+NFhzXzxUKmt+dvm9Dtf1A564JBOM+EtuJ66O6wuf6VnPrkwj2QP3pGHAF/4avmlAgu28VjVbkjtIDACkdqBHx3W9588UGprto6Mm2VEagcBDjYujBsNb0GmkbC2biOzDsMLeQhw6XW7SpV8KxDqjNQOAiMQqR340WF9au5A3M585bHK14cmpXYQ4FBNWtj6SDj74+XiNrnIzb/QzQ9w99m/Al3IQ4CLvrV0OK5Y/71wyByP2iu1g8AIRGoHfnRQq/acKHUU5PZVq4yT2kGAQzUSzP7Fab5c+LqQ98cle+vJABdciLuyeQlweR6xq1wvDPNY1U5L7SAwApHagR8d1J+eL5//nrPliFnGSe0gwCFb8hLgS3ceL1Wu+2tcXILaI7WDwAhEagd+dFDfeaL88qRddS6WVTsIcMiWvAT40KHyefAfrR4xy6D2Se0gMAKR2oEfHZQ891zalylL6j+2We0gwCFb8hLgoqkriufBPzsv/QELqD1SOwiMQKR24EeHtHxn+U6Xm9bXf2CU2kGAQ7bkKcD/8PxYqZI9PcBjVTsptYPACERqB350SLc+W77GZvH2Y2YZX2oHAQ7ZkqcAX7mrfB5cLjixyqD2SO0gMAKR2oEfHdK3lxWP7v3XI3uivYfqPyxK7SDAIVvyFOCis+YUz1PJBSfWeNQeqR0ERiBSO/CjA9r92nj00Yd3x+2KnKazyiSldhDgkC15C/ArVxaflCTvCR8aS39SEpqY1A4CIxCpHfjRAT22vXz++47nx8wySakdBDhkS94C/M4XyvdqPr6j/rkq1JrUDgIjEKkd+NEB3eC9a+Gp3Y1dW6N2EOCQLXkL8DWDJ0uVrZGrRVFrUjsIjECkduBHBzR5cfFth+cuaPwpj2oHAQ7ZkrcAF52j7+v9ZgP3a6LWpHYQGIFI7cCPNuvZveUOwTVPN/58CbWDAIdsyWOAX7VqJK5w//bA7mjLgdfNMmhiUjsIjECkduBHm/WXlw6XAvyhOo9P9aV2EOCQLXkM8Hs2HWmp0qHGpXYQGIFI7cCPNusKvSj236UzMNJ4Z0DtIMAhW/IY4BWHvXisakekdhAYgUjtwI82Sh7P7B6fetGy5k7HqR0EOGRLHgNcNHmRXngyn9eLdkJqB4ERiNQO/Gij/NvHfv9ccxfEqh0EOGRLXgP81y3c+oEal9pBYAQitQM/2qhWbh9zUjsIcMiWvAb44h3+3nNjD19AjUvtIDACkdqBH21UK7ePOakdBDhkS14DfN+h06XHql7Y5PkrVF9qB4ERiNQO/GhCB4cPRf/46aXR+L13VI07ccOPojcu+Xx02e2PNXT7mJvXu1dOjsZ2DRLgEAZ5DXDR958sXkEqL+DfMsJjVdsptYPACERqB340obQAP750UfTO1C/E4S3tR6N3srj5vXXz1QQ4hEGeA/yvm8r3cD74CreTtVNqB4ERiNQO/GhCVoC7YU/f/Nu43Wj29rEj69dF714xKYq2vhB7YpXptgjwPibPAf788KlSgF+9+oBZBrUmtYPACERqR0/7IUEr4Soh64al9aIbkTWtBPA/CwE8/c+L43ZDbh9z5dzhcVdWpvvXZefF07hhIumBR7deS4BD9uQ5wEVf1QtRPjuvXPHQxKV2EOCBSO3oaT8kKCUw5RC3Gyb/WyHaiKwAl/9PXnNJdMY9m+N2w90+5spKOMtn19O2vleWKbrusigaP1U1LgsR4H1M3gP8xvXlW0Ge2HXcLOPLNRKuojaiuMJe9OmWegF5ldpBgAcitaPn/ZB66dfN5GfpIUtPWeqjJT/srQCXeW289ZZSm+HfPubahpMLH66azpeUi378P1F0aNQc320R4H1M3gN8iXc72S3P1n4YQ3IvuxlNpCeQR6kdBHggUjt63g+/nrlAlWFW2XpKC/Clv/5N3F5Yt49JWdkRqNVGyE5EHOBbXzDHd1sEeB+T9wAfPnQ6OltvJ5tS5+1k0hAkz3M1I6nUrYR/HqV2EOCBSO3oeT9cD1uCVCQBLEFsla0nK8Dl9rEHf3Fj3F5Yt4+5AK/1vQQ4BEO3A9xV0ORedfTMsij6wQUthesPnxqJzr1rfXT0sq9UHE5LhrUVwLIcUtav5G4Zk2WlR5B2XqzXpJsHAR6I1I6+8MOFaLJeilzddOOTqncIff91V5UCPHn7mKvfbkc/+d1+OQ6hQxBk0QOXYPT3cOVvfFHIrddWlW1E89Zsi44Uwlsq5v0vFytlsrftKn5yx8GV9Su+FfQi1yBY8+g16eZBgAcitaMv/JB6KPXRr7+tyApwuX1s55UXRp+49+WK28dc++DKSh2XHYK09oKL2CAIsghwt6frAjPeo/1+Ya/aOyQlFSm5d+3LD9ixv9weV0q5svRH+nYyqWR+AyDf8c70KakNgtupkAtYajUcUi5tz7yXpJsHAR6I1I6+8MMFr7UT3YySAS5vH5Pbx45O/XJ069+WVZUTyf9uuHy/v2PvD48evjP2xB+elQjwPiaLAE9W0LhCTGCPVqZ/5Zpp8WExdztZswEuw6W8VWF9SWPglruXpZsHAR6I1I6+8MPVRav3OxHJ28dkJ1929l/6/S1mmXqStoEHuUAwZBHgIglCqaRHNmyI/8o5cFkeq2w9SaC+UKiQEuCiFbuPtxzg0ruv1XAQ4CgLqR194YfUsWRvuB1ybx+bcfN90T+nfqHmjrolv+OhdhDgkC1ZBbgfmPHfQ6MVAS6V2D9knpQfovL/4et/VArw3214raVD6CK3Y1GrnJSxxvWS4o2jgDUOdV9qR8/74dqFdtUxeVrj7RvHoumrRqIzHtkTtw+fmTcY1+N6R9t8ufB2bYPaQYBDtmQV4CKpRBLGUll1cVqqEBLWUhmvubP4eMSpC16tqGxSxjUMVu/aD21XUa0egBtXq4feK1I7CPBApHbgRxPyH/L0Pv3rdFNhnDVNo1I7CHDIliwD3AWv7AXr4rRcIWRerncurwk8csdNFQEucr1sazo/lGV5ZLmSZev14ntJageBEYjUDvxoUD9/ZrQisP0Ad/9LGWvaRqR2EOCQLVkGuPR8XU9XF2dCFeK+zeW3k61/cG5VL1pCOhnqzcjaAehVqR0ERiBSO/CjAc3dVn46o6X33b+z9P+8bUfNedST2kGAQ7ZkFeDJQ9q6OC1VCJmXBOvLO4t73XKl6YEfXhyN3XV7RTl3CLyVEJblbOacWd6ldhAYgUjtwI8GdPHy4VJAi4o97t362f0t6tvLaj+9MU1qBwEO2ZJVgPvnneWzLk7LAS7zcofQRe5pS6IfrR6NNu8vPrQh7fB4LbnD7O26sCYPUjsIjECkduBHA/IDWuT3uP3/Re8vyJpHPakdBDhkS1YBnpQuTssVYsWu49FHHipeZWpJxkkZa1pULbWDwAhEagd+1NGBgqrrf7nX/b77KscR4JBreiHAd4yOl8N7VmUF9SVlpKw1D1QptYPACERqB340oKq6X6NNIMAh1/RCgN/w94OVFbNGhb2+UNaaB6qU2kFgBCK1Az8a0FWrDpTqe/L2saTk/nBrHvWkdhDgkC29EODnzh80K6elz+mjVlFtqR0ERiBSO/CjAa0dPFmq79btY77WFcpa86gntYMAh2zphQCXw2B+payoqEZv3JoHqpTaQWAEIrUDPxrUPS+Vbyl1Sl7Adu+mw+a0jUjtIMAhW3oxwH29P3HbiMiaB6qU2kFgBCK1Az+akNwP/m8PVN8+9uVHh6LHtk/sgla1gwCHbOmFAP/q4/tKldOUd+XpBYv3mfNAlVI7CIxApHbgRxOSt4+5en/Fk/ujh7ccida0eMg8KbWDAIds6YUAv9s4XJamu15s/bBZP0ntIDACkdqBH03IvX1M9NTuE2aZVqV2EOCQLb0Q4KJvJ56+ZOni5fS+G5XaQWAEIrUDP5rQ5MV743p/7oIhc/xEpHYQ4JAtvRLgQ4fGo8tWpIT4fTujqYVxQ4dOm9OiaqkdBEYgUjvwo0E9u7d8Jfo1T7d2q1gtqR0EOGRLrwS408OvHIkuf2J/dM78oegjD5UvXJH3AlvlkS21g8AIRGoHfjSov3in1R7acsQsMxGpHQQ4ZEuvBbivBwth7irxXydwy0g/Su0gMAKR2oEfDeqKlcWHufz7A7ujLSPF9yC0U2oHAQ6dY+Pm7dEFU2dEx06cSjW4lwN8y8h49EG9jeT7Tx4wyyBbageBEYjUDvxoQHKq7MxHBuJ6f1GLbxurJ7WDAIdqJHAleN97xpSSbpk5p8qkgb0j0dmTpqWW6fcAF11YqMBSkc+aMxDt4xx4w1I7CIxApHbgRwNatP14XOdFv3/uNbPMRKV2EOBQjQSvH8Yu0K1hUlY+v/nm29H06++sKEOAv1GowGOlyrx4xzGzDKqW2kFgBCK1Az8a0HVrR0t1ftWe9t4+5qR2EODQGPOXrIkDWoLa+iwkA9sKcAl46a274O/1AJf7P11l/vW6zuyN96LUDgIjEKkd+NGAzl9YfDfClx5t/+1jTmoHAQ6NIcHrB7Z89nvbghxSn1wIbPkrn5MBLqGfDPReD3DRufOH4go9edFeczyqltpBYAQitQM/6milt8P+qw6+eVDtIMChPu5ctwSwDjIDXIJZAtr1rv0At8Jb6IcAv2b1SKlSy/2hVhlUKbWDwAhEagd+1NHNG8pPX1vSwVNmagcBDrVxoZwM62YCfOasRWZ4C1aA66ieYdnQqVKlnr3jRM/9PgAo8k29aPXzC/f2bD1PttcEeKCkhbdgBbh1CF3Od8uwZA/e0Q898O2j46WHuly6Yr9ZBlVK7aDHF4jUDvyooXXejvq1HXj6mi+1gx442LjD5lZ4C81exGYdhhf6IcBF3125P67YH3pgd/TKgfY/2KHXpHYQGIFI7cCPGrpjY/mOk7lbj5pl2iW1gwCHatLC1id5uLyR28hcj9xNI/RLgN+zqfxUtr9t5qls9aR2EBiBSO3Ajxq6cGnx8Lk8xGXP2LhZpl1SOwhwqEaC2z2cJSk/fF3Qu3HJ3noywAUX4q5svwT45v2vl17uL49ZtMqgstQOAiMQqR34kaIXh1+P3q876NOe6nz9VjsIcMiWfglwkXvl6Mdm74l2HuSpbLWkdhAYgUjtwI8U3e29vGTWy50/wqZ2EOCQLf0U4He+cKhUyeWtZVYZVJTaQWAEIrUDP1IkbyCUev3hB/dEWzvw8pKk1A4CHLKlnwL8uX3lq1R/tLqzV6nmXWoHgRGI1A78MFS8y2RPXK+ndukuE7WDAIds6acAF33j8X1xRT97zkC0l5ebpErtIDACkdqBH4b81wbPfPGQWabdUjsIcMiWfgtweTuRq+wLXuXlJmlSOwiMQKR24Iehq1aVn7S4cV93nrSodhDgkC39FuBrBsrPSv7ZGg6jp0ntIDACkdqBHwkNHRqPPjGn+O7vKUs68+5vS2oHAQ7Z0m8BLpr02N64wp8zf9AcjwiM0KR24EdCchTN7ZDf1qF3f1tSOwhwyJZ+DPCb1pcPoy/lHeGm1A4CIxCpHfiR0M+eKb/7W46uWWU6IbWDAIds6ccAX7H7eKnSd/KVg3mW2kFgBCK1Az8SOndB8VXBclTNGt8pqR0EOGRLPwa4yL30/78Xdu6l/3mW2kFgBCK1Az88Ld9ZPnx+47ruHT4XqR0EOGRLvwb4jL+XD72t2tO9Q295kdpBYAQitQM/PElouzosYW6V6ZTUDgIcsqVfA3zR9vJh9N9t6O7eex6kdhAYgUjtwA9P7mJUOYxuje+k1A4CHLKlXwP8QEGfnVs8jP7Vx/eZZfpZageBEYjUDvxQVdwO+syoWaaTUjsIcMiWfg1w0TVPlx8AsW7wlFmmX6V2EBiBSO3AD5XcMubqbhYPZFI7CHDIln4O8LnbjpYagTueHzPL9KvUDgIjEKkd+KGSh7ZIvZWHuMjDXKwynZTaQYBDtvRzgA+MnY7OeqT4FKdvLe3eU5zyILWDwAhEagd+FCSPS3U73vIYVatMp6V2EOCQLf0c4KJpT5UPo78wzGF0J7WDwAhEagd+FCQvLHF1Vl5kYpXptNQOAhyypd8D/AHvTUZ3vXjYLNOPUjsIjECkduBHQfLKUKmv8gpReZWoVabTUjsIcMiWfg/wVw/67xLmMLqT2kFgBCK1o+/92DryevThB4v19fInuvPub0tqBwEO2dLvAS6ShkAahA89sDvacuB1s0y/Se0gwAOR2tH3fsx6+XBcV0V3v5TdETO1gwCHbCHA34ju3lRuFO7bzGF0kdpBgAcitaPv/Zj21IG4nr6/oBeHs9vZVjsIcMgWAvyN6KXhU9EHZhUD/MqVB8wy/Sa1gwAPRGpHX/uxZ2w8OlPvGrkw47tG1A4CHLKFAC/q4mX74obhY7N3R7sOZnNhTEhSOwjwQKR29LUfc7d6z23YmO1zG9QOAhyyhQAv6k/Pl29NmZ3RrSkhSe0gwAOR2tHXflzrPzlxKNtbPtUOAhyyhQAvasPe8sMhfrQ6m4dDhCS1gwAPRGpHX/vx2XnFd39fsLi77/62pHYQ4JAtBHhZ33i8eBj9k3MHo+FDdpl+kdpBgAcitaNv/Viyo/zu75sDeHug2kGA55WBvSPR2ZOmRe89Y0qqZLyU00mChAAv61bvBQmPbu/+CxJCktpBgAcitaNv/fjV3w+W6ubK3dm/v1/tIMDzxrETp6ILps6IA/qWmXNqrjgZL+WkvEyng4OCAC/r6YHyYfSfZ/CKwpCkdhDggUjt6Fs/vvRo8fD5+QsHzfHdltpBgOeJjZu3NxTcSaR8qL1xArxSkx7bGzcU5y4YMsf3i9QOAjwQqR196ceqPeV3f1+3Nowda7WDAM8TEuAi/dgUy1dvJMBrSBcn8wpx4/ryYfRlO4+bZfpBagcBHojUjr7046YN5Tq5aHsYdVLtIMAhWwjwSq3YfbzUWNyw7qBZph+kdhDggUjt6Es/3OHzzwd0VEztIMAhWwjwap23sNhgfLnQcFjj+0FqBwEeiNSOvvNDjoK5HeoZa8PZoVY7CPBeQs51W4fY5dD51KtvCfJCNgK8WtcVGgrXaMj5N6tMr0vtIMADkdrRd37M8K4+D+mUltpBgOcVCeVf3npf9Oabb5dWXlqAy/D5S9YEuZIJ8GrJeTbXaIRwz2kWUjsI8ECkdvSdH+fMLx4N+2IgV587qR0EeF5pNMBD7n0LBLgtdxhdzr9Z43tdagcBHojUjr7yY+Gr5Ye33BjY9ShqBwGeVxoJcBk3/fo7g+19CwS4LbmAzTUeS3f230Nd1A4CPBCpHX3lxzWry88+fyqAh7f4UjsI8LzSSIDLZ5F+DBIC3NaT3tXoodx72k2pHQR4IFI7+saPgbHx6JNzi68Onbwo+2efJ6V2EOB5pVaAu563yB8fIgR4uv7/xcWHunxunjwb/bRZpleldhDggUjt6Bs/Hn7lSGkH+ncBXoeidhDgeSUtwN1z0EPveTsI8HTdtnGs1IgseLW/DqOrHQR4IFI7+saPaU8eKNW9NYPh3QmidhDgecJ/Dnot5SW8BQI8Xf4rRuV8nFWmV6V2EOCBSO3oCz+2jY5HZ87eE9c7eUOgVSZrqR0EeF5J64HPmvdE6S1l1i1loUGA19bFy4bjhuSsRwainQf75zC62kGAByK1oy/8uHfTodKO8x82jpllspbaQYDnlXoXscl4CfKQr0AXCPDaunvT4VJj8vCWI2aZXpTaQYAHIrWjL/y4/In9pTonR8GsMllL7SDA80q9ABdciIfcEyfAa2vLgdejjzxUPJz3gycPmGV6UWoHAR6I1I6e9+Ol/a9HH314d1zfLloW5uFzkdpBgOcN6VHL4fHJU2fUDXBByod8NToBXl/f1wtqPvLwnmhzoYGxyvSa1A4CPBCpHT3vx/++WD7idecLh8wyIUjtIMDziOtZJy9YswJcglsCPNReOAFeXw9tKd/Scs9Lh80yvSa1gwAPRGpHz/txyfLiNSf/9sDu6IX9p8wyIUjtIMDzjLsqXcJcQt0KcCHkXjgBXl+DY6ejs+cUHyoxdcWwWabXpHYQ4IFI7ehpP9bvPRV9qBDcxXq23ywTitQOArwX2LpjMA7ntACXcOdtZLWlixNsA/WTNcXHOn5g1q5o/VCYF9a0U2oHAR6I1I6e9sN/7sJfN4V9wajaQYBD55CdCTlCUGvHgQBvTIu2l1+s8OeAz821S2oHAR6I1I6e9uNbS4uHz//jwd3RlpGwrzVROwjwfkB658tXb2xpJUuv3j/P7kh7qIw7nC9lCPD26vyFg3ED8z+FhsYa30tSOwjwQKR29Kwfq/eciI9uSf363sqwD5+L1A4CvB+QQE1esV4Ld+GbC+VaAV7r4jgCvL26cf1rpV74qkKDY5XpFakdBHggUjt61o/fbijXrVkvh/+8BbWDAM8b7jYyF6wSku5zUhKeo68dmdBV6PV64M0GuMxLls1NR4A3Lglt18jc8mx4L1hop9QOAjwQqR0968fXH98X16uPzd4T7cjBEw/VDgI8b0iAS/hJr3rmrEXx/xKK7rOEpXx2f2WYFcCNItNa07cS4LLsyUAnwJvT17ShuWBxuA+ZaIfUDgI8EKkdPenHsp3lV/dOeyofD0tSOwjwvNFsgMvwidw+Vi/Akz1+P5z9ALfCWyDAm9Pt3pWyS3b07hvK1A4CPBCpHT3px6/XlQ+fz34lH48rVjsI8LzRbIAnA7NZ0gLcQsr5Ie0CXJbLCm/BCnAdBQZDJ98uNTa3v3SYdQUwQb6+pHhU61PzBqM33nmXOlWHZHtNgDdByAEuy+A/e13+Ss9cHvsqw2XZ44Ie9MCbl3ta1HkLB6M9Y+NmmbxL7aAHHojUjp7z41Hv9sw8vbJX7aAHnjdCOYRuId8lYS1/5bMsm+t5yzArxAnw5uW/oWzett48jK52EOCBSO3oOT9m/P1gqS4t2HbULBOi1A4CPG80G+AyrNEAtpBprenle/0wdree+Y9s9QPcffavQBcI8Oa1dXS89IYyeUKbVSbvUjsI8ECkdvSUHwNj49EX9dkKn5k3GA0fzs/79tUOAjxvSGi6i8YkWF0oWpLwlNvI5B5w1ytuhOR94E5+kLseddp4IRngglteV5YAb03Tnio+WvWzcwfjQLfK5FlqBwEeiNSOnvJjztajpd73z58ZNcuEKrWDAO8HJDStXnQIEOCtafaWcuNz/8u994YytYMAD0RqR0/58dM1o6U6tHh7vk5FqR0EeF6RXq28oMT1rOWz9Jr93q5DhkmAT+RceKcgwFvT0Nh49Mm5xTeUSW/cKpNnqR0EeCBSO3rGj22j49G584fi+nPewiGzTMhSOwjwvJIMcHfY2z+/nAcI8Nb1U31D2ZmPDETP7wv33cWtSO0gwAOR2tEzfvjv2P/V3w+aZUKW2kGA5wkJbTmn7J93blT+xWUhQYC3rsU7yrfA/OWl3jqMrnYQ4IFI7egZP65+urjzK1qx67hZJmSpHQR4Xkn2wAX533ppiQznfeC1pYuTuwbq/EeLhwG/80T4b1BqRmoHAR6I1I6e8GPz/lPxVedSb75UqD9WmdCldhDgecUKcGuYQIDXly5O7hoo94YyeYfxmsHeeUOZ2kGAByK1oyf8eGJX+aVAN28YM8uELrWDAO8lpOctF6uFGNRpEOAT0+qBk6XGSJ6TbpXJo9QOAjwQqR094cePV5cPn68eyOdOr9pBgOcJuUCt1YvUJjJtJyHAJy73KsT/WdI7byhTOwjwQKR25N6PfYfeiD70YPEhSN9eNmyWyYPUDgI8T0gAywVpyceR1sM9/IUAT5cuTi4bqDueL7+hLI8X5FhSOwjwQKR25N6PezaVrz6/f3N+L/xUOwjwvCHns90T0OoFuQtuKZ88Lx4KBPjE9dy+8mH0/33hkFkmb1I7CPBApHbk3o+vLS4erZKL2AZz/CIgtYMAzyv+I1VrqdneerchwNujy5/YHzdMkx7ba47Pm9QOAjwQqR259mPd4KnSjm4e7/32pXYQ4L2AXLTm7g9PPns8dAjw9sh/tOqqPfm/Gl3tIMADkdqRaz9mrC2/eWzN4EmzTF6kdhDgkC0EeHu0//Dp6Nz5xXtbe+ENZWoHAR6I1I5c+3HWnOKjhy9dnt+L15zUDgIcsoUAb59u2lC8J/w/H9wT7TuUn1cjWlI7CPBApHbk1o/Kl/8cMcvkSWoHAQ7ZQoC3T+sGyxez3ZfjK2xFagcBHojUjtz6IbeMSb2Qi9eGcr5zK1I7CHDIFgK8vZJHqkpD9c0l+T5MqHYQ4IFI7cilHy/tf720Y3vDunxfvOakdhDgkC0EeHv14Cvl+1zXDeX3DWVqBwEeiNSOXPrxOz21JOqVxw2rHQQ4ZAsB3l4NHzodfU4vZsvzrTJqBwEeiNSOIPwY2zUYvXvl5Oj40kXmeF9SJrro09GDv7ix4YvXxu+9I56mkflnJbWDAIdsIcDbr1+vK94uc9YjA+b4PEjtIMADkdqRqwCXcm99b3Ic3lIfHnil8YvXJMTlO2Qe1vispXYQ4JAtBHj79Yx3MdsjW/J5xa3aQYAHIrUjVwEuITxy1cXRGfdsjj43f6ipOzMODh+K/vHTS4vzMMZnLbWDAIdsIcA7o0uWF6+6lcOG0tA12ps4sn5d9K/Lzoveuvlqc7wld5iynY2d2kGAByK1o2k/0oJQtrN3r5gU//WHNyIrwN026LZb+d63Ct87W3vf8tpdGS7LkTw87rb55DI2U2+6LbWDAIdsIcA7I7nX1fXCBxcuaKghco1tM+HtJI2dNIKtNMiW1A4CPBCpHS35IcGY3P5kG5NtTbY5v2wjSga4C+BkKL/x3a9El93+WFwH1npPXvOXp1ZPW8a/M31K27bpdkrtIMAhWwjwzmjo0Hj0mXnFJ089cd8jDQX4RHsc0ii3Ev6W1A4CPBCpHS35kQzc5GeR/C894zT5Ye9Pb4W3m9++aRfFh88vW7G/Ypy/oyrBnbYj4col5x2C1A4CHLKFAK+UNBZWiLYSjnIVugT4bbfNKjV40ti5RjHZMFnfIWWkrN9DcQ1osqw0pq0eFk1K7SDAA5Ha0bIfsq24oLR65M3IbX+n7/yNGd6iV+ctiHZeeWEc4HJrZXK8C/56yyHLbfXOs5baQYDnEffyEv9NY/Kub+u1oVIm5BecEOCVco2T32ik9TLqafWeE3GAz7j5vqpeTLIRdd9rfYcMk+93wWwFvaidPRa1gwAPRGpHy364bejYqifjbWQioei21TiACzuM/nbt9NhfZ8cBfsHsLdHw4crpRa5O+du1JQK8vgjwJiHA2y9dnCAqhDQYybD1P7ugdD1pSy5EL142HAf4qcu/UtHTkEbL7y3LXznf55fx5XpQJxc+XLPX0q4GT+0gwAOR2tGyH/42a4WmbK/JbdiXv/37O5tuvv54Cexbbr0/DvDbVlffSummke3UbdduWqtcO3ZI2y21gwDPIwR4+6WLE0SFkMZNGjlpOFxj1Woo/m3T4TjAj1z2lWjLK7tLw5sNcLcc9XosrlG0xjUjtYMAD0Rqx4T8kG1Dwnii24cf4P5nN195D4BcvHZ06pejbU8+UzGtyA/t5LS+ZBwXsdUXAd4kBHj7pYsTRIVwe/7SqEgjJQ2MNCZW2XraM3Y6uvX398cBfu/KV0rDWw1waYBr9UgI8N6U2jEhP2Qbczum1vhG5bZFfz5umOgn81+Mz30f+OHFVTu+8jm5Eyrzke06WVaGp/XOs5baQYDnEQK8/dLFCSYwXKNi9VhcwLvxlvzGbdE9s+MAv+zBjaVhzQa4LINIGrlaOxSujDWuGakdBHggUjsm5Idsk7W2nXZInv8v132Idvzx9y0HsKtj7diWOyG1gwDPIwR4+6WLE0xguB5FvUPWjWj7/AVxgJ971/rose3H4mHJAHff5we/kx/armGzGkY3zppHs1I7CPBApHa07Ee3AvE3G8bi8D53wVA0unMg3m5b+U5/m7fGZy21gwDPIy7A33vGlIZEgNeXLk5QgSG9WSsom5UE6snvFAN8+qqReFgywEWul+0+i2TaZI9eppEdi2RZGV6rF9+M1A4CPBCpHS37IdtPO3ZGk3ph/6noj8+PRVevPhDrrDnFZx/cpE9ec9tvMyEuZZPbfGhSOwjwPEKAt1+6OMEERrt7LPdsKj6Z7YMP7I4273/dLCMN1kR6HdYOQKtSOwjwQKR2BOXHzd5rQovaWfr/mjWj5jS9IrWDAIdsIcBtTTRMk9p18HR01iN74sbtT8/bPXq309BKCLe7h6V2EOCBSO0Ixo9fPDNaCutq7Y7/Shlr2l6Q2kGAQ7YQ4NWaSJDW0i/WFhu9c+YPRb9dfzDWQ1uOREPeW5rSDo/XUiuHKetJ7SDAA5HaEYQf87cd88K6tqSsNY+8S+0gwCFbCPDuaYY+WjWpjzy0O7rrpcPmNFlJ7SDAA5HaEYQf315WfNNequ4r/y9lrXnkXWoHAQ7ZQoB3R7e484WzXONWPl/oJGWsabOQ2kGAByK1Iwg/ktttPVnzyLvUDgIcsoUA77yW7iwfcnyf17C9zwhxKWvNo9tSOwjwQKR2hBngpZ1SUfU2bc0j71I7CHDIFgK887p85f6qRi2Wd6jRScpa8+i21A4CPBCpHWEGuF609n79m5Q1j7xL7SDAIVsI8M6rulGr7qX4subRbakdBHggUjuC8OOqVSPmdmtt11LWmkfepXYQ4JAtBHhndeBw8+cMZRprXt2U2kGAByK1Iwg/1g6dNLZbu/ctZa155F1qBwEO2UKAd15Ww5bW4ImseXRbagcBHojUjmD8+Oumw7q9Fnvd1vUcUsaathekdhDgkC0EeOd1xZMHqhq3SpXDXMpa8+i21A4CPBCpHUH58cOn3HZdGd5fXDgULXy1N+//dlI7CHDIFgK881qx63hFA1dLUtaaR7eldhDggUjtCMaPfYdOR59fMBRvsz9/ZjR64JUjsVYPnDDL95rUDgIcsoUA745+/1zyudHVkjLWtFlI7SDAA5HaEYwf9+oh9DNn74m2jo6bZXpZagcBDtlCgHdP9xQavY8XGrxyaJcPPV6yPIzbx5zUDgI8EKkdwfjx9cX74u32l2sPmuN7XWoHAQ7ZQoB3VwcKmrftaHTbc2OxvreyeB7xk3MH48OS1jRZSO0gwAOR2hGEHwu8Z6GvGzxllul1qR0EOGQLAZ6tXhw+Ff3nQ+4tZWNmmSykdhDggUjtCMIP92CiHz7Vm/d4NyK1gwCHbCHAs9dP1hQfjPHfjw6Z47OQ2kGAByK1I3M/Vu05Uep9L95+1CzTD1I7CHDoHBs3b48umDojOnbiVKrBBHj28hvF+zeHce+s2kGAByK1I3M/rn26uLN54bKwrtnottQOAhxqc8vMOZFIP1YwsHckOnvStOi9Z0yJlSxHgOdH39PDkt9css8c322pHQR4IFI7MvXDP91z/8u9+5CWRqR2EOBQzZtvvh1Nv/7O1GAWJJQlnCWk5bObxi9LgOdHj75avjBoyY7sH4KhdhDggUjtyNSP3zw7Fm+f5z86aI7vJ6kdBDjUJq0HPn/JmjiwJbh1UFVgWwEu85KdAhf8BHg4mrJ0OG4gL38i+8OTagcBHojUjsz82P3aePSZeYPx9nlHQBdbZiW1gwCH2qQFuDVcDqlPLgS2/JXPyQCX0E8GOgEejma97J4vvSt6bl+2t+eoHQR4IFI7MvNj5ov9/eCWpNQOAhxq00yASzBLQLvetR/gVngLVoDrKMiASe4BGRvG8AGC4Rt6dOjWFw6zXWZMsr0mwAOmHQE+c9YiM7wFeuBh6Y8bi+cZP/jA7viwpVWmG1I76IEHIrUjEz9mv3Ik3iZF/frglqTUDnrgUJtmAtw6hC7nu2WYXK0uvfC4oAcBHpa2j4xHZ88ZiBvLmzZk92x0tYMAD0RqRyZ+XLK82Pvu5we3JKV2EOBQm7QAb/YiNnfLWTLECfDwdOP64otPznpkwBzfDakd+BGI1I6u+7Hce5NePz+4JSm1gwCH2qQFePJweSO3kbkeuZtGIMDD03P7TkYfeqD4jvC7X8rmflu1Az8CkdrRdT+mr+LBLZbUDgIcqkneB+6UDHLXq04bnwxwwYW4K0uAh6lrVhcbzi8szObxqmoHfgQitaOrfqwfOhX926zijmS/P7glKbWDAIdsIcDD1Erv0OWj27v/YBe1Az8CkdrRVT9uWHcw3v54cEu11A4CHLKFAA9X33mi+HhVefeyNb6TUjvwIxCpHV3z49WD49GZjxQfm8qDW6qldhDgkC0EeLha4D1ede3gSbNMp6R24EcgUju65scfC6Et2x0PbrGldhDgkC0EeNj6xuPFB7t8/8kD5vhOSe3Aj0CkdnTNjy8uHIq3u1+uPWiO73epHQQ4ZAsBHrbu3VR+vOqrXewJqR34EYjUjq748ZeXytscD26xpXYQ4JAtBHjYGj50OjpvYfElEtf/vXu9IbUDPwKR2tFxP4YOjUfn6/b2kzWjZhlEgEMgEODh63Z9vKpIAt0q026pHfgRiNSOjvvxx+cPxduZPIdg3RC97zSpHQQ4ZAsBHr62jLwefUIfr3pDl3rhagd+BCK1o6N+7BgtvzL0urX0vmtJ7SDAIVsI8Hzo1meLj1cVSUNrlWmn1A78CERqR0f9cNvYx2bviV4cpvddS2oHAQ7ZQoDnQ7sOjkfnzC9eGXzt051/qYTagR+BSO3omB9bRsajs/S+b3kWv1UGlaV2EOCQLQR4fvRnPT8p6nQPSe3Aj0CkdnTMj/ILdPbEYW6VQWWpHQQ4ZAsBnh8NH34j+tKjxV74Dzp8X7jagR+BSO3oiB+yMyiHzWW7ksPoVhlUKbWDAIdsIcDzpXu8e3TXdPDpbGoHfgQitaMjfsgFa7I9yQVs3bi+ohekdhDgkC0EeP70NX062yXLh83x7ZDagR+BSO1oux9yq5h7da3cQmaVQdVSOwhwyBYCPH966JUjpV740p2deVOZ2oEfgUjtaLsf8rAW2Y7k4S3yEBerDKqW2kGAQ7YQ4PnURcuKvfBvLOlML1ztwI9ApHa01Y/Ve06UdgTl8alWGWRL7SDAIVsI8HxqwbajpcZ37tajZpmJSO3Aj0CkdrTVj+mrR+LtZ9Jje83xKF1qBwEO2UKA51fufeFffnTIHD8RqR34EYjUjrb5sWLX8dIO4N820ftuVmoHAQ7ZQoDnV8t2dq4RVjvwIxCpHW3z44qVB+Lt5uuP7zPHo9pSOwhwyBYCPN+a9lSxIf7svMG2vuhE7cCPQKR2tMWPxTuOlXb8HtpyxCyDakvtIMAhWwjwfGuVdyHSn9p4G5DagR+BSO1oix9TVwzH28uFSzt3G2KvS+0gwCFbCPD865qnixcjfXz2nrY9iEPtwI9ApHZM2I/528q9b/nfKoPqS+0gwCFbCPD8y38Yx283tOdRmGoHfgQitWPCfkivW7YT6YVb41FjUjsIcMgWArw3NEMfh/nvhSBvx4tO1A78CERqx4T8kPPdrvct58GtMqgxqR0EOGQLAd4bktD+L30hhTzb2irTjNQO/AhEaseE/JArzmX7kCvQrfGocakdBDhkCwHeO7p5Q/GVkKKJvuhE7cCPQKR2tOyH3Gbotg25B9wqgxqX2kGAQ7YQ4L2jbaPj0afmDsSNtDxlyyrTqNQO/AhEakfLfsjT1tqxXaCi1A4CHLKFAO8t/eH5sVJPayIvOlE78CMQqR0t+XHrc+VtQp5/bpVBzUntIMAhWwjw3tLA2Hj0hQVDcWP9nRX7zTKNSO3Aj0CkdjTtx5qBk9GHHyzeoXDDuoNmGdS81A4CHLKFAO893fVS+Xzn/S+39ohVtQM/ApHa0bQfl+vz8s9bOBjtfq19T+rrd6kdBDhkCwHem3JXHJ87fyja2sLDXdQO/AhEakdTftztXbj24Cs8MrWdUjsIcMgWArw3tXh7+XWjP1vT/G1lagd+BCK1o2E/Ng2fij41bzD2//tPcttYu6V2EOCQLQR47+qXaw+WQnzhq81d0KZ24EcgUjsa9uMafdf3Rx7aHa0bmtgthahaagcBDtlCgPeu5Jzn+Y8We2GTFu2Nhpp4W5nagR+BSO0o+XFk/broX5edF71189VVZedsLR99ue25sdLw40sXRdFFn47G772jojxqXmoHAQ7ZQoD3th7ZUm7Mb1rf+HPS1Q78yFgSuhLU0dYXYk9k2MHhQ9E/fnqpGd6DY6ejLz9WvAvha8a7vt38ZAcgOQ41rrhyFLDGdVsEeB9DgPe+rl5dfGe4qNGncKkdJT8kLJpp+F3IvHvl5Ghs16BZBjUutSP2Q0I4bb3euK582uTR7fZpE/HSCn/UuNQOAhyyhQDvfW3afyr61NziofQLl6XfG+737NSOUmC00mur1VPsNUmYSqjKuvKH1wrbWnLrTg55y/TRodHYExlnBbB8j5R98Bc3xj5f+/RIaZmSZcXHd6+YRC98AoorRwFrXLdFgPcxBHh/6J5N5TdR3fF8+bxomtSO97ggafW8aT+FhQSlrCtZZ/K5HTswbgfABXjajoLob39+MHrjks9HP75zcbR5/+tm0IvcclnzQI0prhwFrHHdFgHexxDg+ZWEqh8YolqB+92VxYd6fPThPdG6wepXjvrTqh3vsQLYlUv2LGU6q6eeFiS9puS6stadrCPpKacpuZ6SAS7zemf6lKoe/Z+ePxR7u+6q70dHr/52dHLhw1X++JLvsbYR1JjiylHAGtdtEeB9DAGeX0ljLoHp96Tk/7TD3RLaEt7S0EuYJ8dbAS7/J3cS/LIucKywcpJlsubRa0quE/k70d/dSIA/u/dk6VWy1857MS5f75SH+JrcWUCNK64cBaxx3RYB3scQ4PmWNMJ+Q5z87A65Wr09kd/QuwDyA1zmldZTk+lkeuntuenSylm9xl6UrANZ30c2bIj/+jtXraiRAJ/2VPGeb9HajTtKftf6bgJ8YoorRwFrXLdFgPcxBHi+JY20C2EXqPVCQy5kk8ZeLmyTC9zc8GYDXCTjJCxqhYGEjYSOLJ81vpfk7zDJ3+ROi1tfaUqux3oBPuvl8uNS5WUlMr3zzPp+p3q+otqKK0cBa1y3RYD3MQR4vuUCQxpjUSOHbOVWMtfoyy1mbvhEArzW98oy9kuAi2SdyTqptd4aVTLAnd8yfPvoePR5ffOcvKzk+F/Loe28tHxx4+rt6KF0xZWjgDWu2yLA+xgCPP9yIWqFhmvw3fik5KrlNY+vjss2G+ASyHLe24VMrXL9cghdJOuj3jnoRpUMcBkmnoiuWzta2hF79uG5sZ9+KMv3y3JIWTfMDe8nPzqhuHIUsMZ1WwR4H0OA51+uoXa9L6tMUvJYVXm8qjT+8rhVeeyqFeDyv9WLczsGLrQlOJIB4iTDrHn0qtLWWSuyAlyGvfW9ydG5d62P/Wv2ZSVuB8AahxpTXDkKWOO6LQK8jyHA8y8XvM02yvKCE9eDkxefWAEuOwdpt5ElQ0q+3+p5ynAX9L0ut2Nj7ci0IrczEI2fKgW4rPN90y6Kbxlr9mUlslztOjrQz4orRwFrXLdFgPcxBHj+NZHQkFeNuhCXV5C64WoHD3JpUrKemjkSYsn5KUc03pn6heiWvy2PPjFnINa3lg5H/1PQZbc/Fp/+2PuLq8x5WJLtQ+bZLztTnZRWDwIcOsfGzdujC6bOiI6dKO69WxDg+Zfrpfm94Ua1dXQ8Ond+8UKor+vLL/YdOh3tOf5WrOHC/6322lz4c7i2ee0o+CJB7XauSpq1u/T/lCXVLytB3ZE2VwQ4tIaEsoTze8+YUqGzJ02LBvaOxIYS4L2v5LnoVnS/dyvSORrmvuQ+45O//lFTIe7Ce6K90X7VZL0+oVI7KwL8iwv3mtOizkubKwIcWsMFuIS0DqqCAEeN6tLlRm/P04ce2B0t3WG/3Qq1V39+ofhY1NoqhHnhrzxC1ZoH6qy0uSLAoTVaDfBbZs6Je+puOgIcbRkZjz5YCOjqkKiUhPi20XFzHqh9mvSY1fu29ZXHhsx5oM5KmysCHFqjlQCfv2RNVaAT4GjG38vvkK6nXxbKWvNA7dP7q9Z77Z0rax6os9LmigCH1nAB7p//ToazH+BWeAtWgOso6BPOXVh93jtNXyiU1cmgQ1QGePFQeS3pZNAnJNtrArxHkMPjfki7AJ85a5EZ3gI9cFQVCrMSnz1JuFjzQO2TPBa1tM7vq1z/ScmjVK15oM5Kmyt64NA+5OpzuQrdHVaXv9Izn1wIbxkuvfC4oAcBjqxg8PU+738CvPO6acNrFeu/lm5c/5o5D9RZaXNFgEP7kACXsLZuI3PhngxxAhx9dXEjF00VD+V+bTH3Hndag2Pj0UceKr7fu5bOnL0nGhg7bc4DdVbaXBHg0BoSzn4Yv/nm29H06++MJf/LMD/A3Wf/CnSBAEd3byrfB15P92w6Ys4DtU/LvbfFpUnC++mBE+b0qPPS5ooAh9ZwPWr/IjY5B66jY5IBLrgQd2UJcCSauqL4jvBa+vgjA+a0qH2SJ7B9vBDObp1f+/RIdNacgdLnMwseyFvIpJw1PeqOtLkiwCFbCHAkGj58OvreyrQQL18J/YtCeFjTo/boomX7Sut61Z5yD/vEW/+M5ZdF2UmbKwIcsoUAR77mbzsW/fCpkWjS4n2xpj11IFrw6rH4gSEuWO56kad/dUJyQZpbx3/YOFYxTqsH9SMQqR0EOGQLAY4sqR0Vfnz4wfKh3aU7j1eURxPT3MKOk1u38hKT5Hi1g/oRiNQOAhyyhQBHltSOCj/WDZ0qhczn5g9Gm/e/XjENak1yqNytV5FVRu2gfgQitYMAh2whwJEltaPKj796V6x/e9lw/LrRZBnUuBZvL/e8Rc8PnzLLqR3Uj0CkdhDgkC0EOLKkdph+/Gj1aClwLi6E+HauiG5Jc7YerQjvJ3al3xamdlA/ApHaQYBDthDgyJLakeqHBLcLHnkQzIvDHE5vRn/bXHnvvX/FuSW1g/oRiNQOAhyyhQBHltSOmn78eNWBUgCdv3AwWjt00iyHKvXn5yvf971msP56UzuoH4FI7SDAIVsIcGRJ7ajrx++853Z/cu5g/BQxq5zorZuvjsbvvcMcJ8PTxoWqI+vXRW9f//3o2Konozdum2GWSeqWZ8vr6wOzdkXrGghvkdpB/QhEagcBDtlCgCNLaofphwTXvy47L4ou+nRN/eOnl0YHh8v3jI/tGozemT4lnl7C2prGlwS+/70yvcxT/vrDs5T8juNLF8XLKn+tMiJZ5rHp347OvWt9HN7/+eDu6Ll99gVrltQO6kcgUjsIcMgWAhxZUjtSA1yC2A/SedsqL8h6cvGquHfqB7hIAs8P5mTPO/nZV1qAW8vjJN9l7RxY8gO4kZ2Ud6+cbH6nSIa7nRX5/IelL0c7r7wwDnB5jvkL+xsPb5HaQf0IRGoHAQ7ZQoAjS2pHaoA30gM/cvW3qwLcSQJOAtCaTiTzd+EngW6V8QNUyvjTWEqGaiflf9fPnhmNg1sC/ML7N7Z0/7zaQf0IRGoHAQ7ZQoAjS2pHaoCn9Xif3F18KMlltz8WbfrBZdGf19gvQJFp/d609H5dz1tCX3rvyaB1h6r9Yb5kfK0QzyLA//rQinh9SIAP/eCiaOfWPWb5elI7qB+BSO0gwCFbCHBkSe1IDfBGeuDS4zzjns3R9WsPVkwjIewCXC7+Sk53+s7fmAGednhdgtudb/f/T5brdoAfufLr8Y6MBPgVs5+P3jIO/zcqtYP6EYjUDgIcsoUAR5bUjpb9kCeK+S9AuWb1gXi4BLAf4C7Q6vXA03rlolqh7avRAJdytQ7vW/KPDLxY+O1/mrU8Ojr1y3GAT1kyHO19daDi9zYrtYP6EYjUDgIcsoUAR5bUjio/mrkoTPTWpV8o9UKvXHkgGrvr9ooAP7T5lfivKy/BKcOSYS3/yzArpNMCXKZp5EiBU71z6DJ/+R75Pmu86N5Nh6NPzRuMf/P+y78W/WT+i9HQodOl30uA94bUDgIcsoUAR5bUDtOP5KFs16v2yzjtOng6umR5+alt8355UzR83VUVAe4CXQJS/rcCXIanBWe7e+BpqhXgz+87GU17aqT0O2fcfF80ctXF0YF9xdeCpgW4zCtt3flSO6gfgUjtIMAhWwhwZEntSA3wZO9VAlcCKjlcwkleeDJ9VTHcHvzFjdG6q74fXVPomZ665pKGeuDJgLZ61v74NE00wGW6d6+YVDX93YVe9yfmDJTCe/LDW6JjP/52xU6OFeDud6TtmPhSO6gfgUjtIMAhWwhwZEntSA1wqwcuAeoHr1yg5ofdw68ciRbfcHMc4O62qjuXvxztGSu/DMXtHLjD2cl5WiEsAdhIkE8kwGVa2bnwe8vP7j0ZXbGy/DhZ0TVPj0RH7v5DxS1ubno/wN0yNxLeIrWD+hGI1A4CHLKFAEeW1I4qPyTAXFj6csEm4SlBJcOS4eTCWSQh7kLvS48ORY9sOVpRNk3JIBTJ97jvl//TQlymkWBtNDSd3G/2w/uuFw9HH5+9p/Qbzls4GL9dTOZtnUt3y+3GW2VqSe2gfgQitYMAh2whwJEltaMhP1wPXOQHk/9Zgsv1SiVc5fC5C/M0JXuxTjI/mW+9cpZkOfzv8OUfVfDL+sEtzy6/fOX+UnCLrls7Gu0YHY+XIa2HL+NkOa3vaURqB/UjEKkdBDhkCwGOLKkdHffjtudeiz7yULkne+Yje6L/faH2uexmdODwaXN4K7qzsFwfe3h3aVknPbY3Wrj9mFm23VI7qB+BSO0gwCFbCHBkSe3oih9/HzoVfTfRq714+XC0Ynf6m81qaeGrx6JLvSvfRXKFeCOv7UzqheFT8Q6FLI8/vxvWvRYNeufuOy21g/oRiNQOAhyyhQBHltSOrvpx76ZD0WfnDVYE5ZQl+6Jbn30teqrBMJ+xdrRi+qTuerF+716eVX73S4ejS1dU7lSIvr54X/T4ju70un2pHdSPQKR2EOCQLQQ4sqR2dN2Plw+8Hl37dPl+al/nLRyKfv7MaPRYymFr/13btSQXmyWn3ToyHt27+XB08bLKnrbTBYv3Rr/d8Fq0/3DldN2S2kH9CERqBwEO2UKAI0tqR2Z+LCqE9K/+fjCa5D2O1dfHZu+JD7s/8MqRaGDsdKHXfMosZ+nzC4bi79g+Oh73tL+11A7tbzy+Lz5Hv3ao+UPv7ZbaQf0IRGoHAQ7ZQoAjS2pHEH7I/dZyAdl3VuyPPupdRObrnPl66P0+b7j73x+mklvXksNEEtryXfKd1rJkJbWD+hGI1A4CHLKFAEeW1I4g/Vi0/Xh869b5CyvPl7cqCW25r3tToRdvfV8IUjuoH4FI7SDAIVsIcGRJ7Qjej03Dp+JHmVZc/DarMqBjxb3wncX/Z+2Or1KX0N422r0ryScitYP6EYjUDgIcsoUAR5bUjtz4IYe9q0K7hlbuau0WtaykdlA/ApHaQYBDthDgyJLakRs/WrmILU9SO6gfgUjtIMAhWwhwZEntyJUfE7mNLHSpHdSPQKR2EOCQLQQ4sqR25M6PdjzIJUSpHdSPQKR2EOCQLQQ4sqR25NKPdj5KNRSpHdSPQKR2EOCQLQQ4sqR25N6Pdr7MJEupHdSPQKR2EOCQLQQ4sqR24EcgUjvwIxCpHQQ4ZAsBjiypHfgRiNQO/AhEagcBDtlCgCNLagd+BCK1Az8CkdpBgEO2EODIktqBH4FI7cCPQKR2EOCQLQQ4sqR24EcgUjvwIxCpHQQ4ZAsBjiypHfgRiNQO/AhEagcBDtlCgCNLagd+BCK1Az8CkdpBgEO2EODIktqBH4FI7cCPQKR2EOCQLQQ4sqR24EcgUjvwIxCpHQQ4ZAsBjiypHfgRiNQO/AhEagcBDtlCgCNLagd+BCK1Az8CkdpBgEO2EODIktqBH4FI7cCPQKR2EOCQLQQ4sqR24EcgUjvwIxCpHQQ4dJZbZs6J3nvGlFhnT5oWDewdqTCbAEeW1A78CERqB34EIrWDAIfOMX/Jmmj69XdGb775dmzwxs3bq0KcAEeW1A78CERqB34EIrWDAIfOcOzEqeiCqTMiCW0d9B4Jcgl0CXYdRIAjU2oHfgQitQM/ApHaQYBDZ5Be9uRCgCcPmcshdZF+JMCRKbUDPwKR2oEfgUjtIMChM6QFePKwuhXgcUEAAAiOZHtNgPcgBDgAQO+RbK8J8B4kLcA5hI4akdqBH4FI7cCPQKR2BOEHAd6DcBEbmojUDvwIRGoHfgQitYMAh87BbWSoVakd+BGI1A78CERqBwEOnYUHuaBWpHbgRyBSO/AjEKkdBDhkSygBjhBCqHkR4H0MAY4QQvkVAd7HEOAIIZRfEeB9DAGOEEL5FQHex4j5CCGE8ittzgEAAAAAAAAAAAAAAAAAAAAAAAAAepi0N6U55Bnu7vGvIv+FLNB+avkh6973wsl/xj60h+R2bz36WKB+dIdG/KB+QN/gb+xpjZOUkbeoydvU5LOUkbI0Uu2nFT+gM0hj/8tb76vwQAIk6Qv1ozu06gdAzyMVwOrxSaVJvu5USL7DHNpLmh8CDVR2yDqXde/CmfqRLUk/BOoH9B1pgWFVEEEaLA5JdQ4CPEzED793Tf3IlqQfAvUD+o60wEhroKgknSXND0HWvTvM7kRvrzvIeva3e+pHtiT9EKgf0HcQ4GFRK8CTOI9opDqLdb6V+pEdlh8W1A/oedICI62B4hBhZ0nzIw3xg8DoHGlhQf3IhkbD20H9gJ4mLTC4SCcb0vxIg8DoHLKdp4UF9aP71PIjDeoH9DS1AiN5OFDKSAVK9jqgfdTyY+asRRXDnR/JEIGJI2FRr+dG/egejfhB/YC+QRqZ5AUf1t6tbPx+GRqnztCIH0kvRPjRfiQkJCyS61qU7M1RPzpPo35QPwAAAAAAAAAAAAAAAAAAAAAAAAAAAAAAAAAAAAAAAAAAAAAAAAAAAAAAAAAAAAAAAAAAAAAAAACgh5FXOMqrHNNeQZt87aZ7N3PydY9OMo0WnRDu1ZPJ7wcAAIACErgSlBKYOijGBfsvb70vmnr1LVXjBVem2Xc13zJzTkNB7+bfrp0CAACAnsD1cq0Alp725MK45as3pga4lEkbVwurZ5+GLJt1dAAAAKBvqRWkbtzWHYOlkJZhIglV6/C5Py+3c2CVS5P0zOMv96AXDgAA4FErGN04CWr/nLcrK8OTh91lmB/gtfDnr4Nq0sy8AQAAMkV6o1ZISpD6wed6ulbvtRYynfSsrUPT7nsksK3D5G58Us2ErMy70WWWZZDD+RxGBwCA4JGQTJ77lcCToPSDT8ZLOT/UG6FWKLrvqRXg9XrgMq0f7o3K9fJ93E5Ks78RAACg67jQcoHmPku4+uEp45Nh2ghWMAsuiOXq84kEeCPI/BuZRr5Hvo8ABwCA4JFQk3BzvW0XmoP7RivCTMY3G5xCWg985qxF8TCZb60At3rPzS5Ho8FMgAMAQK7we9cSqC7M3f8u5KVcPEETyDwlmJMB7rACXP6XnvmaDS+XlkuLp/bA3TJagS+6ZPrv6t4mJuM4Bw4AALlBQtGd3/Z7oP7nVs5/C/XC3wpw+R6ZptEAl2ES0rWWT75DytTaCZFx1s4BAABAkEhASlBKL9UPTDdcQjYZpM1QKxhdgLvvcj1mGeaCOSl/XvV2EBqlXfMBAADoKhKkEo7yVwfFpA1vBhfOVg/ZBbh+rELGufH+/w4XvLV6340g09c7xA4AABAcEowS1MkgdL3gZHA2i0xv9eLTAtwFs8iFqjytzR0RiAspacveKG4HY6K/EQAAoOdwgZzs5VoBLuNrXUwm0yRD3M1fgryWkt/lwlumlXnoYAAAAAAAAAAAAAAAAAAAAAAAAAAAAAAAAAAAAAAAAAAAAAAAAAAAAAAAAAAAAAAAAAAAAAAAAAAAAAAAAAAAAAAAAAAAAADIkPe85/8BFoUtKCZaPJkAAAAASUVORK5CYII=;" vertex="1" parent="1">
          <mxGeometry x="480" y="1997" width="496" height="502" as="geometry" />
        </mxCell>
      </root>
    </mxGraphModel>
  </diagram>
</mxfile>
